<svg xmlns="http://www.w3.org/2000/svg" version="1.1" xmlns:xlink="http://www.w3.org/1999/xlink" xmlns:svgjs="http://svgjs.dev/svgjs" viewBox="0 0 800 800" opacity="1"><defs><filter id="bbburst-blur-1" x="-100%" y="-100%" width="400%" height="400%"><feGaussianBlur in="SourceGraphic" stdDeviation="1"></feGaussianBlur></filter><filter id="bbburst-blur-2" x="-100%" y="-100%" width="400%" height="400%"><feGaussianBlur in="SourceGraphic" stdDeviation="2"></feGaussianBlur></filter><filter id="bbburst-blur-3" x="-100%" y="-100%" width="400%" height="400%"><feGaussianBlur in="SourceGraphic" stdDeviation="4"></feGaussianBlur></filter><filter id="bbburst-blur-4" x="-100%" y="-100%" width="400%" height="400%"><feGaussianBlur in="SourceGraphic" stdDeviation="12"></feGaussianBlur></filter><symbol id="bbburst-shape-1" viewBox="0 0 194 167"><path d="m97 0 96.129 166.5H.871L97 0Z"></path></symbol><symbol id="bbburst-shape-2" viewBox="0 0 126 115"><path d="m63 0 62.77 43.877-23.976 70.996H24.206L.23 43.877 63 0Z"></path></symbol><symbol id="bbburst-shape-4" viewBox="0 0 149 143"><path d="M71.647 2.781c.898-2.764 4.808-2.764 5.706 0l15.445 47.534a3 3 0 0 0 2.853 2.073h49.98c2.906 0 4.115 3.719 1.764 5.427L106.96 87.193a2.999 2.999 0 0 0-1.09 3.354l15.445 47.534c.898 2.764-2.266 5.062-4.617 3.354l-40.435-29.378a3 3 0 0 0-3.526 0l-40.435 29.378c-2.351 1.708-5.515-.59-4.617-3.354L43.13 90.547a3 3 0 0 0-1.09-3.354L1.605 57.815c-2.35-1.708-1.142-5.427 1.764-5.427h49.98a3 3 0 0 0 2.853-2.073L71.647 2.781Z"></path></symbol><symbol id="bbburst-shape-5" viewBox="0 0 145 145"><circle cx="72.5" cy="72.5" r="72.5"></circle></symbol><symbol id="bbburst-shape-6" viewBox="0 0 133 116"><path d="M59.7487 10.2513c-13.6683-13.66839-35.8291-13.66839-49.4974 0-13.66839 13.6683-13.66839 35.8291 0 49.4974l49.4974-49.4974ZM66.5 66.5 41.7513 91.2487 66.5 115.997l24.7487-24.7483L66.5 66.5Zm56.249-6.7513c13.668-13.6683 13.668-35.8291 0-49.4974-13.669-13.66839-35.8294-13.66839-49.4977 0l49.4977 49.4974Zm-112.4977 0 31.5 31.5 49.4974-49.4974-31.5-31.5-49.4974 49.4974Zm80.9974 31.5 31.5003-31.5-49.4977-49.4974-31.5 31.5 49.4974 49.4974Z"></path></symbol><symbol id="bbburst-shape-8" viewBox="0 0 87 168"><path d="m12 12 31.2546 18.0749c16.4102 9.4902 20.014 31.6325 7.4603 45.8369L36.3296 92.1884c-12.5684 14.2206-8.9394 36.3916 7.5068 45.8636L75 156" stroke-width="14" stroke-linecap="round" stroke-linejoin="round"></path></symbol><symbol id="bbburst-shape-9" viewBox="0 0 182 172"><path d="M13.5809 69.845 91 13.5967l77.419 56.2483-29.571 91.012H43.1524L13.5809 69.845Z" stroke-width="22"></path></symbol><symbol id="bbburst-shape-10" viewBox="0 0 145 145"><circle cx="72.5" cy="72.5" r="61.5" fill="none" stroke-width="22"></circle></symbol><symbol id="bbburst-shape-12" viewBox="0 0 170 151"><path d="M69.3728 54.2122 85 10.0031l15.627 44.2091c1.413 3.9958 5.19 6.6672 9.428 6.6673h49.312l-39.149 26.1447c-3.803 2.5401-5.399 7.3367-3.875 11.6488l15.179 42.94-40.9683-27.36c-3.3621-2.245-7.7453-2.245-11.1074 0l-40.9682 27.36 15.1785-42.94c1.5243-4.3121-.0712-9.1087-3.8746-11.6488L10.6333 60.8795h49.3112c4.2381-.0001 8.0159-2.6715 9.4283-6.6673Z" stroke-width="12"></path></symbol><symbol id="bbburst-shape-13" viewBox="0 0 159 159"><path stroke-width="22" d="M11 11h137v137H11z"></path></symbol><symbol id="bbburst-shape-14" viewBox="0 0 185 109"><path d="M168 16.5C168 58.1975 134.197 92 92.5 92 50.8025 92 17 58.1975 17 16.5" stroke-width="33" stroke-linecap="round"></path></symbol></defs><use xlink:href="#bbburst-shape-6" width="31.453567911756615" opacity="0.16474492680203268" transform="matrix(0.9532121269987279,0.80863257474737,-0.80863257474737,0.9532121269987279,339.5278886511153,77.84615873156764)" fill="#93ff8d" filter="url(#bbburst-blur-3)"></use><use xlink:href="#bbburst-shape-2" width="24.736439508073456" opacity="0.3918719035051158" transform="matrix(0.983595087917406,-0.18039041832855296,0.18039041832855296,0.983595087917406,579.8133022669117,80.37702756974255)" fill="#3db2ff" filter="url(#bbburst-blur-2)"></use><use xlink:href="#bbburst-shape-13" width="8.133528281600332" opacity="0.8645863846820521" transform="matrix(0.9321469573763335,0.3620801704789203,-0.3620801704789203,0.9321469573763335,538.5105854386401,-35.21481898248015)" fill="none" stroke="#43ff43"></use><use xlink:href="#bbburst-shape-6" width="35.55167309479717" opacity="0.2362648755465554" transform="matrix(1.1849161633688503,0.3980875353326754,-0.3980875353326754,1.1849161633688503,841.2136209240663,-243.16040317553538)" fill="#ff6060" filter="url(#bbburst-blur-3)"></use><use xlink:href="#bbburst-shape-4" width="29.60794515191686" opacity="0.23875437981885217" transform="matrix(1.1711904011640197,0.43682152444821487,-0.43682152444821487,1.1711904011640197,895.2796584875632,-18.603681057672077)" fill="#43ff43" filter="url(#bbburst-blur-3)"></use><use xlink:href="#bbburst-shape-6" width="17.81170384464897" opacity="0.6863034601453195" transform="matrix(0.9684519644577011,-0.2492003060552287,0.2492003060552287,0.9684519644577011,263.42867773323655,-123.46572191867318)" fill="#7027a0" filter="url(#bbburst-blur-1)"></use><use xlink:href="#bbburst-shape-1" width="16.09776532496704" opacity="0.7335514082239163" transform="matrix(0.9779191442588275,-0.2089836053188923,0.2089836053188923,0.9779191442588275,265.85070352373697,122.57981745884149)" fill="#7027a0" filter="url(#bbburst-blur-1)"></use><use xlink:href="#bbburst-shape-1" width="12.235111320244558" opacity="0.7450330514084743" transform="matrix(0.9479854330296821,0.3183137112402264,-0.3183137112402264,0.9479854330296821,471.8012358963699,-84.52906225820988)" fill="#3db2ff" filter="url(#bbburst-blur-1)"></use><use xlink:href="#bbburst-shape-13" width="28.486550713818758" opacity="0.1651216029585476" transform="matrix(1.0275934472129034,-0.7117244601986795,0.7117244601986795,1.0275934472129034,187.08312760862884,364.7232181842708)" fill="none" stroke="#ff6060" filter="url(#bbburst-blur-3)"></use><use xlink:href="#bbburst-shape-1" width="17.020190751787865" opacity="0.7636354676357239" transform="matrix(0.7172211251071753,0.6968456484042916,-0.6968456484042916,0.7172211251071753,593.5503905399885,178.3406426746484)" fill="#f52626" filter="url(#bbburst-blur-1)"></use><use xlink:href="#bbburst-shape-14" width="11.863134463051397" opacity="0.8127088826659356" transform="matrix(0.8617402535185759,-0.5073497171239386,0.5073497171239386,0.8617402535185759,193.42969516414493,-25.9410468744274)" fill="none" stroke="#7027a0"></use><use xlink:href="#bbburst-shape-8" width="47.21708315095817" opacity="-0.08499743299800455" transform="matrix(1.5157741171080608,-0.8746020957585678,0.8746020957585678,1.5157741171080608,-331.03100102736704,159.42153985434754)" fill="none" stroke="#93ff8d" filter="url(#bbburst-blur-4)"></use><use xlink:href="#bbburst-shape-12" width="8.034121879772156" opacity="0.9089823553897087" transform="matrix(0.995987558509849,-0.0894918057343243,0.0894918057343243,0.995987558509849,367.5294647119814,42.24694021893794)" fill="none" stroke="#ff6767"></use><use xlink:href="#bbburst-shape-10" width="9.802656584588917" opacity="0.7789472245397482" transform="matrix(0.986435774527147,-0.16414768573765393,0.16414768573765393,0.986435774527147,308.77787658020344,-91.05989253543669)" fill="none" stroke="#fee440"></use><use xlink:href="#bbburst-shape-10" width="42.530781381705154" opacity="0.16102834831319746" transform="matrix(1.1843593999231414,0.3997409308711034,-0.3997409308711034,1.1843593999231414,796.3747404924776,-354.39549008858734)" fill="none" stroke="#801fff" filter="url(#bbburst-blur-3)"></use><use xlink:href="#bbburst-shape-2" width="28.201045841992475" opacity="0.1769107247242877" transform="matrix(1.035567069927161,0.7000720274960816,-0.7000720274960816,1.035567069927161,1035.5623108842037,-37.544329475488496)" fill="#ff6060" filter="url(#bbburst-blur-3)"></use><use xlink:href="#bbburst-shape-10" width="7.545353684741853" opacity="0.8448924174520157" transform="matrix(0.8709746896588099,-0.49132788438449115,0.49132788438449115,0.8709746896588099,219.39481029158628,-13.638593411781756)" fill="none" stroke="#ff6060"></use><use xlink:href="#bbburst-shape-8" width="15.136475545305977" opacity="0.7403199544415511" transform="matrix(0.9684090229384491,-0.2493671275276644,0.2493671275276644,0.9684090229384491,394.2556812983552,-43.676166303991636)" fill="none" stroke="#ff0075" filter="url(#bbburst-blur-1)"></use><use xlink:href="#bbburst-shape-8" width="12.645660827069484" opacity="0.8511179771090991" transform="matrix(0.8912216001189593,0.453568142048581,-0.453568142048581,0.8912216001189593,512.1157721402271,19.81334408187405)" fill="none" stroke="#ffa6d5"></use><use xlink:href="#bbburst-shape-14" width="15.534183810468026" opacity="0.6407265204653082" transform="matrix(0.762416335336713,0.6470868037688118,-0.6470868037688118,0.762416335336713,804.3146763274981,146.69434632239307)" fill="none" stroke="#93ff8d" filter="url(#bbburst-blur-1)"></use><use xlink:href="#bbburst-shape-4" width="35.665955295478334" opacity="0.1250537712371268" transform="matrix(1.200057937343486,0.34980129647972646,-0.34980129647972646,1.200057937343486,222.62310133687637,-345.9757271135373)" fill="#ff5c58" filter="url(#bbburst-blur-3)"></use><use xlink:href="#bbburst-shape-13" width="9.878434782699632" opacity="0.9260460664317693" transform="matrix(0.9960687154217018,-0.08858393848864951,0.08858393848864951,0.9960687154217018,343.05766718318057,30.859942118695187)" fill="none" stroke="#ffffff"></use><use xlink:href="#bbburst-shape-14" width="16.43789631114997" opacity="0.7752777801825619" transform="matrix(0.9699906251989734,0.2431423184600012,-0.2431423184600012,0.9699906251989734,389.1591196425639,-4.193845945185274)" fill="none" stroke="#801fff" filter="url(#bbburst-blur-1)"></use><use xlink:href="#bbburst-shape-12" width="11.013605097135834" opacity="0.9210477295913753" transform="matrix(0.9787739390405571,-0.20494286095161188,0.20494286095161188,0.9787739390405571,337.7955391240142,34.677594109178585)" fill="none" stroke="#ff0075"></use><use xlink:href="#bbburst-shape-9" width="23.280158944578915" opacity="0.549044468867923" transform="matrix(0.807267491962829,0.5901857304442761,-0.5901857304442761,0.807267491962829,821.5957117872192,13.31958352978404)" fill="none" stroke="#801fff" filter="url(#bbburst-blur-2)"></use><use xlink:href="#bbburst-shape-5" width="36.94534245767585" opacity="0.3174452683071436" transform="matrix(0.8856921015324205,0.8820711429828574,-0.8820711429828574,0.8856921015324205,837.7609373518176,319.3953269929593)" fill="#ffa6d5" filter="url(#bbburst-blur-3)"></use><use xlink:href="#bbburst-shape-5" width="25.698339876397018" opacity="0.4828635388326077" transform="matrix(0.9326944651422227,0.36066748494016376,-0.36066748494016376,0.9326944651422227,399.0799577482379,-168.53040534020494)" fill="#3db2ff" filter="url(#bbburst-blur-2)"></use><use xlink:href="#bbburst-shape-14" width="23.227105143193757" opacity="0.5322999702721809" transform="matrix(0.8281688860694254,-0.5604786313023246,0.5604786313023246,0.8281688860694254,314.3829284530337,224.7325169310119)" fill="none" stroke="#7027a0" filter="url(#bbburst-blur-2)"></use><use xlink:href="#bbburst-shape-4" width="9.718305165950234" opacity="0.8403254544373445" transform="matrix(0.99884917713489,-0.04796166528544578,0.04796166528544578,0.99884917713489,432.47181937324245,-43.67790245874943)" fill="#43ff43"></use><use xlink:href="#bbburst-shape-14" width="29.654676927402637" opacity="0.3824722581065001" transform="matrix(0.9796895298119568,0.2005203859382556,-0.2005203859382556,0.9796895298119568,339.59496801732774,-242.44968401504508)" fill="none" stroke="#ff6060" filter="url(#bbburst-blur-2)"></use><use xlink:href="#bbburst-shape-5" width="34.551728280137446" opacity="0.30055317728489606" transform="matrix(1.249685634630947,-0.028032384790581108,0.028032384790581108,1.249685634630947,118.56356512720885,93.61090145401874)" fill="#ff6060" filter="url(#bbburst-blur-3)"></use><use xlink:href="#bbburst-shape-12" width="32.38023779740182" opacity="0.0626570167246776" transform="matrix(1.6819581253256117,0.4832358271601493,-0.4832358271601493,1.6819581253256117,781.3310315071491,82.0489768752567)" fill="none" stroke="#ff0075" filter="url(#bbburst-blur-4)"></use><use xlink:href="#bbburst-shape-4" width="9.57955471746473" opacity="0.8936685770813302" transform="matrix(0.8843757367741849,-0.46677570224371956,0.46677570224371956,0.8843757367741849,251.95353548922492,27.291826701949333)" fill="#f52626"></use><use xlink:href="#bbburst-shape-10" width="8.554500751692649" opacity="0.9180637458145069" transform="matrix(0.998763379144983,0.04971632004578415,-0.04971632004578415,0.998763379144983,391.68583125907446,-27.769906584899502)" fill="none" stroke="#ffa6d5"></use><use xlink:href="#bbburst-shape-10" width="18.888364551717775" opacity="0.5948684544129026" transform="matrix(0.9400519600031423,0.34103124855979183,-0.34103124855979183,0.9400519600031423,517.4073763779635,-161.26924795603713)" fill="none" stroke="#ffa6d5" filter="url(#bbburst-blur-1)"></use><use xlink:href="#bbburst-shape-6" width="36.80354984190867" opacity="0.18181475394691093" transform="matrix(1.2119424806744818,0.3060970818818488,-0.3060970818818488,1.2119424806744818,137.316577757046,-153.0228397448018)" fill="#ffa6d5" filter="url(#bbburst-blur-3)"></use><use xlink:href="#bbburst-shape-13" width="22.446063258650742" opacity="0.46080616077215086" transform="matrix(0.840200364929904,0.5422760798446269,-0.5422760798446269,0.840200364929904,658.372004166256,295.0740623265869)" fill="none" stroke="#ff5c58" filter="url(#bbburst-blur-2)"></use><use xlink:href="#bbburst-shape-6" width="22.610020314885038" opacity="0.620104735761716" transform="matrix(0.7368839511161477,-0.6760192619944013,0.6760192619944013,0.7368839511161477,266.1478460731593,22.15329046695024)" fill="#f52626" filter="url(#bbburst-blur-1)"></use><use xlink:href="#bbburst-shape-10" width="22.18381815075895" opacity="0.3794424077899442" transform="matrix(0.9399583335577364,-0.34128921924866473,0.34128921924866473,0.9399583335577364,171.73742455971927,294.9500713534103)" fill="none" stroke="#801fff" filter="url(#bbburst-blur-2)"></use><use xlink:href="#bbburst-shape-6" width="8.160171177203384" opacity="0.8985993751546804" transform="matrix(0.9875150084167239,0.15752494453805635,-0.15752494453805635,0.9875150084167239,469.9492227295724,-39.94102761698326)" fill="#f52626"></use><use xlink:href="#bbburst-shape-4" width="18.249476011359583" opacity="0.6759876614901126" transform="matrix(0.9867719601218204,-0.16211446177728983,0.16211446177728983,0.9867719601218204,186.67290209933532,-35.69383169769446)" fill="#ff0075" filter="url(#bbburst-blur-1)"></use><use xlink:href="#bbburst-shape-9" width="35.49602555311555" opacity="-0.0918429361588129" transform="matrix(1.6788230563544706,-0.49401735339219977,0.49401735339219977,1.6788230563544706,-183.91343945460537,-601.3772901898449)" fill="none" stroke="#ffffff" filter="url(#bbburst-blur-4)"></use><use xlink:href="#bbburst-shape-10" width="20.804215869455263" opacity="0.5685941817951834" transform="matrix(0.9133456668118723,-0.4071850843485996,0.4071850843485996,0.9133456668118723,271.52485252198187,-150.20661774833522)" fill="none" stroke="#ff6060" filter="url(#bbburst-blur-1)"></use><use xlink:href="#bbburst-shape-8" width="33.443227027115924" opacity="0.4329751568981397" transform="matrix(0.8203007824974528,0.571932361590133,-0.571932361590133,0.8203007824974528,376.27076336771984,152.25351479376877)" fill="none" stroke="#43ff43" filter="url(#bbburst-blur-2)"></use><use xlink:href="#bbburst-shape-5" width="35.19575889595335" opacity="0.3172661439051545" transform="matrix(1.2217311156182196,0.26433516816772745,-0.26433516816772745,1.2217311156182196,544.5712347167487,-394.5913759365237)" fill="#ff0075" filter="url(#bbburst-blur-3)"></use><use xlink:href="#bbburst-shape-4" width="17.355936649158718" opacity="0.6663350032977471" transform="matrix(0.8828403704365365,0.46967316330346043,-0.46967316330346043,0.8828403704365365,663.029558584238,168.03834162700622)" fill="#00a19d" filter="url(#bbburst-blur-1)"></use><use xlink:href="#bbburst-shape-10" width="31.126083818134102" opacity="0.26107111323992793" transform="matrix(0.9063473073822175,0.8608336415365074,-0.8608336415365074,0.9063473073822175,892.4046377747795,-266.22379216572347)" fill="none" stroke="#f52626" filter="url(#bbburst-blur-3)"></use><use xlink:href="#bbburst-shape-10" width="9.094983353202096" opacity="0.9630462570143383" transform="matrix(0.7446655275272163,-0.6674378264022894,0.6674378264022894,0.7446655275272163,131.64377574437418,121.67678113744478)" fill="none" stroke="#ff0075"></use><use xlink:href="#bbburst-shape-14" width="22.192977673095267" opacity="0.48653274576108463" transform="matrix(0.9235144950657882,-0.3835635245997491,0.3835635245997491,0.9235144950657882,5.492642263052971,44.83378025615235)" fill="none" stroke="#ff0075" filter="url(#bbburst-blur-2)"></use><use xlink:href="#bbburst-shape-2" width="36.407437964772846" opacity="0.0671786409178633" transform="matrix(1.3251160865200242,-1.143051773650632,1.143051773650632,1.3251160865200242,-439.8301528323111,109.13922148177892)" fill="#fee440" filter="url(#bbburst-blur-4)"></use><use xlink:href="#bbburst-shape-4" width="15.019870024451869" opacity="0.6846105683903538" transform="matrix(0.9722042082522144,0.23413452854434966,-0.23413452854434966,0.9722042082522144,587.9698391254584,-89.7028051350041)" fill="#ff6060" filter="url(#bbburst-blur-1)"></use><use xlink:href="#bbburst-shape-1" width="35.086228349120816" opacity="0.045058336443119074" transform="matrix(1.7428020143044158,0.1585595753540942,-0.1585595753540942,1.7428020143044158,788.5568519959936,-540.9248781144314)" fill="#ff0075" filter="url(#bbburst-blur-4)"></use><use xlink:href="#bbburst-shape-10" width="24.951974915320193" opacity="0.46619134090141734" transform="matrix(0.7391662109727677,0.6735230601517382,-0.6735230601517382,0.7391662109727677,685.7088392598436,-142.92364022275356)" fill="none" stroke="#ffa6d5" filter="url(#bbburst-blur-2)"></use><use xlink:href="#bbburst-shape-2" width="24.139572138569694" opacity="0.44417533911128615" transform="matrix(0.9677563450068756,0.2518881829283246,-0.2518881829283246,0.9677563450068756,739.0941842873247,2.849938350155753)" fill="#ff6767" filter="url(#bbburst-blur-2)"></use><use xlink:href="#bbburst-shape-8" width="19.18699320626296" opacity="0.7013252165922473" transform="matrix(0.7899381557755031,-0.6131865214190516,0.6131865214190516,0.7899381557755031,27.75329118213355,151.62812904276302)" fill="none" stroke="#93ff8d" filter="url(#bbburst-blur-1)"></use><use xlink:href="#bbburst-shape-4" width="14.733510139866116" opacity="0.8509120042366549" transform="matrix(0.8867752285236674,0.4622009239246471,-0.4622009239246471,0.8867752285236674,511.71163493312076,49.73730918559659)" fill="#801fff"></use><use xlink:href="#bbburst-shape-4" width="43.38680963807786" opacity="0.08195638230226365" transform="matrix(1.7497001650875261,0.03239339890601336,-0.03239339890601336,1.7497001650875261,10.436878820686296,-494.83904031717316)" fill="#00a19d" filter="url(#bbburst-blur-4)"></use><use xlink:href="#bbburst-shape-5" width="14.187972606562145" opacity="0.6723751825496773" transform="matrix(0.9673841906761851,0.253313694122095,-0.253313694122095,0.9673841906761851,416.4336481133725,-113.84020899997586)" fill="#7027a0" filter="url(#bbburst-blur-1)"></use><use xlink:href="#bbburst-shape-8" width="18.74760297059134" opacity="0.6808610541296559" transform="matrix(0.8869627251279716,-0.4618410161879976,0.4618410161879976,0.8869627251279716,63.52824407938817,56.95592226114013)" fill="none" stroke="#ff5c58" filter="url(#bbburst-blur-1)"></use><use xlink:href="#bbburst-shape-9" width="27.102317784561077" opacity="0.23858765713142027" transform="matrix(1.2475229983004923,-0.0786534723413379,0.0786534723413379,1.2475229983004923,179.83225073670357,198.2886278833974)" fill="none" stroke="#93ff8d" filter="url(#bbburst-blur-3)"></use><use xlink:href="#bbburst-shape-6" width="17.983799534797907" opacity="0.5981391033774719" transform="matrix(0.9345337111771828,0.35587461650615376,-0.35587461650615376,0.9345337111771828,382.05864882583404,121.1306583691744)" fill="#ffa6d5" filter="url(#bbburst-blur-1)"></use><use xlink:href="#bbburst-shape-14" width="24.682108019561127" opacity="0.5292705913763176" transform="matrix(0.9186972862897931,0.3949623984175834,-0.3949623984175834,0.9186972862897931,643.0375028737517,216.2976745027516)" fill="none" stroke="#ff5c58" filter="url(#bbburst-blur-2)"></use><use xlink:href="#bbburst-shape-12" width="25.422481241720597" opacity="0.43898466717052154" transform="matrix(0.880387514708458,-0.4742550199475644,0.4742550199475644,0.880387514708458,-0.5090660319923757,-100.7523214046596)" fill="none" stroke="#ff0075" filter="url(#bbburst-blur-2)"></use><use xlink:href="#bbburst-shape-9" width="34.19182796981374" opacity="0.24310809955402912" transform="matrix(1.1202426652736102,0.5545776509206608,-0.5545776509206608,1.1202426652736102,290.22148919227357,77.43893902381984)" fill="none" stroke="#ff6767" filter="url(#bbburst-blur-3)"></use><use xlink:href="#bbburst-shape-8" width="11.067149569256983" opacity="0.734105208898949" transform="matrix(0.8447375398787655,-0.5351808000288978,0.5351808000288978,0.8447375398787655,186.40365922155286,-54.47530949126764)" fill="none" stroke="#ff0075" filter="url(#bbburst-blur-1)"></use><use xlink:href="#bbburst-shape-8" width="11.875224436282956" opacity="0.8057724968073363" transform="matrix(0.8266579829417188,-0.562704699854843,0.562704699854843,0.8266579829417188,126.12328431893741,148.2633295105096)" fill="none" stroke="#ff0075"></use><use xlink:href="#bbburst-shape-5" width="13.289012145010876" opacity="0.7834525520018053" transform="matrix(0.8850829829327133,0.4654332533488883,-0.4654332533488883,0.8850829829327133,618.636082089597,132.459670128529)" fill="#7027a0"></use><use xlink:href="#bbburst-shape-12" width="28.90971904419578" opacity="0.18072032719727416" transform="matrix(0.9692011704291179,-0.7893979295886379,0.7893979295886379,0.9692011704291179,102.69417554338668,-343.5607601577231)" fill="none" stroke="#43ff43" filter="url(#bbburst-blur-3)"></use><use xlink:href="#bbburst-shape-6" width="11.523011577530283" opacity="0.7829151310284453" transform="matrix(0.8262647093488872,0.5632820164754054,-0.5632820164754054,0.8262647093488872,692.514942118802,0.18567661526373058)" fill="#fee440"></use><use xlink:href="#bbburst-shape-1" width="24.934417093824443" opacity="0.17304322724192878" transform="matrix(1.065572337721116,-0.6534949067005468,0.6534949067005468,1.065572337721116,89.34129812325199,352.3379834979321)" fill="#93ff8d" filter="url(#bbburst-blur-3)"></use><use xlink:href="#bbburst-shape-6" width="35.879307635281556" opacity="0.23606423306739877" transform="matrix(1.0957293916414588,-0.6015622164772637,0.6015622164772637,1.0957293916414588,322.1601127902085,263.86550349997066)" fill="#ffa6d5" filter="url(#bbburst-blur-3)"></use><use xlink:href="#bbburst-shape-5" width="21.82784623252394" opacity="0.6102283415517241" transform="matrix(0.9707116836517466,-0.2402474291683292,0.2402474291683292,0.9707116836517466,238.7599852577311,181.0372170898567)" fill="#3db2ff" filter="url(#bbburst-blur-1)"></use><use xlink:href="#bbburst-shape-8" width="22.80523477192964" opacity="0.5438727606580808" transform="matrix(0.888113844362854,0.4596235410105018,-0.4596235410105018,0.888113844362854,712.1583071746919,-112.03211596642237)" fill="none" stroke="#fee440" filter="url(#bbburst-blur-2)"></use><use xlink:href="#bbburst-shape-13" width="12.406360414151584" opacity="0.8708147991754721" transform="matrix(0.9791851077077756,-0.2029692706872446,0.2029692706872446,0.9791851077077756,290.74849639438594,63.39892167406401)" fill="none" stroke="#ff6060"></use><use xlink:href="#bbburst-shape-2" width="10.419955904132417" opacity="0.818444253596185" transform="matrix(0.9790104909965596,-0.20380985873768553,0.20380985873768553,0.9790104909965596,386.22667430210606,46.44595959382565)" fill="#00a19d"></use><use xlink:href="#bbburst-shape-2" width="7.4186672787332535" opacity="0.8713792105057572" transform="matrix(0.8797618987941589,0.4754145574444436,-0.4754145574444436,0.8797618987941589,619.9605649820668,-1.1735316071752209)" fill="#3db2ff"></use><use xlink:href="#bbburst-shape-4" width="11.353834717453585" opacity="0.8068978337058806" transform="matrix(0.9859557859463813,-0.16700655124531302,0.16700655124531302,0.9859557859463813,254.3208335939333,-40.12309441775221)" fill="#ff6060"></use><use xlink:href="#bbburst-shape-9" width="25.03656556743545" opacity="0.5676248118309428" transform="matrix(0.8090138481155688,-0.5877895827226265,0.5877895827226265,0.8090138481155688,-36.722342775800314,48.53352663006319)" fill="none" stroke="#fee440" filter="url(#bbburst-blur-1)"></use><use xlink:href="#bbburst-shape-5" width="7.592448608492337" opacity="0.936048272203358" transform="matrix(0.9962863499467101,0.0861017358121287,-0.0861017358121287,0.9962863499467101,430.7211209326228,-27.61959580523927)" fill="#801fff"></use><use xlink:href="#bbburst-shape-13" width="21.080473028366004" opacity="0.49977502688946296" transform="matrix(0.7504465967830991,-0.6609310897337669,0.6609310897337669,0.7504465967830991,71.68196741551628,-111.2273422389745)" fill="none" stroke="#fee440" filter="url(#bbburst-blur-2)"></use><use xlink:href="#bbburst-shape-12" width="32.78515052536852" opacity="0.3500816540458783" transform="matrix(0.7734602328689787,-0.6338448297259079,0.6338448297259079,0.7734602328689787,352.10578431703016,295.520049403532)" fill="none" stroke="#ff0075" filter="url(#bbburst-blur-2)"></use><use xlink:href="#bbburst-shape-10" width="19.012455760237327" opacity="0.676721745253807" transform="matrix(0.9478750872265643,-0.31864214883664244,0.31864214883664244,0.9478750872265643,403.49079408141273,-15.803347355155267)" fill="none" stroke="#ffa6d5" filter="url(#bbburst-blur-1)"></use><use xlink:href="#bbburst-shape-8" width="7.884387951850653" opacity="0.892350075702216" transform="matrix(0.7743704189027951,-0.632732529848363,0.632732529848363,0.7743704189027951,128.36838291232965,46.84565930160403)" fill="none" stroke="#fee440"></use><use xlink:href="#bbburst-shape-12" width="11.657037291252173" opacity="0.8541813412584619" transform="matrix(0.7393338230870242,0.673339066176562,-0.673339066176562,0.7393338230870242,677.7180919727641,164.7083870718822)" fill="none" stroke="#ff0075"></use><use xlink:href="#bbburst-shape-10" width="18.021792315566575" opacity="0.775867937023738" transform="matrix(0.9886507721016511,0.15023199001147935,-0.15023199001147935,0.9886507721016511,353.89258734803525,29.77492679186986)" fill="none" stroke="#ff6767" filter="url(#bbburst-blur-1)"></use><use xlink:href="#bbburst-shape-14" width="31.457693057444544" opacity="0.3898837306364463" transform="matrix(0.8339839660477693,0.5517886772807441,-0.5517886772807441,0.8339839660477693,780.2134858148249,-155.71951067562932)" fill="none" stroke="#fee440" filter="url(#bbburst-blur-2)"></use><use xlink:href="#bbburst-shape-13" width="22.07382817180632" opacity="0.5910081917356678" transform="matrix(0.9887921333958345,-0.1492987506127032,0.1492987506127032,0.9887921333958345,151.40564542942462,53.06387759109356)" fill="none" stroke="#ff6767" filter="url(#bbburst-blur-1)"></use><use xlink:href="#bbburst-shape-8" width="12.465619987559327" opacity="0.7373478423136794" transform="matrix(0.8136555491326789,-0.5813472691649963,0.5813472691649963,0.8136555491326789,58.44716749198537,21.897187741470873)" fill="none" stroke="#fee440" filter="url(#bbburst-blur-1)"></use><use xlink:href="#bbburst-shape-10" width="32.81492649344263" opacity="0.04924081359189936" transform="matrix(1.5711048425846998,-0.7707980108996817,0.7707980108996817,1.5711048425846998,298.8537220961516,-574.6577480359365)" fill="none" stroke="#ff6767" filter="url(#bbburst-blur-4)"></use><use xlink:href="#bbburst-shape-8" width="18.64297460573313" opacity="0.6929575534421715" transform="matrix(0.9937626275884672,0.11151609753064952,-0.11151609753064952,0.9937626275884672,332.3655119547951,-90.66574909918961)" fill="none" stroke="#93ff8d" filter="url(#bbburst-blur-1)"></use><use xlink:href="#bbburst-shape-2" width="6.497696835374018" opacity="0.9131171877625016" transform="matrix(0.9509587970055404,-0.30931758177926993,0.30931758177926993,0.9509587970055404,298.5995393078392,-9.085245698411484)" fill="#f52626"></use><use xlink:href="#bbburst-shape-4" width="11.200352753649103" opacity="0.8809950049224547" transform="matrix(0.7083743567165548,0.7058369292877833,-0.7058369292877833,0.7083743567165548,731.8899401786588,111.13961098719818)" fill="#ff0075"></use><use xlink:href="#bbburst-shape-14" width="33.0733507231853" opacity="0.13352811802940068" transform="matrix(1.0281235152313815,0.7109585342537688,-0.7109585342537688,1.0281235152313815,1032.4861680166623,113.81371401591389)" fill="none" stroke="#ff5c58" filter="url(#bbburst-blur-3)"></use><use xlink:href="#bbburst-shape-4" width="42.184442838785934" opacity="-0.08717896672215475" transform="matrix(1.6509108113318927,0.5805114064576778,-0.5805114064576778,1.6509108113318927,937.7439715581176,78.86010243210922)" fill="#801fff" filter="url(#bbburst-blur-4)"></use><use xlink:href="#bbburst-shape-8" width="44.69687990101863" opacity="0.14916470921023428" transform="matrix(1.0737063812805794,0.6400426601386529,-0.6400426601386529,1.0737063812805794,903.3188058156754,226.3831768628097)" fill="none" stroke="#fee440" filter="url(#bbburst-blur-3)"></use><use xlink:href="#bbburst-shape-6" width="9.932206856678896" opacity="0.75271384321184" transform="matrix(0.9077359309764073,0.4195419879039464,-0.4195419879039464,0.9077359309764073,625.6413165885892,-57.36033911018285)" fill="#ffa6d5" filter="url(#bbburst-blur-1)"></use><use xlink:href="#bbburst-shape-13" width="27.995301096708605" opacity="0.4002664508284002" transform="matrix(0.9753336941178393,0.22073555472204529,-0.22073555472204529,0.9753336941178393,727.3746137689731,-87.8879940834126)" fill="none" stroke="#ff6767" filter="url(#bbburst-blur-2)"></use><use xlink:href="#bbburst-shape-13" width="23.615801327103814" opacity="0.4580459836429829" transform="matrix(0.803878567735621,-0.5947934501449444,0.5947934501449444,0.803878567735621,-72.88162808052525,-7.476727270614504)" fill="none" stroke="#f52626" filter="url(#bbburst-blur-2)"></use><use xlink:href="#bbburst-shape-6" width="15.406562003819703" opacity="0.7661667970805757" transform="matrix(0.959785347328037,0.28073490530106765,-0.28073490530106765,0.959785347328037,607.7292466802223,-8.404090644523876)" fill="#fee440" filter="url(#bbburst-blur-1)"></use><use xlink:href="#bbburst-shape-14" width="32.82768566072825" opacity="0.05524499599088095" transform="matrix(1.7168143261421682,-0.3391881034957045,0.3391881034957045,1.7168143261421682,16.41948379458819,82.8653347913181)" fill="none" stroke="#ff6767" filter="url(#bbburst-blur-4)"></use><use xlink:href="#bbburst-shape-6" width="7.322696527824247" opacity="0.95169257275866" transform="matrix(0.8984575391746913,0.43906041759666525,-0.43906041759666525,0.8984575391746913,587.6980431974986,23.630341499547683)" fill="#ff0075"></use><use xlink:href="#bbburst-shape-13" width="44.01903536027158" opacity="0.1380466729798554" transform="matrix(0.9859594711271471,-0.7683644456211364,0.7683644456211364,0.9859594711271471,-200.65375532467738,299.43816184148983)" fill="none" stroke="#ff6767" filter="url(#bbburst-blur-3)"></use><use xlink:href="#bbburst-shape-10" width="10.233736493104667" opacity="0.8630733080840596" transform="matrix(0.8404693854053248,0.541859033510004,-0.541859033510004,0.8404693854053248,569.5701290350555,16.783897654878672)" fill="none" stroke="#00a19d"></use><use xlink:href="#bbburst-shape-4" width="24.827127284100094" opacity="0.12437292021801627" transform="matrix(1.2476098688133048,-0.07726328519839405,0.07726328519839405,1.2476098688133048,216.03784931930352,-467.29310936629975)" fill="#93ff8d" filter="url(#bbburst-blur-3)"></use><use xlink:href="#bbburst-shape-5" width="35.20085816419658" opacity="0.03776074210074909" transform="matrix(1.4850960283177677,0.925737428580476,-0.925737428580476,1.4850960283177677,1102.1339879435577,33.282373785276036)" fill="#f52626" filter="url(#bbburst-blur-4)"></use><use xlink:href="#bbburst-shape-8" width="18.722538060304835" opacity="0.6129808141422091" transform="matrix(0.8069191253591644,-0.5906619381080865,0.5906619381080865,0.8069191253591644,330.3305045371917,80.93629727179382)" fill="none" stroke="#ff6060" filter="url(#bbburst-blur-1)"></use><use xlink:href="#bbburst-shape-14" width="25.990955214589903" opacity="0.32325838355047054" transform="matrix(1.2470397214026272,-0.08597635281900237,0.08597635281900237,1.2470397214026272,587.7940618131572,-287.1599549485368)" fill="none" stroke="#3db2ff" filter="url(#bbburst-blur-3)"></use><use xlink:href="#bbburst-shape-1" width="22.79307581174491" opacity="0.5523153993303211" transform="matrix(0.9571026969125525,-0.2897489043339399,0.2897489043339399,0.9571026969125525,366.75105746228473,-157.93110833470735)" fill="#ff0075" filter="url(#bbburst-blur-2)"></use><use xlink:href="#bbburst-shape-10" width="30.104598248727278" opacity="0.4280621219430101" transform="matrix(0.9948748658733709,0.10111380347629204,-0.10111380347629204,0.9948748658733709,526.1383538227919,-236.33966498980763)" fill="none" stroke="#ff0075" filter="url(#bbburst-blur-2)"></use><use xlink:href="#bbburst-shape-4" width="33.11507628585479" opacity="0.19516861450769407" transform="matrix(1.2359649766563439,-0.1867901937438984,0.1867901937438984,1.2359649766563439,196.92943778823985,254.47314225052526)" fill="#43ff43" filter="url(#bbburst-blur-3)"></use><use xlink:href="#bbburst-shape-12" width="17.185406615238325" opacity="0.7988402966306892" transform="matrix(0.985402520587018,-0.1702406309338387,0.1702406309338387,0.985402520587018,316.9150559828048,97.55818293698496)" fill="none" stroke="#ff5c58"></use><use xlink:href="#bbburst-shape-10" width="25.63777336906599" opacity="0.5577641932884517" transform="matrix(0.7895252942325959,-0.6137180213802859,0.6137180213802859,0.7895252942325959,19.15861135092524,246.71811580335066)" fill="none" stroke="#ffa6d5" filter="url(#bbburst-blur-1)"></use><use xlink:href="#bbburst-shape-6" width="24.984367207469777" opacity="0.1465881718301123" transform="matrix(0.9219043671983382,0.8441518451917472,-0.8441518451917472,0.9219043671983382,852.3311810855223,-342.018646353673)" fill="#801fff" filter="url(#bbburst-blur-3)"></use><use xlink:href="#bbburst-shape-12" width="17.601369143512432" opacity="0.6206507006267914" transform="matrix(0.7370304823488157,-0.6758595032169571,0.6758595032169571,0.7370304823488157,171.8887164222175,274.71339766188595)" fill="none" stroke="#7027a0" filter="url(#bbburst-blur-1)"></use><use xlink:href="#bbburst-shape-6" width="9.339252766809208" opacity="0.8346322790590981" transform="matrix(0.924730309574857,-0.3806229821668537,0.3806229821668537,0.924730309574857,215.14883078197917,-36.94550437294936)" fill="#ff0075"></use><use xlink:href="#bbburst-shape-8" width="39.359487740771385" opacity="0.20308455101114087" transform="matrix(1.2337797248919868,-0.20071768842195603,0.20071768842195603,1.2337797248919868,102.1220388981871,-391.6108456715542)" fill="none" stroke="#3db2ff" filter="url(#bbburst-blur-3)"></use><use xlink:href="#bbburst-shape-5" width="31.531722692850128" opacity="0.3601762503245203" transform="matrix(0.7361255304630997,-0.6768450364746867,0.6768450364746867,0.7361255304630997,-165.07097076443708,61.78192825954511)" fill="#7027a0" filter="url(#bbburst-blur-2)"></use><use xlink:href="#bbburst-shape-10" width="28.594420029822203" opacity="0.47555744344182715" transform="matrix(0.8042681903872336,-0.5942665041302972,0.5942665041302972,0.8042681903872336,356.69413034544635,202.1189745908788)" fill="none" stroke="#ff6060" filter="url(#bbburst-blur-2)"></use><use xlink:href="#bbburst-shape-9" width="29.612475002179018" opacity="0.26403143211598323" transform="matrix(1.1541027624660225,-0.48015290654987763,0.48015290654987763,1.1541027624660225,480.41994763712125,105.79410573469005)" fill="none" stroke="#93ff8d" filter="url(#bbburst-blur-3)"></use><use xlink:href="#bbburst-shape-10" width="12.068360620438131" opacity="0.8139350228865292" transform="matrix(0.8630287047732225,0.5051548819297443,-0.5051548819297443,0.8630287047732225,680.3086107781933,58.51975144118347)" fill="none" stroke="#00a19d"></use><use xlink:href="#bbburst-shape-8" width="45.94268284038383" opacity="-0.09034083195021592" transform="matrix(1.4169033065756709,1.027075956205251,-1.027075956205251,1.4169033065756709,1123.5859416366707,-538.9318038943868)" fill="none" stroke="#43ff43" filter="url(#bbburst-blur-4)"></use><use xlink:href="#bbburst-shape-6" width="26.607413532556446" opacity="0.2996273676856307" transform="matrix(0.9566128869939303,0.8046066022828412,-0.8046066022828412,0.9566128869939303,1020.2105514649779,-43.85450441219746)" fill="#ff0075" filter="url(#bbburst-blur-3)"></use><use xlink:href="#bbburst-shape-5" width="8.950746184779716" opacity="0.9001777803347818" transform="matrix(0.8864938863379268,0.46274030458290416,-0.46274030458290416,0.8864938863379268,541.2994061180837,64.10243168121121)" fill="#ff0075"></use><use xlink:href="#bbburst-shape-9" width="17.722184811939165" opacity="0.6502004630736489" transform="matrix(0.7973097456387451,0.6035703517482279,-0.6035703517482279,0.7973097456387451,717.0684973497924,-58.34350607606166)" fill="none" stroke="#43ff43" filter="url(#bbburst-blur-1)"></use><use xlink:href="#bbburst-shape-9" width="18.484757490742837" opacity="0.6778055935855366" transform="matrix(0.963754468589515,0.2667907874604026,-0.2667907874604026,0.963754468589515,409.56479324458536,126.92744615631244)" fill="none" stroke="#ff5c58" filter="url(#bbburst-blur-1)"></use><use xlink:href="#bbburst-shape-8" width="16.827051883433654" opacity="0.6651421850032361" transform="matrix(0.7832602455795652,-0.6216939662684842,0.6216939662684842,0.7832602455795652,174.54522706337033,-55.78086026622583)" fill="none" stroke="#ff0075" filter="url(#bbburst-blur-1)"></use><use xlink:href="#bbburst-shape-4" width="13.877916170054558" opacity="0.7419281143499548" transform="matrix(0.9993014248719764,0.03737194467562102,-0.03737194467562102,0.9993014248719764,512.1921797665583,51.35195528833748)" fill="#7027a0" filter="url(#bbburst-blur-1)"></use><use xlink:href="#bbburst-shape-12" width="7.814465575962466" opacity="0.9622912648430545" transform="matrix(0.9613499091592294,-0.2753295337582612,0.2753295337582612,0.9613499091592294,274.8186827345169,3.853577899873301)" fill="none" stroke="#f52626"></use><use xlink:href="#bbburst-shape-14" width="22.598076729081537" opacity="0.588841004255456" transform="matrix(0.9999541056602315,-0.009580530948058441,0.009580530948058441,0.9999541056602315,225.04035499372222,-93.05016194725812)" fill="none" stroke="#ff0075" filter="url(#bbburst-blur-1)"></use><use xlink:href="#bbburst-shape-8" width="9.265913652165336" opacity="0.7808983484701707" transform="matrix(0.9942823304275464,0.10678317938499196,-0.10678317938499196,0.9942823304275464,465.211292560218,-93.00461779917805)" fill="none" stroke="#ff5c58"></use><use xlink:href="#bbburst-shape-6" width="18.917986840085554" opacity="0.6902205652307659" transform="matrix(0.777499650182609,-0.6288833707182283,0.6288833707182283,0.777499650182609,128.12090271208996,233.74481915831984)" fill="#93ff8d" filter="url(#bbburst-blur-1)"></use><use xlink:href="#bbburst-shape-9" width="19.53851058249583" opacity="0.5402175717841466" transform="matrix(0.9690632307292137,-0.24681259053917554,0.24681259053917554,0.9690632307292137,493.495718219298,60.67351939486133)" fill="none" stroke="#ff0075" filter="url(#bbburst-blur-2)"></use><use xlink:href="#bbburst-shape-10" width="21.276333651824945" opacity="0.49932396087315045" transform="matrix(0.7090071154485429,-0.7052013260362863,0.7052013260362863,0.7090071154485429,15.305525146972741,328.16230561801905)" fill="none" stroke="#43ff43" filter="url(#bbburst-blur-2)"></use><use xlink:href="#bbburst-shape-6" width="31.406584548246094" opacity="0.4038469975641722" transform="matrix(0.7757746095350029,-0.6310101070512372,0.6310101070512372,0.7757746095350029,284.59772505398695,322.5621008079592)" fill="#ffffff" filter="url(#bbburst-blur-2)"></use><use xlink:href="#bbburst-shape-14" width="19.189845965067178" opacity="0.7586956738925794" transform="matrix(0.9755509773091331,-0.21977327105723155,0.21977327105723155,0.9755509773091331,377.24994530764695,90.89973085273596)" fill="none" stroke="#00a19d" filter="url(#bbburst-blur-1)"></use><use xlink:href="#bbburst-shape-5" width="8.41256896798438" opacity="0.9083558320995866" transform="matrix(0.801606092923136,-0.5978525502065744,0.5978525502065744,0.801606092923136,117.75679185493672,70.81692749302834)" fill="#801fff"></use><use xlink:href="#bbburst-shape-8" width="33.10354743195994" opacity="0.4678583710569" transform="matrix(0.9728988467610428,0.23123112673477386,-0.23123112673477386,0.9728988467610428,286.62284369531903,153.0665388162082)" fill="none" stroke="#7027a0" filter="url(#bbburst-blur-2)"></use><use xlink:href="#bbburst-shape-14" width="10.236524080822639" opacity="0.9388025230730103" transform="matrix(0.7697190077258679,0.6383828390123792,-0.6383828390123792,0.7697190077258679,678.9062606634202,90.28828855323843)" fill="none" stroke="#ff6060"></use><use xlink:href="#bbburst-shape-5" width="40.96138456028151" opacity="0.27414035442439044" transform="matrix(1.1981207144355353,0.35638006908423236,-0.35638006908423236,1.1981207144355353,227.1450448438688,-235.16435938463448)" fill="#ff6060" filter="url(#bbburst-blur-3)"></use><use xlink:href="#bbburst-shape-8" width="28.620670401530628" opacity="0.3117102174064871" transform="matrix(0.9287143554054288,-0.8366538388508589,0.8366538388508589,0.9287143554054288,-163.88111396257423,-181.56571265126587)" fill="none" stroke="#ff0075" filter="url(#bbburst-blur-3)"></use><use xlink:href="#bbburst-shape-4" width="7.188048362795968" opacity="0.9504020395358627" transform="matrix(0.8627640290886531,-0.5056067939720685,0.5056067939720685,0.8627640290886531,172.83078564887708,61.36866501869133)" fill="#7027a0"></use><use xlink:href="#bbburst-shape-4" width="16.86828732636036" opacity="0.6424693532567463" transform="matrix(0.9999190818690777,-0.012721230840633788,0.012721230840633788,0.9999190818690777,514.6271946781949,97.43313268312016)" fill="#43ff43" filter="url(#bbburst-blur-1)"></use><use xlink:href="#bbburst-shape-8" width="29.181106071688998" opacity="0.2072267879251709" transform="matrix(1.1555424073569178,0.4766778207550451,-0.4766778207550451,1.1555424073569178,532.9810289384654,-423.5756801086644)" fill="none" stroke="#00a19d" filter="url(#bbburst-blur-3)"></use><use xlink:href="#bbburst-shape-6" width="10.260998349682247" opacity="0.785239639675883" transform="matrix(0.8980536961207619,0.43988584756029403,-0.43988584756029403,0.8980536961207619,510.02842201235444,-36.17600415398482)" fill="#ff0075"></use><use xlink:href="#bbburst-shape-14" width="19.358743095875887" opacity="0.7225048576874413" transform="matrix(0.9739878942323579,-0.22660004829835612,0.22660004829835612,0.9739878942323579,324.9805443740467,134.95970089479624)" fill="none" stroke="#7027a0" filter="url(#bbburst-blur-1)"></use><use xlink:href="#bbburst-shape-13" width="6.6531028369196274" opacity="0.991599710344982" transform="matrix(0.9999793075647837,-0.006433074090638088,0.006433074090638088,0.9999793075647837,397.7979734981305,-0.755501787102105)" fill="none" stroke="#ff5c58"></use><use xlink:href="#bbburst-shape-8" width="34.7466024432842" opacity="0.3773831302390672" transform="matrix(0.9898688227928506,-0.141984906460849,0.141984906460849,0.9898688227928506,157.33957869969086,230.23821011998825)" fill="none" stroke="#ffffff" filter="url(#bbburst-blur-2)"></use><use xlink:href="#bbburst-shape-4" width="13.305313134195364" opacity="0.8402070723412628" transform="matrix(0.9991520191816855,-0.041173323465087605,0.041173323465087605,0.9991520191816855,318.0952326361717,42.0311505921818)" fill="#ff5c58"></use><use xlink:href="#bbburst-shape-5" width="17.24524426284429" opacity="0.5950012675540894" transform="matrix(0.9188280587550911,-0.3946580778906608,0.3946580778906608,0.9188280587550911,162.6491963533878,-131.73887005226513)" fill="#ff6060" filter="url(#bbburst-blur-1)"></use><use xlink:href="#bbburst-shape-5" width="32.8479523578326" opacity="0.38475550964902827" transform="matrix(0.9794534849622588,0.20167020304270586,-0.20167020304270586,0.9794534849622588,436.71736948869676,-270.5478963230991)" fill="#ff0075" filter="url(#bbburst-blur-2)"></use><use xlink:href="#bbburst-shape-5" width="8.669588437067587" opacity="0.8189483435600411" transform="matrix(0.7503135019145935,-0.6610821800991609,0.6610821800991609,0.7503135019145935,174.73953582933893,33.18437728337511)" fill="#3db2ff"></use><use xlink:href="#bbburst-shape-9" width="23.60040869076879" opacity="0.5808561445537055" transform="matrix(0.7091949154447995,-0.7050124622354158,0.7050124622354158,0.7091949154447995,-19.625523607430125,-12.94310203014436)" fill="none" stroke="#ffa6d5" filter="url(#bbburst-blur-1)"></use><use xlink:href="#bbburst-shape-14" width="17.11565616047379" opacity="0.7232254823827979" transform="matrix(0.9999480042716528,-0.010197487589535077,0.010197487589535077,0.9999480042716528,511.38464602192124,11.58463485612549)" fill="none" stroke="#3db2ff" filter="url(#bbburst-blur-1)"></use><use xlink:href="#bbburst-shape-10" width="39.35997167157466" opacity="0.020557716413602267" transform="matrix(1.7094888762429383,-0.37436316859655977,0.37436316859655977,1.7094888762429383,-38.63099645923171,-635.7478770397814)" fill="none" stroke="#3db2ff" filter="url(#bbburst-blur-4)"></use><use xlink:href="#bbburst-shape-2" width="23.523946814732707" opacity="0.5895076846087222" transform="matrix(0.7512107743007916,-0.6600624005155915,0.6600624005155915,0.7512107743007916,131.35603926465137,291.9618190360875)" fill="#ff6767" filter="url(#bbburst-blur-1)"></use><use xlink:href="#bbburst-shape-4" width="12.084713372898822" opacity="0.7167430425726158" transform="matrix(0.9993722106645436,0.035428583819608984,-0.035428583819608984,0.9993722106645436,456.24855773652723,-117.98727796962987)" fill="#801fff" filter="url(#bbburst-blur-1)"></use><use xlink:href="#bbburst-shape-6" width="26.584692192749543" opacity="0.4736494433153339" transform="matrix(0.8576434857513068,-0.514244738765841,0.514244738765841,0.8576434857513068,162.14394396077824,299.7247587183506)" fill="#ff0075" filter="url(#bbburst-blur-2)"></use><use xlink:href="#bbburst-shape-14" width="23.17548990026239" opacity="0.48217284326991483" transform="matrix(0.7422676406455561,-0.6701035365154251,0.6701035365154251,0.7422676406455561,317.05061324092804,-18.696649368315718)" fill="none" stroke="#ffffff" filter="url(#bbburst-blur-2)"></use><use xlink:href="#bbburst-shape-9" width="27.097164101779136" opacity="0.30916537085874707" transform="matrix(1.2107436900358741,0.3108049501509192,-0.3108049501509192,1.2107436900358741,516.262778941173,222.03550691685103)" fill="none" stroke="#f52626" filter="url(#bbburst-blur-3)"></use><use xlink:href="#bbburst-shape-8" width="11.1934499155282" opacity="0.830178361660487" transform="matrix(0.9961361453663119,0.0878224338921774,-0.0878224338921774,0.9961361453663119,501.55210933802505,-24.562967169313993)" fill="none" stroke="#f52626"></use><use xlink:href="#bbburst-shape-12" width="26.798804344234533" opacity="0.1401482487791783" transform="matrix(1.0935442120888155,0.6055254381172204,-0.6055254381172204,1.0935442120888155,994.1383789813486,-169.50882173261397)" fill="none" stroke="#fee440" filter="url(#bbburst-blur-3)"></use><use xlink:href="#bbburst-shape-10" width="9.058481653259149" opacity="0.8807236900218534" transform="matrix(0.7238280722736834,0.6899803778286476,-0.6899803778286476,0.7238280722736834,721.7616916664406,129.14357102983712)" fill="none" stroke="#ff6767"></use><use xlink:href="#bbburst-shape-12" width="38.89265322322104" opacity="0.3190602500901445" transform="matrix(1.1179686775959183,-0.5591475976112509,0.5591475976112509,1.1179686775959183,-150.61468683589584,-8.77572138930293)" fill="none" stroke="#00a19d" filter="url(#bbburst-blur-3)"></use><use xlink:href="#bbburst-shape-5" width="23.959112286032358" opacity="0.2852259633471944" transform="matrix(1.1307085259795662,0.5329148424252386,-0.5329148424252386,1.1307085259795662,499.95893132072035,-364.48639611150946)" fill="#7027a0" filter="url(#bbburst-blur-3)"></use><use xlink:href="#bbburst-shape-4" width="16.416641057347405" opacity="0.8496863314731717" transform="matrix(0.9483430412994,-0.3172467115968336,0.3172467115968336,0.9483430412994,308.12304007463047,75.65818300194542)" fill="#ff5c58"></use></svg>