<svg xmlns="http://www.w3.org/2000/svg" version="1.1" xmlns:xlink="http://www.w3.org/1999/xlink" xmlns:svgjs="http://svgjs.dev/svgjs" viewBox="0 0 800 800" opacity="0.42"><defs><filter id="bbburst-blur-1" x="-100%" y="-100%" width="400%" height="400%"><feGaussianBlur in="SourceGraphic" stdDeviation="1"></feGaussianBlur></filter><filter id="bbburst-blur-2" x="-100%" y="-100%" width="400%" height="400%"><feGaussianBlur in="SourceGraphic" stdDeviation="2"></feGaussianBlur></filter><filter id="bbburst-blur-3" x="-100%" y="-100%" width="400%" height="400%"><feGaussianBlur in="SourceGraphic" stdDeviation="4"></feGaussianBlur></filter><filter id="bbburst-blur-4" x="-100%" y="-100%" width="400%" height="400%"><feGaussianBlur in="SourceGraphic" stdDeviation="12"></feGaussianBlur></filter><symbol id="bbburst-shape-1" viewBox="0 0 194 167"><path d="m97 0 96.129 166.5H.871L97 0Z"></path></symbol><symbol id="bbburst-shape-2" viewBox="0 0 126 115"><path d="m63 0 62.77 43.877-23.976 70.996H24.206L.23 43.877 63 0Z"></path></symbol><symbol id="bbburst-shape-4" viewBox="0 0 149 143"><path d="M71.647 2.781c.898-2.764 4.808-2.764 5.706 0l15.445 47.534a3 3 0 0 0 2.853 2.073h49.98c2.906 0 4.115 3.719 1.764 5.427L106.96 87.193a2.999 2.999 0 0 0-1.09 3.354l15.445 47.534c.898 2.764-2.266 5.062-4.617 3.354l-40.435-29.378a3 3 0 0 0-3.526 0l-40.435 29.378c-2.351 1.708-5.515-.59-4.617-3.354L43.13 90.547a3 3 0 0 0-1.09-3.354L1.605 57.815c-2.35-1.708-1.142-5.427 1.764-5.427h49.98a3 3 0 0 0 2.853-2.073L71.647 2.781Z"></path></symbol><symbol id="bbburst-shape-5" viewBox="0 0 145 145"><circle cx="72.5" cy="72.5" r="72.5"></circle></symbol><symbol id="bbburst-shape-6" viewBox="0 0 133 116"><path d="M59.7487 10.2513c-13.6683-13.66839-35.8291-13.66839-49.4974 0-13.66839 13.6683-13.66839 35.8291 0 49.4974l49.4974-49.4974ZM66.5 66.5 41.7513 91.2487 66.5 115.997l24.7487-24.7483L66.5 66.5Zm56.249-6.7513c13.668-13.6683 13.668-35.8291 0-49.4974-13.669-13.66839-35.8294-13.66839-49.4977 0l49.4977 49.4974Zm-112.4977 0 31.5 31.5 49.4974-49.4974-31.5-31.5-49.4974 49.4974Zm80.9974 31.5 31.5003-31.5-49.4977-49.4974-31.5 31.5 49.4974 49.4974Z"></path></symbol><symbol id="bbburst-shape-8" viewBox="0 0 87 168"><path d="m12 12 31.2546 18.0749c16.4102 9.4902 20.014 31.6325 7.4603 45.8369L36.3296 92.1884c-12.5684 14.2206-8.9394 36.3916 7.5068 45.8636L75 156" stroke-width="14" stroke-linecap="round" stroke-linejoin="round"></path></symbol><symbol id="bbburst-shape-9" viewBox="0 0 182 172"><path d="M13.5809 69.845 91 13.5967l77.419 56.2483-29.571 91.012H43.1524L13.5809 69.845Z" stroke-width="22"></path></symbol><symbol id="bbburst-shape-10" viewBox="0 0 145 145"><circle cx="72.5" cy="72.5" r="61.5" fill="none" stroke-width="22"></circle></symbol><symbol id="bbburst-shape-12" viewBox="0 0 170 151"><path d="M69.3728 54.2122 85 10.0031l15.627 44.2091c1.413 3.9958 5.19 6.6672 9.428 6.6673h49.312l-39.149 26.1447c-3.803 2.5401-5.399 7.3367-3.875 11.6488l15.179 42.94-40.9683-27.36c-3.3621-2.245-7.7453-2.245-11.1074 0l-40.9682 27.36 15.1785-42.94c1.5243-4.3121-.0712-9.1087-3.8746-11.6488L10.6333 60.8795h49.3112c4.2381-.0001 8.0159-2.6715 9.4283-6.6673Z" stroke-width="12"></path></symbol><symbol id="bbburst-shape-13" viewBox="0 0 159 159"><path stroke-width="22" d="M11 11h137v137H11z"></path></symbol><symbol id="bbburst-shape-14" viewBox="0 0 185 109"><path d="M168 16.5C168 58.1975 134.197 92 92.5 92 50.8025 92 17 58.1975 17 16.5" stroke-width="33" stroke-linecap="round"></path></symbol></defs><use xlink:href="#bbburst-shape-6" width="4.85791351043365" opacity="0.9447959055773992" transform="matrix(0.9997601083463764,-0.021902642745605366,0.021902642745605366,0.9997601083463764,412.3018460743139,8.228641573353798)" fill="#3db2ff"></use><use xlink:href="#bbburst-shape-8" width="24.10872975509025" opacity="0.2515391911795761" transform="matrix(0.9749450851060442,0.7822928358534088,-0.7822928358534088,0.9749450851060442,474.4855990744747,-248.5179764028327)" fill="none" stroke="#7027a0" filter="url(#bbburst-blur-3)"></use><use xlink:href="#bbburst-shape-10" width="18.159862639891987" opacity="0.6219131232057572" transform="matrix(0.7080359194517486,-0.7061764204263102,0.7061764204263102,0.7080359194517486,259.2084999175185,39.46395190864138)" fill="none" stroke="#3db2ff" filter="url(#bbburst-blur-1)"></use><use xlink:href="#bbburst-shape-4" width="21.824829866726038" opacity="0.5489212966467214" transform="matrix(0.7710544972171685,0.6367691593671756,-0.6367691593671756,0.7710544972171685,684.4790784656273,-114.71416782368092)" fill="#ffffff" filter="url(#bbburst-blur-2)"></use><use xlink:href="#bbburst-shape-2" width="12.747949171536597" opacity="0.7254523115713372" transform="matrix(0.8101316279901283,0.5862480237323315,-0.5862480237323315,0.8101316279901283,752.2579123490923,84.57997002267155)" fill="#43ff43" filter="url(#bbburst-blur-1)"></use><use xlink:href="#bbburst-shape-12" width="24.123287506127383" opacity="0.3053118414331051" transform="matrix(1.1701472329324059,0.4396082952591251,-0.4396082952591251,1.1701472329324059,564.0801511534912,-386.01345042278615)" fill="none" stroke="#ff6060" filter="url(#bbburst-blur-3)"></use><use xlink:href="#bbburst-shape-8" width="43.19554379492169" opacity="-0.09918065180032087" transform="matrix(1.6917602597707966,0.44771332732033653,-0.44771332732033653,1.6917602597707966,895.7009925711263,-632.7007367917406)" fill="none" stroke="#00a19d" filter="url(#bbburst-blur-4)"></use><use xlink:href="#bbburst-shape-4" width="22.65678238416141" opacity="0.2795134750751641" transform="matrix(0.9870071394328651,-0.7670181919019605,0.7670181919019605,0.9870071394328651,92.5397718327082,337.95501628007696)" fill="#fee440" filter="url(#bbburst-blur-3)"></use><use xlink:href="#bbburst-shape-4" width="21.336705701354276" opacity="0.17412930976472618" transform="matrix(1.24937656340229,-0.03947407783703046,0.03947407783703046,1.24937656340229,342.3982298447884,271.2433482971521)" fill="#ff5c58" filter="url(#bbburst-blur-3)"></use><use xlink:href="#bbburst-shape-12" width="10.680452968766122" opacity="0.7221129631075974" transform="matrix(0.8212260602973003,-0.570602977462066,0.570602977462066,0.8212260602973003,109.8595804163553,185.58470475723067)" fill="none" stroke="#ff0075" filter="url(#bbburst-blur-1)"></use><use xlink:href="#bbburst-shape-14" width="15.328736844735523" opacity="0.5807020017352471" transform="matrix(0.7425731327226107,0.6697649905440922,-0.6697649905440922,0.7425731327226107,668.5728526145783,286.42929109363786)" fill="none" stroke="#fee440" filter="url(#bbburst-blur-1)"></use><use xlink:href="#bbburst-shape-13" width="30.71298472060097" opacity="-0.02700908473595054" transform="matrix(1.5380954740031132,-0.8347228958469621,0.8347228958469621,1.5380954740031132,-323.69223229242675,79.53089291170556)" fill="none" stroke="#43ff43" filter="url(#bbburst-blur-4)"></use><use xlink:href="#bbburst-shape-4" width="33.80910292384164" opacity="0.19077847542366877" transform="matrix(1.2271505531082703,0.2379107395769819,-0.2379107395769819,1.2271505531082703,177.6765264590026,-305.9195820321902)" fill="#93ff8d" filter="url(#bbburst-blur-3)"></use><use xlink:href="#bbburst-shape-14" width="13.528334551605559" opacity="0.6548613434157597" transform="matrix(0.9011921032305198,-0.4334198808026139,0.4334198808026139,0.9011921032305198,240.9092247396225,-111.50006969377299)" fill="none" stroke="#801fff" filter="url(#bbburst-blur-1)"></use><use xlink:href="#bbburst-shape-5" width="17.28107045437973" opacity="0.6293580009865753" transform="matrix(0.9414130119610401,0.3372558982589372,-0.3372558982589372,0.9414130119610401,576.7443213827141,179.64617422247886)" fill="#7027a0" filter="url(#bbburst-blur-1)"></use><use xlink:href="#bbburst-shape-13" width="29.797687461567893" opacity="0.07186255939989894" transform="matrix(1.6055089929369126,0.6963051583886916,-0.6963051583886916,1.6055089929369126,1023.3012240988825,-56.35801212108868)" fill="none" stroke="#ffa6d5" filter="url(#bbburst-blur-4)"></use><use xlink:href="#bbburst-shape-14" width="9.364446385346817" opacity="0.7747433583041385" transform="matrix(0.8414732549991327,0.5402987702384344,-0.5402987702384344,0.8414732549991327,703.7961778720346,104.25168139257391)" fill="none" stroke="#43ff43" filter="url(#bbburst-blur-1)"></use><use xlink:href="#bbburst-shape-14" width="8.677326067776882" opacity="0.8458423345015483" transform="matrix(0.8358035527802657,-0.5490286159754203,0.5490286159754203,0.8358035527802657,134.73903989517353,12.881360236257876)" fill="none" stroke="#ff0075"></use><use xlink:href="#bbburst-shape-12" width="10.018960628756446" opacity="0.7414572810121773" transform="matrix(0.8807652488155969,0.4735531400791253,-0.4735531400791253,0.8807652488155969,696.2167701600881,79.52171692840574)" fill="none" stroke="#ff0075" filter="url(#bbburst-blur-1)"></use><use xlink:href="#bbburst-shape-8" width="18.14709966042073" opacity="0.6360479085758872" transform="matrix(0.8567103395500723,-0.5157978228996318,0.5157978228996318,0.8567103395500723,167.80977707321293,-100.77949530995704)" fill="none" stroke="#ff0075" filter="url(#bbburst-blur-1)"></use><use xlink:href="#bbburst-shape-13" width="22.128535851609" opacity="0.4360301102330798" transform="matrix(0.8585397400181335,-0.5127470280846059,0.5127470280846059,0.8585397400181335,-46.68246628851068,164.94285422852914)" fill="none" stroke="#3db2ff" filter="url(#bbburst-blur-2)"></use><use xlink:href="#bbburst-shape-1" width="27.679113221277785" opacity="0.2691527247156783" transform="matrix(1.0825886389558343,-0.6249014632754146,0.6249014632754146,1.0825886389558343,375.80883178083445,199.73210425814125)" fill="#43ff43" filter="url(#bbburst-blur-3)"></use><use xlink:href="#bbburst-shape-14" width="13.194657636952346" opacity="0.7368966410111482" transform="matrix(0.9377082764131334,-0.3474236439079971,0.3474236439079971,0.9377082764131334,136.63120079475073,20.747675819585822)" fill="none" stroke="#ff0075" filter="url(#bbburst-blur-1)"></use><use xlink:href="#bbburst-shape-13" width="5.169682866081863" opacity="0.9605903728855619" transform="matrix(0.8416875750548152,-0.539964837742556,0.539964837742556,0.8416875750548152,170.33284245495082,78.21616314850229)" fill="none" stroke="#93ff8d"></use><use xlink:href="#bbburst-shape-13" width="16.28335845840059" opacity="0.49593649728305" transform="matrix(0.9695071003998624,-0.24506322097420324,0.24506322097420324,0.9695071003998624,401.9180863481031,-185.36318215008546)" fill="none" stroke="#ff0075" filter="url(#bbburst-blur-2)"></use><use xlink:href="#bbburst-shape-14" width="5.931292287788828" opacity="0.8988036022265675" transform="matrix(0.8513910325047352,-0.5245315145637303,0.5245315145637303,0.8513910325047352,160.1109441001404,24.750951897262553)" fill="none" stroke="#ff0075"></use><use xlink:href="#bbburst-shape-6" width="28.113032603759418" opacity="0.18230581819357683" transform="matrix(0.9127117912023364,-0.8540826577095584,0.8540826577095584,0.9127117912023364,-322.4199342787953,45.0440887544695)" fill="#43ff43" filter="url(#bbburst-blur-3)"></use><use xlink:href="#bbburst-shape-10" width="5.330178969573425" opacity="0.9118472749025986" transform="matrix(0.8452585582201914,-0.5343575298950352,0.5343575298950352,0.8452585582201914,145.3026019607645,72.02621015692466)" fill="none" stroke="#43ff43"></use><use xlink:href="#bbburst-shape-12" width="25.577027054681476" opacity="0.39299720656344184" transform="matrix(0.999640389503335,0.026815884725673055,-0.026815884725673055,0.999640389503335,250.3767646808436,229.61458628567902)" fill="none" stroke="#3db2ff" filter="url(#bbburst-blur-2)"></use><use xlink:href="#bbburst-shape-4" width="5.682621783683168" opacity="0.9167199013517753" transform="matrix(0.9510605846138506,-0.30900447309700996,0.30900447309700996,0.9510605846138506,242.55019214193527,41.29844000831196)" fill="#ff0075"></use><use xlink:href="#bbburst-shape-12" width="30.151842977553326" opacity="0.013657291666592464" transform="matrix(1.3127454101223057,1.1572378701904027,-1.1572378701904027,1.3127454101223057,478.0628499069538,-395.0151694565685)" fill="none" stroke="#00a19d" filter="url(#bbburst-blur-4)"></use><use xlink:href="#bbburst-shape-14" width="14.947675213512635" opacity="0.5931273789744682" transform="matrix(0.9380607093852545,0.346470930249037,-0.346470930249037,0.9380607093852545,483.40944961349913,198.8501730027507)" fill="none" stroke="#ffa6d5" filter="url(#bbburst-blur-1)"></use><use xlink:href="#bbburst-shape-2" width="22.561900886423235" opacity="0.3820997943411848" transform="matrix(0.79432583720236,-0.6074919459159683,0.6074919459159683,0.79432583720236,-128.18126222026353,120.93216755920469)" fill="#ffffff" filter="url(#bbburst-blur-2)"></use><use xlink:href="#bbburst-shape-1" width="4.021118209315474" opacity="0.9440996577861448" transform="matrix(0.9281427340434474,0.3722244823253226,-0.3722244823253226,0.9281427340434474,524.2322251469699,38.6491377836503)" fill="#ff0075"></use><use xlink:href="#bbburst-shape-6" width="7.250575884554561" opacity="0.8549353900285945" transform="matrix(0.8041495131667018,0.5944270859186656,-0.5944270859186656,0.8041495131667018,569.6654927938068,72.77668958296408)" fill="#ff6060"></use><use xlink:href="#bbburst-shape-13" width="29.374736057898648" opacity="0.14601040626277106" transform="matrix(0.9694412280109931,0.7891031019027475,-0.7891031019027475,0.9694412280109931,331.8600255697685,106.09029628695345)" fill="none" stroke="#ff6060" filter="url(#bbburst-blur-3)"></use><use xlink:href="#bbburst-shape-12" width="25.274950684681837" opacity="0.16312637740634894" transform="matrix(1.2052914562928132,-0.33131934049727535,0.33131934049727535,1.2052914562928132,322.4640427664097,292.000244952132)" fill="none" stroke="#00a19d" filter="url(#bbburst-blur-3)"></use><use xlink:href="#bbburst-shape-4" width="4.44852939675568" opacity="0.9400013224416184" transform="matrix(0.7150344320431341,0.6990892367879459,-0.6990892367879459,0.7150344320431341,655.5637622438908,97.47831829091223)" fill="#43ff43"></use><use xlink:href="#bbburst-shape-13" width="12.328805170431647" opacity="0.7395911040885501" transform="matrix(0.7816351167525181,-0.623735957163989,0.623735957163989,0.7816351167525181,44.73501556280843,31.686911985843835)" fill="none" stroke="#fee440" filter="url(#bbburst-blur-1)"></use><use xlink:href="#bbburst-shape-13" width="36.01574733273127" opacity="-0.08927506630903892" transform="matrix(1.441733454429231,0.9919196773829807,-0.9919196773829807,1.441733454429231,439.5489884828611,166.74686811150173)" fill="none" stroke="#7027a0" filter="url(#bbburst-blur-4)"></use><use xlink:href="#bbburst-shape-1" width="21.754499106135942" opacity="0.4521518063397534" transform="matrix(0.8242307145903125,-0.5662541206260162,0.5662541206260162,0.8242307145903125,-81.24567844109785,57.439723098185596)" fill="#43ff43" filter="url(#bbburst-blur-2)"></use><use xlink:href="#bbburst-shape-6" width="6.606077639690984" opacity="0.8796432552973451" transform="matrix(0.9549601022288974,-0.29673422982691733,0.29673422982691733,0.9549601022288974,328.458750880758,39.06108781370051)" fill="#f52626"></use><use xlink:href="#bbburst-shape-4" width="10.176995216591328" opacity="0.7390340263021865" transform="matrix(0.972138205003587,-0.23440842641083465,0.23440842641083465,0.972138205003587,228.56028238075623,104.54734792339491)" fill="#f52626" filter="url(#bbburst-blur-1)"></use><use xlink:href="#bbburst-shape-9" width="12.789780631387956" opacity="0.6676908687086633" transform="matrix(0.919112296059794,0.3939956690519498,-0.3939956690519498,0.919112296059794,436.4089103894653,-65.41363288735477)" fill="none" stroke="#43ff43" filter="url(#bbburst-blur-1)"></use><use xlink:href="#bbburst-shape-13" width="27.15335133502174" opacity="0.06559712498133019" transform="matrix(1.7333985029125243,-0.24047792019355896,0.24047792019355896,1.7333985029125243,78.06707771072153,78.57395641223877)" fill="none" stroke="#00a19d" filter="url(#bbburst-blur-4)"></use><use xlink:href="#bbburst-shape-5" width="9.041385405286611" opacity="0.7942127963278929" transform="matrix(0.9336328393442695,0.3582313795551102,-0.3582313795551102,0.9336328393442695,613.2166043375689,80.40809244702973)" fill="#00a19d"></use><use xlink:href="#bbburst-shape-8" width="8.427056526084597" opacity="0.7733398495760748" transform="matrix(0.955229067351284,0.2958672487572699,-0.2958672487572699,0.955229067351284,613.7400547423711,-6.12983127715961)" fill="none" stroke="#fee440" filter="url(#bbburst-blur-1)"></use><use xlink:href="#bbburst-shape-6" width="5.187779979267169" opacity="0.9568410607960716" transform="matrix(0.8001479602368483,-0.59980266899107,0.59980266899107,0.8001479602368483,157.53459127883568,100.91253690567464)" fill="#ff6767"></use><use xlink:href="#bbburst-shape-14" width="16.58737840025195" opacity="0.6712125587291341" transform="matrix(0.9724726413183943,-0.23301708496851822,0.23301708496851822,0.9724726413183943,165.42344415076906,77.14515089576861)" fill="none" stroke="#ff5c58" filter="url(#bbburst-blur-1)"></use><use xlink:href="#bbburst-shape-14" width="28.834655303064856" opacity="0.1609613217857726" transform="matrix(0.9927620368332946,-0.7595548289772163,0.7595548289772163,0.9927620368332946,-113.3570574997369,-309.27771704741184)" fill="none" stroke="#ff6060" filter="url(#bbburst-blur-3)"></use><use xlink:href="#bbburst-shape-13" width="6.042110269922811" opacity="0.909325961345766" transform="matrix(0.9996732440210623,0.025561791572689826,-0.025561791572689826,0.9996732440210623,398.10080788620166,-39.721271927712166)" fill="none" stroke="#ff6767"></use><use xlink:href="#bbburst-shape-4" width="32.55566720726275" opacity="0.32122660431340944" transform="matrix(1.1422441907378615,0.5077186314540839,-0.5077186314540839,1.1422441907378615,376.4371770950988,158.51638150409428)" fill="#ff6767" filter="url(#bbburst-blur-3)"></use><use xlink:href="#bbburst-shape-13" width="5.827545519173437" opacity="0.9180540574269036" transform="matrix(0.9133436811034993,-0.40718953840725,0.40718953840725,0.9133436811034993,198.55735737226001,27.446244197264377)" fill="none" stroke="#93ff8d"></use><use xlink:href="#bbburst-shape-4" width="24.281448867284993" opacity="0.4987620974849306" transform="matrix(0.9976259480757274,-0.06886557722117811,0.06886557722117811,0.9976259480757274,197.43456379951635,-154.19460398768754)" fill="#ff0075" filter="url(#bbburst-blur-2)"></use><use xlink:href="#bbburst-shape-12" width="7.8566135407465385" opacity="0.8530014980299578" transform="matrix(0.8667993199858371,0.4986571355872592,-0.4986571355872592,0.8667993199858371,597.0028518687832,117.45171265356305)" fill="none" stroke="#3db2ff"></use><use xlink:href="#bbburst-shape-4" width="25.50628402509593" opacity="0.25228525185638007" transform="matrix(1.0959530953732821,-0.6011545664317303,0.6011545664317303,1.0959530953732821,-187.33700755166709,18.122845506598424)" fill="#f52626" filter="url(#bbburst-blur-3)"></use><use xlink:href="#bbburst-shape-13" width="24.551994707590044" opacity="0.29236713456845775" transform="matrix(1.2273813091595225,-0.23671738830482364,0.23671738830482364,1.2273813091595225,376.2459871873101,-394.64838963877133)" fill="none" stroke="#43ff43" filter="url(#bbburst-blur-3)"></use><use xlink:href="#bbburst-shape-14" width="33.27449562315451" opacity="0.1735481449669305" transform="matrix(0.9355404317778917,0.8290139326385509,-0.8290139326385509,0.9355404317778917,1076.7941208166162,-78.20069836831811)" fill="none" stroke="#3db2ff" filter="url(#bbburst-blur-3)"></use><use xlink:href="#bbburst-shape-13" width="20.09514891527309" opacity="0.4604121444033994" transform="matrix(0.7183168920690912,-0.6957160646184631,0.6957160646184631,0.7183168920690912,-78.07451728854699,267.5668657428965)" fill="none" stroke="#93ff8d" filter="url(#bbburst-blur-2)"></use><use xlink:href="#bbburst-shape-12" width="10.870793820180188" opacity="0.6705987793246602" transform="matrix(0.9999432465733725,0.010653808347418066,-0.010653808347418066,0.9999432465733725,419.08509351104084,146.78477208687394)" fill="none" stroke="#801fff" filter="url(#bbburst-blur-1)"></use><use xlink:href="#bbburst-shape-10" width="39.203646794052055" opacity="0.10700412970886075" transform="matrix(1.7484235309401006,-0.07426409936807211,0.07426409936807211,1.7484235309401006,-18.897133995777303,-109.46133388209785)" fill="none" stroke="#3db2ff" filter="url(#bbburst-blur-4)"></use><use xlink:href="#bbburst-shape-12" width="27.558410767356513" opacity="0.1874321124915702" transform="matrix(0.9774333382898368,-0.7791816663651587,0.7791816663651587,0.9774333382898368,10.549430816621168,-340.24848085829245)" fill="none" stroke="#fee440" filter="url(#bbburst-blur-3)"></use><use xlink:href="#bbburst-shape-14" width="6.2086682322008295" opacity="0.8719545607526337" transform="matrix(0.9816557362909079,-0.19066204500937153,0.19066204500937153,0.9816557362909079,298.4264447902407,-45.207986816853804)" fill="none" stroke="#ff5c58"></use><use xlink:href="#bbburst-shape-6" width="13.618122549259958" opacity="0.7224764319380383" transform="matrix(0.8115911453895043,0.5842258233982409,-0.5842258233982409,0.8115911453895043,530.2304566294507,148.880274465588)" fill="#f52626" filter="url(#bbburst-blur-1)"></use><use xlink:href="#bbburst-shape-6" width="23.124698438525677" opacity="0.5073726368468221" transform="matrix(0.9869247386337293,0.1611817616008246,-0.1611817616008246,0.9869247386337293,235.24437031300627,44.58257311683951)" fill="#ff0075" filter="url(#bbburst-blur-2)"></use><use xlink:href="#bbburst-shape-12" width="7.772925963274114" opacity="0.8901268768466875" transform="matrix(0.7486945850148586,-0.6629150913725139,0.6629150913725139,0.7486945850148586,181.30997101335288,100.91483441149438)" fill="none" stroke="#f52626"></use><use xlink:href="#bbburst-shape-14" width="32.11237204615855" opacity="0.12514299153134867" transform="matrix(1.2475517650459904,0.07819586645490921,-0.07819586645490921,1.2475517650459904,268.6986036256866,-467.19509376056646)" fill="none" stroke="#3db2ff" filter="url(#bbburst-blur-3)"></use><use xlink:href="#bbburst-shape-13" width="4.54052906412266" opacity="0.9806469322428397" transform="matrix(0.9781865228838768,-0.20772849214383404,0.20772849214383404,0.9781865228838768,312.53157312355825,0.7592751963600222)" fill="none" stroke="#ff5c58"></use><use xlink:href="#bbburst-shape-10" width="10.143955514084542" opacity="0.7140820077736406" transform="matrix(0.8039715134911556,0.59466781104642,-0.59466781104642,0.8039715134911556,627.736209651304,203.91589134923976)" fill="none" stroke="#93ff8d" filter="url(#bbburst-blur-1)"></use><use xlink:href="#bbburst-shape-9" width="17.361375686553213" opacity="0.5663452584439088" transform="matrix(0.9768370462722001,0.21398454390493601,-0.21398454390493601,0.9768370462722001,310.41148986104866,-94.11319676115625)" fill="none" stroke="#ffffff" filter="url(#bbburst-blur-1)"></use><use xlink:href="#bbburst-shape-13" width="28.262636400883977" opacity="0.08884205334291861" transform="matrix(1.6493447835085189,0.5849459676869624,-0.5849459676869624,1.6493447835085189,789.2357193379298,101.0920841505964)" fill="none" stroke="#43ff43" filter="url(#bbburst-blur-4)"></use><use xlink:href="#bbburst-shape-4" width="23.795716368949247" opacity="0.5292463599116753" transform="matrix(0.7335951713343442,-0.6795867307378317,0.6795867307378317,0.7335951713343442,286.12517643280535,245.41430440297415)" fill="#93ff8d" filter="url(#bbburst-blur-2)"></use><use xlink:href="#bbburst-shape-6" width="20.8411144165772" opacity="0.38929769141186954" transform="matrix(0.949320659976047,-0.31430921803638306,0.31430921803638306,0.949320659976047,492.66640136623727,176.5536687414804)" fill="#f52626" filter="url(#bbburst-blur-2)"></use><use xlink:href="#bbburst-shape-10" width="11.471847558120166" opacity="0.7169006592532892" transform="matrix(0.7207585190798027,0.6931862355629184,-0.6931862355629184,0.7207585190798027,641.5867376787478,231.14576111650098)" fill="none" stroke="#43ff43" filter="url(#bbburst-blur-1)"></use><use xlink:href="#bbburst-shape-4" width="20.668418305355296" opacity="0.39976515974391214" transform="matrix(0.9181197878419199,-0.3963029840577886,0.3963029840577886,0.9181197878419199,260.17525938711816,305.49675078496955)" fill="#ff5c58" filter="url(#bbburst-blur-2)"></use><use xlink:href="#bbburst-shape-6" width="35.492349348060976" opacity="-0.114924403568897" transform="matrix(1.4870576041255774,-0.9225831572342397,0.9225831572342397,1.4870576041255774,364.92168496631746,170.65019065525792)" fill="#ff0075" filter="url(#bbburst-blur-4)"></use><use xlink:href="#bbburst-shape-10" width="39.087230641301815" opacity="0.1688839170555576" transform="matrix(1.247656243668238,-0.07651076810268362,0.07651076810268362,1.247656243668238,705.276739512703,2.8667396217425676)" fill="none" stroke="#7027a0" filter="url(#bbburst-blur-3)"></use><use xlink:href="#bbburst-shape-8" width="7.892275201358022" opacity="0.8304654413105159" transform="matrix(0.7711952543895877,0.6365986801800482,-0.6365986801800482,0.7711952543895877,575.9251848902154,98.71234622035018)" fill="none" stroke="#ff5c58"></use><use xlink:href="#bbburst-shape-4" width="7.330969170947689" opacity="0.8645381203095364" transform="matrix(0.709339665259583,-0.7048668237968239,0.7048668237968239,0.709339665259583,66.82584301375107,82.09954940517792)" fill="#93ff8d"></use><use xlink:href="#bbburst-shape-10" width="9.886742597831011" opacity="0.8187171591666987" transform="matrix(0.8905050917080337,-0.45497327574492374,0.45497327574492374,0.8905050917080337,198.82149434744105,126.27294701540933)" fill="none" stroke="#ff0075"></use><use xlink:href="#bbburst-shape-6" width="23.26513945171729" opacity="0.13286824175797696" transform="matrix(0.9862146845742453,0.7680368454248283,-0.7680368454248283,0.9862146845742453,815.8338674763016,-374.68972621304044)" fill="#ff5c58" filter="url(#bbburst-blur-3)"></use><use xlink:href="#bbburst-shape-4" width="5.3852123956297335" opacity="0.9103603944282804" transform="matrix(0.9811363819061911,0.19331683863551244,-0.19331683863551244,0.9811363819061911,513.0502785742726,19.486285733025056)" fill="#00a19d"></use><use xlink:href="#bbburst-shape-13" width="6.939496392164593" opacity="0.8598031723292477" transform="matrix(0.9440249251952986,0.3298741284338785,-0.3298741284338785,0.9440249251952986,523.1524073022057,-41.601019064577144)" fill="none" stroke="#93ff8d"></use><use xlink:href="#bbburst-shape-13" width="8.287034712206886" opacity="0.8905249243816664" transform="matrix(0.823714340875964,0.5670050128837276,-0.5670050128837276,0.823714340875964,630.4068034841691,19.403525996830297)" fill="none" stroke="#ff0075"></use><use xlink:href="#bbburst-shape-14" width="28.942900740314382" opacity="0.2964039750341144" transform="matrix(1.2443886292994026,-0.11830866101158383,0.11830866101158383,1.2443886292994026,39.523550750443974,18.60839050335528)" fill="none" stroke="#7027a0" filter="url(#bbburst-blur-3)"></use><use xlink:href="#bbburst-shape-5" width="6.39652847008221" opacity="0.862984150446376" transform="matrix(0.8610148894370682,0.508579748090379,-0.508579748090379,0.8610148894370682,635.7617850601634,104.6699477657279)" fill="#ffa6d5"></use><use xlink:href="#bbburst-shape-5" width="4.413929765732035" opacity="0.9416442900266673" transform="matrix(0.9040705242494907,-0.4273833024151165,0.4273833024151165,0.9040705242494907,200.8006351924303,38.617030331098704)" fill="#f52626"></use><use xlink:href="#bbburst-shape-8" width="22.616020738885247" opacity="0.46989224877879865" transform="matrix(0.9975335751508855,-0.07019092852137405,0.07019092852137405,0.9975335751508855,563.4723026938361,-123.7818930890719)" fill="none" stroke="#ff0075" filter="url(#bbburst-blur-2)"></use><use xlink:href="#bbburst-shape-4" width="5.121409950604812" opacity="0.9720334222015293" transform="matrix(0.7725459583243056,0.6349588508531716,-0.6349588508531716,0.7725459583243056,664.4238819109652,87.33782141101887)" fill="#ff0075"></use><use xlink:href="#bbburst-shape-8" width="6.757734116741804" opacity="0.8589908588246554" transform="matrix(0.8493467166165536,0.5278353483546548,-0.5278353483546548,0.8493467166165536,671.0308005116867,67.79401673536364)" fill="none" stroke="#93ff8d"></use><use xlink:href="#bbburst-shape-2" width="8.869606759962013" opacity="0.7191256348667083" transform="matrix(0.7360962765803081,-0.6768768511366057,0.6768768511366057,0.7360962765803081,229.1979895737394,35.607884923147424)" fill="#ff0075" filter="url(#bbburst-blur-1)"></use><use xlink:href="#bbburst-shape-2" width="23.080930589661065" opacity="0.43744693868159923" transform="matrix(0.8422926087422606,-0.5390205573613654,0.5390205573613654,0.8422926087422606,253.00783005849283,310.03871979823845)" fill="#ff0075" filter="url(#bbburst-blur-2)"></use><use xlink:href="#bbburst-shape-12" width="17.326570002771742" opacity="0.5648595079380239" transform="matrix(0.9891667924495419,-0.14679596968270273,0.14679596968270273,0.9891667924495419,137.40103744562686,-8.503771144222469)" fill="none" stroke="#3db2ff" filter="url(#bbburst-blur-1)"></use><use xlink:href="#bbburst-shape-6" width="5.477027331769988" opacity="0.8887338662582642" transform="matrix(0.9278197106526089,0.37302893255685826,-0.37302893255685826,0.9278197106526089,514.0640448507014,65.84784019614688)" fill="#3db2ff"></use><use xlink:href="#bbburst-shape-6" width="10.711113762780297" opacity="0.7967899418435079" transform="matrix(0.8073436304811058,-0.5900815725995752,0.5900815725995752,0.8073436304811058,118.73224984340101,162.00523918372681)" fill="#ff0075"></use><use xlink:href="#bbburst-shape-4" width="21.40309562104041" opacity="0.5407429252447153" transform="matrix(0.8050685431251519,0.5931817941157208,-0.5931817941157208,0.8050685431251519,572.6038180247648,-127.28189981492051)" fill="#ff6060" filter="url(#bbburst-blur-2)"></use><use xlink:href="#bbburst-shape-12" width="27.24086922043011" opacity="0.43842538653402596" transform="matrix(0.7424716663509711,0.6698774698898391,-0.6698774698898391,0.7424716663509711,897.0008060963656,12.127415524688672)" fill="none" stroke="#ff6767" filter="url(#bbburst-blur-2)"></use><use xlink:href="#bbburst-shape-12" width="14.097207804707796" opacity="0.6424925158514151" transform="matrix(0.776660714955483,0.6299191486570622,-0.6299191486570622,0.776660714955483,632.8663114039414,245.17466404346624)" fill="none" stroke="#ff6767" filter="url(#bbburst-blur-1)"></use><use xlink:href="#bbburst-shape-12" width="27.763463294189737" opacity="0.2793797832655619" transform="matrix(1.2274001528468461,0.23661966273228116,-0.23661966273228116,1.2274001528468461,766.5727573497924,-241.4934464482936)" fill="none" stroke="#3db2ff" filter="url(#bbburst-blur-3)"></use><use xlink:href="#bbburst-shape-6" width="9.07740547219575" opacity="0.8147204302036027" transform="matrix(0.9636983820638463,0.2669933115408043,-0.2669933115408043,0.9636983820638463,544.7613748429421,-58.51736912523637)" fill="#ff6767"></use><use xlink:href="#bbburst-shape-13" width="12.169031129385317" opacity="0.705264123840552" transform="matrix(0.9512450301339311,0.30843620514702286,-0.30843620514702286,0.9512450301339311,560.4732348665042,-107.88072259550808)" fill="none" stroke="#ff5c58" filter="url(#bbburst-blur-1)"></use><use xlink:href="#bbburst-shape-14" width="20.61885882610591" opacity="0.5056016363011162" transform="matrix(0.9709422308585612,0.2393139869196958,-0.2393139869196958,0.9709422308585612,441.65668987092926,227.25730972757538)" fill="none" stroke="#ff0075" filter="url(#bbburst-blur-2)"></use><use xlink:href="#bbburst-shape-8" width="6.074413387765586" opacity="0.8496711267663938" transform="matrix(0.9724971639443808,-0.23291471855624796,0.23291471855624796,0.9724971639443808,253.3745118278767,56.71301544555456)" fill="none" stroke="#ffffff"></use><use xlink:href="#bbburst-shape-10" width="21.294819950862326" opacity="0.4643695052693967" transform="matrix(0.9424650551465463,0.33430468113327,-0.33430468113327,0.9424650551465463,764.4569465132931,8.179749237094995)" fill="none" stroke="#ff6060" filter="url(#bbburst-blur-2)"></use><use xlink:href="#bbburst-shape-13" width="7.0906957718495836" opacity="0.9066234621917162" transform="matrix(0.8442767096421183,-0.5359074897366878,0.5359074897366878,0.8442767096421183,202.6371144903288,27.231225763245277)" fill="none" stroke="#ff0075"></use><use xlink:href="#bbburst-shape-10" width="5.11027042693624" opacity="0.9212744874583464" transform="matrix(0.7873764810905118,-0.6164724462824943,0.6164724462824943,0.7873764810905118,157.2639320718552,121.56225141905344)" fill="none" stroke="#43ff43"></use><use xlink:href="#bbburst-shape-13" width="12.297550485674313" opacity="0.6259783319723314" transform="matrix(0.9868507117858202,0.16163437953548151,-0.16163437953548151,0.9868507117858202,368.80602101737725,146.63073915633953)" fill="none" stroke="#ffa6d5" filter="url(#bbburst-blur-1)"></use><use xlink:href="#bbburst-shape-6" width="14.313990757685033" opacity="0.6848280928224629" transform="matrix(0.9628303754713252,0.2701067716103149,-0.2701067716103149,0.9628303754713252,578.7127486592103,131.67524266021167)" fill="#ff6767" filter="url(#bbburst-blur-1)"></use><use xlink:href="#bbburst-shape-10" width="9.74650483174162" opacity="0.8043155581219954" transform="matrix(0.8440895018469167,-0.5362023059180406,0.5362023059180406,0.8440895018469167,94.2907149856066,52.12410239940925)" fill="none" stroke="#93ff8d"></use><use xlink:href="#bbburst-shape-8" width="24.993004640921285" opacity="0.42020357857182833" transform="matrix(0.8525081069054459,-0.5227140017834732,0.5227140017834732,0.8525081069054459,25.143035795889148,-144.26055399963155)" fill="none" stroke="#3db2ff" filter="url(#bbburst-blur-2)"></use><use xlink:href="#bbburst-shape-1" width="8.547853252091922" opacity="0.7969425406580068" transform="matrix(0.9809039068632539,0.1944929960188924,-0.1944929960188924,0.9809039068632539,412.7132553867137,74.9503467607559)" fill="#ff6060"></use><use xlink:href="#bbburst-shape-13" width="9.599221764904648" opacity="0.7941898012836007" transform="matrix(0.9862290763119873,0.16538503268677132,-0.16538503268677132,0.9862290763119873,407.9329399803412,-70.89322774575652)" fill="none" stroke="#ffffff"></use><use xlink:href="#bbburst-shape-8" width="8.723940778574702" opacity="0.8467450357919176" transform="matrix(0.9211926229604821,0.3891068637317866,-0.3891068637317866,0.9211926229604821,514.3844581419851,87.87146699818845)" fill="none" stroke="#7027a0"></use><use xlink:href="#bbburst-shape-9" width="12.215572689583425" opacity="0.7235808206469627" transform="matrix(0.9348417226335651,0.3550647175142985,-0.3550647175142985,0.9348417226335651,417.3753440945609,-12.495927475279984)" fill="none" stroke="#ff6767" filter="url(#bbburst-blur-1)"></use><use xlink:href="#bbburst-shape-4" width="25.836066275080917" opacity="0.36231312572601826" transform="matrix(0.7258005998622629,-0.6879051455248604,0.6879051455248604,0.7258005998622629,-103.90063747529393,-66.39918025067934)" fill="#ff0075" filter="url(#bbburst-blur-2)"></use><use xlink:href="#bbburst-shape-9" width="6.537188242384784" opacity="0.9264554791934178" transform="matrix(0.9962715792799558,-0.08627247718144343,0.08627247718144343,0.9962715792799558,386.3947993082444,-20.884327504008183)" fill="none" stroke="#7027a0"></use><use xlink:href="#bbburst-shape-8" width="9.481653371345189" opacity="0.7769650343719009" transform="matrix(0.9995846700041235,0.02881817989997661,-0.02881817989997661,0.9995846700041235,392.56220284612084,-99.32287087524048)" fill="none" stroke="#f52626" filter="url(#bbburst-blur-1)"></use><use xlink:href="#bbburst-shape-5" width="5.587510558071397" opacity="0.9264419620406399" transform="matrix(0.8265207538211586,0.5629062475252017,-0.5629062475252017,0.8265207538211586,603.2180654340284,94.4674813503957)" fill="#801fff"></use><use xlink:href="#bbburst-shape-4" width="29.366805361673155" opacity="0.1916142588319384" transform="matrix(0.9797108566110863,0.7763160680021841,-0.7763160680021841,0.9797108566110863,942.0497298552394,-271.305513869281)" fill="#f52626" filter="url(#bbburst-blur-3)"></use><use xlink:href="#bbburst-shape-13" width="19.49789256892596" opacity="0.17383886439379492" transform="matrix(1.2486416038465007,0.05825929233726357,-0.05825929233726357,1.2486416038465007,432.17230876307144,-471.20120783626095)" fill="none" stroke="#ff5c58" filter="url(#bbburst-blur-3)"></use><use xlink:href="#bbburst-shape-10" width="7.034143037718187" opacity="0.8276277060737853" transform="matrix(0.9172177454720867,0.39838625401876304,-0.39838625401876304,0.9172177454720867,487.622359891897,-4.669838300781237)" fill="none" stroke="#ff5c58"></use><use xlink:href="#bbburst-shape-4" width="8.01770008007622" opacity="0.8183903605724706" transform="matrix(0.7212783245527731,0.6926453483062919,-0.6926453483062919,0.7212783245527731,752.2220777090886,84.5215793436218)" fill="#ff6767"></use><use xlink:href="#bbburst-shape-12" width="15.04449922998106" opacity="0.661006177946635" transform="matrix(0.9128217846552941,-0.4083581632081376,0.4083581632081376,0.9128217846552941,78.63297689722455,17.290475225621663)" fill="none" stroke="#f52626" filter="url(#bbburst-blur-1)"></use><use xlink:href="#bbburst-shape-1" width="30.43493053298363" opacity="0.22880518918198123" transform="matrix(1.2318780283783224,-0.2120766917856305,0.2120766917856305,1.2318780283783224,595.1710698762345,87.13089465855955)" fill="#93ff8d" filter="url(#bbburst-blur-3)"></use><use xlink:href="#bbburst-shape-8" width="23.95322710852508" opacity="0.17128199966452684" transform="matrix(1.0676747832187505,0.6500542725640637,-0.6500542725640637,1.0676747832187505,1020.1539608873027,-33.18965898306436)" fill="none" stroke="#7027a0" filter="url(#bbburst-blur-3)"></use><use xlink:href="#bbburst-shape-13" width="7.857542567220968" opacity="0.8070657814565674" transform="matrix(0.9407273461760903,0.3391637659840601,-0.3391637659840601,0.9407273461760903,604.7960127791721,-24.889657318890443)" fill="none" stroke="#00a19d"></use><use xlink:href="#bbburst-shape-2" width="20.022201930826448" opacity="0.4943133940724743" transform="matrix(0.7816307092660396,-0.623741480368484,0.623741480368484,0.7816307092660396,364.661321259497,143.69457338154757)" fill="#ff6767" filter="url(#bbburst-blur-2)"></use><use xlink:href="#bbburst-shape-4" width="32.63357684041828" opacity="0.13945189340480457" transform="matrix(1.0957092450803736,0.6015989114396716,-0.6015989114396716,1.0957092450803736,386.21209276099836,258.547930312724)" fill="#ff5c58" filter="url(#bbburst-blur-3)"></use><use xlink:href="#bbburst-shape-9" width="19.089593445219286" opacity="0.43229093204124547" transform="matrix(0.9741218137312551,0.22602365365804103,-0.22602365365804103,0.9741218137312551,562.2578688435766,-234.18018845322416)" fill="none" stroke="#801fff" filter="url(#bbburst-blur-2)"></use><use xlink:href="#bbburst-shape-9" width="16.85587884508784" opacity="0.6195979207094077" transform="matrix(0.9995193525895816,-0.031001028997497324,0.031001028997497324,0.9995193525895816,209.9065202592306,25.87521064050452)" fill="none" stroke="#00a19d" filter="url(#bbburst-blur-1)"></use><use xlink:href="#bbburst-shape-12" width="18.039501022654463" opacity="0.5742670395189468" transform="matrix(0.9908226281783459,0.1351684855643336,-0.1351684855643336,0.9908226281783459,636.274749248557,-10.556009801904281)" fill="none" stroke="#ff5c58" filter="url(#bbburst-blur-1)"></use><use xlink:href="#bbburst-shape-2" width="18.296098015792623" opacity="0.47469759315272286" transform="matrix(0.7470333613365769,0.6647865499919318,-0.6647865499919318,0.7470333613365769,655.0352804926761,331.46359710582806)" fill="#ffa6d5" filter="url(#bbburst-blur-2)"></use><use xlink:href="#bbburst-shape-5" width="6.388700152513374" opacity="0.8562040315540687" transform="matrix(0.834388645195144,0.5511765495459799,-0.5511765495459799,0.834388645195144,671.3437138907875,100.82651759330957)" fill="#00a19d"></use><use xlink:href="#bbburst-shape-14" width="10.961134416874469" opacity="0.7425761304882423" transform="matrix(0.7108715477277995,0.7033218627563648,-0.7033218627563648,0.7108715477277995,592.5599327489354,32.956512600919154)" fill="none" stroke="#93ff8d" filter="url(#bbburst-blur-1)"></use><use xlink:href="#bbburst-shape-8" width="23.282695868121838" opacity="0.37973122340994625" transform="matrix(0.74606988590139,0.6658676485241545,-0.6658676485241545,0.74606988590139,933.1716849614786,138.57314181103385)" fill="none" stroke="#fee440" filter="url(#bbburst-blur-2)"></use><use xlink:href="#bbburst-shape-4" width="10.479743357343711" opacity="0.7477354591151464" transform="matrix(0.9261447240761658,0.377168331207543,-0.377168331207543,0.9261447240761658,606.6095940154933,-68.41689326113425)" fill="#ffa6d5" filter="url(#bbburst-blur-1)"></use><use xlink:href="#bbburst-shape-14" width="4.818623505575631" opacity="0.9676297625342606" transform="matrix(0.7294382856926112,0.6840466266021817,-0.6840466266021817,0.7294382856926112,682.1452278724175,116.89315817881305)" fill="none" stroke="#7027a0"></use><use xlink:href="#bbburst-shape-13" width="6.686852771946812" opacity="0.9281083431946985" transform="matrix(0.889626894141046,0.4566880655556438,-0.4566880655556438,0.889626894141046,571.9530234128445,74.03211039929721)" fill="none" stroke="#ff6060"></use><use xlink:href="#bbburst-shape-5" width="15.943135085843906" opacity="0.5693929591946207" transform="matrix(0.9377593544176794,0.347285751510391,-0.347285751510391,0.9377593544176794,346.9692620233942,-37.19329177261341)" fill="#f52626" filter="url(#bbburst-blur-1)"></use><use xlink:href="#bbburst-shape-12" width="24.50321573680214" opacity="0.004542749797478263" transform="matrix(1.6897657175849123,-0.45518328140952835,0.45518328140952835,1.6897657175849123,-57.612906649307774,-638.823689316833)" fill="none" stroke="#93ff8d" filter="url(#bbburst-blur-4)"></use><use xlink:href="#bbburst-shape-8" width="14.008259541420012" opacity="0.6621256432040171" transform="matrix(0.8815349511252629,-0.47211876677863623,0.47211876677863623,0.8815349511252629,154.47586241013096,194.1038780053562)" fill="none" stroke="#ff0075" filter="url(#bbburst-blur-1)"></use><use xlink:href="#bbburst-shape-5" width="11.031880788307403" opacity="0.7255269213137872" transform="matrix(0.8655486490528702,0.5008248557357665,-0.5008248557357665,0.8655486490528702,717.9288158711281,34.27770994587439)" fill="#fee440" filter="url(#bbburst-blur-1)"></use><use xlink:href="#bbburst-shape-5" width="28.6313337983692" opacity="0.14417202103650895" transform="matrix(1.2271991950077867,0.23765970582376825,-0.23765970582376825,1.2271991950077867,721.0660182885181,204.03486491418903)" fill="#ffa6d5" filter="url(#bbburst-blur-3)"></use><use xlink:href="#bbburst-shape-5" width="5.2986733121978515" opacity="0.941207482713113" transform="matrix(0.8346799340631382,0.550735333597142,-0.550735333597142,0.8346799340631382,643.0293109530301,55.85844241385939)" fill="#3db2ff"></use><use xlink:href="#bbburst-shape-4" width="8.510633131481589" opacity="0.7721214898450497" transform="matrix(0.9864683662780446,0.16395170731872766,-0.16395170731872766,0.9864683662780446,533.6986977616825,-67.98085090821905)" fill="#ffa6d5" filter="url(#bbburst-blur-1)"></use><use xlink:href="#bbburst-shape-14" width="7.975078254274452" opacity="0.8278020532267215" transform="matrix(0.9175627140298315,0.3975910786501751,-0.3975910786501751,0.9175627140298315,632.8281247325406,29.09486482498147)" fill="none" stroke="#ff5c58"></use><use xlink:href="#bbburst-shape-6" width="6.38768406149517" opacity="0.8479391682797822" transform="matrix(0.9976154292421344,0.06901779001121305,-0.06901779001121305,0.9976154292421344,358.8928287128006,-18.97387318742466)" fill="#ff5c58"></use><use xlink:href="#bbburst-shape-12" width="9.456938138250152" opacity="0.8064603857144996" transform="matrix(0.9999932082079743,-0.0036855851534021407,0.0036855851534021407,0.9999932082079743,311.7439168167325,29.1990497483622)" fill="none" stroke="#ff5c58"></use><use xlink:href="#bbburst-shape-6" width="9.502051439093044" opacity="0.7622065672661674" transform="matrix(0.9703251877109902,0.24180370157140202,-0.24180370157140202,0.9703251877109902,588.661188514619,-35.416091149952535)" fill="#43ff43" filter="url(#bbburst-blur-1)"></use><use xlink:href="#bbburst-shape-8" width="32.156087917108344" opacity="0.12580799727784564" transform="matrix(0.9048980708146563,-0.8623569338944943,0.8623569338944943,0.9048980708146563,-319.2801643149242,-107.17019758268259)" fill="none" stroke="#3db2ff" filter="url(#bbburst-blur-3)"></use><use xlink:href="#bbburst-shape-13" width="4.137778161851077" opacity="0.9522810714322854" transform="matrix(0.9105459958592722,0.41340777620243957,-0.41340777620243957,0.9105459958592722,561.6713174155713,13.529022661489535)" fill="none" stroke="#00a19d"></use><use xlink:href="#bbburst-shape-4" width="11.711743124518183" opacity="0.6620219569624815" transform="matrix(0.9136168521149313,0.40657625057497365,-0.40657625057497365,0.9136168521149313,452.89781821648046,142.80112594813824)" fill="#ff6767" filter="url(#bbburst-blur-1)"></use><use xlink:href="#bbburst-shape-14" width="36.997709156016164" opacity="0.3059076742540082" transform="matrix(1.1378183685932106,-0.5175609723422787,0.5175609723422787,1.1378183685932106,-110.09445062647234,-179.68409306786424)" fill="none" stroke="#00a19d" filter="url(#bbburst-blur-3)"></use><use xlink:href="#bbburst-shape-9" width="18.437448202954542" opacity="0.5107470961432904" transform="matrix(0.8205607317143888,-0.5715593456224356,0.5715593456224356,0.8205607317143888,21.953164340859104,245.37196261603094)" fill="none" stroke="#7027a0" filter="url(#bbburst-blur-2)"></use><use xlink:href="#bbburst-shape-8" width="6.555980698129431" opacity="0.8910975900145857" transform="matrix(0.9156719722092324,-0.40192641031718085,0.40192641031718085,0.9156719722092324,187.22579197431773,34.42272360606785)" fill="none" stroke="#93ff8d"></use><use xlink:href="#bbburst-shape-6" width="6.047464268231609" opacity="0.9695387079745894" transform="matrix(0.7351234514425097,0.6779332645174245,-0.6779332645174245,0.7351234514425097,655.5196274731504,101.160181414757)" fill="#ff0075"></use><use xlink:href="#bbburst-shape-13" width="14.665557226241809" opacity="0.6276126354212223" transform="matrix(0.8119387173403793,0.5837426824240795,-0.5837426824240795,0.8119387173403793,765.2335197849424,166.45612958478796)" fill="none" stroke="#ff6060" filter="url(#bbburst-blur-1)"></use><use xlink:href="#bbburst-shape-4" width="15.956370036176699" opacity="0.5903336567318405" transform="matrix(0.9131687664611081,0.4075816531198358,-0.4075816531198358,0.9131687664611081,725.5699314994339,103.20940590537293)" fill="#ff5c58" filter="url(#bbburst-blur-1)"></use><use xlink:href="#bbburst-shape-1" width="34.20683298435374" opacity="0.16899800112087593" transform="matrix(1.2345274449457841,0.1960662838828596,-0.1960662838828596,1.2345274449457841,92.73262669481669,-180.34184349450146)" fill="#ff5c58" filter="url(#bbburst-blur-3)"></use><use xlink:href="#bbburst-shape-12" width="24.109908306484858" opacity="0.4404542927303041" transform="matrix(0.928126967509579,-0.37226379380954144,0.37226379380954144,0.928126967509579,0.1014224132722461,-43.63210633248485)" fill="none" stroke="#ffa6d5" filter="url(#bbburst-blur-2)"></use><use xlink:href="#bbburst-shape-8" width="20.79435915568326" opacity="0.5279840297796923" transform="matrix(0.8702456834986914,0.49261795577495493,-0.49261795577495493,0.8702456834986914,676.6980589368472,239.7806674462629)" fill="none" stroke="#801fff" filter="url(#bbburst-blur-2)"></use><use xlink:href="#bbburst-shape-12" width="6.753010864072287" opacity="0.9230318025192199" transform="matrix(0.9519586064302813,0.30622673241132425,-0.30622673241132425,0.9519586064302813,545.6730908495263,40.599562137714145)" fill="none" stroke="#93ff8d"></use><use xlink:href="#bbburst-shape-2" width="17.548816235581707" opacity="0.5314233961144639" transform="matrix(0.9747374475506317,-0.22335377396068187,0.22335377396068187,0.9747374475506317,207.5239549875553,200.52934901436083)" fill="#3db2ff" filter="url(#bbburst-blur-2)"></use><use xlink:href="#bbburst-shape-12" width="24.707191133978224" opacity="0.41971836378333094" transform="matrix(0.8674518238127462,-0.49752118885926894,0.49752118885926894,0.8674518238127462,369.27915973242636,249.22351407002049)" fill="none" stroke="#ff0075" filter="url(#bbburst-blur-2)"></use><use xlink:href="#bbburst-shape-10" width="6.425369917217501" opacity="0.9048646042456902" transform="matrix(0.7849650447667909,-0.6195400539870446,0.6195400539870446,0.7849650447667909,114.08101748192252,64.19765210426675)" fill="none" stroke="#801fff"></use><use xlink:href="#bbburst-shape-6" width="19.959268733605043" opacity="0.594537966537231" transform="matrix(0.9996414510827916,-0.026776281987812723,0.026776281987812723,0.9996414510827916,252.07788999768331,-130.36377377914238)" fill="#ffa6d5" filter="url(#bbburst-blur-1)"></use><use xlink:href="#bbburst-shape-14" width="32.01930907924147" opacity="0.09579529103551132" transform="matrix(1.7419710225287253,-0.1674423980664021,0.1674423980664021,1.7419710225287253,669.1948602266745,-475.7647446621169)" fill="none" stroke="#f52626" filter="url(#bbburst-blur-4)"></use><use xlink:href="#bbburst-shape-5" width="9.991889630327297" opacity="0.7513909623110784" transform="matrix(0.8555585286897676,0.5177060980770849,-0.5177060980770849,0.8555585286897676,494.6581711658411,83.81525669412264)" fill="#fee440" filter="url(#bbburst-blur-1)"></use><use xlink:href="#bbburst-shape-13" width="7.392771586560312" opacity="0.8375939541890638" transform="matrix(0.9553819333858701,0.29537325769249484,-0.29537325769249484,0.9553819333858701,541.0280440301566,84.89927079637431)" fill="none" stroke="#ffffff"></use><use xlink:href="#bbburst-shape-1" width="8.543847839220524" opacity="0.8001228425931868" transform="matrix(0.873894927577161,-0.48611485839758944,0.48611485839758944,0.873894927577161,128.17401727686055,104.15589685546553)" fill="#7027a0"></use><use xlink:href="#bbburst-shape-9" width="6.860025103143553" opacity="0.8373288936499188" transform="matrix(0.7960452451290844,-0.6052371169280483,0.6052371169280483,0.7960452451290844,205.87113167003358,30.842594357175244)" fill="none" stroke="#ff0075"></use><use xlink:href="#bbburst-shape-8" width="5.828326159819072" opacity="0.8923528152443729" transform="matrix(0.9243802029836675,-0.38147246339922586,0.38147246339922586,0.9243802029836675,242.17171892192135,79.73389785708025)" fill="none" stroke="#ff6060"></use><use xlink:href="#bbburst-shape-13" width="8.16329491502975" opacity="0.7846005988238993" transform="matrix(0.9645823684046337,0.263781831373784,-0.263781831373784,0.9645823684046337,410.8133409426439,-20.93279027122071)" fill="none" stroke="#ff6060"></use><use xlink:href="#bbburst-shape-10" width="5.893937465773783" opacity="0.8314605621535546" transform="matrix(0.9955757806518404,0.09396204009853476,-0.09396204009853476,0.9955757806518404,489.3835374028941,53.99477573601325)" fill="none" stroke="#f52626"></use><use xlink:href="#bbburst-shape-10" width="17.02663060505773" opacity="0.590610456807706" transform="matrix(0.745366245823273,-0.6666552029252604,0.6666552029252604,0.745366245823273,308.97954592442426,136.1580691043094)" fill="none" stroke="#3db2ff" filter="url(#bbburst-blur-1)"></use><use xlink:href="#bbburst-shape-13" width="9.794615056217701" opacity="0.8026800007008024" transform="matrix(0.9152072554114516,-0.402983473162657,0.402983473162657,0.9152072554114516,165.62514344601573,-20.365608705248064)" fill="none" stroke="#f52626"></use><use xlink:href="#bbburst-shape-9" width="32.7925813613428" opacity="-0.11335627296263118" transform="matrix(1.74990979913782,-0.01776780463181872,0.01776780463181872,1.74990979913782,8.81742368559781,-653.2120007021576)" fill="none" stroke="#ff0075" filter="url(#bbburst-blur-4)"></use><use xlink:href="#bbburst-shape-12" width="13.406953361388739" opacity="0.6295784651956524" transform="matrix(0.9218635807472936,0.387514565522095,-0.387514565522095,0.9218635807472936,489.9855475456666,-127.32108139776545)" fill="none" stroke="#ff6060" filter="url(#bbburst-blur-1)"></use><use xlink:href="#bbburst-shape-8" width="5.59142489195668" opacity="0.8699327676207262" transform="matrix(0.9972693982529203,-0.07384949091400887,0.07384949091400887,0.9972693982529203,310.7526082926416,14.935391686647677)" fill="none" stroke="#801fff"></use><use xlink:href="#bbburst-shape-10" width="30.208174119097613" opacity="0.3335226113382943" transform="matrix(0.9282004680605891,-0.37208049007184374,0.37208049007184374,0.9282004680605891,517.9407628034053,139.7173061156971)" fill="none" stroke="#ff5c58" filter="url(#bbburst-blur-2)"></use><use xlink:href="#bbburst-shape-5" width="7.40151427809964" opacity="0.867339168965958" transform="matrix(0.9953030142537639,0.09680862470550819,-0.09680862470550819,0.9953030142537639,463.22870200370943,-51.10246456436403)" fill="#ff6767"></use><use xlink:href="#bbburst-shape-10" width="21.406031634516612" opacity="0.482395029189993" transform="matrix(0.9998256827036254,0.018670945509786332,-0.018670945509786332,0.9998256827036254,607.2638647371908,99.58915201754212)" fill="none" stroke="#ff6060" filter="url(#bbburst-blur-2)"></use><use xlink:href="#bbburst-shape-2" width="18.678733712982915" opacity="0.4497677524414885" transform="matrix(0.7429199012354138,-0.6693803256358548,0.6693803256358548,0.7429199012354138,-87.83043275204619,-16.912145489239265)" fill="#801fff" filter="url(#bbburst-blur-2)"></use><use xlink:href="#bbburst-shape-6" width="18.03880104543906" opacity="0.6033291224833619" transform="matrix(0.8399168561703512,-0.5427150953501418,0.5427150953501418,0.8399168561703512,240.73943999393222,-97.1608828170786)" fill="#43ff43" filter="url(#bbburst-blur-1)"></use><use xlink:href="#bbburst-shape-14" width="24.913343458648583" opacity="0.34600896148831506" transform="matrix(0.7391206416651235,-0.673573067353896,0.673573067353896,0.7391206416651235,279.2180291540197,-135.62636764957392)" fill="none" stroke="#ffa6d5" filter="url(#bbburst-blur-2)"></use><use xlink:href="#bbburst-shape-12" width="21.700496275343767" opacity="0.5466777380650869" transform="matrix(0.9847187317311311,0.17415228789146772,-0.17415228789146772,0.9847187317311311,353.80107650203865,-170.60330357093034)" fill="none" stroke="#7027a0" filter="url(#bbburst-blur-2)"></use><use xlink:href="#bbburst-shape-5" width="31.98712144205978" opacity="0.34319171839531537" transform="matrix(0.7772364029798035,-0.6292086886582356,0.6292086886582356,0.7772364029798035,83.40919232662384,390.0366133726266)" fill="#fee440" filter="url(#bbburst-blur-2)"></use><use xlink:href="#bbburst-shape-4" width="27.797072778937935" opacity="0.2811475352122592" transform="matrix(1.05413084036032,-0.6717947390395712,0.6717947390395712,1.05413084036032,296.5412534153089,256.560869880461)" fill="#ff0075" filter="url(#bbburst-blur-3)"></use><use xlink:href="#bbburst-shape-10" width="30.22278017821683" opacity="0.287992197767694" transform="matrix(1.226326748255676,0.24212126406546786,-0.24212126406546786,1.226326748255676,213.26430374478042,85.82572255822339)" fill="none" stroke="#fee440" filter="url(#bbburst-blur-3)"></use><use xlink:href="#bbburst-shape-2" width="20.807749600521827" opacity="0.21782539789283306" transform="matrix(1.2214605669326875,0.26558253600053916,-0.26558253600053916,1.2214605669326875,632.149818206299,232.19499202465943)" fill="#ff0075" filter="url(#bbburst-blur-3)"></use><use xlink:href="#bbburst-shape-5" width="11.92998897438811" opacity="0.7519072859427327" transform="matrix(0.9951057491562512,0.09881572747379888,-0.09881572747379888,0.9951057491562512,334.25580198454657,52.32406504594502)" fill="#3db2ff" filter="url(#bbburst-blur-1)"></use><use xlink:href="#bbburst-shape-13" width="7.525842763197993" opacity="0.8852994783059724" transform="matrix(0.7851935109494316,-0.619250474656988,0.619250474656988,0.7851935109494316,186.56273598410033,52.489861486322525)" fill="none" stroke="#ff5c58"></use><use xlink:href="#bbburst-shape-5" width="5.523434596345544" opacity="0.8861985464318705" transform="matrix(0.7910624341957394,0.6117354209168466,-0.6117354209168466,0.7910624341957394,598.036662779645,107.27652615286092)" fill="#00a19d"></use><use xlink:href="#bbburst-shape-13" width="5.80542009540276" opacity="0.8842764670732484" transform="matrix(0.9580319085599727,0.2866615812782314,-0.2866615812782314,0.9580319085599727,462.55883899086047,-0.7457810964281748)" fill="none" stroke="#ff5c58"></use><use xlink:href="#bbburst-shape-14" width="24.640401129310366" opacity="0.3064920026555188" transform="matrix(1.229502573806069,-0.22544050435592142,0.22544050435592142,1.229502573806069,142.14023730052708,-361.23905810716565)" fill="none" stroke="#ff0075" filter="url(#bbburst-blur-3)"></use><use xlink:href="#bbburst-shape-5" width="20.461238976068756" opacity="0.31726074651063874" transform="matrix(1.1496158736522057,0.4907986787338328,-0.4907986787338328,1.1496158736522057,497.7153350429504,-359.57115156268014)" fill="#93ff8d" filter="url(#bbburst-blur-3)"></use><use xlink:href="#bbburst-shape-4" width="12.288236707704101" opacity="0.7104429715925483" transform="matrix(0.8821088220221524,-0.4710456730622741,0.4710456730622741,0.8821088220221524,253.1352239563809,171.60169172824976)" fill="#ff5c58" filter="url(#bbburst-blur-1)"></use><use xlink:href="#bbburst-shape-14" width="7.798998677761654" opacity="0.8071380966471231" transform="matrix(0.9561087171257014,0.29301215168699973,-0.29301215168699973,0.9561087171257014,563.4979983908702,87.34418907683948)" fill="none" stroke="#ff5c58"></use><use xlink:href="#bbburst-shape-12" width="5.94200764570339" opacity="0.9294139664408021" transform="matrix(0.9986860364491525,-0.05124646916112391,0.05124646916112391,0.9986860364491525,383.08861822310365,-30.412934853026684)" fill="none" stroke="#ff0075"></use><use xlink:href="#bbburst-shape-9" width="10.31240159422458" opacity="0.7528823969387943" transform="matrix(0.8051793205996175,0.5930314171093621,-0.5930314171093621,0.8051793205996175,691.745648308555,169.29745670032617)" fill="none" stroke="#7027a0" filter="url(#bbburst-blur-1)"></use><use xlink:href="#bbburst-shape-12" width="6.812517931885616" opacity="0.8614735815753025" transform="matrix(0.9966585523127903,0.08168065928831036,-0.08168065928831036,0.9966585523127903,489.908377420024,-13.441583044114623)" fill="none" stroke="#ff0075"></use><use xlink:href="#bbburst-shape-2" width="9.084707926376073" opacity="0.7430295846911152" transform="matrix(0.9911169020027271,-0.13299355835722526,0.13299355835722526,0.9911169020027271,362.4649040003812,118.02702471333578)" fill="#ffa6d5" filter="url(#bbburst-blur-1)"></use><use xlink:href="#bbburst-shape-6" width="17.166737148168234" opacity="0.5613370351755562" transform="matrix(0.7583921639703873,0.6517985314714303,-0.6517985314714303,0.7583921639703873,841.9225407057659,29.97484150124143)" fill="#ff5c58" filter="url(#bbburst-blur-1)"></use><use xlink:href="#bbburst-shape-8" width="6.510157432439069" opacity="0.9388713043350209" transform="matrix(0.9888185149686747,-0.1491239231483162,0.1491239231483162,0.9888185149686747,323.102965431648,-18.703748320047055)" fill="none" stroke="#ff6060"></use><use xlink:href="#bbburst-shape-14" width="31.278472644681507" opacity="-0.010361960073641319" transform="matrix(1.6923640468512753,0.44542556384335935,-0.44542556384335935,1.6923640468512753,825.1962233652112,79.35324402808271)" fill="none" stroke="#3db2ff" filter="url(#bbburst-blur-4)"></use><use xlink:href="#bbburst-shape-9" width="8.855582519253726" opacity="0.7502818105347316" transform="matrix(0.7353820289472284,0.67765276617266,-0.67765276617266,0.7353820289472284,745.5419707462888,183.98765323195755)" fill="none" stroke="#3db2ff" filter="url(#bbburst-blur-1)"></use><use xlink:href="#bbburst-shape-9" width="6.508235277780589" opacity="0.8135034572657124" transform="matrix(0.9144148260625337,0.4047783663648867,-0.4047783663648867,0.9144148260625337,570.7404736513137,115.96834466073591)" fill="none" stroke="#43ff43"></use><use xlink:href="#bbburst-shape-14" width="21.759925938527253" opacity="0.39633210248116135" transform="matrix(0.9806748035338659,-0.19564490720132102,0.19564490720132102,0.9806748035338659,443.53285375187016,247.05783681107516)" fill="none" stroke="#ff5c58" filter="url(#bbburst-blur-2)"></use><use xlink:href="#bbburst-shape-6" width="24.47990574002485" opacity="0.3326855790240769" transform="matrix(1.2499341818075143,0.012827359400123148,-0.012827359400123148,1.2499341818075143,685.1462637699303,-154.5761588740034)" fill="#fee440" filter="url(#bbburst-blur-3)"></use><use xlink:href="#bbburst-shape-6" width="14.135002550951349" opacity="0.5977301030826103" transform="matrix(0.9998510062426412,0.017261671865086103,-0.017261671865086103,0.9998510062426412,520.4914482581644,134.8879829169244)" fill="#43ff43" filter="url(#bbburst-blur-1)"></use><use xlink:href="#bbburst-shape-14" width="15.856754845799028" opacity="0.6750441418469335" transform="matrix(0.906708507372471,-0.4217578483660803,0.4217578483660803,0.906708507372471,327.65206212150895,-62.585688803403514)" fill="none" stroke="#ff6060" filter="url(#bbburst-blur-1)"></use><use xlink:href="#bbburst-shape-2" width="16.79604303149777" opacity="0.5107583331819403" transform="matrix(0.8372552533413256,0.5468122536596567,-0.5468122536596567,0.8372552533413256,741.7426432046555,238.1527026984101)" fill="#ff5c58" filter="url(#bbburst-blur-2)"></use><use xlink:href="#bbburst-shape-4" width="29.6863793989704" opacity="0.16841846266995464" transform="matrix(0.94314829392314,0.8203482770566841,-0.8203482770566841,0.94314829392314,608.9591345813024,369.72183541348613)" fill="#93ff8d" filter="url(#bbburst-blur-3)"></use><use xlink:href="#bbburst-shape-5" width="5.6237621835229215" opacity="0.9041625904654291" transform="matrix(0.8113581926651655,0.5845492991999187,-0.5845492991999187,0.8113581926651655,652.4386745241454,111.53700804438841)" fill="#ff0075"></use><use xlink:href="#bbburst-shape-12" width="7.906441301649069" opacity="0.8997495275621933" transform="matrix(0.8554250756489516,0.5179265777607724,-0.5179265777607724,0.8554250756489516,644.9809774150306,37.35867486491111)" fill="none" stroke="#7027a0"></use><use xlink:href="#bbburst-shape-9" width="8.358615115959994" opacity="0.8556806805497488" transform="matrix(0.9490027805673116,0.31526769970219115,-0.31526769970219115,0.9490027805673116,578.3140720320843,-13.595103226548986)" fill="none" stroke="#fee440"></use><use xlink:href="#bbburst-shape-13" width="9.144107381942488" opacity="0.784218490207707" transform="matrix(0.9872644011385746,0.1590880330021451,-0.1590880330021451,0.9872644011385746,489.21780216743144,-87.95290043055053)" fill="none" stroke="#ff5c58"></use><use xlink:href="#bbburst-shape-5" width="7.194734149078604" opacity="0.846600638690161" transform="matrix(0.7268177150715007,-0.6868304077850971,0.6868304077850971,0.7268177150715007,60.71962808331904,142.22864915790706)" fill="#ff6060"></use><use xlink:href="#bbburst-shape-8" width="8.284231643135142" opacity="0.8305706973273778" transform="matrix(0.8765982957763411,0.4812228463425386,-0.4812228463425386,0.8765982957763411,658.8733347506023,77.54851629701278)" fill="none" stroke="#f52626"></use><use xlink:href="#bbburst-shape-9" width="13.130650240719122" opacity="0.7140719323921483" transform="matrix(0.8608471409039337,-0.508863635955177,0.508863635955177,0.8608471409039337,177.62312469387868,-69.06967185419359)" fill="none" stroke="#93ff8d" filter="url(#bbburst-blur-1)"></use><use xlink:href="#bbburst-shape-4" width="23.53232830594377" opacity="0.3108606884251346" transform="matrix(1.2412883442982914,0.14732021690591704,-0.14732021690591704,1.2412883442982914,527.5701979818435,200.50714629076504)" fill="#ff6060" filter="url(#bbburst-blur-3)"></use><use xlink:href="#bbburst-shape-2" width="36.11055560832527" opacity="0.022373847235784505" transform="matrix(1.742865577555527,0.15785936327009328,-0.15785936327009328,1.742865577555527,685.2041219475248,-659.4948179819802)" fill="#ff5c58" filter="url(#bbburst-blur-4)"></use><use xlink:href="#bbburst-shape-6" width="9.855984428052086" opacity="0.7762374051281538" transform="matrix(0.7627605239855297,-0.6466810520258963,0.6466810520258963,0.7627605239855297,137.21472516655365,198.77525680306877)" fill="#ff0075" filter="url(#bbburst-blur-1)"></use><use xlink:href="#bbburst-shape-1" width="15.206839033083902" opacity="0.6600015229612409" transform="matrix(0.8666565482877273,-0.49890522878599125,0.49890522878599125,0.8666565482877273,55.31842067973801,-7.779467278019695)" fill="#00a19d" filter="url(#bbburst-blur-1)"></use><use xlink:href="#bbburst-shape-4" width="8.09222872220261" opacity="0.812363968593266" transform="matrix(0.8255139595262055,0.5643816994086238,-0.5643816994086238,0.8255139595262055,625.5467455171744,-16.860955398454337)" fill="#43ff43"></use><use xlink:href="#bbburst-shape-12" width="16.449847150679204" opacity="0.6126855433574818" transform="matrix(0.777967700383257,0.62830427116198,-0.62830427116198,0.777967700383257,730.3899858051698,235.5302296607282)" fill="none" stroke="#93ff8d" filter="url(#bbburst-blur-1)"></use><use xlink:href="#bbburst-shape-8" width="10.216530731267913" opacity="0.7250919233583744" transform="matrix(0.9595180122278227,-0.2816472691335171,0.2816472691335171,0.9595180122278227,210.9243566346015,-83.31101870328865)" fill="none" stroke="#3db2ff" filter="url(#bbburst-blur-1)"></use><use xlink:href="#bbburst-shape-9" width="16.88623068524768" opacity="0.6634362531972879" transform="matrix(0.9993568186395819,-0.03586013160285128,0.03586013160285128,0.9993568186395819,528.641267979205,3.284864809209921)" fill="none" stroke="#ff0075" filter="url(#bbburst-blur-1)"></use><use xlink:href="#bbburst-shape-4" width="8.772584667501976" opacity="0.7788749627370739" transform="matrix(0.9262799525247276,-0.3768361043620798,0.3768361043620798,0.9262799525247276,344.67829860092036,33.73325700310727)" fill="#ff0075"></use><use xlink:href="#bbburst-shape-13" width="14.076533314974185" opacity="0.6959272472985488" transform="matrix(0.7437900148372635,-0.6684133555131759,0.6684133555131759,0.7437900148372635,254.17129266076205,55.68940803652822)" fill="none" stroke="#ff6767" filter="url(#bbburst-blur-1)"></use><use xlink:href="#bbburst-shape-14" width="12.184013371372409" opacity="0.652533552543741" transform="matrix(0.9342277632994898,-0.3566770055392308,0.3566770055392308,0.9342277632994898,404.4664775518944,-4.572965059181456)" fill="none" stroke="#ff5c58" filter="url(#bbburst-blur-1)"></use><use xlink:href="#bbburst-shape-10" width="9.864538822240368" opacity="0.8436417074946134" transform="matrix(0.8349907780309109,-0.550263937218617,0.550263937218617,0.8349907780309109,192.80641137926864,0.4486578256309599)" fill="none" stroke="#ff0075"></use><use xlink:href="#bbburst-shape-14" width="15.592928201639998" opacity="0.6737268887112695" transform="matrix(0.9192909584669872,0.39357862452227776,-0.39357862452227776,0.9192909584669872,626.0977689094158,-96.48339430236206)" fill="none" stroke="#ff0075" filter="url(#bbburst-blur-1)"></use><use xlink:href="#bbburst-shape-4" width="7.15449432883953" opacity="0.8901015320265814" transform="matrix(0.9958171381504609,-0.09136863447499828,0.09136863447499828,0.9958171381504609,397.0236943429825,34.6695846346488)" fill="#7027a0"></use><use xlink:href="#bbburst-shape-9" width="13.532589009002276" opacity="0.6688214141574138" transform="matrix(0.8406804259946292,0.541531551573395,-0.541531551573395,0.8406804259946292,755.0670725758209,98.02850964769664)" fill="none" stroke="#fee440" filter="url(#bbburst-blur-1)"></use><use xlink:href="#bbburst-shape-12" width="31.641312862439477" opacity="0.050554456756487065" transform="matrix(1.7496916814732792,-0.03284843654131485,0.03284843654131485,1.7496916814732792,692.171344630701,-31.767114201979325)" fill="none" stroke="#43ff43" filter="url(#bbburst-blur-4)"></use><use xlink:href="#bbburst-shape-5" width="16.206237128086386" opacity="0.5945847899341332" transform="matrix(0.9761473144818762,-0.21710923616884922,0.21710923616884922,0.9761473144818762,161.81217275995186,124.03810824007019)" fill="#ff0075" filter="url(#bbburst-blur-1)"></use><use xlink:href="#bbburst-shape-5" width="8.879513436084252" opacity="0.7276834402610549" transform="matrix(0.9992215983490211,0.03944866782069387,-0.03944866782069387,0.9992215983490211,512.0020191405446,70.0250429702038)" fill="#f52626" filter="url(#bbburst-blur-1)"></use><use xlink:href="#bbburst-shape-5" width="6.0574693355726446" opacity="0.9579143794075723" transform="matrix(0.834620674623433,0.5508251351301295,-0.5508251351301295,0.834620674623433,628.8579440417343,49.10688488041308)" fill="#ff5c58"></use><use xlink:href="#bbburst-shape-8" width="17.473804313229756" opacity="0.6522276670998982" transform="matrix(0.9996914105184522,-0.02484117017427984,0.02484117017427984,0.9996914105184522,293.5586222746589,-129.2272362466524)" fill="none" stroke="#ff0075" filter="url(#bbburst-blur-1)"></use><use xlink:href="#bbburst-shape-9" width="9.583586863237528" opacity="0.7845407542409553" transform="matrix(0.994138202774139,0.1081167599634991,-0.1081167599634991,0.994138202774139,341.7950641042021,8.881831902848546)" fill="none" stroke="#ffa6d5"></use><use xlink:href="#bbburst-shape-5" width="9.778708815282778" opacity="0.770339112261595" transform="matrix(0.9947100096054436,0.10272291268620715,-0.10272291268620715,0.9947100096054436,411.5773246904811,101.9787844852022)" fill="#93ff8d" filter="url(#bbburst-blur-1)"></use><use xlink:href="#bbburst-shape-8" width="7.772366389896952" opacity="0.8564355400034195" transform="matrix(0.7574823506854746,-0.6528556413174413,0.6528556413174413,0.7574823506854746,116.63290287097436,161.20386289563623)" fill="none" stroke="#f52626"></use><use xlink:href="#bbburst-shape-2" width="27.658702933454816" opacity="0.0662049384033554" transform="matrix(1.2632587991204478,1.2110644930988457,-1.2110644930988457,1.2632587991204478,1201.130715284321,-376.7700367742217)" fill="#7027a0" filter="url(#bbburst-blur-4)"></use><use xlink:href="#bbburst-shape-14" width="7.94333001185772" opacity="0.8034044439662411" transform="matrix(0.9846793181281751,0.17437499950002053,-0.17437499950002053,0.9846793181281751,552.1608968696108,24.80669773989439)" fill="none" stroke="#00a19d"></use><use xlink:href="#bbburst-shape-2" width="8.763837142514726" opacity="0.8246999279578837" transform="matrix(0.9532867111310609,0.3020669567842951,-0.3020669567842951,0.9532867111310609,491.5752275107103,-57.42845204877375)" fill="#ff0075"></use><use xlink:href="#bbburst-shape-8" width="23.935577861677483" opacity="0.28825280455903135" transform="matrix(1.2298474470612883,-0.22355146377698226,0.22355146377698226,1.2298474470612883,615.6811884787055,-71.9942446899554)" fill="none" stroke="#3db2ff" filter="url(#bbburst-blur-3)"></use><use xlink:href="#bbburst-shape-13" width="6.219120644603278" opacity="0.9221008429883143" transform="matrix(0.9915048150685671,-0.13006998768296438,0.13006998768296438,0.9915048150685671,379.90065444983156,2.070295605925253)" fill="none" stroke="#ffffff"></use><use xlink:href="#bbburst-shape-6" width="21.106610416953643" opacity="0.5693637030973754" transform="matrix(0.895588201394509,-0.44488400007524254,0.44488400007524254,0.895588201394509,35.32053417722625,124.73429093583059)" fill="#ff0075" filter="url(#bbburst-blur-1)"></use><use xlink:href="#bbburst-shape-5" width="20.579150696299656" opacity="0.5869555612234741" transform="matrix(0.9900559161809099,-0.14067438585321443,0.14067438585321443,0.9900559161809099,443.06016327164923,-144.75359634513723)" fill="#ff0075" filter="url(#bbburst-blur-1)"></use><use xlink:href="#bbburst-shape-8" width="20.361310998233506" opacity="0.5418454680217799" transform="matrix(0.8678656418090488,0.4967989812463063,-0.4967989812463063,0.8678656418090488,581.8686734666228,-158.2176633516007)" fill="none" stroke="#ff6060" filter="url(#bbburst-blur-2)"></use><use xlink:href="#bbburst-shape-9" width="28.072196474832865" opacity="0.08220559322704613" transform="matrix(1.5936653288135645,-0.7230012584619433,0.7230012584619433,1.5936653288135645,-199.60001147855755,-523.748441445383)" fill="none" stroke="#43ff43" filter="url(#bbburst-blur-4)"></use><use xlink:href="#bbburst-shape-6" width="12.097943667932116" opacity="0.6960306596178015" transform="matrix(0.884864579589827,0.4658483398997133,-0.4658483398997133,0.884864579589827,446.1883997363308,66.47143390027992)" fill="#ffa6d5" filter="url(#bbburst-blur-1)"></use><use xlink:href="#bbburst-shape-12" width="15.395549989460099" opacity="0.5724847789924519" transform="matrix(0.7284055222958332,-0.685146258173344,0.685146258173344,0.7284055222958332,266.73017117064757,-10.902059507820468)" fill="none" stroke="#f52626" filter="url(#bbburst-blur-1)"></use><use xlink:href="#bbburst-shape-10" width="15.279153487129225" opacity="0.6780687872285769" transform="matrix(0.7692166266189291,-0.6389880916988947,0.6389880916988947,0.7692166266189291,241.82483916134993,198.76689290979476)" fill="none" stroke="#fee440" filter="url(#bbburst-blur-1)"></use><use xlink:href="#bbburst-shape-5" width="25.492656436217256" opacity="0.31507583724220645" transform="matrix(1.0901436693630175,0.6116263402991536,-0.6116263402991536,1.0901436693630175,326.8104533965858,-94.98676674816141)" fill="#fee440" filter="url(#bbburst-blur-3)"></use><use xlink:href="#bbburst-shape-6" width="32.23875978663045" opacity="0.13417772917348592" transform="matrix(1.1848291867466563,-0.39834632950895477,0.39834632950895477,1.1848291867466563,-70.81550652632485,190.01390420543595)" fill="#ff5c58" filter="url(#bbburst-blur-3)"></use><use xlink:href="#bbburst-shape-4" width="20.03850483709325" opacity="0.535271184412708" transform="matrix(0.7974046936434069,-0.6034449059818671,0.6034449059818671,0.7974046936434069,194.5920036166949,291.5566230534396)" fill="#ffa6d5" filter="url(#bbburst-blur-2)"></use><use xlink:href="#bbburst-shape-8" width="24.17052360839729" opacity="0.42638296526137653" transform="matrix(0.9999835551183798,-0.005734936164106531,0.005734936164106531,0.9999835551183798,410.8787187388182,-256.8130581405036)" fill="none" stroke="#ffffff" filter="url(#bbburst-blur-2)"></use><use xlink:href="#bbburst-shape-13" width="19.030728650915332" opacity="0.4172600202583623" transform="matrix(0.9466801818862672,-0.32217484883799363,0.32217484883799363,0.9466801818862672,170.62802967638467,270.14743755348024)" fill="none" stroke="#f52626" filter="url(#bbburst-blur-2)"></use><use xlink:href="#bbburst-shape-8" width="8.157474701494305" opacity="0.8779561473490091" transform="matrix(0.9925744364387401,0.12163876079736047,-0.12163876079736047,0.9925744364387401,459.17540770496674,55.426337531291665)" fill="none" stroke="#3db2ff"></use><use xlink:href="#bbburst-shape-14" width="34.026068957284465" opacity="0.26270522323957834" transform="matrix(1.1316813677811013,0.530845817367996,-0.530845817367996,1.1316813677811013,446.0132568500635,235.76507797029558)" fill="none" stroke="#93ff8d" filter="url(#bbburst-blur-3)"></use><use xlink:href="#bbburst-shape-4" width="26.418375909842858" opacity="0.42523772597927345" transform="matrix(0.8388153371321913,-0.5444160451270776,0.5444160451270776,0.8388153371321913,135.46392830017467,-184.4817089949659)" fill="#ffa6d5" filter="url(#bbburst-blur-2)"></use><use xlink:href="#bbburst-shape-12" width="12.547722611048476" opacity="0.6859206064773192" transform="matrix(0.995183269812312,0.09803193094943606,-0.09803193094943606,0.995183269812312,559.69831062255,63.867482053901085)" fill="none" stroke="#fee440" filter="url(#bbburst-blur-1)"></use><use xlink:href="#bbburst-shape-5" width="9.551134649734582" opacity="0.7837679568924909" transform="matrix(0.864618629262444,0.5024287272164405,-0.5024287272164405,0.864618629262444,630.8306469590312,142.9285587436239)" fill="#ff0075"></use><use xlink:href="#bbburst-shape-13" width="5.95058841855308" opacity="0.9419921805390621" transform="matrix(0.7080554473383383,-0.7061568405775772,0.7061568405775772,0.7080554473383383,128.3896512973202,141.53840552631965)" fill="none" stroke="#00a19d"></use><use xlink:href="#bbburst-shape-5" width="34.929204708476355" opacity="0.17954029010201367" transform="matrix(1.0659363108310769,0.6529010501230901,-0.6529010501230901,1.0659363108310769,818.7817529547214,-362.20600377467485)" fill="#ffa6d5" filter="url(#bbburst-blur-3)"></use><use xlink:href="#bbburst-shape-9" width="11.071901133580678" opacity="0.7680718114312033" transform="matrix(0.9863010543096207,-0.16495523716369473,0.16495523716369473,0.9863010543096207,288.88126839306653,-90.21769802432993)" fill="none" stroke="#ffffff" filter="url(#bbburst-blur-1)"></use><use xlink:href="#bbburst-shape-12" width="6.083726220022565" opacity="0.9892242275904968" transform="matrix(0.9838666467255571,0.17890338582879814,-0.17890338582879814,0.9838666467255571,467.372413008139,10.597067966964289)" fill="none" stroke="#ff6060"></use><use xlink:href="#bbburst-shape-1" width="11.6340119727723" opacity="0.7451410784734891" transform="matrix(0.813417583916356,0.5816801820379288,-0.5816801820379288,0.813417583916356,641.3464199171383,-42.637744792156695)" fill="#43ff43" filter="url(#bbburst-blur-1)"></use><use xlink:href="#bbburst-shape-9" width="5.7441756843054845" opacity="0.8939270234504213" transform="matrix(0.7622106393610327,-0.6473290826502743,0.6473290826502743,0.7622106393610327,120.58667954984509,141.0444324351365)" fill="none" stroke="#ff0075"></use><use xlink:href="#bbburst-shape-4" width="11.611290254771687" opacity="0.705783191366381" transform="matrix(0.895846199245637,-0.4443642506965951,0.4443642506965951,0.895846199245637,170.73672395525156,-79.77924146810784)" fill="#43ff43" filter="url(#bbburst-blur-1)"></use><use xlink:href="#bbburst-shape-13" width="20.753886056210643" opacity="0.46259502291244003" transform="matrix(0.742181743838046,0.6701986713755236,-0.6701986713755236,0.742181743838046,823.2099849794262,-82.62477712336792)" fill="none" stroke="#ff0075" filter="url(#bbburst-blur-2)"></use><use xlink:href="#bbburst-shape-4" width="20.84416491767466" opacity="0.44221525626042946" transform="matrix(0.7663221640167434,0.6424564895280422,-0.6424564895280422,0.7663221640167434,551.7210674107966,-144.60273491862245)" fill="#ff0075" filter="url(#bbburst-blur-2)"></use><use xlink:href="#bbburst-shape-5" width="33.846236132362165" opacity="0.33137873284174457" transform="matrix(1.0722652785596352,-0.6424540235654439,0.6424540235654439,1.0722652785596352,355.5545341571055,-211.2026993764841)" fill="#7027a0" filter="url(#bbburst-blur-3)"></use></svg>