<svg xmlns="http://www.w3.org/2000/svg" version="1.1" xmlns:xlink="http://www.w3.org/1999/xlink" xmlns:svgjs="http://svgjs.dev/svgjs" viewBox="0 0 800 800" opacity="0.27"><defs><filter id="bbburst-blur-1" x="-100%" y="-100%" width="400%" height="400%"><feGaussianBlur in="SourceGraphic" stdDeviation="1"></feGaussianBlur></filter><filter id="bbburst-blur-2" x="-100%" y="-100%" width="400%" height="400%"><feGaussianBlur in="SourceGraphic" stdDeviation="2"></feGaussianBlur></filter><filter id="bbburst-blur-3" x="-100%" y="-100%" width="400%" height="400%"><feGaussianBlur in="SourceGraphic" stdDeviation="4"></feGaussianBlur></filter><filter id="bbburst-blur-4" x="-100%" y="-100%" width="400%" height="400%"><feGaussianBlur in="SourceGraphic" stdDeviation="12"></feGaussianBlur></filter><symbol id="bbburst-shape-1" viewBox="0 0 194 167"><path d="m97 0 96.129 166.5H.871L97 0Z"></path></symbol><symbol id="bbburst-shape-2" viewBox="0 0 126 115"><path d="m63 0 62.77 43.877-23.976 70.996H24.206L.23 43.877 63 0Z"></path></symbol><symbol id="bbburst-shape-4" viewBox="0 0 149 143"><path d="M71.647 2.781c.898-2.764 4.808-2.764 5.706 0l15.445 47.534a3 3 0 0 0 2.853 2.073h49.98c2.906 0 4.115 3.719 1.764 5.427L106.96 87.193a2.999 2.999 0 0 0-1.09 3.354l15.445 47.534c.898 2.764-2.266 5.062-4.617 3.354l-40.435-29.378a3 3 0 0 0-3.526 0l-40.435 29.378c-2.351 1.708-5.515-.59-4.617-3.354L43.13 90.547a3 3 0 0 0-1.09-3.354L1.605 57.815c-2.35-1.708-1.142-5.427 1.764-5.427h49.98a3 3 0 0 0 2.853-2.073L71.647 2.781Z"></path></symbol><symbol id="bbburst-shape-5" viewBox="0 0 145 145"><circle cx="72.5" cy="72.5" r="72.5"></circle></symbol><symbol id="bbburst-shape-6" viewBox="0 0 133 116"><path d="M59.7487 10.2513c-13.6683-13.66839-35.8291-13.66839-49.4974 0-13.66839 13.6683-13.66839 35.8291 0 49.4974l49.4974-49.4974ZM66.5 66.5 41.7513 91.2487 66.5 115.997l24.7487-24.7483L66.5 66.5Zm56.249-6.7513c13.668-13.6683 13.668-35.8291 0-49.4974-13.669-13.66839-35.8294-13.66839-49.4977 0l49.4977 49.4974Zm-112.4977 0 31.5 31.5 49.4974-49.4974-31.5-31.5-49.4974 49.4974Zm80.9974 31.5 31.5003-31.5-49.4977-49.4974-31.5 31.5 49.4974 49.4974Z"></path></symbol><symbol id="bbburst-shape-8" viewBox="0 0 87 168"><path d="m12 12 31.2546 18.0749c16.4102 9.4902 20.014 31.6325 7.4603 45.8369L36.3296 92.1884c-12.5684 14.2206-8.9394 36.3916 7.5068 45.8636L75 156" stroke-width="14" stroke-linecap="round" stroke-linejoin="round"></path></symbol><symbol id="bbburst-shape-9" viewBox="0 0 182 172"><path d="M13.5809 69.845 91 13.5967l77.419 56.2483-29.571 91.012H43.1524L13.5809 69.845Z" stroke-width="22"></path></symbol><symbol id="bbburst-shape-10" viewBox="0 0 145 145"><circle cx="72.5" cy="72.5" r="61.5" fill="none" stroke-width="22"></circle></symbol><symbol id="bbburst-shape-12" viewBox="0 0 170 151"><path d="M69.3728 54.2122 85 10.0031l15.627 44.2091c1.413 3.9958 5.19 6.6672 9.428 6.6673h49.312l-39.149 26.1447c-3.803 2.5401-5.399 7.3367-3.875 11.6488l15.179 42.94-40.9683-27.36c-3.3621-2.245-7.7453-2.245-11.1074 0l-40.9682 27.36 15.1785-42.94c1.5243-4.3121-.0712-9.1087-3.8746-11.6488L10.6333 60.8795h49.3112c4.2381-.0001 8.0159-2.6715 9.4283-6.6673Z" stroke-width="12"></path></symbol><symbol id="bbburst-shape-13" viewBox="0 0 159 159"><path stroke-width="22" d="M11 11h137v137H11z"></path></symbol><symbol id="bbburst-shape-14" viewBox="0 0 185 109"><path d="M168 16.5C168 58.1975 134.197 92 92.5 92 50.8025 92 17 58.1975 17 16.5" stroke-width="33" stroke-linecap="round"></path></symbol></defs><use xlink:href="#bbburst-shape-14" width="36.6170228162126" opacity="0.012660677264505926" transform="matrix(1.3290134632842205,1.1385179903757698,-1.1385179903757698,1.3290134632842205,1188.1560852846724,111.92188257712326)" fill="none" stroke="#801fff" filter="url(#bbburst-blur-4)"></use><use xlink:href="#bbburst-shape-5" width="15.188694300138831" opacity="0.6862242531420184" transform="matrix(0.9786861294148327,-0.20536177855436824,0.20536177855436824,0.9786861294148327,442.38484289627286,60.316652753903156)" fill="#ff0075" filter="url(#bbburst-blur-1)"></use><use xlink:href="#bbburst-shape-9" width="17.78813399746857" opacity="0.7762503286681899" transform="matrix(0.7284493435237549,0.6850996671432635,-0.6850996671432635,0.7284493435237549,591.9286756479203,36.06744444499503)" fill="none" stroke="#ff6767" filter="url(#bbburst-blur-1)"></use><use xlink:href="#bbburst-shape-6" width="33.857618265361815" opacity="0.37585543284311984" transform="matrix(0.8288335545379252,-0.5594952536635394,0.5594952536635394,0.8288335545379252,213.56141308664817,-198.1850285701001)" fill="#7027a0" filter="url(#bbburst-blur-2)"></use><use xlink:href="#bbburst-shape-8" width="20.567716193099944" opacity="0.659555037335136" transform="matrix(0.8360092379699609,0.5487153670427732,-0.5487153670427732,0.8360092379699609,513.9513497601595,178.58499678627908)" fill="none" stroke="#fee440" filter="url(#bbburst-blur-1)"></use><use xlink:href="#bbburst-shape-4" width="22.677216459788124" opacity="0.5579186973959629" transform="matrix(0.8795858307892928,0.47574022982580494,-0.47574022982580494,0.8795858307892928,671.6749466004457,-133.9270793834559)" fill="#ff6767" filter="url(#bbburst-blur-1)"></use><use xlink:href="#bbburst-shape-6" width="17.295008482438046" opacity="0.6871098861552078" transform="matrix(0.9841031830067349,0.17759764974799827,-0.17759764974799827,0.9841031830067349,603.3177207328675,6.64764757363281)" fill="#ff6060" filter="url(#bbburst-blur-1)"></use><use xlink:href="#bbburst-shape-13" width="22.03874774681555" opacity="0.6514177596564594" transform="matrix(0.9702740936389828,0.24200864284783408,-0.24200864284783408,0.9702740936389828,583.9403075516825,-113.39469983242361)" fill="none" stroke="#ff0075" filter="url(#bbburst-blur-1)"></use><use xlink:href="#bbburst-shape-13" width="13.616451604562087" opacity="0.7005102192881807" transform="matrix(0.8682613395023282,0.49610709158973193,-0.49610709158973193,0.8682613395023282,701.0297922897214,-30.627034751835822)" fill="none" stroke="#ffa6d5" filter="url(#bbburst-blur-1)"></use><use xlink:href="#bbburst-shape-9" width="21.05229288645843" opacity="0.5052795327093593" transform="matrix(0.9344086016036085,-0.3562029832120849,0.3562029832120849,0.9344086016036085,105.99597862156241,-141.9040503595905)" fill="none" stroke="#ff0075" filter="url(#bbburst-blur-2)"></use><use xlink:href="#bbburst-shape-10" width="14.243716725274648" opacity="0.8556962322105" transform="matrix(0.910499444347877,0.41351029230504915,-0.41351029230504915,0.910499444347877,494.74711923552763,42.787950285735405)" fill="none" stroke="#ff6767"></use><use xlink:href="#bbburst-shape-10" width="26.626173373533646" opacity="0.5422817449070952" transform="matrix(0.8528356203756046,-0.5221794754857354,0.5221794754857354,0.8528356203756046,50.47462296930533,226.15018746927836)" fill="none" stroke="#ff5c58" filter="url(#bbburst-blur-2)"></use><use xlink:href="#bbburst-shape-14" width="8.950093891513564" opacity="0.8393977710408608" transform="matrix(0.9822454095089393,0.18760052105102515,-0.18760052105102515,0.9822454095089393,538.8815809310709,-17.527152758569912)" fill="none" stroke="#ffa6d5"></use><use xlink:href="#bbburst-shape-4" width="26.677175109734073" opacity="0.48855924537485196" transform="matrix(0.8766804689752479,0.4810731288664329,-0.4810731288664329,0.8766804689752479,802.6192524911535,-18.14735218702475)" fill="#00a19d" filter="url(#bbburst-blur-2)"></use><use xlink:href="#bbburst-shape-9" width="33.7742031268192" opacity="0.4419278484278871" transform="matrix(0.7210001764473536,0.6929348782987367,-0.6929348782987367,0.7210001764473536,904.1343747333059,176.91513956202215)" fill="none" stroke="#ffffff" filter="url(#bbburst-blur-2)"></use><use xlink:href="#bbburst-shape-9" width="33.30205720388717" opacity="0.4111105210605074" transform="matrix(0.9656000868030433,-0.260031675697318,0.260031675697318,0.9656000868030433,73.30544665951251,-148.15166375258354)" fill="none" stroke="#801fff" filter="url(#bbburst-blur-2)"></use><use xlink:href="#bbburst-shape-10" width="39.35876931591135" opacity="0.05205761864798242" transform="matrix(1.7111802244064476,-0.36655455201142945,0.36655455201142945,1.7111802244064476,-140.351518773911,-506.0073698951164)" fill="none" stroke="#43ff43" filter="url(#bbburst-blur-4)"></use><use xlink:href="#bbburst-shape-9" width="47.155914254494064" opacity="0.1781400770042476" transform="matrix(1.141211637837263,0.5100352906072204,-0.5100352906072204,1.141211637837263,224.02703572264863,-178.41579637190404)" fill="none" stroke="#ff6767" filter="url(#bbburst-blur-3)"></use><use xlink:href="#bbburst-shape-10" width="34.78480639461655" opacity="0.31751363280219147" transform="matrix(1.1927945795820611,0.37381959675711807,-0.37381959675711807,1.1927945795820611,739.6951599389222,-306.8631826469284)" fill="none" stroke="#ff0075" filter="url(#bbburst-blur-3)"></use><use xlink:href="#bbburst-shape-14" width="8.39148192924444" opacity="0.8257885432135464" transform="matrix(0.7177403486347921,-0.6963108443372162,0.6963108443372162,0.7177403486347921,177.79430718763712,167.08462774090327)" fill="none" stroke="#7027a0"></use><use xlink:href="#bbburst-shape-8" width="38.7264920203497" opacity="0.2826976090870892" transform="matrix(0.9638319815806591,0.7959446659676161,-0.7959446659676161,0.9638319815806591,1014.0747697384797,72.32688585858756)" fill="none" stroke="#801fff" filter="url(#bbburst-blur-3)"></use><use xlink:href="#bbburst-shape-5" width="31.35293011777743" opacity="0.13143309758468646" transform="matrix(1.2242273002438762,-0.2525223105739176,0.2525223105739176,1.2242273002438762,647.378600913286,47.13355254556046)" fill="#ff5c58" filter="url(#bbburst-blur-3)"></use><use xlink:href="#bbburst-shape-12" width="10.554938065916222" opacity="0.8805428693819255" transform="matrix(0.9810573670533724,-0.19371742965026265,0.19371742965026265,0.9810573670533724,365.4591684019724,32.527098994209496)" fill="none" stroke="#ff5c58"></use><use xlink:href="#bbburst-shape-1" width="34.75925767952708" opacity="0.1624307945548984" transform="matrix(1.1011537749188127,0.5915744788123035,-0.5915744788123035,1.1011537749188127,505.397229391795,-410.55309313234125)" fill="#00a19d" filter="url(#bbburst-blur-3)"></use><use xlink:href="#bbburst-shape-6" width="13.567746229838392" opacity="0.8488854791874059" transform="matrix(0.8101548595444699,-0.5862159188869578,0.5862159188869578,0.8101548595444699,145.4546692698635,146.33881877445623)" fill="#ffffff"></use><use xlink:href="#bbburst-shape-9" width="20.09158285922819" opacity="0.5751388459362756" transform="matrix(0.8098833807382196,0.5865909218561365,-0.5865909218561365,0.8098833807382196,471.67301341763,-42.011705715846915)" fill="none" stroke="#ff5c58" filter="url(#bbburst-blur-1)"></use><use xlink:href="#bbburst-shape-6" width="34.62279817961952" opacity="0.33189912044453396" transform="matrix(1.0120911633220195,0.733601715596059,-0.733601715596059,1.0120911633220195,937.2762479966195,131.05900954421656)" fill="#43ff43" filter="url(#bbburst-blur-3)"></use><use xlink:href="#bbburst-shape-1" width="37.58425718331337" opacity="0.23351015347577908" transform="matrix(1.2472332452297068,-0.08312179012613892,0.08312179012613892,1.2472332452297068,404.2974476780854,242.21626460973505)" fill="#43ff43" filter="url(#bbburst-blur-3)"></use><use xlink:href="#bbburst-shape-13" width="10.426363295031768" opacity="0.841378750165464" transform="matrix(0.9977534825958868,-0.06699244709502249,0.06699244709502249,0.9977534825958868,321.0733924970889,55.03252658862806)" fill="none" stroke="#7027a0"></use><use xlink:href="#bbburst-shape-9" width="34.13748960765928" opacity="0.2998519659300871" transform="matrix(1.2493910602087417,-0.039012545039726954,0.039012545039726954,1.2493910602087417,94.2766724861874,65.00636602429807)" fill="none" stroke="#801fff" filter="url(#bbburst-blur-3)"></use><use xlink:href="#bbburst-shape-14" width="26.658421023053297" opacity="0.5224995396492069" transform="matrix(0.9989381348894375,-0.04607171218450585,0.04607171218450585,0.9989381348894375,551.7860291947704,112.82805984673024)" fill="none" stroke="#3db2ff" filter="url(#bbburst-blur-2)"></use><use xlink:href="#bbburst-shape-6" width="15.893944421453815" opacity="0.7506778517983137" transform="matrix(0.9925383953431303,0.12193249677458462,-0.12193249677458462,0.9925383953431303,360.74019329064885,80.52996586971602)" fill="#ffa6d5" filter="url(#bbburst-blur-1)"></use><use xlink:href="#bbburst-shape-12" width="19.072558433575928" opacity="0.7103001276272456" transform="matrix(0.8085864790759911,0.5883773498831272,-0.5883773498831272,0.8085864790759911,504.07069789829205,112.40681857506331)" fill="none" stroke="#ff5c58" filter="url(#bbburst-blur-1)"></use><use xlink:href="#bbburst-shape-4" width="22.469092446575882" opacity="0.17633477650126972" transform="matrix(0.9650595974662821,-0.794455771794892,0.794455771794892,0.9650595974662821,-299.2055181439275,16.71286803162792)" fill="#ff6767" filter="url(#bbburst-blur-3)"></use><use xlink:href="#bbburst-shape-12" width="9.591783057929419" opacity="0.8592758648033818" transform="matrix(0.9308982444053627,0.36527860403124296,-0.36527860403124296,0.9308982444053627,556.8323852914738,87.35244805038917)" fill="none" stroke="#ffa6d5"></use><use xlink:href="#bbburst-shape-14" width="8.28582286275063" opacity="0.8940346260334698" transform="matrix(0.9758014872081328,-0.21865831235605085,0.21865831235605085,0.9758014872081328,350.68506522221264,-11.628232951424764)" fill="none" stroke="#ff0075"></use><use xlink:href="#bbburst-shape-12" width="19.770113640906143" opacity="0.4482494578501368" transform="matrix(0.9774604983569743,-0.2111183889473753,0.2111183889473753,0.9774604983569743,443.2326204585494,-195.76999755981876)" fill="none" stroke="#00a19d" filter="url(#bbburst-blur-2)"></use><use xlink:href="#bbburst-shape-6" width="18.88820933176742" opacity="0.6215558310130089" transform="matrix(0.9909879091304808,0.13395134921753424,-0.13395134921753424,0.9909879091304808,606.9689190005427,-47.813079879571944)" fill="#801fff" filter="url(#bbburst-blur-1)"></use><use xlink:href="#bbburst-shape-10" width="12.65090693506774" opacity="0.7697919119311343" transform="matrix(0.8362134114312978,0.5484041671453921,-0.5484041671453921,0.8362134114312978,510.76020657961243,69.67884347490849)" fill="none" stroke="#ff6767" filter="url(#bbburst-blur-1)"></use><use xlink:href="#bbburst-shape-10" width="10.29211782360428" opacity="0.8797154292983668" transform="matrix(0.979117812950284,-0.2032936505733828,0.2032936505733828,0.979117812950284,344.6055593183038,53.79751322358817)" fill="none" stroke="#ff6767"></use><use xlink:href="#bbburst-shape-6" width="17.916054706146948" opacity="0.7430137102201837" transform="matrix(0.8070477247316252,0.590486214915731,-0.590486214915731,0.8070477247316252,615.1466115713899,186.70677733094954)" fill="#fee440" filter="url(#bbburst-blur-1)"></use><use xlink:href="#bbburst-shape-13" width="21.043334083725743" opacity="0.5763599826431389" transform="matrix(0.7383366248381835,-0.6744323749810349,0.6744323749810349,0.7383366248381835,56.635320895535756,290.6753287809633)" fill="none" stroke="#ff5c58" filter="url(#bbburst-blur-1)"></use><use xlink:href="#bbburst-shape-10" width="26.3193817926608" opacity="0.17823923641695227" transform="matrix(1.244909430197393,-0.1126965421191011,0.1126965421191011,1.244909430197393,336.89633492405096,-466.2693976423583)" fill="none" stroke="#ff6767" filter="url(#bbburst-blur-3)"></use><use xlink:href="#bbburst-shape-12" width="31.87717834240576" opacity="0.0959874089993078" transform="matrix(1.578740475141421,0.7550354376784181,-0.7550354376784181,1.578740475141421,910.6093615096731,-576.5906170298001)" fill="none" stroke="#ff0075" filter="url(#bbburst-blur-4)"></use><use xlink:href="#bbburst-shape-1" width="31.119705908443887" opacity="0.2517339244047109" transform="matrix(1.1489415809059846,-0.4923751046359438,0.4923751046359438,1.1489415809059846,-5.151251238475567,225.88871790979545)" fill="#ff5c58" filter="url(#bbburst-blur-3)"></use><use xlink:href="#bbburst-shape-13" width="32.195106549051296" opacity="-0.08936358482380347" transform="matrix(1.567104245467451,0.778899405467671,-0.778899405467671,1.567104245467451,1027.451253227304,-591.4423506938629)" fill="none" stroke="#7027a0" filter="url(#bbburst-blur-4)"></use><use xlink:href="#bbburst-shape-9" width="17.72292792073244" opacity="0.7015361779698728" transform="matrix(0.9761943108947535,-0.21689782704471072,0.21689782704471072,0.9761943108947535,278.3156740067864,-120.39109401666241)" fill="none" stroke="#ffffff" filter="url(#bbburst-blur-1)"></use><use xlink:href="#bbburst-shape-13" width="22.064403284129973" opacity="0.4470204344158991" transform="matrix(0.9752610293865798,-0.22105638321439353,0.22105638321439353,0.9752610293865798,273.9544582768194,-235.05218645942247)" fill="none" stroke="#ff5c58" filter="url(#bbburst-blur-2)"></use><use xlink:href="#bbburst-shape-8" width="31.609348503026375" opacity="0.39155741505816233" transform="matrix(0.9423077646862653,-0.3347477805930518,0.3347477805930518,0.9423077646862653,-3.7969786431355317,-71.32420974151131)" fill="none" stroke="#ff0075" filter="url(#bbburst-blur-2)"></use><use xlink:href="#bbburst-shape-13" width="41.95339410711918" opacity="0.04718241452504213" transform="matrix(1.4989767283797626,-0.9030884606592556,0.9030884606592556,1.4989767283797626,-230.08816171148865,176.39484140157924)" fill="none" stroke="#00a19d" filter="url(#bbburst-blur-4)"></use><use xlink:href="#bbburst-shape-12" width="15.254575389405378" opacity="0.8198005476007313" transform="matrix(0.8260130941217181,-0.5636509277376075,0.5636509277376075,0.8260130941217181,193.95723124208808,-3.027164684115405)" fill="none" stroke="#00a19d"></use><use xlink:href="#bbburst-shape-4" width="47.30178216146906" opacity="0.18197604260238698" transform="matrix(1.1206620491302386,0.5537296918526357,-0.5537296918526357,1.1206620491302386,242.24339030175162,44.015950260691795)" fill="#93ff8d" filter="url(#bbburst-blur-3)"></use><use xlink:href="#bbburst-shape-14" width="15.228665898817383" opacity="0.7208698044548458" transform="matrix(0.9836840766037562,-0.17990452311216512,0.17990452311216512,0.9836840766037562,370.96829110689066,-107.13001739463903)" fill="none" stroke="#ff6060" filter="url(#bbburst-blur-1)"></use><use xlink:href="#bbburst-shape-4" width="24.697387066947805" opacity="0.17400165209541762" transform="matrix(1.1878798500358472,-0.38915480451719076,0.38915480451719076,1.1878798500358472,601.2625855511696,-61.08756911202778)" fill="#7027a0" filter="url(#bbburst-blur-3)"></use><use xlink:href="#bbburst-shape-6" width="15.964835036443917" opacity="0.7441602577816173" transform="matrix(0.7226305665284788,0.6912344496035552,-0.6912344496035552,0.7226305665284788,722.9131021550045,208.05017737977016)" fill="#ff6767" filter="url(#bbburst-blur-1)"></use><use xlink:href="#bbburst-shape-8" width="23.241573371226924" opacity="0.6155198045312755" transform="matrix(0.736407286265161,0.6765384754288415,-0.6765384754288415,0.736407286265161,589.45873093244,-59.47243439844061)" fill="none" stroke="#ff6060" filter="url(#bbburst-blur-1)"></use><use xlink:href="#bbburst-shape-4" width="14.58823360857311" opacity="0.8467309639317644" transform="matrix(0.7261973962431809,-0.6874862483640124,0.6874862483640124,0.7261973962431809,166.779831628733,64.12547681035562)" fill="#ff5c58"></use><use xlink:href="#bbburst-shape-4" width="21.04794566969609" opacity="0.6399569891382824" transform="matrix(0.9544247362466735,-0.2984517093944477,0.2984517093944477,0.9544247362466735,401.97923983189423,116.17680621638004)" fill="#f52626" filter="url(#bbburst-blur-1)"></use><use xlink:href="#bbburst-shape-5" width="8.200280957221223" opacity="0.9671793538875295" transform="matrix(0.9954093667525533,0.09570889499561082,-0.09570889499561082,0.9954093667525533,419.5110525705242,-0.07306283188097495)" fill="#00a19d"></use><use xlink:href="#bbburst-shape-9" width="30.221421552884166" opacity="0.348420664654285" transform="matrix(0.8367188026570409,0.5476327649804821,-0.5476327649804821,0.8367188026570409,581.4585998078301,349.0045076421932)" fill="none" stroke="#801fff" filter="url(#bbburst-blur-2)"></use><use xlink:href="#bbburst-shape-12" width="28.669892526985524" opacity="0.41390426714810724" transform="matrix(0.8751692436192565,-0.48381690237413005,0.48381690237413005,0.8751692436192565,388.02713982991656,235.36105038180887)" fill="none" stroke="#f52626" filter="url(#bbburst-blur-2)"></use><use xlink:href="#bbburst-shape-4" width="44.08385456332685" opacity="0.07075690277026159" transform="matrix(1.7499978019642866,0.0027736474479508914,-0.0027736474479508914,1.7499978019642866,2.810910916652169,-86.78798376516318)" fill="#ff0075" filter="url(#bbburst-blur-4)"></use><use xlink:href="#bbburst-shape-8" width="24.291650422086832" opacity="0.5481102694222867" transform="matrix(0.843414343060705,0.5372636651770522,-0.5372636651770522,0.843414343060705,651.1415379328199,254.07587784157562)" fill="none" stroke="#ff6060" filter="url(#bbburst-blur-2)"></use><use xlink:href="#bbburst-shape-6" width="7.450816105181925" opacity="0.9263234749363141" transform="matrix(0.8854552877245501,0.46472457804664724,-0.46472457804664724,0.8854552877245501,608.1187718249121,65.24217129337148)" fill="#801fff"></use><use xlink:href="#bbburst-shape-13" width="21.346816136114764" opacity="0.5288564412040537" transform="matrix(0.8093711012729886,0.587297556971038,-0.587297556971038,0.8093711012729886,414.38555385298173,62.854627386134155)" fill="none" stroke="#ff0075" filter="url(#bbburst-blur-2)"></use><use xlink:href="#bbburst-shape-13" width="16.080799767259908" opacity="0.7678395066537413" transform="matrix(0.9991392939240843,0.04148097560186207,-0.04148097560186207,0.9991392939240843,472.25096200575933,-82.80088164214862)" fill="none" stroke="#801fff" filter="url(#bbburst-blur-1)"></use><use xlink:href="#bbburst-shape-13" width="8.833712672013881" opacity="0.9194846789935522" transform="matrix(0.876570987020711,-0.4812725887826322,0.4812725887826322,0.876570987020711,239.84425399806094,52.205645470130264)" fill="none" stroke="#ff6767"></use><use xlink:href="#bbburst-shape-13" width="9.85360566632998" opacity="0.9140496571090366" transform="matrix(0.9140880306068937,-0.4055158101741665,0.4055158101741665,0.9140880306068937,194.7142141424671,39.1660631757498)" fill="none" stroke="#43ff43"></use><use xlink:href="#bbburst-shape-1" width="15.147083319041078" opacity="0.855606795740647" transform="matrix(0.9439814519850279,0.329998512584888,-0.329998512584888,0.9439814519850279,466.3121739644574,-8.288045616932152)" fill="#ff0075"></use><use xlink:href="#bbburst-shape-6" width="31.949184890844556" opacity="0.2408133141281784" transform="matrix(1.2396643473711813,-0.16041292297312995,0.16041292297312995,1.2396643473711813,610.1632532205795,-267.0855439980379)" fill="#ff5c58" filter="url(#bbburst-blur-3)"></use><use xlink:href="#bbburst-shape-14" width="24.80217033288288" opacity="0.30388056862604185" transform="matrix(1.2032051401014239,-0.33881763654437036,0.33881763654437036,1.2032051401014239,562.0617357746711,-98.77950013990312)" fill="none" stroke="#801fff" filter="url(#bbburst-blur-3)"></use><use xlink:href="#bbburst-shape-14" width="26.051952884475902" opacity="0.2610880802358376" transform="matrix(1.0021951116041623,0.7470642263398244,-0.7470642263398244,1.0021951116041623,829.3967446631605,289.30475761089923)" fill="none" stroke="#ffffff" filter="url(#bbburst-blur-3)"></use><use xlink:href="#bbburst-shape-6" width="28.54475796368872" opacity="0.0692398779998582" transform="matrix(1.6894388615246854,0.4563949311398788,-0.4563949311398788,1.6894388615246854,339.7667950056328,-639.5118650736194)" fill="#ff5c58" filter="url(#bbburst-blur-4)"></use><use xlink:href="#bbburst-shape-4" width="9.80436718877713" opacity="0.8164572858178962" transform="matrix(0.9283121284663828,-0.37180181836862247,0.37180181836862247,0.9283121284663828,323.00966286976825,62.18400836926702)" fill="#ffffff"></use><use xlink:href="#bbburst-shape-8" width="26.116781362556253" opacity="0.576480119672925" transform="matrix(0.8551974889294505,-0.5183022814234589,0.5183022814234589,0.8551974889294505,371.99486391467667,58.495376077718845)" fill="none" stroke="#ff0075" filter="url(#bbburst-blur-1)"></use><use xlink:href="#bbburst-shape-9" width="26.5518047908578" opacity="0.3932159056006457" transform="matrix(0.8295531925797595,-0.5584277040770171,0.5584277040770171,0.8295531925797595,-21.49195636091187,274.4059613718301)" fill="none" stroke="#00a19d" filter="url(#bbburst-blur-2)"></use><use xlink:href="#bbburst-shape-4" width="15.34329296875692" opacity="0.7974674515169743" transform="matrix(0.9905812219682824,0.13692641338990966,-0.13692641338990966,0.9905812219682824,429.35227176634197,-86.65029675783927)" fill="#ff5c58"></use><use xlink:href="#bbburst-shape-14" width="30.602930960217442" opacity="0.4437794775534938" transform="matrix(0.9118642868009381,0.4104918055905823,-0.4104918055905823,0.9118642868009381,800.3554224297197,38.25317786085736)" fill="none" stroke="#fee440" filter="url(#bbburst-blur-2)"></use><use xlink:href="#bbburst-shape-14" width="44.11929811072863" opacity="0.05462485087911373" transform="matrix(1.7396630368157053,-0.18992766606568517,0.18992766606568517,1.7396630368157053,526.3242132182178,59.23274609448583)" fill="none" stroke="#43ff43" filter="url(#bbburst-blur-4)"></use><use xlink:href="#bbburst-shape-1" width="27.999351760179188" opacity="0.3853004215423683" transform="matrix(0.8398790734059687,-0.5427735642556032,0.5427735642556032,0.8398790734059687,-103.41317241291856,38.06707077791049)" fill="#f52626" filter="url(#bbburst-blur-2)"></use><use xlink:href="#bbburst-shape-10" width="25.257975084238762" opacity="0.4063922897670287" transform="matrix(0.9645863218995454,0.26376737403307987,-0.26376737403307987,0.9645863218995454,551.6811111887903,271.5056873660392)" fill="none" stroke="#ff6060" filter="url(#bbburst-blur-2)"></use><use xlink:href="#bbburst-shape-14" width="15.071285583270647" opacity="0.6917896884056571" transform="matrix(0.7606673844424459,0.6491418413917626,-0.6491418413917626,0.7606673844424459,602.1904703727098,219.54695305074677)" fill="none" stroke="#ff5c58" filter="url(#bbburst-blur-1)"></use><use xlink:href="#bbburst-shape-6" width="36.96572466803937" opacity="0.2526703575906528" transform="matrix(1.2496305449060254,0.030389163165020175,-0.030389163165020175,1.2496305449060254,107.06651268145637,-283.65329209953995)" fill="#ffffff" filter="url(#bbburst-blur-3)"></use><use xlink:href="#bbburst-shape-8" width="19.24855384745858" opacity="0.6261066859968918" transform="matrix(0.9715497239603615,-0.2368356684972626,0.2368356684972626,0.9715497239603615,298.0105895479151,-154.5794613896937)" fill="none" stroke="#ff0075" filter="url(#bbburst-blur-1)"></use><use xlink:href="#bbburst-shape-14" width="20.678021883573116" opacity="0.6994045078879878" transform="matrix(0.9998268271774626,-0.018609558195946785,0.018609558195946785,0.9998268271774626,261.9140918344722,-61.549188602250524)" fill="none" stroke="#00a19d" filter="url(#bbburst-blur-1)"></use><use xlink:href="#bbburst-shape-12" width="22.808983590054666" opacity="0.28696739033289953" transform="matrix(1.2386750624477543,-0.16788117723572238,0.16788117723572238,1.2386750624477543,213.02665099624988,209.3526341629123)" fill="none" stroke="#ffffff" filter="url(#bbburst-blur-3)"></use><use xlink:href="#bbburst-shape-10" width="26.460100505163012" opacity="0.5627114973387997" transform="matrix(0.997640998002719,-0.06864720754800464,0.06864720754800464,0.997640998002719,174.2919561654304,-65.07114260234772)" fill="none" stroke="#ff0075" filter="url(#bbburst-blur-1)"></use><use xlink:href="#bbburst-shape-10" width="34.2141087797532" opacity="0.16607190794869686" transform="matrix(1.0274551858362304,-0.7119240416633206,0.7119240416633206,1.0274551858362304,417.37457660774226,197.67670254654178)" fill="none" stroke="#ff0075" filter="url(#bbburst-blur-3)"></use><use xlink:href="#bbburst-shape-8" width="9.39429717034878" opacity="0.8085422126903774" transform="matrix(0.936414192414893,-0.3508966517993065,0.3508966517993065,0.936414192414893,300.4380870571805,100.43269811946249)" fill="none" stroke="#801fff"></use><use xlink:href="#bbburst-shape-14" width="34.02486710622936" opacity="0.14313407698642577" transform="matrix(1.0255848111092771,-0.7146158375112801,0.7146158375112801,1.0255848111092771,-186.07035211371482,264.07429923078377)" fill="none" stroke="#7027a0" filter="url(#bbburst-blur-3)"></use><use xlink:href="#bbburst-shape-6" width="32.63756171392785" opacity="0.327947738445849" transform="matrix(1.1069247209047677,0.5807044534441783,-0.5807044534441783,1.1069247209047677,508.12374503920125,-335.4490154348305)" fill="#ff6060" filter="url(#bbburst-blur-3)"></use><use xlink:href="#bbburst-shape-10" width="11.902863400693025" opacity="0.8572048280267391" transform="matrix(0.9644353105837769,0.26431899609973897,-0.26431899609973897,0.9644353105837769,496.0220886969454,-51.48252211441064)" fill="none" stroke="#ff6767"></use><use xlink:href="#bbburst-shape-12" width="9.52896420799898" opacity="0.904347087762588" transform="matrix(0.9762790070349157,0.21651628211965723,-0.21651628211965723,0.9762790070349157,477.63284384205906,51.26583820017578)" fill="none" stroke="#3db2ff"></use><use xlink:href="#bbburst-shape-2" width="38.78430794766983" opacity="-0.09032015005579153" transform="matrix(1.5242478260814032,-0.8597491289243138,0.8597491289243138,1.5242478260814032,-318.65584265609266,-541.6493797671142)" fill="#ff6060" filter="url(#bbburst-blur-4)"></use><use xlink:href="#bbburst-shape-4" width="16.946691730978383" opacity="0.6422258818708158" transform="matrix(0.8874472843304398,-0.46090922917048144,0.46090922917048144,0.8874472843304398,253.26466288378032,-105.60029633834839)" fill="#ff6060" filter="url(#bbburst-blur-1)"></use><use xlink:href="#bbburst-shape-8" width="16.722184230946535" opacity="0.7872410965212201" transform="matrix(0.9129913527077972,0.407978908622476,-0.407978908622476,0.9129913527077972,463.2420437383011,6.011057265603824)" fill="none" stroke="#ffa6d5"></use><use xlink:href="#bbburst-shape-9" width="16.79488952516065" opacity="0.780884037793828" transform="matrix(0.9958370608346797,-0.0911512384345181,0.0911512384345181,0.9958370608346797,453.1924434372247,-8.32847773106738)" fill="none" stroke="#ffffff"></use><use xlink:href="#bbburst-shape-10" width="30.913819177954874" opacity="0.19364030147702416" transform="matrix(1.2050571772564393,-0.33217043749066927,0.33217043749066927,1.2050571772564393,334.6406015407051,-429.3789023847852)" fill="none" stroke="#ff0075" filter="url(#bbburst-blur-3)"></use><use xlink:href="#bbburst-shape-2" width="33.75441275969007" opacity="0.30286274034538063" transform="matrix(1.0174962388852007,-0.7260863611544224,0.7260863611544224,1.0174962388852007,-220.7407210322413,24.104868711135396)" fill="#ff5c58" filter="url(#bbburst-blur-3)"></use><use xlink:href="#bbburst-shape-8" width="24.89526250936972" opacity="0.13928862551960752" transform="matrix(1.1704981038184132,-0.4386732143150513,0.4386732143150513,1.1704981038184132,85.94708044313722,304.19099634138615)" fill="none" stroke="#3db2ff" filter="url(#bbburst-blur-3)"></use><use xlink:href="#bbburst-shape-9" width="18.616167591537213" opacity="0.6636841068322451" transform="matrix(0.9984014125929231,0.05652096365469758,-0.05652096365469758,0.9984014125929231,314.612066982934,-114.73221211832521)" fill="none" stroke="#ff0075" filter="url(#bbburst-blur-1)"></use><use xlink:href="#bbburst-shape-14" width="10.683261442125112" opacity="0.9393600732141363" transform="matrix(0.7386662397458169,-0.6740713510154361,0.6740713510154361,0.7386662397458169,145.23414346215418,88.36490745406854)" fill="none" stroke="#ff5c58"></use><use xlink:href="#bbburst-shape-5" width="26.448803469860874" opacity="0.12211790045444804" transform="matrix(1.24384541862467,-0.12388936421831884,0.12388936421831884,1.24384541862467,473.4052900510129,273.73095630711157)" fill="#ff5c58" filter="url(#bbburst-blur-3)"></use><use xlink:href="#bbburst-shape-9" width="11.385283000115466" opacity="0.7875045462504415" transform="matrix(0.8580983849391768,0.5134853082268044,-0.5134853082268044,0.8580983849391768,681.8571108808875,3.445860322281476)" fill="none" stroke="#ffa6d5"></use><use xlink:href="#bbburst-shape-13" width="12.612366838126018" opacity="0.7878089722328702" transform="matrix(0.8659112485690889,-0.5001976705278841,0.5001976705278841,0.8659112485690889,155.41926107769206,143.92974594973765)" fill="none" stroke="#3db2ff"></use><use xlink:href="#bbburst-shape-10" width="27.69228704242328" opacity="0.5602182924356305" transform="matrix(0.9382654070084891,-0.345916212414501,0.345916212414501,0.9382654070084891,375.6715406897018,181.23534544069764)" fill="none" stroke="#ff0075" filter="url(#bbburst-blur-1)"></use><use xlink:href="#bbburst-shape-4" width="29.227090224777154" opacity="0.3274201760302611" transform="matrix(0.9088223743861966,-0.8582201884219666,0.8582201884219666,0.9088223743861966,220.64173575049142,294.41000369696064)" fill="#00a19d" filter="url(#bbburst-blur-3)"></use><use xlink:href="#bbburst-shape-2" width="11.028581372643735" opacity="0.8522420354624465" transform="matrix(0.8890150293770128,0.4578780160062165,-0.4578780160062165,0.8890150293770128,644.6453634422537,45.37231293989862)" fill="#7027a0"></use><use xlink:href="#bbburst-shape-5" width="26.951526122451078" opacity="0.3371027214446609" transform="matrix(0.9543079557908126,0.2988249077877554,-0.2988249077877554,0.9543079557908126,791.4770288649731,-74.46344400202076)" fill="#43ff43" filter="url(#bbburst-blur-2)"></use><use xlink:href="#bbburst-shape-4" width="28.782569550285423" opacity="0.4989888147073158" transform="matrix(0.9829727361439176,-0.18375146257306452,0.18375146257306452,0.9829727361439176,295.46888342709656,234.3025674371109)" fill="#ffa6d5" filter="url(#bbburst-blur-2)"></use><use xlink:href="#bbburst-shape-4" width="20.540593391665492" opacity="0.514097564224401" transform="matrix(0.7420893919274584,-0.6703009282320405,0.6703009282320405,0.7420893919274584,169.98745578274486,-103.76114943032641)" fill="#00a19d" filter="url(#bbburst-blur-2)"></use><use xlink:href="#bbburst-shape-6" width="30.83212082233119" opacity="0.4643884314881973" transform="matrix(0.9430909003925423,-0.33253504115624233,0.33253504115624233,0.9430909003925423,366.6157285094961,240.1607728592818)" fill="#f52626" filter="url(#bbburst-blur-2)"></use><use xlink:href="#bbburst-shape-4" width="36.67550483266306" opacity="0.1290669744623376" transform="matrix(0.9640207033944025,0.7957160821718772,-0.7957160821718772,0.9640207033944025,426.85774064643135,-280.66075401097464)" fill="#f52626" filter="url(#bbburst-blur-3)"></use><use xlink:href="#bbburst-shape-10" width="26.50140383589175" opacity="0.6710159341138391" transform="matrix(0.9309696098266115,-0.36509667977028615,0.36509667977028615,0.9309696098266115,94.09071789661448,20.193671876903977)" fill="none" stroke="#43ff43" filter="url(#bbburst-blur-1)"></use><use xlink:href="#bbburst-shape-10" width="13.316240697051256" opacity="0.799218782575926" transform="matrix(0.8623477923656663,-0.5063163882416425,0.5063163882416425,0.8623477923656663,204.0273876938572,147.9430113419847)" fill="none" stroke="#43ff43"></use><use xlink:href="#bbburst-shape-5" width="24.162505342451485" opacity="0.6356566259860088" transform="matrix(0.9211605433204216,0.3891828020733003,-0.3891828020733003,0.9211605433204216,406.4114226079113,115.15369893537513)" fill="#ff0075" filter="url(#bbburst-blur-1)"></use><use xlink:href="#bbburst-shape-10" width="24.143343355839967" opacity="0.5821614435685751" transform="matrix(0.963657782473172,-0.2671398103594608,0.2671398103594608,0.963657782473172,463.4026049252874,65.40385122100315)" fill="none" stroke="#3db2ff" filter="url(#bbburst-blur-1)"></use><use xlink:href="#bbburst-shape-13" width="7.970367915445079" opacity="0.9584681312349004" transform="matrix(0.9999288764501626,-0.011926526783412906,0.011926526783412906,0.9999288764501626,388.3122011489028,-18.381880991519267)" fill="none" stroke="#ff0075"></use><use xlink:href="#bbburst-shape-13" width="18.666694374857084" opacity="0.7456107283376595" transform="matrix(0.9997017914472229,-0.024419831637692176,0.024419831637692176,0.9997017914472229,326.59810034560945,-100.42831802829937)" fill="none" stroke="#00a19d" filter="url(#bbburst-blur-1)"></use><use xlink:href="#bbburst-shape-14" width="37.44877023265333" opacity="0.3146151389825804" transform="matrix(1.1229134678920003,-0.5491496550365498,0.5491496550365498,1.1229134678920003,296.5204285353374,-315.06322166463417)" fill="none" stroke="#f52626" filter="url(#bbburst-blur-3)"></use><use xlink:href="#bbburst-shape-10" width="12.068853558800624" opacity="0.7627845439281941" transform="matrix(0.8675008438872296,-0.49743571027314115,0.49743571027314115,0.8675008438872296,299.6008922778518,80.86878396863239)" fill="none" stroke="#93ff8d" filter="url(#bbburst-blur-1)"></use><use xlink:href="#bbburst-shape-5" width="12.13060755355253" opacity="0.8030458669031856" transform="matrix(0.7903073133553092,-0.6127106580247427,0.6127106580247427,0.7903073133553092,71.43844379263413,128.38571429993738)" fill="#ff5c58"></use><use xlink:href="#bbburst-shape-5" width="17.289122164708935" opacity="0.7472582635411444" transform="matrix(0.7927558305913205,-0.6095393285617144,0.6095393285617144,0.7927558305913205,161.7032580039364,-24.89199440167164)" fill="#3db2ff" filter="url(#bbburst-blur-1)"></use><use xlink:href="#bbburst-shape-9" width="27.239629707144168" opacity="0.46662127638456885" transform="matrix(0.9699526318057841,-0.24329383891301729,0.24329383891301729,0.9699526318057841,184.61904815657851,-200.7739089484508)" fill="none" stroke="#ff5c58" filter="url(#bbburst-blur-2)"></use><use xlink:href="#bbburst-shape-12" width="16.54749432757866" opacity="0.8443274239896401" transform="matrix(0.7649338880048189,-0.6441088005778458,0.6441088005778458,0.7649338880048189,97.17494582092166,41.02877714691169)" fill="none" stroke="#3db2ff"></use><use xlink:href="#bbburst-shape-2" width="15.938359106131323" opacity="0.6307606499521752" transform="matrix(0.8343585702274027,0.5512220752909706,-0.5512220752909706,0.8343585702274027,677.9133592877032,215.1753496984855)" fill="#7027a0" filter="url(#bbburst-blur-1)"></use><use xlink:href="#bbburst-shape-10" width="37.74145553668711" opacity="-0.08773931099159227" transform="matrix(1.6083815674609923,-0.6896439178675625,0.6896439178675625,1.6083815674609923,-256.1563977917765,111.90413091306482)" fill="none" stroke="#801fff" filter="url(#bbburst-blur-4)"></use><use xlink:href="#bbburst-shape-5" width="35.19111218360098" opacity="0.1939055122749178" transform="matrix(0.9150014037846219,0.8516292803046237,-0.8516292803046237,0.9150014037846219,979.3484001662621,277.20208455933755)" fill="#93ff8d" filter="url(#bbburst-blur-3)"></use><use xlink:href="#bbburst-shape-2" width="30.510775812568443" opacity="0.0351202682058952" transform="matrix(1.3660428382914143,1.09381303884747,-1.09381303884747,1.3660428382914143,1180.5774105023968,-399.9299155712322)" fill="#fee440" filter="url(#bbburst-blur-4)"></use><use xlink:href="#bbburst-shape-13" width="23.214801850260795" opacity="0.523006927656676" transform="matrix(0.9967815592351479,-0.08016559841195768,0.08016559841195768,0.9967815592351479,510.2891372230381,-147.3824078051387)" fill="none" stroke="#3db2ff" filter="url(#bbburst-blur-2)"></use><use xlink:href="#bbburst-shape-12" width="27.74361024655221" opacity="0.10383617478469143" transform="matrix(1.2944772315889563,-1.1776369121668153,1.1776369121668153,1.2944772315889563,81.48645237992537,-466.95115324942265)" fill="none" stroke="#93ff8d" filter="url(#bbburst-blur-4)"></use><use xlink:href="#bbburst-shape-6" width="21.308899184611345" opacity="0.555595474613517" transform="matrix(0.9454506665206772,-0.3257653099634876,0.3257653099634876,0.9454506665206772,222.19781308974817,-171.15852378329723)" fill="#00a19d" filter="url(#bbburst-blur-1)"></use><use xlink:href="#bbburst-shape-9" width="18.387595450755498" opacity="0.5852708797008348" transform="matrix(0.7710431810340042,0.6367828617205114,-0.6367828617205114,0.7710431810340042,806.9371835375935,-11.704856595594833)" fill="none" stroke="#ffa6d5" filter="url(#bbburst-blur-1)"></use><use xlink:href="#bbburst-shape-4" width="9.74413833393439" opacity="0.9084385173141634" transform="matrix(0.9354379515520499,-0.3534909317027875,0.3534909317027875,0.9354379515520499,242.57721098218371,-12.018064130204664)" fill="#93ff8d"></use><use xlink:href="#bbburst-shape-1" width="18.602502941095356" opacity="0.6777178625082885" transform="matrix(0.9940023401894954,0.10935880256205509,-0.10935880256205509,0.9940023401894954,523.2084839512512,116.13502768940873)" fill="#ff0075" filter="url(#bbburst-blur-1)"></use><use xlink:href="#bbburst-shape-14" width="7.95513751167338" opacity="0.9390521320457632" transform="matrix(0.9948636497910256,0.10122409952417284,-0.10122409952417284,0.9948636497910256,444.4300583424423,27.92716520466928)" fill="none" stroke="#ffa6d5"></use><use xlink:href="#bbburst-shape-12" width="32.58117795924304" opacity="-0.09914787740763464" transform="matrix(1.7439495382347383,-0.14539603877287427,0.14539603877287427,1.7439495382347383,658.1207736040238,59.40960119092051)" fill="none" stroke="#f52626" filter="url(#bbburst-blur-4)"></use><use xlink:href="#bbburst-shape-13" width="34.555378768294226" opacity="0.4933481885899641" transform="matrix(0.9768703841462414,-0.2138323001278686,0.2138323001278686,0.9768703841462414,103.00401220883673,131.7639908361637)" fill="none" stroke="#f52626" filter="url(#bbburst-blur-2)"></use><use xlink:href="#bbburst-shape-9" width="29.523266284377296" opacity="0.43366747734424316" transform="matrix(0.9319341676657534,-0.36262750466165605,0.36262750466165605,0.9319341676657534,138.89140628692442,265.84117712231665)" fill="none" stroke="#ff0075" filter="url(#bbburst-blur-2)"></use><use xlink:href="#bbburst-shape-5" width="7.929801154181001" opacity="0.9490107132034422" transform="matrix(0.987036358474757,-0.16049681320478276,0.16049681320478276,0.987036358474757,318.9953471470121,24.802500104591388)" fill="#ff0075"></use><use xlink:href="#bbburst-shape-4" width="24.90845262663607" opacity="0.30502806178168684" transform="matrix(1.1914528472372914,0.3780742160081161,-0.3780742160081161,1.1914528472372914,511.1087070099996,-392.97726819987184)" fill="#ff0075" filter="url(#bbburst-blur-3)"></use><use xlink:href="#bbburst-shape-10" width="13.870897519441476" opacity="0.7178937994480934" transform="matrix(0.971634906327245,-0.23648595900485475,0.23648595900485475,0.971634906327245,418.97052968262705,-27.545004013503046)" fill="none" stroke="#ff6060" filter="url(#bbburst-blur-1)"></use><use xlink:href="#bbburst-shape-9" width="20.871262125748608" opacity="0.5791577128199203" transform="matrix(0.8553173038857843,-0.5181045354690044,0.5181045354690044,0.8553173038857843,0.12192533214562218,109.43744087131961)" fill="none" stroke="#ffffff" filter="url(#bbburst-blur-1)"></use><use xlink:href="#bbburst-shape-5" width="29.53930937991822" opacity="0.18366299664985086" transform="matrix(1.1407138427375236,-0.5111476586926642,0.5111476586926642,1.1407138427375236,164.88025779626423,318.3558111345512)" fill="#ffa6d5" filter="url(#bbburst-blur-3)"></use><use xlink:href="#bbburst-shape-10" width="11.35429591544858" opacity="0.8933612730544036" transform="matrix(0.9204146830173557,0.3909434886093649,-0.3909434886093649,0.9204146830173557,569.0560795795762,-14.907664749708374)" fill="none" stroke="#7027a0"></use><use xlink:href="#bbburst-shape-9" width="23.827265907923792" opacity="0.6331023262204429" transform="matrix(0.7529333735122028,-0.6580967520445102,0.6580967520445102,0.7529333735122028,122.06854494044546,271.5544204340737)" fill="none" stroke="#43ff43" filter="url(#bbburst-blur-1)"></use><use xlink:href="#bbburst-shape-12" width="29.125491404779673" opacity="0.15259877943138167" transform="matrix(0.9690132167755867,-0.789628637850876,0.789628637850876,0.9690132167755867,434.13402446448674,-89.36508111717501)" fill="none" stroke="#43ff43" filter="url(#bbburst-blur-3)"></use><use xlink:href="#bbburst-shape-14" width="17.026468675934005" opacity="0.7096076979830672" transform="matrix(0.9760235029406493,0.21766515960866215,-0.21766515960866215,0.9760235029406493,501.98270753794225,136.35506452108223)" fill="none" stroke="#3db2ff" filter="url(#bbburst-blur-1)"></use><use xlink:href="#bbburst-shape-10" width="38.52037206367945" opacity="0.40379552778087424" transform="matrix(0.9784990632135898,-0.20625126251765638,0.20625126251765638,0.9784990632135898,40.08629310140867,84.15244400361337)" fill="none" stroke="#fee440" filter="url(#bbburst-blur-2)"></use><use xlink:href="#bbburst-shape-9" width="17.481713422154698" opacity="0.7482567145292938" transform="matrix(0.9954957859929361,0.09480580188103681,-0.09480580188103681,0.9954957859929361,518.1844224719682,71.00439961868994)" fill="none" stroke="#ff0075" filter="url(#bbburst-blur-1)"></use><use xlink:href="#bbburst-shape-10" width="9.389290428365342" opacity="0.9129019673793286" transform="matrix(0.8548953155427375,-0.5188005391892759,0.5188005391892759,0.8548953155427375,157.20711751925458,36.83345793217802)" fill="none" stroke="#93ff8d"></use><use xlink:href="#bbburst-shape-10" width="8.440703220902531" opacity="0.9767354294756413" transform="matrix(0.9953266613333245,0.09656519683124797,-0.09656519683124797,0.9953266613333245,444.53203167860005,4.192750132297419)" fill="none" stroke="#3db2ff"></use><use xlink:href="#bbburst-shape-9" width="26.080173531687645" opacity="0.4244191852320235" transform="matrix(0.7861507688249213,0.6180347633232173,-0.6180347633232173,0.7861507688249213,856.6598147582466,-60.0173715549451)" fill="none" stroke="#ff6767" filter="url(#bbburst-blur-2)"></use><use xlink:href="#bbburst-shape-2" width="28.988736552229547" opacity="0.1335797864094732" transform="matrix(1.2230978543270685,0.257937276756426,-0.257937276756426,1.2230978543270685,769.8550446733213,-359.64955194384254)" fill="#ff0075" filter="url(#bbburst-blur-3)"></use><use xlink:href="#bbburst-shape-4" width="10.014222854647405" opacity="0.8979414306282242" transform="matrix(0.9378120894941475,-0.34714332025637645,0.34714332025637645,0.9378120894941475,223.14595298648686,58.24568732496152)" fill="#801fff"></use><use xlink:href="#bbburst-shape-13" width="29.49642384676499" opacity="0.2941480158270583" transform="matrix(1.097357080951169,0.5985878689769194,-0.5985878689769194,1.097357080951169,436.3829811481995,-304.61968414721036)" fill="none" stroke="#ffa6d5" filter="url(#bbburst-blur-3)"></use></svg>