<svg xmlns="http://www.w3.org/2000/svg" version="1.1" xmlns:xlink="http://www.w3.org/1999/xlink" xmlns:svgjs="http://svgjs.dev/svgjs" viewBox="0 0 800 800" opacity="0.57"><defs><filter id="bbburst-blur-1" x="-100%" y="-100%" width="400%" height="400%"><feGaussianBlur in="SourceGraphic" stdDeviation="1"></feGaussianBlur></filter><filter id="bbburst-blur-2" x="-100%" y="-100%" width="400%" height="400%"><feGaussianBlur in="SourceGraphic" stdDeviation="2"></feGaussianBlur></filter><filter id="bbburst-blur-3" x="-100%" y="-100%" width="400%" height="400%"><feGaussianBlur in="SourceGraphic" stdDeviation="4"></feGaussianBlur></filter><filter id="bbburst-blur-4" x="-100%" y="-100%" width="400%" height="400%"><feGaussianBlur in="SourceGraphic" stdDeviation="12"></feGaussianBlur></filter><symbol id="bbburst-shape-1" viewBox="0 0 194 167"><path d="m97 0 96.129 166.5H.871L97 0Z"></path></symbol><symbol id="bbburst-shape-4" viewBox="0 0 149 143"><path d="M71.647 2.781c.898-2.764 4.808-2.764 5.706 0l15.445 47.534a3 3 0 0 0 2.853 2.073h49.98c2.906 0 4.115 3.719 1.764 5.427L106.96 87.193a2.999 2.999 0 0 0-1.09 3.354l15.445 47.534c.898 2.764-2.266 5.062-4.617 3.354l-40.435-29.378a3 3 0 0 0-3.526 0l-40.435 29.378c-2.351 1.708-5.515-.59-4.617-3.354L43.13 90.547a3 3 0 0 0-1.09-3.354L1.605 57.815c-2.35-1.708-1.142-5.427 1.764-5.427h49.98a3 3 0 0 0 2.853-2.073L71.647 2.781Z"></path></symbol><symbol id="bbburst-shape-6" viewBox="0 0 133 116"><path d="M59.7487 10.2513c-13.6683-13.66839-35.8291-13.66839-49.4974 0-13.66839 13.6683-13.66839 35.8291 0 49.4974l49.4974-49.4974ZM66.5 66.5 41.7513 91.2487 66.5 115.997l24.7487-24.7483L66.5 66.5Zm56.249-6.7513c13.668-13.6683 13.668-35.8291 0-49.4974-13.669-13.66839-35.8294-13.66839-49.4977 0l49.4977 49.4974Zm-112.4977 0 31.5 31.5 49.4974-49.4974-31.5-31.5-49.4974 49.4974Zm80.9974 31.5 31.5003-31.5-49.4977-49.4974-31.5 31.5 49.4974 49.4974Z"></path></symbol><symbol id="bbburst-shape-8" viewBox="0 0 87 168"><path d="m12 12 31.2546 18.0749c16.4102 9.4902 20.014 31.6325 7.4603 45.8369L36.3296 92.1884c-12.5684 14.2206-8.9394 36.3916 7.5068 45.8636L75 156" stroke-width="14" stroke-linecap="round" stroke-linejoin="round"></path></symbol><symbol id="bbburst-shape-9" viewBox="0 0 182 172"><path d="M13.5809 69.845 91 13.5967l77.419 56.2483-29.571 91.012H43.1524L13.5809 69.845Z" stroke-width="22"></path></symbol><symbol id="bbburst-shape-10" viewBox="0 0 145 145"><circle cx="72.5" cy="72.5" r="61.5" fill="none" stroke-width="22"></circle></symbol><symbol id="bbburst-shape-13" viewBox="0 0 159 159"><path stroke-width="22" d="M11 11h137v137H11z"></path></symbol><symbol id="bbburst-shape-14" viewBox="0 0 185 109"><path d="M168 16.5C168 58.1975 134.197 92 92.5 92 50.8025 92 17 58.1975 17 16.5" stroke-width="33" stroke-linecap="round"></path></symbol></defs><use xlink:href="#bbburst-shape-6" width="32.15428167714687" opacity="0.29670778841732337" transform="matrix(1.0275787139783583,0.7117457316897542,-0.7117457316897542,1.0275787139783583,952.386546552335,-161.706725339738)" fill="#00a19d" filter="url(#bbburst-blur-3)"></use><use xlink:href="#bbburst-shape-4" width="20.251623735508023" opacity="0.5627472633102186" transform="matrix(0.7426604550514291,-0.6696681629753681,0.6696681629753681,0.7426604550514291,187.06443840831037,296.324305041014)" fill="#ffbd9b" filter="url(#bbburst-blur-1)"></use><use xlink:href="#bbburst-shape-10" width="11.193782921718562" opacity="0.7587833474579305" transform="matrix(0.7741953404824783,-0.6329467392879274,0.6329467392879274,0.7741953404824783,53.28715158768716,155.71687085487935)" fill="none" stroke="#00a19d" filter="url(#bbburst-blur-1)"></use><use xlink:href="#bbburst-shape-6" width="30.52048264580367" opacity="0.03202301092085291" transform="matrix(1.6100764249156878,0.6856776982888663,-0.6856776982888663,1.6100764249156878,1005.853412471102,-3.7077072241974065)" fill="#00a19d" filter="url(#bbburst-blur-4)"></use><use xlink:href="#bbburst-shape-8" width="6.23609797349771" opacity="0.8727450371750212" transform="matrix(0.7771141063449505,-0.6293597268015241,0.6293597268015241,0.7771141063449505,100.10370727230307,56.64821334300615)" fill="none" stroke="#ff6767"></use><use xlink:href="#bbburst-shape-9" width="6.154720788095137" opacity="0.8925857363397326" transform="matrix(0.7422537852689639,0.6701188836720652,-0.6701188836720652,0.7422537852689639,675.3465385957452,53.622948617962095)" fill="none" stroke="#ff6767"></use><use xlink:href="#bbburst-shape-10" width="8.663044115580234" opacity="0.8081786460548097" transform="matrix(0.7474735722125605,-0.6642915465695721,0.6642915465695721,0.7474735722125605,139.945620341917,18.0283821707107)" fill="none" stroke="#ffbd9b"></use><use xlink:href="#bbburst-shape-8" width="9.914006690930094" opacity="0.8446186770612232" transform="matrix(0.8481873861758562,-0.5296962883881375,0.5296962883881375,0.8481873861758562,214.09176015461,126.42621741619098)" fill="none" stroke="#ff0075"></use><use xlink:href="#bbburst-shape-10" width="6.555030899935225" opacity="0.878790894510376" transform="matrix(0.9956593404598645,-0.09307243284145812,0.09307243284145812,0.9956593404598645,343.0305772525567,54.03711069723886)" fill="none" stroke="#00a19d"></use><use xlink:href="#bbburst-shape-14" width="24.730189162617684" opacity="0.42580129232986397" transform="matrix(0.9882837820709035,-0.15262754042318466,0.15262754042318466,0.9882837820709035,566.4337531456165,-89.87667164527068)" fill="none" stroke="#ffbd9b" filter="url(#bbburst-blur-2)"></use><use xlink:href="#bbburst-shape-9" width="8.865947777041475" opacity="0.7894368162052213" transform="matrix(0.8581779515740485,0.5133523190092454,-0.5133523190092454,0.8581779515740485,694.9567668115135,70.42144770364496)" fill="none" stroke="#ff0075"></use><use xlink:href="#bbburst-shape-13" width="27.461113461235875" opacity="0.22409555477405496" transform="matrix(1.1997702305579279,-0.3507868211135881,0.3507868211135881,1.1997702305579279,-94.78846284794452,12.466730841187427)" fill="none" stroke="#ff0075" filter="url(#bbburst-blur-3)"></use><use xlink:href="#bbburst-shape-13" width="7.570380472829353" opacity="0.7638978738927422" transform="matrix(0.7706734822291728,0.6372302439375904,-0.6372302439375904,0.7706734822291728,583.958884776137,7.697383468583951)" fill="none" stroke="#ffbd9b" filter="url(#bbburst-blur-1)"></use><use xlink:href="#bbburst-shape-4" width="14.536876676435089" opacity="0.6146595292089336" transform="matrix(0.955366258088997,0.29542395452134207,-0.29542395452134207,0.955366258088997,672.524246797246,-47.92190675116734)" fill="#ff5c58" filter="url(#bbburst-blur-1)"></use><use xlink:href="#bbburst-shape-6" width="25.811465337140035" opacity="0.3004910819081891" transform="matrix(1.0542458922288058,0.6716141740007346,-0.6716141740007346,1.0542458922288058,407.8463601878344,164.52219372690212)" fill="#ff0075" filter="url(#bbburst-blur-3)"></use><use xlink:href="#bbburst-shape-4" width="26.195733662929968" opacity="0.12823105157601844" transform="matrix(1.2420102435786855,-0.14110476549576328,0.14110476549576328,1.2420102435786855,454.08585109070265,-466.16745725291474)" fill="#ff6767" filter="url(#bbburst-blur-3)"></use><use xlink:href="#bbburst-shape-1" width="6.998219275588013" opacity="0.8360130987514867" transform="matrix(0.9138097504722149,-0.4061425118624107,0.4061425118624107,0.9138097504722149,219.15637925157966,-36.30774903572399)" fill="#00a19d"></use><use xlink:href="#bbburst-shape-4" width="12.377078984057434" opacity="0.6695540373290838" transform="matrix(0.8355923830197217,-0.5493499517060347,0.5493499517060347,0.8355923830197217,110.25057231632144,-64.64523615050541)" fill="#ff6767" filter="url(#bbburst-blur-1)"></use><use xlink:href="#bbburst-shape-13" width="5.789216172161682" opacity="0.9257877284459515" transform="matrix(0.9321819470036475,-0.3619900795332504,0.3619900795332504,0.9321819470036475,281.8023200635446,44.20525550444415)" fill="none" stroke="#ff0075"></use><use xlink:href="#bbburst-shape-10" width="29.43740873488649" opacity="0.11625427460177651" transform="matrix(1.2030191558621481,-0.33947740812714505,0.33947740812714505,1.2030191558621481,92.04169954353239,290.25288314249974)" fill="none" stroke="#ff0075" filter="url(#bbburst-blur-3)"></use><use xlink:href="#bbburst-shape-8" width="4.765434093493546" opacity="0.9412169454425074" transform="matrix(0.9212016374415749,0.38908552167224253,-0.38908552167224253,0.9212016374415749,552.2806871996663,57.01925548085967)" fill="none" stroke="#00a19d"></use><use xlink:href="#bbburst-shape-6" width="13.711504508229968" opacity="0.7350140060916686" transform="matrix(0.9864154828444602,0.16426958088681662,-0.16426958088681662,0.9864154828444602,576.2465225717777,-17.127125551085726)" fill="#ffbd9b" filter="url(#bbburst-blur-1)"></use><use xlink:href="#bbburst-shape-10" width="10.635383736503393" opacity="0.7713496704566486" transform="matrix(0.8483054193889541,-0.5295072383219428,0.5295072383219428,0.8483054193889541,82.09933828347616,79.8346835306645)" fill="none" stroke="#ff5c58" filter="url(#bbburst-blur-1)"></use><use xlink:href="#bbburst-shape-8" width="5.737789474140398" opacity="0.8791965885354738" transform="matrix(0.9978219811037102,-0.06596433904972324,0.06596433904972324,0.9978219811037102,316.8997392248685,-6.3659408234037755)" fill="none" stroke="#2c2891"></use><use xlink:href="#bbburst-shape-9" width="12.637470578376636" opacity="0.7036357234133797" transform="matrix(0.9920889658758499,0.12553678260727696,-0.12553678260727696,0.9920889658758499,537.3261988242109,97.51305905985635)" fill="none" stroke="#00a19d" filter="url(#bbburst-blur-1)"></use><use xlink:href="#bbburst-shape-6" width="3.2275549836954034" opacity="0.99200264483727" transform="matrix(0.9501727782915079,-0.3117237421079713,0.3117237421079713,0.9501727782915079,271.6110783468091,23.307920162186576)" fill="#ff6767"></use><use xlink:href="#bbburst-shape-1" width="7.1312534353765145" opacity="0.8760428378814318" transform="matrix(0.9903213050809301,-0.13879377760837597,0.13879377760837597,0.9903213050809301,308.8689817359681,50.00578235684799)" fill="#ff0075"></use><use xlink:href="#bbburst-shape-1" width="9.426715705606217" opacity="0.7533161960897872" transform="matrix(0.8341475922077768,0.55154128985414,-0.55154128985414,0.8341475922077768,719.1248648120143,106.49945402245663)" fill="#ffbd9b" filter="url(#bbburst-blur-1)"></use><use xlink:href="#bbburst-shape-9" width="5.199141152701833" opacity="0.9104948747974727" transform="matrix(0.7733191001791194,0.6340170102593125,-0.6340170102593125,0.7733191001791194,688.5542138586485,72.9336943352314)" fill="none" stroke="#2c2891"></use><use xlink:href="#bbburst-shape-9" width="7.664697213737291" opacity="0.8364309854860852" transform="matrix(0.9733783268141534,-0.22920434744672544,0.22920434744672544,0.9733783268141534,272.72116450429434,77.83272698495273)" fill="none" stroke="#00a19d"></use><use xlink:href="#bbburst-shape-8" width="14.364659975155146" opacity="0.6787349220488079" transform="matrix(0.8312150329907709,-0.5559510490413266,0.5559510490413266,0.8312150329907709,244.8184479083301,-53.178939565087546)" fill="none" stroke="#00a19d" filter="url(#bbburst-blur-1)"></use><use xlink:href="#bbburst-shape-10" width="35.365139000729485" opacity="0.19113756276447258" transform="matrix(1.220991145232269,0.2677323724624868,-0.2677323724624868,1.220991145232269,840.228515531353,-11.540690422370801)" fill="none" stroke="#2c2891" filter="url(#bbburst-blur-3)"></use><use xlink:href="#bbburst-shape-14" width="22.988576410158622" opacity="0.4148094943717777" transform="matrix(0.9222026073617211,-0.386707060932747,0.386707060932747,0.9222026073617211,495.5613613871951,-0.6324716796765983)" fill="none" stroke="#ff6767" filter="url(#bbburst-blur-2)"></use><use xlink:href="#bbburst-shape-13" width="12.404149390740304" opacity="0.7611416547216234" transform="matrix(0.8460976810970238,-0.5330278736072244,0.5330278736072244,0.8460976810970238,267.860562614326,128.9158597313214)" fill="none" stroke="#ff5c58" filter="url(#bbburst-blur-1)"></use><use xlink:href="#bbburst-shape-1" width="7.767603083170769" opacity="0.8795814333689508" transform="matrix(0.9998542967340621,-0.017070011787751686,0.017070011787751686,0.9998542967340621,441.3782612116256,-14.801272888222343)" fill="#ff0075"></use><use xlink:href="#bbburst-shape-6" width="31.38614782934419" opacity="0.2102484918093287" transform="matrix(0.9780077078355038,0.778460611344173,-0.778460611344173,0.9780077078355038,613.0241631462038,342.138033479759)" fill="#2c2891" filter="url(#bbburst-blur-3)"></use><use xlink:href="#bbburst-shape-10" width="25.541247004911455" opacity="0.028214195962813937" transform="matrix(1.606990343240482,0.6928795254096037,-0.6928795254096037,1.606990343240482,1021.7312945030794,-492.34187769163384)" fill="none" stroke="#2c2891" filter="url(#bbburst-blur-4)"></use><use xlink:href="#bbburst-shape-6" width="23.429101967430277" opacity="0.299105414674254" transform="matrix(0.9307894876984263,0.8343446108114447,-0.8343446108114447,0.9307894876984263,844.2767300465666,-273.1743995101601)" fill="#2c2891" filter="url(#bbburst-blur-3)"></use><use xlink:href="#bbburst-shape-9" width="27.7810073530924" opacity="0.3371903003550393" transform="matrix(0.9997172617887139,0.023778067240128407,-0.023778067240128407,0.9997172617887139,99.19701221802097,32.60532061712797)" fill="none" stroke="#2c2891" filter="url(#bbburst-blur-2)"></use><use xlink:href="#bbburst-shape-8" width="12.996624919036924" opacity="0.6515319091727112" transform="matrix(0.746168473986926,-0.6657571692652076,0.6657571692652076,0.746168473986926,258.6232945454376,17.836031336743417)" fill="none" stroke="#ffbd9b" filter="url(#bbburst-blur-1)"></use><use xlink:href="#bbburst-shape-13" width="29.91951115012479" opacity="0.46129433494788963" transform="matrix(0.9315819004053311,0.36353151560379426,-0.36353151560379426,0.9315819004053311,684.6272151008692,-165.9835649523781)" fill="none" stroke="#ffbd9b" filter="url(#bbburst-blur-2)"></use><use xlink:href="#bbburst-shape-13" width="9.015779246677516" opacity="0.7473151655312495" transform="matrix(0.8293348089226863,0.5587519796020157,-0.5587519796020157,0.8293348089226863,721.9128727248752,15.799363037052672)" fill="none" stroke="#ff0075" filter="url(#bbburst-blur-1)"></use><use xlink:href="#bbburst-shape-9" width="15.875333561575271" opacity="0.5304781683730749" transform="matrix(0.7814165803451166,0.6240097178423938,-0.6240097178423938,0.7814165803451166,583.6784011784079,-120.25209041399651)" fill="none" stroke="#ff6767" filter="url(#bbburst-blur-2)"></use><use xlink:href="#bbburst-shape-6" width="16.9378813230713" opacity="0.5716165431702773" transform="matrix(0.9513840025684629,0.3080072720842982,-0.3080072720842982,0.9513840025684629,352.9734775789743,-87.3801892996986)" fill="#00a19d" filter="url(#bbburst-blur-1)"></use><use xlink:href="#bbburst-shape-13" width="9.983706519096973" opacity="0.8237206986350074" transform="matrix(0.8074299191895455,0.5899634951397958,-0.5899634951397958,0.8074299191895455,553.2641729916594,84.10028220846402)" fill="none" stroke="#ff5c58"></use><use xlink:href="#bbburst-shape-10" width="24.514109345370898" opacity="0.4623285221144855" transform="matrix(0.972828021933184,0.23152891772210363,-0.23152891772210363,0.972828021933184,243.42505999423125,55.43721377293002)" fill="none" stroke="#ff5c58" filter="url(#bbburst-blur-2)"></use><use xlink:href="#bbburst-shape-9" width="34.57592537404753" opacity="0.05188529205635761" transform="matrix(1.7416999121878407,-0.1702392900739061,0.1702392900739061,1.7416999121878407,61.40996265745001,58.37137191196928)" fill="none" stroke="#2c2891" filter="url(#bbburst-blur-4)"></use><use xlink:href="#bbburst-shape-13" width="31.359083840513904" opacity="0.30493163153771674" transform="matrix(0.8880255524973193,-0.8797218981654548,0.8797218981654548,0.8880255524973193,-56.884412896167646,-240.64514494397832)" fill="none" stroke="#ffbd9b" filter="url(#bbburst-blur-3)"></use><use xlink:href="#bbburst-shape-9" width="9.80423885351147" opacity="0.7351800395260304" transform="matrix(0.9398947468077368,0.34146429523922456,-0.34146429523922456,0.9398947468077368,511.27737533628965,139.65934090777927)" fill="none" stroke="#ff0075" filter="url(#bbburst-blur-1)"></use><use xlink:href="#bbburst-shape-13" width="17.93537759105622" opacity="0.5780692913270609" transform="matrix(0.999995352197365,-0.0030488659642230937,0.0030488659642230937,0.999995352197365,558.8229598946787,86.54935158226601)" fill="none" stroke="#ff5c58" filter="url(#bbburst-blur-1)"></use><use xlink:href="#bbburst-shape-9" width="4.385928901826805" opacity="0.9379094490789064" transform="matrix(0.9308913308995762,0.36529622234019293,-0.36529622234019293,0.9308913308995762,516.8589488177336,33.08152827516312)" fill="none" stroke="#ff0075"></use><use xlink:href="#bbburst-shape-13" width="12.963100883878939" opacity="0.5935132060339119" transform="matrix(0.9380050204006819,-0.34662166940789546,0.34662166940789546,0.9380050204006819,177.51171095502792,-138.52343260299708)" fill="none" stroke="#ffbd9b" filter="url(#bbburst-blur-1)"></use><use xlink:href="#bbburst-shape-14" width="14.29943591621053" opacity="0.5811288764046658" transform="matrix(0.9999991176680957,-0.0013284061991956188,0.0013284061991956188,0.9999991176680957,204.54976404583874,16.520617728850027)" fill="none" stroke="#ffbd9b" filter="url(#bbburst-blur-1)"></use><use xlink:href="#bbburst-shape-6" width="15.853602652189416" opacity="0.7251499664919889" transform="matrix(0.7330758107181599,0.6801469368746084,-0.6801469368746084,0.7330758107181599,550.3186459698868,144.4808350327774)" fill="#ffbd9b" filter="url(#bbburst-blur-1)"></use><use xlink:href="#bbburst-shape-13" width="26.32448317854726" opacity="0.15491808501719495" transform="matrix(1.0608433576748102,-0.6611439861915367,0.6611439861915367,1.0608433576748102,-248.30865964063332,-103.9583866953958)" fill="none" stroke="#ffbd9b" filter="url(#bbburst-blur-3)"></use><use xlink:href="#bbburst-shape-6" width="10.048723063369872" opacity="0.7383841777826898" transform="matrix(0.953472069320488,0.30148136430915023,-0.30148136430915023,0.953472069320488,398.1542437715275,12.772402098145847)" fill="#ff6767" filter="url(#bbburst-blur-1)"></use><use xlink:href="#bbburst-shape-13" width="10.068237113725093" opacity="0.7915024841710442" transform="matrix(0.9165674944725031,0.3998800171006274,-0.3998800171006274,0.9165674944725031,461.98905504126776,21.93050954474768)" fill="none" stroke="#ff0075"></use><use xlink:href="#bbburst-shape-10" width="4.510926806712272" opacity="0.9685902456511789" transform="matrix(0.9474577352706015,-0.31988097767123147,0.31988097767123147,0.9474577352706015,256.3891247972983,25.85533204152182)" fill="none" stroke="#00a19d"></use><use xlink:href="#bbburst-shape-13" width="5.81783741917363" opacity="0.9292007906865922" transform="matrix(0.9828486148989631,-0.18441420821398105,0.18441420821398105,0.9828486148989631,347.26625567245605,-13.68045715247689)" fill="none" stroke="#ffbd9b"></use><use xlink:href="#bbburst-shape-6" width="12.242797620272057" opacity="0.6220120573072774" transform="matrix(0.9468146140380798,-0.3217795621911405,0.3217795621911405,0.9468146140380798,231.59922861571462,-143.43956045444637)" fill="#ffbd9b" filter="url(#bbburst-blur-1)"></use><use xlink:href="#bbburst-shape-8" width="5.679743265941892" opacity="0.9015053091761764" transform="matrix(0.8746063833386494,-0.4848336562402485,0.4848336562402485,0.8746063833386494,247.62836344134678,56.481968762431904)" fill="none" stroke="#ffbd9b"></use><use xlink:href="#bbburst-shape-6" width="9.790552913059967" opacity="0.7370453631694076" transform="matrix(0.9814627907252232,-0.19165278610512473,0.19165278610512473,0.9814627907252232,411.1869630851169,-65.24973056503677)" fill="#ff6767" filter="url(#bbburst-blur-1)"></use><use xlink:href="#bbburst-shape-10" width="18.542407784593642" opacity="0.5471224006481079" transform="matrix(0.9114883513493681,-0.4113258870462822,0.4113258870462822,0.9114883513493681,210.48177445220844,-163.90469330050698)" fill="none" stroke="#ff0075" filter="url(#bbburst-blur-2)"></use><use xlink:href="#bbburst-shape-6" width="16.507195968251036" opacity="0.16576392904219805" transform="matrix(1.0703141158529421,-0.6456993831543706,0.6456993831543706,1.0703141158529421,508.2051738435704,-30.900472747602805)" fill="#ffbd9b" filter="url(#bbburst-blur-3)"></use><use xlink:href="#bbburst-shape-13" width="5.944278690892647" opacity="0.8966607525681112" transform="matrix(0.9105270761928275,0.41344944493824276,-0.41344944493824276,0.9105270761928275,539.3035108291806,-5.643367165968073)" fill="none" stroke="#ffbd9b"></use><use xlink:href="#bbburst-shape-14" width="23.727571510708856" opacity="0.14321186815344344" transform="matrix(1.0580260063291451,-0.6656432752842921,0.6656432752842921,1.0580260063291451,225.53757022010592,355.892426832168)" fill="none" stroke="#2c2891" filter="url(#bbburst-blur-3)"></use><use xlink:href="#bbburst-shape-10" width="8.707489910925345" opacity="0.8059581229692454" transform="matrix(0.8703912615703999,-0.49236069276688577,0.49236069276688577,0.8703912615703999,255.38705427264912,120.88284693723887)" fill="none" stroke="#ff0075"></use><use xlink:href="#bbburst-shape-6" width="18.6669558562524" opacity="0.49343848866755036" transform="matrix(0.9994150946716558,0.03419749321873341,-0.03419749321873341,0.9994150946716558,452.7660535650616,-222.83691031677589)" fill="#ff0075" filter="url(#bbburst-blur-2)"></use><use xlink:href="#bbburst-shape-9" width="11.81521821456608" opacity="0.7193673331403906" transform="matrix(0.9583665314971004,-0.2855408750183015,0.2855408750183015,0.9583665314971004,211.30286876684318,-87.636427939236)" fill="none" stroke="#ff5c58" filter="url(#bbburst-blur-1)"></use><use xlink:href="#bbburst-shape-9" width="8.66148560434775" opacity="0.813149797174284" transform="matrix(0.7795438521248957,0.6263476531561993,-0.6263476531561993,0.7795438521248957,723.4823851577362,120.79136377661325)" fill="none" stroke="#2c2891"></use><use xlink:href="#bbburst-shape-1" width="28.516234527938696" opacity="0.03734848442211136" transform="matrix(1.4106339686803748,1.035669738094657,-1.035669738094657,1.4106339686803748,1026.7436229026432,186.4643273655788)" fill="#2c2891" filter="url(#bbburst-blur-4)"></use><use xlink:href="#bbburst-shape-9" width="4.986499251968155" opacity="0.9066714633815263" transform="matrix(0.9944796522230474,0.10492960170670058,-0.10492960170670058,0.9944796522230474,407.5770666013337,-25.3817376320535)" fill="none" stroke="#00a19d"></use><use xlink:href="#bbburst-shape-4" width="4.5741776760105" opacity="0.9256921317446549" transform="matrix(0.9282674691236482,0.3719133041002658,-0.3719133041002658,0.9282674691236482,549.2327679097189,-5.49167828442728)" fill="#ffbd9b"></use><use xlink:href="#bbburst-shape-9" width="40.87257977378839" opacity="-0.10166058468693628" transform="matrix(1.5626658986622342,0.7877660116799607,-0.7877660116799607,1.5626658986622342,1031.6968696540748,111.17390455420548)" fill="none" stroke="#2c2891" filter="url(#bbburst-blur-4)"></use><use xlink:href="#bbburst-shape-6" width="12.369013907637846" opacity="0.6909202346514809" transform="matrix(0.8773330599842408,-0.4798819665904196,0.4798819665904196,0.8773330599842408,103.12212724263256,-45.14950433307348)" fill="#ffbd9b" filter="url(#bbburst-blur-1)"></use><use xlink:href="#bbburst-shape-8" width="18.513112211045346" opacity="0.6434065065169742" transform="matrix(0.9136178385254539,-0.40657403400620373,0.40657403400620373,0.9136178385254539,79.51646445421974,-20.251804686460844)" fill="none" stroke="#ff5c58" filter="url(#bbburst-blur-1)"></use><use xlink:href="#bbburst-shape-6" width="21.27664142541771" opacity="0.5658470268455835" transform="matrix(0.9718417018313755,-0.23563468883315086,0.23563468883315086,0.9718417018313755,438.1567851714216,-119.61484601244842)" fill="#ffbd9b" filter="url(#bbburst-blur-1)"></use><use xlink:href="#bbburst-shape-9" width="10.868666966336066" opacity="0.791673127589779" transform="matrix(0.9989689455370534,0.045398742852502456,-0.045398742852502456,0.9989689455370534,326.03923208821436,35.76488235329987)" fill="none" stroke="#ff0075"></use><use xlink:href="#bbburst-shape-9" width="16.49093351935494" opacity="0.668358743554139" transform="matrix(0.9996188211180888,-0.027608195639745373,0.027608195639745373,0.9996188211180888,299.52122592181354,125.49006399232383)" fill="none" stroke="#ff0075" filter="url(#bbburst-blur-1)"></use><use xlink:href="#bbburst-shape-10" width="15.705949678158941" opacity="0.6916590524394274" transform="matrix(0.9228557638305108,0.3851457375654111,-0.3851457375654111,0.9228557638305108,550.5021648436825,166.53746496493392)" fill="none" stroke="#ff0075" filter="url(#bbburst-blur-1)"></use><use xlink:href="#bbburst-shape-10" width="10.493692003277364" opacity="0.8197425503811746" transform="matrix(0.9564186515696032,0.29199890912430126,-0.29199890912430126,0.9564186515696032,543.4062254704121,-58.79659406845224)" fill="none" stroke="#ff5c58"></use><use xlink:href="#bbburst-shape-13" width="24.288632238759824" opacity="0.38646234416873204" transform="matrix(0.8161626091984933,-0.5778222869934211,0.5778222869934211,0.8161626091984933,214.06479060862554,-189.9845731487389)" fill="none" stroke="#ff6767" filter="url(#bbburst-blur-2)"></use><use xlink:href="#bbburst-shape-1" width="28.098666596977466" opacity="0.3378314479619591" transform="matrix(0.7996313617559918,-0.6004912033462757,0.6004912033462757,0.7996313617559918,426.76508701536255,195.4247860475325)" fill="#ff0075" filter="url(#bbburst-blur-2)"></use><use xlink:href="#bbburst-shape-13" width="23.270106940979062" opacity="0.4385753289055736" transform="matrix(0.9895011689299557,0.1445248652870898,-0.1445248652870898,0.9895011689299557,236.9894336493292,144.00240800433625)" fill="none" stroke="#2c2891" filter="url(#bbburst-blur-2)"></use><use xlink:href="#bbburst-shape-4" width="13.132163406072301" opacity="0.5989611399117845" transform="matrix(0.9767601564033699,0.21433524409873506,-0.21433524409873506,0.9767601564033699,404.5894597313493,172.16875535652315)" fill="#ff0075" filter="url(#bbburst-blur-1)"></use><use xlink:href="#bbburst-shape-9" width="31.612478184530637" opacity="0.3601763473949905" transform="matrix(0.8011896914717967,0.5984104597008036,-0.5984104597008036,0.8011896914717967,361.14481439022154,180.84881881246753)" fill="none" stroke="#ff6767" filter="url(#bbburst-blur-2)"></use><use xlink:href="#bbburst-shape-10" width="14.130507101716653" opacity="0.6391769276700601" transform="matrix(0.9978510846780371,0.06552261294289823,-0.06552261294289823,0.9978510846780371,272.77370018314923,70.64969421661448)" fill="none" stroke="#00a19d" filter="url(#bbburst-blur-1)"></use><use xlink:href="#bbburst-shape-4" width="22.47163609208503" opacity="0.2874242727355354" transform="matrix(1.205315723549822,-0.3312310471009159,0.3312310471009159,1.205315723549822,319.29368635976437,235.5550764257007)" fill="#2c2891" filter="url(#bbburst-blur-3)"></use><use xlink:href="#bbburst-shape-13" width="23.73971500411929" opacity="0.28946910898945555" transform="matrix(1.2487328741138362,0.05626907771945525,-0.05626907771945525,1.2487328741138362,727.3763923841108,-94.62919175111296)" fill="none" stroke="#ffbd9b" filter="url(#bbburst-blur-3)"></use><use xlink:href="#bbburst-shape-14" width="32.38950718768487" opacity="0.004450224730589092" transform="matrix(1.7297039637664198,0.2657521358912028,-0.2657521358912028,1.7297039637664198,120.76055007207303,-566.0792690398721)" fill="none" stroke="#2c2891" filter="url(#bbburst-blur-4)"></use><use xlink:href="#bbburst-shape-4" width="30.40303600864294" opacity="0.26178428426862144" transform="matrix(1.0167650752426791,-0.7271098828696726,0.7271098828696726,1.0167650752426791,-116.62357299199658,-252.7445544351125)" fill="#ff6767" filter="url(#bbburst-blur-3)"></use><use xlink:href="#bbburst-shape-1" width="8.161688274572095" opacity="0.86229174022352" transform="matrix(0.9365009006200943,0.3506651724048915,-0.3506651724048915,0.9365009006200943,497.9460223721892,-24.583702345432187)" fill="#ff0075"></use><use xlink:href="#bbburst-shape-4" width="22.985739630660692" opacity="0.5217035313896252" transform="matrix(0.7830427774424435,-0.6219678518181015,0.6219678518181015,0.7830427774424435,-56.31309335991929,177.05875824696534)" fill="#ff5c58" filter="url(#bbburst-blur-2)"></use><use xlink:href="#bbburst-shape-9" width="18.34250511752385" opacity="0.45335879436950566" transform="matrix(0.7972702104636307,-0.6036225737224198,0.6036225737224198,0.7972702104636307,147.4858643975693,-159.4317371124263)" fill="none" stroke="#ff5c58" filter="url(#bbburst-blur-2)"></use><use xlink:href="#bbburst-shape-4" width="5.70753979690758" opacity="0.9181428279566051" transform="matrix(0.7230582681889657,-0.6907870444670873,0.6907870444670873,0.7230582681889657,84.98991281722732,108.91540450141139)" fill="#ffbd9b"></use><use xlink:href="#bbburst-shape-9" width="3.7802656283058833" opacity="0.9363315915688835" transform="matrix(0.8075955999569241,-0.589736675924277,0.589736675924277,0.8075955999569241,140.57476000042803,96.42289059572357)" fill="none" stroke="#ffbd9b"></use><use xlink:href="#bbburst-shape-4" width="32.7402491595455" opacity="0.20216760606004214" transform="matrix(1.1303034767576299,-0.5337734073833335,0.5337734073833335,1.1303034767576299,0.5637547210283174,-360.93866216014464)" fill="#ff6767" filter="url(#bbburst-blur-3)"></use><use xlink:href="#bbburst-shape-6" width="7.517389587699942" opacity="0.8606265539927086" transform="matrix(0.9938728004457825,0.11052988977673762,-0.11052988977673762,0.9938728004457825,390.36470129044955,39.7500049903324)" fill="#2c2891"></use><use xlink:href="#bbburst-shape-10" width="16.519458016810752" opacity="0.584707575290269" transform="matrix(0.9960859787823977,0.08838960840004233,-0.08838960840004233,0.9960859787823977,243.844411019857,-35.65683355976881)" fill="none" stroke="#2c2891" filter="url(#bbburst-blur-1)"></use><use xlink:href="#bbburst-shape-13" width="6.7200033486101995" opacity="0.8397434247711633" transform="matrix(0.9902529679870838,-0.13928050614774312,0.13928050614774312,0.9902529679870838,274.44082811595314,32.21939172826927)" fill="none" stroke="#2c2891"></use><use xlink:href="#bbburst-shape-4" width="28.367061507038827" opacity="0.10912883111283433" transform="matrix(1.3660740901414037,-1.0937740078482099,1.0937740078482099,1.3660740901414037,-429.7866224510498,16.21813866645084)" fill="#ff0075" filter="url(#bbburst-blur-4)"></use><use xlink:href="#bbburst-shape-10" width="21.898137219851126" opacity="0.13240352890864115" transform="matrix(1.222891884544501,-0.2589120289117502,0.2589120289117502,1.222891884544501,159.74213859544807,-456.7578376590372)" fill="none" stroke="#2c2891" filter="url(#bbburst-blur-3)"></use><use xlink:href="#bbburst-shape-4" width="5.125137315733252" opacity="0.9304706844245142" transform="matrix(0.8334230362354595,-0.5526355423532474,0.5526355423532474,0.8334230362354595,148.68947375747868,54.33813246010948)" fill="#ff5c58"></use><use xlink:href="#bbburst-shape-4" width="10.117818355880416" opacity="0.7516229571112707" transform="matrix(0.866287536113419,0.499545698384584,-0.499545698384584,0.866287536113419,588.2394780732354,-60.57227704198573)" fill="#ffbd9b" filter="url(#bbburst-blur-1)"></use><use xlink:href="#bbburst-shape-1" width="32.60975507530118" opacity="0.2160180862249561" transform="matrix(1.126741672252401,0.5412515164042154,-0.5412515164042154,1.126741672252401,319.45510907135576,-275.8432876776444)" fill="#ff5c58" filter="url(#bbburst-blur-3)"></use><use xlink:href="#bbburst-shape-13" width="6.40622943480964" opacity="0.900362301182133" transform="matrix(0.8072446067429282,-0.5902170320182696,0.5902170320182696,0.8072446067429282,128.5808297126174,109.61963293405898)" fill="none" stroke="#2c2891"></use><use xlink:href="#bbburst-shape-9" width="24.594454709156512" opacity="0.4010441552653875" transform="matrix(0.9989307453620964,-0.04623165550060428,0.04623165550060428,0.9989307453620964,181.38950666560075,-192.47703981049483)" fill="none" stroke="#ffbd9b" filter="url(#bbburst-blur-2)"></use><use xlink:href="#bbburst-shape-8" width="11.69115178704026" opacity="0.7455331000913862" transform="matrix(0.92394785085831,0.38251845562575165,-0.38251845562575165,0.92394785085831,612.788364945588,122.33294931215295)" fill="none" stroke="#ff5c58" filter="url(#bbburst-blur-1)"></use><use xlink:href="#bbburst-shape-4" width="8.07703180537447" opacity="0.7986082026981168" transform="matrix(0.9501638805452919,0.31175086223956516,-0.31175086223956516,0.9501638805452919,579.7576642694423,-50.19637380393294)" fill="#ff6767"></use><use xlink:href="#bbburst-shape-8" width="38.88468114636179" opacity="0.015756953926061246" transform="matrix(1.6768498395768,-0.5006741610181819,0.5006741610181819,1.6768498395768,-195.72930067925063,-7.031318383566486)" fill="none" stroke="#2c2891" filter="url(#bbburst-blur-4)"></use><use xlink:href="#bbburst-shape-4" width="6.473936684575376" opacity="0.8367306818826596" transform="matrix(0.7355510643220355,0.6774692847463424,-0.6774692847463424,0.7355510643220355,596.1637923968779,91.31854443562736)" fill="#ff5c58"></use><use xlink:href="#bbburst-shape-13" width="6.613766585583949" opacity="0.8884587874540274" transform="matrix(0.7789207366111329,-0.6271223852464286,0.6271223852464286,0.7789207366111329,166.51841718095133,136.56702765534794)" fill="none" stroke="#ff6767"></use><use xlink:href="#bbburst-shape-8" width="26.658387653459666" opacity="0.3689339847544564" transform="matrix(0.8633039852111971,-0.5046842865777229,0.5046842865777229,0.8633039852111971,322.4093023887468,310.8157560937729)" fill="none" stroke="#ff0075" filter="url(#bbburst-blur-2)"></use><use xlink:href="#bbburst-shape-4" width="10.789148252646484" opacity="0.7534746126210349" transform="matrix(0.7113870498823546,-0.7028004448345777,0.7028004448345777,0.7113870498823546,131.04291996482488,229.02089914293316)" fill="#00a19d" filter="url(#bbburst-blur-1)"></use><use xlink:href="#bbburst-shape-6" width="5.6017725451716185" opacity="0.9052143148787206" transform="matrix(0.9120568953141159,-0.41006367762821405,0.41006367762821405,0.9120568953141159,228.13689146614664,78.65094948837628)" fill="#ffbd9b"></use><use xlink:href="#bbburst-shape-9" width="24.474444265382235" opacity="0.0364789148255138" transform="matrix(1.734613815865,0.23154893610263827,-0.23154893610263827,1.734613815865,241.88831051243707,-664.8044367535095)" fill="none" stroke="#00a19d" filter="url(#bbburst-blur-4)"></use><use xlink:href="#bbburst-shape-10" width="7.739926011744291" opacity="0.8474832063072839" transform="matrix(0.9865245873837907,0.16361307553872817,-0.16361307553872817,0.9865245873837907,505.71662274539534,-47.84120354014908)" fill="none" stroke="#ff5c58"></use><use xlink:href="#bbburst-shape-1" width="12.497243569218309" opacity="0.6397039669179546" transform="matrix(0.9992581454741694,0.038511799536296645,-0.038511799536296645,0.9992581454741694,457.28099914256836,-154.75533377735007)" fill="#ff5c58" filter="url(#bbburst-blur-1)"></use><use xlink:href="#bbburst-shape-14" width="16.70408309576326" opacity="0.47227085744842956" transform="matrix(0.9960388212342196,-0.08891943878785079,0.08891943878785079,0.9960388212342196,127.03575930145031,-60.24776064592561)" fill="none" stroke="#ffbd9b" filter="url(#bbburst-blur-2)"></use><use xlink:href="#bbburst-shape-13" width="34.09796631034663" opacity="0.11364100405869404" transform="matrix(1.2462990093158,-0.09611856937374524,0.09611856937374524,1.2462990093158,615.1854389783146,192.1363719424993)" fill="none" stroke="#ff6767" filter="url(#bbburst-blur-3)"></use><use xlink:href="#bbburst-shape-14" width="13.268033648999825" opacity="0.6836682121726116" transform="matrix(0.9012944127130708,0.4332070885987449,-0.4332070885987449,0.9012944127130708,698.7692169286288,91.19630212906003)" fill="none" stroke="#00a19d" filter="url(#bbburst-blur-1)"></use><use xlink:href="#bbburst-shape-13" width="20.47970320285306" opacity="0.4545823378179549" transform="matrix(0.9974242658577528,-0.07172749736414175,0.07172749736414175,0.9974242658577528,193.62913910611502,181.19384234315254)" fill="none" stroke="#00a19d" filter="url(#bbburst-blur-2)"></use><use xlink:href="#bbburst-shape-9" width="29.540649604461446" opacity="0.12245989294382942" transform="matrix(1.2238266825790782,0.2544567763049126,-0.2544567763049126,1.2238266825790782,844.5316948141894,67.03555999435082)" fill="none" stroke="#ff5c58" filter="url(#bbburst-blur-3)"></use><use xlink:href="#bbburst-shape-9" width="5.2762470449968815" opacity="0.8963290217911118" transform="matrix(0.8152650719162146,-0.5790879574930301,0.5790879574930301,0.8152650719162146,122.98882004249583,57.7925824931541)" fill="none" stroke="#2c2891"></use><use xlink:href="#bbburst-shape-4" width="23.73960342935296" opacity="0.1378259671560922" transform="matrix(1.2483055625465842,0.0650632193735885,-0.0650632193735885,1.2483055625465842,778.4058469264367,-225.33519692309682)" fill="#ff0075" filter="url(#bbburst-blur-3)"></use><use xlink:href="#bbburst-shape-6" width="12.705760189584025" opacity="0.6470611381121743" transform="matrix(0.9351044645939915,-0.3543721776556173,0.3543721776556173,0.9351044645939915,408.23745951765426,-1.979591463745237)" fill="#ff6767" filter="url(#bbburst-blur-1)"></use><use xlink:href="#bbburst-shape-10" width="29.96491105743867" opacity="0.1839096080101439" transform="matrix(1.239824900042332,0.1591672618191979,-0.1591672618191979,1.239824900042332,751.2450939301017,-301.1337061839297)" fill="none" stroke="#ff0075" filter="url(#bbburst-blur-3)"></use><use xlink:href="#bbburst-shape-4" width="32.59266412972023" opacity="0.1980348952147395" transform="matrix(0.9549940651137718,-0.8065273309674464,0.8065273309674464,0.9549940651137718,-250.9277289559591,211.19515296967256)" fill="#2c2891" filter="url(#bbburst-blur-3)"></use><use xlink:href="#bbburst-shape-8" width="7.05353265822206" opacity="0.8116203672959984" transform="matrix(0.8671774473280366,0.49799927193283156,-0.49799927193283156,0.8671774473280366,665.8698107690079,3.1643973214467565)" fill="none" stroke="#ff0075"></use><use xlink:href="#bbburst-shape-9" width="10.320655145792173" opacity="0.7259857679032723" transform="matrix(0.8430236960482036,-0.5378764243775944,0.5378764243775944,0.8430236960482036,227.4346408952521,179.51633410665312)" fill="none" stroke="#ffbd9b" filter="url(#bbburst-blur-1)"></use><use xlink:href="#bbburst-shape-9" width="40.4854438029173" opacity="-0.10090160341216348" transform="matrix(1.695747368336012,-0.43236658379376364,0.43236658379376364,1.695747368336012,546.220272080734,-616.9760050705164)" fill="none" stroke="#ff6767" filter="url(#bbburst-blur-4)"></use><use xlink:href="#bbburst-shape-1" width="6.365262783186169" opacity="0.9568813440344678" transform="matrix(0.7539113800603203,0.6569761266709341,-0.6569761266709341,0.7539113800603203,678.2344438973244,103.96071537766619)" fill="#2c2891"></use><use xlink:href="#bbburst-shape-9" width="5.626119299825524" opacity="0.9007631279125375" transform="matrix(0.8964520466466988,-0.4431407542338495,0.4431407542338495,0.8964520466466988,176.0543114778598,49.33378778009677)" fill="none" stroke="#ff6767"></use><use xlink:href="#bbburst-shape-4" width="3.8928429189807825" opacity="0.9579571576429108" transform="matrix(0.9561865028062843,-0.29275821397714474,0.29275821397714474,0.9561865028062843,267.3381732722908,5.049013393296718)" fill="#ff6767"></use><use xlink:href="#bbburst-shape-14" width="14.07273369642542" opacity="0.6824064170591128" transform="matrix(0.9864203603112697,-0.16424028970805202,0.16424028970805202,0.9864203603112697,282.01408538271284,142.13667269189574)" fill="none" stroke="#ff0075" filter="url(#bbburst-blur-1)"></use><use xlink:href="#bbburst-shape-4" width="13.119131873510776" opacity="0.6171449371807467" transform="matrix(0.9716722969520107,-0.2363322816206105,0.2363322816206105,0.9716722969520107,132.3843297219596,56.3580407633317)" fill="#00a19d" filter="url(#bbburst-blur-1)"></use><use xlink:href="#bbburst-shape-8" width="15.086638075669647" opacity="0.7272252319066789" transform="matrix(0.8758665661206847,0.48255337357846784,-0.48255337357846784,0.8758665661206847,503.62430733927704,136.6390839575751)" fill="none" stroke="#ffbd9b" filter="url(#bbburst-blur-1)"></use><use xlink:href="#bbburst-shape-10" width="9.135400125644582" opacity="0.8629972542808791" transform="matrix(0.974673085838342,0.22363446903901923,-0.22363446903901923,0.974673085838342,537.2000877350168,-23.69640224452189)" fill="none" stroke="#2c2891"></use><use xlink:href="#bbburst-shape-4" width="4.3570228070278" opacity="0.9719147193802101" transform="matrix(0.92819188264102,-0.37210190673969806,0.37210190673969806,0.92819188264102,247.9672435895347,42.1215341899823)" fill="#2c2891"></use><use xlink:href="#bbburst-shape-8" width="7.848259593736246" opacity="0.8249575412202382" transform="matrix(0.9412791725803663,-0.33762926304812657,0.33762926304812657,0.9412791725803663,201.93248249084124,-27.008185508102883)" fill="none" stroke="#ffbd9b"></use><use xlink:href="#bbburst-shape-10" width="8.44190219984597" opacity="0.788606468077086" transform="matrix(0.8624865878463224,-0.5060799203537006,0.5060799203537006,0.8624865878463224,136.2398461372809,132.78074998566973)" fill="none" stroke="#2c2891"></use><use xlink:href="#bbburst-shape-4" width="5.859559705322809" opacity="0.9141201499112114" transform="matrix(0.9622197627583249,0.2722739946401656,-0.2722739946401656,0.9622197627583249,471.4596140550848,31.474946344305238)" fill="#2c2891"></use><use xlink:href="#bbburst-shape-13" width="20.25168062772832" opacity="0.6167560842007989" transform="matrix(0.9949882212444396,0.09999219761974491,-0.09999219761974491,0.9949882212444396,402.19792318153543,171.20901572551088)" fill="none" stroke="#ffbd9b" filter="url(#bbburst-blur-1)"></use><use xlink:href="#bbburst-shape-10" width="6.957794124673727" opacity="0.8709577518331252" transform="matrix(0.9997517558529135,0.022280634394387492,-0.022280634394387492,0.9997517558529135,411.2498652499206,57.798828066724866)" fill="none" stroke="#00a19d"></use><use xlink:href="#bbburst-shape-9" width="13.348385639244967" opacity="0.7345744452642122" transform="matrix(0.9930410232915282,-0.11776895202095765,0.11776895202095765,0.9930410232915282,464.5610640615157,19.903648611583606)" fill="none" stroke="#00a19d" filter="url(#bbburst-blur-1)"></use><use xlink:href="#bbburst-shape-4" width="20.374087846360773" opacity="0.5645629752158181" transform="matrix(0.817926504973255,-0.5753227202729227,0.5753227202729227,0.817926504973255,4.044272777381082,195.26982075610755)" fill="#00a19d" filter="url(#bbburst-blur-1)"></use><use xlink:href="#bbburst-shape-13" width="7.234954091113798" opacity="0.8182598382077528" transform="matrix(0.9996606717719068,0.02604882555011086,-0.02604882555011086,0.9996606717719068,359.14228356142837,-66.4182797057714)" fill="none" stroke="#ffbd9b"></use><use xlink:href="#bbburst-shape-9" width="13.66135746033564" opacity="0.652223111987384" transform="matrix(0.8975262386962068,0.4409610536678263,-0.4409610536678263,0.8975262386962068,442.1261867693392,-51.91086304236899)" fill="none" stroke="#ff5c58" filter="url(#bbburst-blur-1)"></use><use xlink:href="#bbburst-shape-9" width="18.963501188015556" opacity="0.48121260092892837" transform="matrix(0.730434359522956,0.6829829034670554,-0.6829829034670554,0.730434359522956,555.3417107324649,-104.11349154983989)" fill="none" stroke="#00a19d" filter="url(#bbburst-blur-2)"></use><use xlink:href="#bbburst-shape-1" width="13.385033031604245" opacity="0.5355556516125778" transform="matrix(0.8883386831867335,0.45918883256679965,-0.45918883256679965,0.8883386831867335,450.5363366959693,-124.23866049982018)" fill="#ffbd9b" filter="url(#bbburst-blur-2)"></use><use xlink:href="#bbburst-shape-13" width="8.787178083404505" opacity="0.891512354020144" transform="matrix(0.9751031368699363,-0.22175182629780113,0.22175182629780113,0.9751031368699363,339.3331588647153,-25.657660021796175)" fill="none" stroke="#ff0075"></use><use xlink:href="#bbburst-shape-6" width="4.744766066395007" opacity="0.9520741130911078" transform="matrix(0.9889456083907848,-0.14827873631974528,0.14827873631974528,0.9889456083907848,317.1696052108443,0.6705491243166648)" fill="#ff0075"></use><use xlink:href="#bbburst-shape-13" width="13.89868222565904" opacity="0.6920364478448514" transform="matrix(0.9631421008522163,-0.2689931106292116,0.2689931106292116,0.9631421008522163,171.05871964041302,94.46234103122947)" fill="none" stroke="#ff0075" filter="url(#bbburst-blur-1)"></use><use xlink:href="#bbburst-shape-13" width="20.42708027345453" opacity="0.17021040053182568" transform="matrix(1.1765210825296173,0.4222536469509026,-0.4222536469509026,1.1765210825296173,579.692387487082,-447.62929463403754)" fill="none" stroke="#2c2891" filter="url(#bbburst-blur-3)"></use><use xlink:href="#bbburst-shape-8" width="11.397323890291455" opacity="0.6913555670867086" transform="matrix(0.9738181783561062,-0.22732829894932788,0.22732829894932788,0.9738181783561062,166.05618598434523,31.62632701954101)" fill="none" stroke="#2c2891" filter="url(#bbburst-blur-1)"></use><use xlink:href="#bbburst-shape-4" width="37.95924505637964" opacity="0.17454957537460314" transform="matrix(0.9090892419545932,-0.8579374978181238,0.8579374978181238,0.9090892419545932,-331.34353825359807,72.11457011957941)" fill="#00a19d" filter="url(#bbburst-blur-3)"></use><use xlink:href="#bbburst-shape-8" width="9.370272064855975" opacity="0.7273147425982683" transform="matrix(0.9546497309375485,0.2977312399142325,-0.2977312399142325,0.9546497309375485,406.67135965693006,-41.60264894838019)" fill="none" stroke="#2c2891" filter="url(#bbburst-blur-1)"></use><use xlink:href="#bbburst-shape-1" width="32.59322884652845" opacity="0.0932011787411069" transform="matrix(1.6511211027175487,0.579913014305409,-0.579913014305409,1.6511211027175487,240.23740554649507,-452.6864445969703)" fill="#00a19d" filter="url(#bbburst-blur-4)"></use><use xlink:href="#bbburst-shape-1" width="16.252586837423515" opacity="0.6288040033608541" transform="matrix(0.8458675215439303,-0.533393040821802,0.533393040821802,0.8458675215439303,74.66258375594495,-63.810238441746264)" fill="#ff5c58" filter="url(#bbburst-blur-1)"></use><use xlink:href="#bbburst-shape-10" width="24.681475313663842" opacity="0.2821083067237615" transform="matrix(1.0702012279233806,0.645886469707555,-0.645886469707555,1.0702012279233806,861.0289906327923,204.27629087265598)" fill="none" stroke="#ffbd9b" filter="url(#bbburst-blur-3)"></use><use xlink:href="#bbburst-shape-4" width="35.26932436942989" opacity="0.20551343641471054" transform="matrix(1.1460254228099078,-0.4991249645863973,0.4991249645863973,1.1460254228099078,345.8297027056201,267.24395309355486)" fill="#2c2891" filter="url(#bbburst-blur-3)"></use><use xlink:href="#bbburst-shape-1" width="6.750856290730585" opacity="0.8324815991755369" transform="matrix(0.9528308966454914,-0.3035017008152491,0.3035017008152491,0.9528308966454914,350.28662413477457,28.414874046977218)" fill="#00a19d"></use><use xlink:href="#bbburst-shape-13" width="19.62627418812992" opacity="0.5926953570028933" transform="matrix(0.9982619743588605,-0.05893242358116292,0.05893242358116292,0.9982619743588605,549.7982939180364,-5.3507519071675915)" fill="none" stroke="#ff5c58" filter="url(#bbburst-blur-1)"></use><use xlink:href="#bbburst-shape-14" width="5.067534262565683" opacity="0.9171512677092154" transform="matrix(0.9015222688013922,-0.43273271063693614,0.43273271063693614,0.9015222688013922,241.26921368467973,7.133044688774476)" fill="none" stroke="#ffbd9b"></use><use xlink:href="#bbburst-shape-8" width="23.744926284385866" opacity="0.3824066254725539" transform="matrix(0.9999999698824438,0.00024542842460095147,-0.00024542842460095147,0.9999999698824438,313.64090083899123,267.71892321884286)" fill="none" stroke="#ff5c58" filter="url(#bbburst-blur-2)"></use><use xlink:href="#bbburst-shape-10" width="17.94577627109682" opacity="0.5309368762633015" transform="matrix(0.7572677595156186,-0.6531045401757631,0.6531045401757631,0.7572677595156186,337.0620085117837,53.06707745980066)" fill="none" stroke="#ffbd9b" filter="url(#bbburst-blur-2)"></use><use xlink:href="#bbburst-shape-10" width="29.12375644954618" opacity="0.34466974789609306" transform="matrix(0.9812887431098971,0.19254195035315877,-0.19254195035315877,0.9812887431098971,454.9167464396832,299.47590535965975)" fill="none" stroke="#00a19d" filter="url(#bbburst-blur-2)"></use><use xlink:href="#bbburst-shape-6" width="5.956814024384733" opacity="0.9155219249014198" transform="matrix(0.7707431451873697,0.6371459833873875,-0.6371459833873875,0.7707431451873697,660.1221565270783,127.06107151710603)" fill="#2c2891"></use><use xlink:href="#bbburst-shape-13" width="10.150634469203656" opacity="0.6906463877631825" transform="matrix(0.9972018448155778,0.07475614152969819,-0.07475614152969819,0.9972018448155778,388.11368725311445,-133.53695321623206)" fill="none" stroke="#ff6767" filter="url(#bbburst-blur-1)"></use><use xlink:href="#bbburst-shape-6" width="8.141877749203955" opacity="0.8639961035818986" transform="matrix(0.819309734491173,-0.5733511654893567,0.5733511654893567,0.819309734491173,224.85275032979467,95.49382911937158)" fill="#ffbd9b"></use><use xlink:href="#bbburst-shape-10" width="7.709727144296605" opacity="0.8103738442630323" transform="matrix(0.7331829502559807,-0.6800314415186522,0.6800314415186522,0.7331829502559807,57.39591579549199,161.20758056840867)" fill="none" stroke="#ffbd9b"></use><use xlink:href="#bbburst-shape-10" width="7.4622419517898315" opacity="0.7942818852165573" transform="matrix(0.9940693707148006,0.10874781012360851,-0.10874781012360851,0.9940693707148006,423.6464592004006,-89.18816472337443)" fill="none" stroke="#ffbd9b"></use><use xlink:href="#bbburst-shape-9" width="29.959210788394252" opacity="0.39042067477637465" transform="matrix(0.9967683897278379,0.0803291804973324,-0.0803291804973324,0.9967683897278379,185.7699537327964,-147.34903867387465)" fill="none" stroke="#ff6767" filter="url(#bbburst-blur-2)"></use><use xlink:href="#bbburst-shape-13" width="6.63959288109233" opacity="0.8812670795193367" transform="matrix(0.9643675407000157,0.26456614757788555,-0.26456614757788555,0.9643675407000157,453.65073642514074,34.735177432382784)" fill="none" stroke="#00a19d"></use><use xlink:href="#bbburst-shape-9" width="28.382111172699844" opacity="0.1814212713097847" transform="matrix(1.2485023327882019,0.06117127612219925,-0.06117127612219925,1.2485023327882019,400.0323188438257,267.7910249230255)" fill="none" stroke="#ffbd9b" filter="url(#bbburst-blur-3)"></use><use xlink:href="#bbburst-shape-1" width="8.365043771974468" opacity="0.7609847939692932" transform="matrix(0.9999549703813821,-0.009489847710535845,0.009489847710535845,0.9999549703813821,411.9694076663335,-105.62241966912944)" fill="#ff0075" filter="url(#bbburst-blur-1)"></use><use xlink:href="#bbburst-shape-1" width="29.253479298890063" opacity="0.36713993859066096" transform="matrix(0.8097670449558748,-0.5867515086503231,0.5867515086503231,0.8097670449558748,13.646510421495435,-163.3887855774859)" fill="#ff0075" filter="url(#bbburst-blur-2)"></use><use xlink:href="#bbburst-shape-6" width="26.63779501400253" opacity="0.19313911662040295" transform="matrix(1.09395725525457,0.6047789047874335,-0.6047789047874335,1.09395725525457,578.5954904889827,-405.4379549033001)" fill="#2c2891" filter="url(#bbburst-blur-3)"></use><use xlink:href="#bbburst-shape-1" width="8.208297005190524" opacity="0.8531973359242633" transform="matrix(0.9781874499534993,0.20772412655604133,-0.20772412655604133,0.9781874499534993,484.34815100899397,-57.96738297948349)" fill="#00a19d"></use><use xlink:href="#bbburst-shape-4" width="4.8076177888312985" opacity="0.9322549045449595" transform="matrix(0.8416896670267916,0.5399615767999872,-0.5399615767999872,0.8416896670267916,644.4440621511839,61.90940647116685)" fill="#ffbd9b"></use><use xlink:href="#bbburst-shape-13" width="15.139899636933702" opacity="0.6640994160254194" transform="matrix(0.9904792024260743,-0.13766244789850182,0.13766244789850182,0.9904792024260743,440.2927673374078,-105.91346236873102)" fill="none" stroke="#ffbd9b" filter="url(#bbburst-blur-1)"></use><use xlink:href="#bbburst-shape-8" width="12.60374315565877" opacity="0.5720544746963713" transform="matrix(0.9815156635051879,0.19138182331133421,-0.19138182331133421,0.9815156635051879,494.38333525169116,-184.88443614671692)" fill="none" stroke="#00a19d" filter="url(#bbburst-blur-1)"></use><use xlink:href="#bbburst-shape-4" width="4.6483251936187" opacity="0.9813417738428986" transform="matrix(0.9014709440591024,0.43283962043370117,-0.43283962043370117,0.9014709440591024,567.8423960376118,30.645480177483535)" fill="#ffbd9b"></use><use xlink:href="#bbburst-shape-6" width="12.880730180947324" opacity="0.6931351037873928" transform="matrix(0.8024037084488914,-0.5967816088549198,0.5967816088549198,0.8024037084488914,284.2064181603074,31.28355627999531)" fill="#00a19d" filter="url(#bbburst-blur-1)"></use><use xlink:href="#bbburst-shape-1" width="6.9264729431022465" opacity="0.8640833963034276" transform="matrix(0.8703601225391661,-0.49241573603369726,0.49241573603369726,0.8703601225391661,139.33350408718184,61.15405697455293)" fill="#ff6767"></use><use xlink:href="#bbburst-shape-4" width="5.529352667149642" opacity="0.9533901238278033" transform="matrix(0.9714598908165081,-0.2372038796790182,0.2372038796790182,0.9714598908165081,291.1810310947152,29.777030593377845)" fill="#ff5c58"></use><use xlink:href="#bbburst-shape-4" width="12.331418366559381" opacity="0.7015484983310655" transform="matrix(0.9890849759681937,-0.14734622599170202,0.14734622599170202,0.9890849759681937,353.1062613342718,-127.78669642823314)" fill="#ffbd9b" filter="url(#bbburst-blur-1)"></use><use xlink:href="#bbburst-shape-13" width="6.984434546918628" opacity="0.9182144975894202" transform="matrix(0.9868449314320417,-0.16166966724431958,0.16166966724431958,0.9868449314320417,314.82494562183456,38.43676612021096)" fill="none" stroke="#00a19d"></use><use xlink:href="#bbburst-shape-10" width="8.129563435669109" opacity="0.8095973985697631" transform="matrix(0.9960248431346108,0.08907587697392609,-0.08907587697392609,0.9960248431346108,356.86477852489713,-40.70816012226118)" fill="none" stroke="#ff5c58"></use><use xlink:href="#bbburst-shape-13" width="25.88750134433645" opacity="0.29269770023857333" transform="matrix(1.1183277514651035,-0.558429082608531,0.558429082608531,1.1183277514651035,-38.975422414303495,206.58179971930997)" fill="none" stroke="#2c2891" filter="url(#bbburst-blur-3)"></use><use xlink:href="#bbburst-shape-10" width="4.638506012365715" opacity="0.9817057362800673" transform="matrix(0.9845931244268733,0.17486102862366895,-0.17486102862366895,0.9845931244268733,475.7626627581125,4.296349002069519)" fill="none" stroke="#00a19d"></use><use xlink:href="#bbburst-shape-1" width="38.36394117569615" opacity="0.12757245076054813" transform="matrix(1.1284688398430875,-0.5376412163359465,0.5376412163359465,1.1284688398430875,-116.91266617596305,233.92907842268784)" fill="#ff0075" filter="url(#bbburst-blur-3)"></use><use xlink:href="#bbburst-shape-9" width="23.121528912401473" opacity="0.4405328247932637" transform="matrix(0.7325197130310853,-0.6807458189521669,0.6807458189521669,0.7325197130310853,331.6436718681322,249.72905728552848)" fill="none" stroke="#ffbd9b" filter="url(#bbburst-blur-2)"></use><use xlink:href="#bbburst-shape-6" width="14.494298696110114" opacity="0.5226524868328781" transform="matrix(0.7533039869952808,-0.6576724892961646,0.6576724892961646,0.7533039869952808,-30.344456603080516,-37.82544731828261)" fill="#00a19d" filter="url(#bbburst-blur-2)"></use><use xlink:href="#bbburst-shape-9" width="18.64893910102493" opacity="0.658697127703699" transform="matrix(0.8131436481498535,0.5820630614233713,-0.5820630614233713,0.8131436481498535,749.6421734337084,159.38948798260913)" fill="none" stroke="#ff0075" filter="url(#bbburst-blur-1)"></use><use xlink:href="#bbburst-shape-8" width="19.882278407072818" opacity="0.42699801279789895" transform="matrix(0.9549961043120107,0.2966183418955803,-0.2966183418955803,0.9549961043120107,445.9854494718149,-234.94089282541694)" fill="none" stroke="#ff0075" filter="url(#bbburst-blur-2)"></use><use xlink:href="#bbburst-shape-13" width="7.257949192336634" opacity="0.8646889978636655" transform="matrix(0.9086950770553118,-0.4174604854778962,0.4174604854778962,0.9086950770553118,253.66462525863201,-17.94660055423026)" fill="none" stroke="#ffbd9b"></use><use xlink:href="#bbburst-shape-4" width="8.086997784257758" opacity="0.8365550217198685" transform="matrix(0.7561497592506335,-0.6543986106229206,0.6543986106229206,0.7561497592506335,87.36497528362361,156.07203188773468)" fill="#ffbd9b"></use><use xlink:href="#bbburst-shape-4" width="8.135732036505305" opacity="0.871628192284664" transform="matrix(0.868237255337223,0.4961492400926217,-0.4961492400926217,0.868237255337223,632.2497382093424,94.7825024420818)" fill="#ff6767"></use><use xlink:href="#bbburst-shape-13" width="19.385513153697197" opacity="0.5834663248289147" transform="matrix(0.8561263054692845,-0.5167666292278491,0.5167666292278491,0.8561263054692845,287.2625329818228,-94.52501031263267)" fill="none" stroke="#ff0075" filter="url(#bbburst-blur-1)"></use><use xlink:href="#bbburst-shape-14" width="10.53589874045869" opacity="0.7457613535075975" transform="matrix(0.9997564022381543,0.022071161814044036,-0.022071161814044036,0.9997564022381543,365.7653512138723,-107.98840872970243)" fill="none" stroke="#ffbd9b" filter="url(#bbburst-blur-1)"></use><use xlink:href="#bbburst-shape-10" width="39.16582209892894" opacity="0.2536312648732627" transform="matrix(0.9739877062888815,0.7834844912301221,-0.7834844912301221,0.9739877062888815,974.0710718377106,180.9259855373404)" fill="none" stroke="#ff0075" filter="url(#bbburst-blur-3)"></use><use xlink:href="#bbburst-shape-8" width="15.383937492094928" opacity="0.5771818039921732" transform="matrix(0.9968648712590487,0.0791228693215838,-0.0791228693215838,0.9968648712590487,610.0699170415099,40.306606267444124)" fill="none" stroke="#2c2891" filter="url(#bbburst-blur-1)"></use><use xlink:href="#bbburst-shape-4" width="19.93865104702642" opacity="0.5624201701483933" transform="matrix(0.9414507493505423,0.33715053988878957,-0.33715053988878957,0.9414507493505423,407.6957691566026,177.88399191237767)" fill="#ff6767" filter="url(#bbburst-blur-1)"></use><use xlink:href="#bbburst-shape-10" width="15.723991154352221" opacity="0.662094539465648" transform="matrix(0.9995858179747135,-0.028778333930633317,0.028778333930633317,0.9995858179747135,229.08797932385633,-12.118384189657093)" fill="none" stroke="#ff0075" filter="url(#bbburst-blur-1)"></use><use xlink:href="#bbburst-shape-1" width="6.924763471922997" opacity="0.8355134188594435" transform="matrix(0.9998804021180799,-0.015465492562051097,0.015465492562051097,0.9998804021180799,462.1510155178012,-17.88146935842525)" fill="#ff6767"></use><use xlink:href="#bbburst-shape-13" width="25.116975125763293" opacity="0.005242522480623846" transform="matrix(1.7183716172716608,-0.33120837090142696,0.33120837090142696,1.7183716172716608,503.7274773614953,-649.148375874738)" fill="none" stroke="#ff6767" filter="url(#bbburst-blur-4)"></use><use xlink:href="#bbburst-shape-4" width="10.427109214282336" opacity="0.6554989026139117" transform="matrix(0.8509198309256045,-0.5252955752122234,0.5252955752122234,0.8509198309256045,337.78691035929063,91.1275375375181)" fill="#ffbd9b" filter="url(#bbburst-blur-1)"></use><use xlink:href="#bbburst-shape-1" width="28.255270117013723" opacity="0.273665163527419" transform="matrix(1.0189707981184872,-0.7240155471961727,0.7240155471961727,1.0189707981184872,415.65943076548183,-65.62245896612023)" fill="#00a19d" filter="url(#bbburst-blur-3)"></use><use xlink:href="#bbburst-shape-6" width="8.38287397107264" opacity="0.8389009116362007" transform="matrix(0.9114789578735173,-0.4113467021307048,0.4113467021307048,0.9114789578735173,288.92180500545004,81.56653085556223)" fill="#2c2891"></use><use xlink:href="#bbburst-shape-10" width="16.38208438244855" opacity="0.6618498806864824" transform="matrix(0.9131251117907697,-0.40767944541893975,0.40767944541893975,0.9131251117907697,275.4786473443526,183.12794307050217)" fill="none" stroke="#ff6767" filter="url(#bbburst-blur-1)"></use><use xlink:href="#bbburst-shape-8" width="14.60971235974563" opacity="0.6416782222908913" transform="matrix(0.8123220664677839,-0.583209105149696,0.583209105149696,0.8123220664677839,45.140744336000495,191.70081666192385)" fill="none" stroke="#ff5c58" filter="url(#bbburst-blur-1)"></use><use xlink:href="#bbburst-shape-10" width="15.12772092294341" opacity="0.5170502911896329" transform="matrix(0.7965551387432669,0.6045658863529225,-0.6045658863529225,0.7965551387432669,438.6067872638599,-14.548626223914312)" fill="none" stroke="#00a19d" filter="url(#bbburst-blur-2)"></use><use xlink:href="#bbburst-shape-4" width="7.757928459926935" opacity="0.8921448253164859" transform="matrix(0.7529795883051259,-0.6580438736101439,0.6580438736101439,0.7529795883051259,174.61204333001461,127.73671211313672)" fill="#00a19d"></use><use xlink:href="#bbburst-shape-8" width="18.92379134190811" opacity="0.4402594897930938" transform="matrix(0.9960228442606146,-0.08909822507208197,0.08909822507208197,0.9960228442606146,557.953444300546,-146.66090005921723)" fill="none" stroke="#ff0075" filter="url(#bbburst-blur-2)"></use><use xlink:href="#bbburst-shape-10" width="23.311793866208106" opacity="0.503951549472571" transform="matrix(0.9817744034941269,0.19005004773414624,-0.19005004773414624,0.9817744034941269,241.4773420728685,-2.3217535296320193)" fill="none" stroke="#2c2891" filter="url(#bbburst-blur-2)"></use><use xlink:href="#bbburst-shape-1" width="5.878394875771823" opacity="0.8660590190669148" transform="matrix(0.8486274367308707,0.528990995790658,-0.528990995790658,0.8486274367308707,669.3703594508291,58.62140586198791)" fill="#ff0075"></use><use xlink:href="#bbburst-shape-9" width="5.927535805610251" opacity="0.9533177695792432" transform="matrix(0.9485891282861552,-0.3165101352205206,0.3165101352205206,0.9485891282861552,290.1730329456668,13.908724727110496)" fill="none" stroke="#00a19d"></use><use xlink:href="#bbburst-shape-4" width="8.758697340661305" opacity="0.7921874602480811" transform="matrix(0.9139363905996601,0.4058574551953744,-0.4058574551953744,0.9139363905996601,527.3524940640966,120.88862519291183)" fill="#ffbd9b"></use><use xlink:href="#bbburst-shape-4" width="20.519705795627047" opacity="0.49398271762990587" transform="matrix(0.7953952542754549,-0.6060910735822501,0.6060910735822501,0.7953952542754549,126.23368446071947,314.5999646709388)" fill="#ffbd9b" filter="url(#bbburst-blur-2)"></use><use xlink:href="#bbburst-shape-10" width="24.699760915735688" opacity="0.26568528355014187" transform="matrix(1.0900735203199021,0.6117513549616181,-0.6117513549616181,1.0900735203199021,303.2976372461294,-84.16291039013828)" fill="none" stroke="#ff6767" filter="url(#bbburst-blur-3)"></use><use xlink:href="#bbburst-shape-10" width="21.246446281566406" opacity="0.39653639330194046" transform="matrix(0.825427516902486,-0.5645081171605917,0.5645081171605917,0.825427516902486,-105.15320172573524,52.80708125626694)" fill="none" stroke="#ff6767" filter="url(#bbburst-blur-2)"></use><use xlink:href="#bbburst-shape-13" width="35.10522132881017" opacity="-0.10069829735992397" transform="matrix(1.7094620106937137,-0.3744858261603567,0.3744858261603567,1.7094620106937137,-126.19474689500883,76.8318536965271)" fill="none" stroke="#2c2891" filter="url(#bbburst-blur-4)"></use><use xlink:href="#bbburst-shape-13" width="5.913604498618811" opacity="0.9237939102322631" transform="matrix(0.9688003674608351,0.24784238541409925,-0.24784238541409925,0.9688003674608351,486.2393114116435,-21.045192852435434)" fill="none" stroke="#ff0075"></use><use xlink:href="#bbburst-shape-4" width="5.748895626908896" opacity="0.954779036116595" transform="matrix(0.7549004386217585,-0.6558394069958565,0.6558394069958565,0.7549004386217585,132.56680242426938,79.79168907845809)" fill="#ff0075"></use><use xlink:href="#bbburst-shape-1" width="15.838121740977234" opacity="0.5431966231262235" transform="matrix(0.9848902633020411,-0.173179586709393,0.173179586709393,0.9848902633020411,502.5462701590773,-92.53636482736545)" fill="#00a19d" filter="url(#bbburst-blur-2)"></use><use xlink:href="#bbburst-shape-13" width="18.654482884442615" opacity="0.5194109473886253" transform="matrix(0.980019090204253,0.198903451039011,-0.198903451039011,0.980019090204253,402.8467323282336,211.57415873579646)" fill="none" stroke="#00a19d" filter="url(#bbburst-blur-2)"></use><use xlink:href="#bbburst-shape-14" width="28.90781004652939" opacity="0.24523634960312635" transform="matrix(1.019471409958602,0.72331047571359,-0.72331047571359,1.019471409958602,366.31512718721467,-160.83066799774662)" fill="none" stroke="#2c2891" filter="url(#bbburst-blur-3)"></use><use xlink:href="#bbburst-shape-10" width="6.173552078788161" opacity="0.9213795022566678" transform="matrix(0.9600304936204971,-0.2798954292566863,0.2798954292566863,0.9600304936204971,305.82323771286644,45.510831357745644)" fill="none" stroke="#ff0075"></use><use xlink:href="#bbburst-shape-8" width="5.685230120304714" opacity="0.8562069132071969" transform="matrix(0.987306571824097,0.15882611004790492,-0.15882611004790492,0.987306571824097,435.0397637164573,-54.765238094983715)" fill="none" stroke="#ff6767"></use><use xlink:href="#bbburst-shape-13" width="31.0493328867091" opacity="0.09082791862562012" transform="matrix(1.6601425912898113,-0.5535581058800874,0.5535581058800874,1.6601425912898113,-121.12062285828685,-559.3559770347199)" fill="none" stroke="#ff0075" filter="url(#bbburst-blur-4)"></use><use xlink:href="#bbburst-shape-14" width="13.221134439604198" opacity="0.638236612496198" transform="matrix(0.9997451149677798,0.022576649398452192,-0.022576649398452192,0.9997451149677798,408.04150245714754,-162.7259104425819)" fill="none" stroke="#2c2891" filter="url(#bbburst-blur-1)"></use><use xlink:href="#bbburst-shape-4" width="24.36253750368223" opacity="0.43799310773912303" transform="matrix(0.9999974610471627,-0.0022534194523608463,0.0022534194523608463,0.9999974610471627,263.06203802618376,220.54961363461655)" fill="#2c2891" filter="url(#bbburst-blur-2)"></use><use xlink:href="#bbburst-shape-6" width="10.445712924747394" opacity="0.7113044917937252" transform="matrix(0.8608017803570768,-0.5089403648111308,0.5089403648111308,0.8608017803570768,236.61406593875674,-63.64832986254862)" fill="#ffbd9b" filter="url(#bbburst-blur-1)"></use><use xlink:href="#bbburst-shape-10" width="14.105861673098339" opacity="0.5558155253367953" transform="matrix(0.9845892618071251,0.17488277655075232,-0.17488277655075232,0.9845892618071251,537.2768672582617,-180.64254890863367)" fill="none" stroke="#ffbd9b" filter="url(#bbburst-blur-1)"></use><use xlink:href="#bbburst-shape-10" width="21.97946114231963" opacity="0.4826045208659274" transform="matrix(0.9789693295863353,-0.20400747959151208,0.20400747959151208,0.9789693295863353,330.9977083804698,242.30746881518343)" fill="none" stroke="#ffbd9b" filter="url(#bbburst-blur-2)"></use><use xlink:href="#bbburst-shape-14" width="13.461853276708297" opacity="0.6931847048531738" transform="matrix(0.9017516781952276,-0.43225445153530895,0.43225445153530895,0.9017516781952276,210.09190420301996,-95.40720892304961)" fill="none" stroke="#2c2891" filter="url(#bbburst-blur-1)"></use><use xlink:href="#bbburst-shape-4" width="13.770053781367192" opacity="0.7424331872089464" transform="matrix(0.9982601034918152,0.05896410583151778,-0.05896410583151778,0.9982601034918152,487.8006243648703,-91.24187426811653)" fill="#ffbd9b" filter="url(#bbburst-blur-1)"></use><use xlink:href="#bbburst-shape-10" width="27.20576878172892" opacity="0.3064383236756967" transform="matrix(1.2247182083992156,-0.2501305859254628,0.2501305859254628,1.2247182083992156,465.64140717031967,-339.77392601702877)" fill="none" stroke="#2c2891" filter="url(#bbburst-blur-3)"></use><use xlink:href="#bbburst-shape-9" width="13.313139532793812" opacity="0.7417867513621259" transform="matrix(0.8839385324811802,0.46760311247362074,-0.46760311247362074,0.8839385324811802,528.157030597697,146.61555650585603)" fill="none" stroke="#2c2891" filter="url(#bbburst-blur-1)"></use><use xlink:href="#bbburst-shape-9" width="6.674584659865932" opacity="0.9556699782056236" transform="matrix(0.9260896900076226,0.3773034402991648,-0.3773034402991648,0.9260896900076226,557.3373839342696,10.716520422864562)" fill="none" stroke="#ffbd9b"></use><use xlink:href="#bbburst-shape-9" width="10.594027529292234" opacity="0.7683170816361838" transform="matrix(0.9778004390547496,0.20953830529127357,-0.20953830529127357,0.9778004390547496,522.6131357107747,-86.83512315073534)" fill="none" stroke="#2c2891" filter="url(#bbburst-blur-1)"></use><use xlink:href="#bbburst-shape-6" width="9.093583826507809" opacity="0.7932423428085063" transform="matrix(0.7213775969257826,0.6925419573235857,-0.6925419573235857,0.7213775969257826,708.8060215225049,194.47887577348064)" fill="#2c2891"></use><use xlink:href="#bbburst-shape-13" width="11.285291389928414" opacity="0.6859008355035723" transform="matrix(0.8477239144165538,-0.5304377106939846,0.5304377106939846,0.8477239144165538,324.37120120157397,61.84896455996699)" fill="none" stroke="#ffbd9b" filter="url(#bbburst-blur-1)"></use><use xlink:href="#bbburst-shape-9" width="8.707381982515129" opacity="0.7841153260852239" transform="matrix(0.8146209945881796,-0.5799936509791854,0.5799936509791854,0.8146209945881796,72.65159468883408,44.75465291775987)" fill="none" stroke="#ff0075"></use><use xlink:href="#bbburst-shape-13" width="7.655784191500932" opacity="0.8409641762957152" transform="matrix(0.7784300403154512,0.6277313695638326,-0.6277313695638326,0.7784300403154512,637.3158812585707,156.97208271753175)" fill="none" stroke="#ffbd9b"></use><use xlink:href="#bbburst-shape-14" width="5.548777315692847" opacity="0.9318008803977895" transform="matrix(0.9754507003192834,-0.22021791763301105,0.22021791763301105,0.9754507003192834,290.2389008806274,-13.687037384765347)" fill="none" stroke="#2c2891"></use><use xlink:href="#bbburst-shape-9" width="4.665258812865279" opacity="0.9561000669282214" transform="matrix(0.8824738612855416,0.47036143990317353,-0.47036143990317353,0.8824738612855416,596.0013890955235,62.980519414559296)" fill="none" stroke="#2c2891"></use><use xlink:href="#bbburst-shape-1" width="15.238058539987213" opacity="0.6028935000201263" transform="matrix(0.9751083957116413,-0.2217287004712497,0.2217287004712497,0.9751083957116413,317.71640877673275,189.82686952851805)" fill="#ffbd9b" filter="url(#bbburst-blur-1)"></use><use xlink:href="#bbburst-shape-6" width="24.89299325638202" opacity="0.3816359647061316" transform="matrix(0.9698371609830455,0.24375373058959768,-0.24375373058959768,0.9698371609830455,761.1259947213381,46.74971892078554)" fill="#2c2891" filter="url(#bbburst-blur-2)"></use><use xlink:href="#bbburst-shape-13" width="28.583413005120047" opacity="0.31336045213291386" transform="matrix(0.9891970053225845,-0.7641919161184779,0.7641919161184779,0.9891970053225845,310.59876705216885,-190.62943406599928)" fill="none" stroke="#2c2891" filter="url(#bbburst-blur-3)"></use><use xlink:href="#bbburst-shape-9" width="34.05990094520428" opacity="0.26982883545294767" transform="matrix(1.1007364328092974,0.592350660914853,-0.592350660914853,1.1007364328092974,465.6766984774337,240.3282107042926)" fill="none" stroke="#00a19d" filter="url(#bbburst-blur-3)"></use><use xlink:href="#bbburst-shape-14" width="24.599810332779576" opacity="0.4813448727494146" transform="matrix(0.9689091483657128,-0.24741677835835835,0.24741677835835835,0.9689091483657128,511.26889832218615,87.09940478434493)" fill="none" stroke="#2c2891" filter="url(#bbburst-blur-2)"></use><use xlink:href="#bbburst-shape-9" width="23.92652470401424" opacity="0.32829784841874465" transform="matrix(1.2463440612929584,0.09553261683725697,-0.09553261683725697,1.2463440612929584,414.6206614607959,-402.02233384167636)" fill="none" stroke="#ff0075" filter="url(#bbburst-blur-3)"></use><use xlink:href="#bbburst-shape-13" width="22.378616497359516" opacity="0.4264049455061264" transform="matrix(0.9989326448172774,0.04619059556185737,-0.04619059556185737,0.9989326448172774,479.6592484052651,247.67764189078264)" fill="none" stroke="#ff0075" filter="url(#bbburst-blur-2)"></use><use xlink:href="#bbburst-shape-10" width="8.02920014949057" opacity="0.8534227545816158" transform="matrix(0.8738540586103791,0.48618832179533894,-0.48618832179533894,0.8738540586103791,530.4639381405983,22.23770556369726)" fill="none" stroke="#2c2891"></use><use xlink:href="#bbburst-shape-13" width="10.127204677424826" opacity="0.7933752624932892" transform="matrix(0.9665059924537558,0.2566440463969124,-0.2566440463969124,0.9665059924537558,584.5998079247888,-21.142980870991437)" fill="none" stroke="#2c2891"></use><use xlink:href="#bbburst-shape-8" width="19.737015389407233" opacity="0.5151686881524908" transform="matrix(0.9939966205787395,0.10941077770514868,-0.10941077770514868,0.9939966205787395,547.8858615487546,187.38533904862862)" fill="none" stroke="#ffbd9b" filter="url(#bbburst-blur-2)"></use><use xlink:href="#bbburst-shape-14" width="19.184142938508458" opacity="0.6383966203368564" transform="matrix(0.8537160173083445,0.520738861418253,-0.520738861418253,0.8537160173083445,690.3500169800027,188.93643807321212)" fill="none" stroke="#ff0075" filter="url(#bbburst-blur-1)"></use><use xlink:href="#bbburst-shape-10" width="11.575507927283343" opacity="0.7876061794772515" transform="matrix(0.8733871617432192,-0.4870265554383292,0.4870265554383292,0.8733871617432192,295.32281265662033,44.85136510636789)" fill="none" stroke="#ff6767"></use><use xlink:href="#bbburst-shape-10" width="21.621093389778675" opacity="0.3551028510406784" transform="matrix(0.9983600426263408,-0.05724705483368449,0.05724705483368449,0.9983600426263408,91.05793288401998,-90.67839333674931)" fill="none" stroke="#ffbd9b" filter="url(#bbburst-blur-2)"></use><use xlink:href="#bbburst-shape-10" width="29.758915483107636" opacity="0.1261435898037444" transform="matrix(1.1878361748032482,0.3892880961817185,-0.3892880961817185,1.1878361748032482,810.9919217185428,-364.0024677769123)" fill="none" stroke="#ff0075" filter="url(#bbburst-blur-3)"></use><use xlink:href="#bbburst-shape-6" width="30.566480748722945" opacity="0.2480850953037672" transform="matrix(1.249483018793722,-0.03594698521611092,0.03594698521611092,1.249483018793722,431.8129696336491,-431.2465972650089)" fill="#00a19d" filter="url(#bbburst-blur-3)"></use><use xlink:href="#bbburst-shape-9" width="21.178536199560643" opacity="0.4408821424196162" transform="matrix(0.8627996560582677,-0.5055459954403111,0.5055459954403111,0.8627996560582677,298.0573839548613,-166.42281243619766)" fill="none" stroke="#2c2891" filter="url(#bbburst-blur-2)"></use><use xlink:href="#bbburst-shape-4" width="31.047507755882215" opacity="0.14961998163611256" transform="matrix(1.2248262251655975,0.2496011180796134,-0.2496011180796134,1.2248262251655975,670.2179484965804,-426.284375656726)" fill="#ffbd9b" filter="url(#bbburst-blur-3)"></use><use xlink:href="#bbburst-shape-8" width="21.52152773408233" opacity="0.4976574066618703" transform="matrix(0.7898112530340804,-0.6133499690883957,0.6133499690883957,0.7898112530340804,372.0433237397168,99.48950262610236)" fill="none" stroke="#ff6767" filter="url(#bbburst-blur-2)"></use><use xlink:href="#bbburst-shape-13" width="7.993833548581036" opacity="0.7613817037845179" transform="matrix(0.9810674674631032,-0.1936662703867991,0.1936662703867991,0.9810674674631032,234.4583239234349,-58.34776336331521)" fill="none" stroke="#ff0075" filter="url(#bbburst-blur-1)"></use><use xlink:href="#bbburst-shape-10" width="9.108243839505997" opacity="0.7916045609867755" transform="matrix(0.9577000883791793,-0.28776820658042135,0.28776820658042135,0.9577000883791793,240.02856940814922,-66.34988218418624)" fill="none" stroke="#00a19d"></use><use xlink:href="#bbburst-shape-1" width="8.216056193654753" opacity="0.790224916367168" transform="matrix(0.9974411046387593,-0.0714929561356336,0.0714929561356336,0.9974411046387593,360.85926268804513,95.50619471653727)" fill="#2c2891"></use><use xlink:href="#bbburst-shape-1" width="10.538094864980858" opacity="0.8225912389897629" transform="matrix(0.9927274574394002,0.12038353394839299,-0.12038353394839299,0.9927274574394002,454.6154700692699,81.26098024209693)" fill="#ff0075"></use><use xlink:href="#bbburst-shape-13" width="13.770061128668816" opacity="0.719870476908564" transform="matrix(0.9911550792524982,-0.13270873698432173,0.13270873698432173,0.9911550792524982,218.32417997528427,-28.155035184903397)" fill="none" stroke="#00a19d" filter="url(#bbburst-blur-1)"></use><use xlink:href="#bbburst-shape-9" width="8.856697471507756" opacity="0.8871199174493561" transform="matrix(0.9961783205881475,-0.08734273633324074,0.08734273633324074,0.9961783205881475,352.68211633201287,-48.31183898458272)" fill="none" stroke="#ff0075"></use><use xlink:href="#bbburst-shape-6" width="28.177825872177397" opacity="-0.11046602611281764" transform="matrix(1.5485341283439167,0.8151944880543208,-0.8151944880543208,1.5485341283439167,357.4956343667961,-590.7094291163677)" fill="#00a19d" filter="url(#bbburst-blur-4)"></use><use xlink:href="#bbburst-shape-10" width="19.89098811087215" opacity="0.42798066895052567" transform="matrix(0.8131136511295394,0.5821049650593867,-0.5821049650593867,0.8131136511295394,803.7972284923885,253.90623384810903)" fill="none" stroke="#2c2891" filter="url(#bbburst-blur-2)"></use><use xlink:href="#bbburst-shape-6" width="23.63718226608264" opacity="0.5638493854167981" transform="matrix(0.8612864518626022,0.5081197180172498,-0.5081197180172498,0.8612864518626022,736.55898911333,183.38907939448683)" fill="#2c2891" filter="url(#bbburst-blur-1)"></use></svg>