<svg xmlns="http://www.w3.org/2000/svg" version="1.1" xmlns:xlink="http://www.w3.org/1999/xlink" xmlns:svgjs="http://svgjs.dev/svgjs" viewBox="0 0 800 800" opacity="0.57"><defs><filter id="bbburst-blur-1" x="-100%" y="-100%" width="400%" height="400%"><feGaussianBlur in="SourceGraphic" stdDeviation="1"></feGaussianBlur></filter><filter id="bbburst-blur-2" x="-100%" y="-100%" width="400%" height="400%"><feGaussianBlur in="SourceGraphic" stdDeviation="2"></feGaussianBlur></filter><filter id="bbburst-blur-3" x="-100%" y="-100%" width="400%" height="400%"><feGaussianBlur in="SourceGraphic" stdDeviation="4"></feGaussianBlur></filter><filter id="bbburst-blur-4" x="-100%" y="-100%" width="400%" height="400%"><feGaussianBlur in="SourceGraphic" stdDeviation="12"></feGaussianBlur></filter><symbol id="bbburst-shape-1" viewBox="0 0 194 167"><path d="m97 0 96.129 166.5H.871L97 0Z"></path></symbol><symbol id="bbburst-shape-4" viewBox="0 0 149 143"><path d="M71.647 2.781c.898-2.764 4.808-2.764 5.706 0l15.445 47.534a3 3 0 0 0 2.853 2.073h49.98c2.906 0 4.115 3.719 1.764 5.427L106.96 87.193a2.999 2.999 0 0 0-1.09 3.354l15.445 47.534c.898 2.764-2.266 5.062-4.617 3.354l-40.435-29.378a3 3 0 0 0-3.526 0l-40.435 29.378c-2.351 1.708-5.515-.59-4.617-3.354L43.13 90.547a3 3 0 0 0-1.09-3.354L1.605 57.815c-2.35-1.708-1.142-5.427 1.764-5.427h49.98a3 3 0 0 0 2.853-2.073L71.647 2.781Z"></path></symbol><symbol id="bbburst-shape-6" viewBox="0 0 133 116"><path d="M59.7487 10.2513c-13.6683-13.66839-35.8291-13.66839-49.4974 0-13.66839 13.6683-13.66839 35.8291 0 49.4974l49.4974-49.4974ZM66.5 66.5 41.7513 91.2487 66.5 115.997l24.7487-24.7483L66.5 66.5Zm56.249-6.7513c13.668-13.6683 13.668-35.8291 0-49.4974-13.669-13.66839-35.8294-13.66839-49.4977 0l49.4977 49.4974Zm-112.4977 0 31.5 31.5 49.4974-49.4974-31.5-31.5-49.4974 49.4974Zm80.9974 31.5 31.5003-31.5-49.4977-49.4974-31.5 31.5 49.4974 49.4974Z"></path></symbol><symbol id="bbburst-shape-8" viewBox="0 0 87 168"><path d="m12 12 31.2546 18.0749c16.4102 9.4902 20.014 31.6325 7.4603 45.8369L36.3296 92.1884c-12.5684 14.2206-8.9394 36.3916 7.5068 45.8636L75 156" stroke-width="14" stroke-linecap="round" stroke-linejoin="round"></path></symbol><symbol id="bbburst-shape-9" viewBox="0 0 182 172"><path d="M13.5809 69.845 91 13.5967l77.419 56.2483-29.571 91.012H43.1524L13.5809 69.845Z" stroke-width="22"></path></symbol><symbol id="bbburst-shape-10" viewBox="0 0 145 145"><circle cx="72.5" cy="72.5" r="61.5" fill="none" stroke-width="22"></circle></symbol><symbol id="bbburst-shape-13" viewBox="0 0 159 159"><path stroke-width="22" d="M11 11h137v137H11z"></path></symbol><symbol id="bbburst-shape-14" viewBox="0 0 185 109"><path d="M168 16.5C168 58.1975 134.197 92 92.5 92 50.8025 92 17 58.1975 17 16.5" stroke-width="33" stroke-linecap="round"></path></symbol></defs><use xlink:href="#bbburst-shape-6" width="40.84186078658212" opacity="0.11704349737061037" transform="matrix(1.2287433032287396,-0.22954279507430753,0.22954279507430753,1.2287433032287396,88.81106114982506,-433.4024297906895)" fill="#ff5c58" filter="url(#bbburst-blur-3)"></use><use xlink:href="#bbburst-shape-10" width="43.09283992492399" opacity="-0.05368328843171377" transform="matrix(1.3859080762815899,-1.0685311432510813,1.0685311432510813,1.3859080762815899,266.09084244593987,215.44591201540788)" fill="none" stroke="#ffbd9b" filter="url(#bbburst-blur-4)"></use><use xlink:href="#bbburst-shape-6" width="25.957479897976555" opacity="0.9386960706749302" transform="matrix(0.8154106135544482,-0.5788830031213201,0.5788830031213201,0.8154106135544482,143.2958383658797,104.77563328047569)" fill="#ffbd9b"></use><use xlink:href="#bbburst-shape-10" width="31.207664622531112" opacity="0.7596881868041826" transform="matrix(0.884431612092081,-0.4666698228214492,0.4666698228214492,0.884431612092081,289.61853767952846,113.33108941582896)" fill="none" stroke="#00a19d" filter="url(#bbburst-blur-1)"></use><use xlink:href="#bbburst-shape-8" width="48.48877739425708" opacity="0.23507129978364405" transform="matrix(1.2476240673435859,0.07703367176142917,-0.07703367176142917,1.2476240673435859,334.4246177458679,-438.7209886959196)" fill="none" stroke="#00a19d" filter="url(#bbburst-blur-3)"></use><use xlink:href="#bbburst-shape-13" width="36.63141018030131" opacity="0.20485859115402127" transform="matrix(1.0313084514948432,-0.7063305726607821,0.7063305726607821,1.0313084514948432,77.45480471875254,357.6031197796781)" fill="none" stroke="#ff5c58" filter="url(#bbburst-blur-3)"></use><use xlink:href="#bbburst-shape-10" width="40.7112740364213" opacity="0.5312413450961962" transform="matrix(0.9897703922880411,-0.14266944504685397,0.14266944504685397,0.9897703922880411,294.3302497729127,-202.01743399809345)" fill="none" stroke="#00a19d" filter="url(#bbburst-blur-2)"></use><use xlink:href="#bbburst-shape-4" width="65.89855243982885" opacity="-0.04942937954182902" transform="matrix(1.5718539070788162,0.7692693252698044,-0.7692693252698044,1.5718539070788162,319.7173807313764,-585.6795588549796)" fill="#ff6767" filter="url(#bbburst-blur-4)"></use><use xlink:href="#bbburst-shape-1" width="35.70039256045467" opacity="0.5019066191555147" transform="matrix(0.79353541935036,0.6085240654538226,-0.6085240654538226,0.79353541935036,701.8669056375659,283.80161933467963)" fill="#ffbd9b" filter="url(#bbburst-blur-2)"></use><use xlink:href="#bbburst-shape-4" width="52.95100044547937" opacity="0.23720456008679225" transform="matrix(1.0748599545816304,-0.6381035010378611,0.6381035010378611,1.0748599545816304,-131.19411991103144,-250.81528382062382)" fill="#ff6767" filter="url(#bbburst-blur-3)"></use><use xlink:href="#bbburst-shape-6" width="41.76802402888365" opacity="0.12010250202112815" transform="matrix(0.9783312562697187,0.7780539525031115,-0.7780539525031115,0.9783312562697187,337.14889408885824,-185.67537310615438)" fill="#ff0075" filter="url(#bbburst-blur-3)"></use><use xlink:href="#bbburst-shape-4" width="38.49190188300903" opacity="0.7216860641861094" transform="matrix(0.8705691021879212,0.49204617498332087,-0.49204617498332087,0.8705691021879212,592.8772977261516,-82.24941343995391)" fill="#2c2891" filter="url(#bbburst-blur-1)"></use><use xlink:href="#bbburst-shape-13" width="23.853048596463076" opacity="0.8758664177162657" transform="matrix(0.9752661732894115,-0.22103368801480844,0.22103368801480844,0.9752661732894115,355.4653687134178,18.770637636360505)" fill="none" stroke="#2c2891"></use><use xlink:href="#bbburst-shape-6" width="42.956685113483935" opacity="0.4716768286119588" transform="matrix(0.7283435682755344,-0.6852121179252904,0.6852121179252904,0.7283435682755344,79.67490723546416,359.1485078620728)" fill="#ffbd9b" filter="url(#bbburst-blur-2)"></use><use xlink:href="#bbburst-shape-8" width="31.557669623476883" opacity="0.5309056432589458" transform="matrix(0.7731236462099883,0.6342553331829167,-0.6342553331829167,0.7731236462099883,851.6177524867846,60.44806462257958)" fill="none" stroke="#ff5c58" filter="url(#bbburst-blur-2)"></use><use xlink:href="#bbburst-shape-13" width="39.8798915615512" opacity="0.3040800040124959" transform="matrix(1.2037624501838922,-0.3368322483481543,0.3368322483481543,1.2037624501838922,130.8073894118,218.2489675723943)" fill="none" stroke="#2c2891" filter="url(#bbburst-blur-3)"></use><use xlink:href="#bbburst-shape-9" width="45.96619953615831" opacity="0.2665636104828468" transform="matrix(0.9901864815309991,0.7629093863580789,-0.7629093863580789,0.9901864815309991,449.91820256083486,220.11445835003246)" fill="none" stroke="#ffbd9b" filter="url(#bbburst-blur-3)"></use><use xlink:href="#bbburst-shape-4" width="55.136296051335435" opacity="0.4073786792473998" transform="matrix(0.7152464116095327,-0.6988723564998739,0.6988723564998739,0.7152464116095327,-29.685514790962316,-99.3899570647813)" fill="#2c2891" filter="url(#bbburst-blur-2)"></use><use xlink:href="#bbburst-shape-1" width="39.5502223482422" opacity="0.7471384140521652" transform="matrix(0.803806179402184,-0.5948912723808141,0.5948912723808141,0.803806179402184,76.63213477538324,180.34337287264202)" fill="#00a19d" filter="url(#bbburst-blur-1)"></use><use xlink:href="#bbburst-shape-6" width="39.357314862349355" opacity="0.4182946430788792" transform="matrix(0.8593551089149247,-0.5113793081283381,0.5113793081283381,0.8593551089149247,432.5718804368955,129.47798405307947)" fill="#2c2891" filter="url(#bbburst-blur-2)"></use><use xlink:href="#bbburst-shape-4" width="42.83157910620135" opacity="0.2129320062810821" transform="matrix(1.0865753322614706,0.6179434013895405,-0.6179434013895405,1.0865753322614706,270.0698503326478,-63.942083537072165)" fill="#2c2891" filter="url(#bbburst-blur-3)"></use><use xlink:href="#bbburst-shape-9" width="37.22674438297281" opacity="0.5548646427561346" transform="matrix(0.9899027191872649,-0.14174839168632192,0.14174839168632192,0.9899027191872649,486.995302700749,-111.17211921233906)" fill="none" stroke="#ff0075" filter="url(#bbburst-blur-2)"></use><use xlink:href="#bbburst-shape-10" width="27.376495723023424" opacity="0.8033142771573322" transform="matrix(0.819152828815493,0.5735753159294563,-0.5735753159294563,0.819152828815493,638.3714194790372,150.6710363599322)" fill="none" stroke="#ffbd9b"></use><use xlink:href="#bbburst-shape-13" width="37.102231779368104" opacity="0.38842901044072053" transform="matrix(0.8945635850920175,0.44694070325639035,-0.44694070325639035,0.8945635850920175,814.0001569583379,-77.13938349238913)" fill="none" stroke="#ffbd9b" filter="url(#bbburst-blur-2)"></use><use xlink:href="#bbburst-shape-4" width="38.48690569153459" opacity="0.44448284171561736" transform="matrix(0.9101764505833024,-0.4142207488810539,0.4142207488810539,0.9101764505833024,394.7034886018541,219.56165217813742)" fill="#ff0075" filter="url(#bbburst-blur-2)"></use><use xlink:href="#bbburst-shape-8" width="38.59758122780044" opacity="0.0739362316082296" transform="matrix(1.3678884984363817,1.0915040338200592,-1.0915040338200592,1.3678884984363817,1154.465717759972,-403.0519177979198)" fill="none" stroke="#ff6767" filter="url(#bbburst-blur-4)"></use><use xlink:href="#bbburst-shape-4" width="31.7612993302105" opacity="0.8895383775510795" transform="matrix(0.9794509262207451,0.20168262970648804,-0.20168262970648804,0.9794509262207451,485.83796073671874,-40.13607167716572)" fill="#ffbd9b"></use><use xlink:href="#bbburst-shape-8" width="40.40695939790193" opacity="0.6526099233504524" transform="matrix(0.8470677838425624,-0.5314848723868347,0.5314848723868347,0.8470677838425624,19.529422007881124,30.58015041527659)" fill="none" stroke="#2c2891" filter="url(#bbburst-blur-1)"></use><use xlink:href="#bbburst-shape-13" width="36.49269550469526" opacity="0.2702422257274333" transform="matrix(1.1464597835079136,0.49812645462672195,-0.49812645462672195,1.1464597835079136,905.7107753779394,-93.43549371883671)" fill="none" stroke="#ff6767" filter="url(#bbburst-blur-3)"></use><use xlink:href="#bbburst-shape-6" width="40.975210540151735" opacity="0.10382773899272923" transform="matrix(1.7249461898562426,-0.29506040415554124,0.29506040415554124,1.7249461898562426,48.819331439946865,67.49499281079898)" fill="#ff0075" filter="url(#bbburst-blur-4)"></use><use xlink:href="#bbburst-shape-9" width="29.93816333974657" opacity="0.5799631276742487" transform="matrix(0.9416360488869829,0.3366326654329783,-0.3366326654329783,0.9416360488869829,604.7565255639063,-151.14444631455282)" fill="none" stroke="#00a19d" filter="url(#bbburst-blur-1)"></use><use xlink:href="#bbburst-shape-4" width="26.62218003627592" opacity="0.7431282367012739" transform="matrix(0.7846717376621004,0.6199114970012573,-0.6199114970012573,0.7846717376621004,723.9694736593758,1.18199465973089)" fill="#ff0075" filter="url(#bbburst-blur-1)"></use><use xlink:href="#bbburst-shape-1" width="34.697476853394086" opacity="0.06732296564479223" transform="matrix(1.6360873786742405,-0.6210620656124899,0.6210620656124899,1.6360873786742405,475.2024416872414,-14.983567968043872)" fill="#ffbd9b" filter="url(#bbburst-blur-4)"></use><use xlink:href="#bbburst-shape-9" width="40.415494636600044" opacity="0.5121089190129273" transform="matrix(0.8478834957432807,0.5301825889692664,-0.5301825889692664,0.8478834957432807,419.76190377911837,-82.25306512535627)" fill="none" stroke="#ff5c58" filter="url(#bbburst-blur-2)"></use><use xlink:href="#bbburst-shape-9" width="31.902846563513393" opacity="0.19706813577671278" transform="matrix(1.2473792896826128,0.08090060364978967,-0.08090060364978967,1.2473792896826128,475.90130434717173,-456.2201820682642)" fill="none" stroke="#ffbd9b" filter="url(#bbburst-blur-3)"></use><use xlink:href="#bbburst-shape-14" width="29.870147003233313" opacity="0.40161768127176845" transform="matrix(0.9352080812300879,0.3540986371082742,-0.3540986371082742,0.9352080812300879,566.5019250923309,-245.78952008294044)" fill="none" stroke="#2c2891" filter="url(#bbburst-blur-2)"></use><use xlink:href="#bbburst-shape-8" width="32.572776304227276" opacity="0.17015931661961392" transform="matrix(1.1423749502875915,-0.5074243519534936,0.5074243519534936,1.1423749502875915,531.1025067300932,-171.4349900743901)" fill="none" stroke="#2c2891" filter="url(#bbburst-blur-3)"></use><use xlink:href="#bbburst-shape-10" width="35.049016858816785" opacity="0.12860306263012578" transform="matrix(0.9033209777033866,-0.8640088027566605,0.8640088027566605,0.9033209777033866,200.413692280683,410.98271891889834)" fill="none" stroke="#ff0075" filter="url(#bbburst-blur-3)"></use><use xlink:href="#bbburst-shape-13" width="41.386598113764194" opacity="0.5194918016142811" transform="matrix(0.9904385177567923,-0.13795485690517856,0.13795485690517856,0.9904385177567923,199.16242507311017,183.00225421467138)" fill="none" stroke="#ffbd9b" filter="url(#bbburst-blur-2)"></use><use xlink:href="#bbburst-shape-13" width="36.52612450847274" opacity="0.22755773493397857" transform="matrix(1.1574371916224293,0.47205841529326,-0.47205841529326,1.1574371916224293,790.8286028321745,194.92221788070367)" fill="none" stroke="#ffbd9b" filter="url(#bbburst-blur-3)"></use><use xlink:href="#bbburst-shape-8" width="34.99463408438216" opacity="0.65943473119822" transform="matrix(0.9338043174573228,0.35778414819282217,-0.35778414819282217,0.9338043174573228,512.2560654891554,172.78314165682775)" fill="none" stroke="#00a19d" filter="url(#bbburst-blur-1)"></use><use xlink:href="#bbburst-shape-8" width="34.88731209227794" opacity="0.2726129082819727" transform="matrix(1.1073705097729072,0.5798539075364515,-0.5798539075364515,1.1073705097729072,901.2540022887542,101.32099189069368)" fill="none" stroke="#ffbd9b" filter="url(#bbburst-blur-3)"></use><use xlink:href="#bbburst-shape-6" width="59.85309874184027" opacity="-0.04597319836032798" transform="matrix(1.5606621404677647,0.7917282888154086,-0.7917282888154086,1.5606621404677647,335.0262237814877,82.7226832448971)" fill="#ff6767" filter="url(#bbburst-blur-4)"></use><use xlink:href="#bbburst-shape-1" width="36.94177554848657" opacity="0.2804900588150695" transform="matrix(1.237920768590781,-0.17335561915210596,0.17335561915210596,1.237920768590781,546.5430421064427,-310.6198088974478)" fill="#ffbd9b" filter="url(#bbburst-blur-3)"></use><use xlink:href="#bbburst-shape-6" width="36.829922548314386" opacity="0.6385983146725531" transform="matrix(0.9874632000999862,0.15784938532757944,-0.15784938532757944,0.9874632000999862,535.6540744516268,137.09924332491101)" fill="#00a19d" filter="url(#bbburst-blur-1)"></use><use xlink:href="#bbburst-shape-6" width="34.18208503954176" opacity="0.6530056927796803" transform="matrix(0.9957278765308442,0.0923363195030864,-0.0923363195030864,0.9957278765308442,273.7240349309834,54.99271449377562)" fill="#ff0075" filter="url(#bbburst-blur-1)"></use><use xlink:href="#bbburst-shape-9" width="32.38807032115975" opacity="0.7093063838404053" transform="matrix(0.7757777360002407,-0.6310062633019904,0.6310062633019904,0.7757777360002407,265.1299957489789,87.44502544502501)" fill="none" stroke="#ff0075" filter="url(#bbburst-blur-1)"></use><use xlink:href="#bbburst-shape-14" width="46.8258363923409" opacity="0.12171239545933643" transform="matrix(1.2006391034525334,0.34780129853221753,-0.34780129853221753,1.2006391034525334,707.9288628995098,-430.98959904574)" fill="none" stroke="#ff6767" filter="url(#bbburst-blur-3)"></use><use xlink:href="#bbburst-shape-4" width="28.906796658052176" opacity="0.8306860240397987" transform="matrix(0.9973496277116488,-0.07275795560236392,0.07275795560236392,0.9973496277116488,311.44505342877505,-59.31648291553074)" fill="#ff0075"></use><use xlink:href="#bbburst-shape-14" width="30.51340649313387" opacity="0.6611730438093022" transform="matrix(0.9925022769101218,-0.12222614420910086,0.12222614420910086,0.9925022769101218,253.13835263839462,-123.1041787557474)" fill="none" stroke="#ff6767" filter="url(#bbburst-blur-1)"></use><use xlink:href="#bbburst-shape-14" width="42.69677520767676" opacity="-0.05973738124994887" transform="matrix(1.5616507754352913,-0.7897764592480289,0.7897764592480289,1.5616507754352913,380.31636445668926,-552.4310560194622)" fill="none" stroke="#ffbd9b" filter="url(#bbburst-blur-4)"></use><use xlink:href="#bbburst-shape-10" width="41.20122389850462" opacity="0.27207312974697107" transform="matrix(0.9474866145428245,-0.8153337447095989,0.8153337447095989,0.9474866145428245,-259.4584348138303,131.74804713268526)" fill="none" stroke="#2c2891" filter="url(#bbburst-blur-3)"></use><use xlink:href="#bbburst-shape-6" width="32.15029899040631" opacity="0.5929027188453468" transform="matrix(0.8599283034092261,0.5104148440197739,-0.5104148440197739,0.8599283034092261,756.9328192976577,124.03128224924995)" fill="#2c2891" filter="url(#bbburst-blur-1)"></use><use xlink:href="#bbburst-shape-8" width="24.8413192158877" opacity="0.8210030143203098" transform="matrix(0.8183962751912603,-0.5746542758503332,0.5746542758503332,0.8183962751912603,79.4248414974216,79.96964781015026)" fill="none" stroke="#ff6767"></use><use xlink:href="#bbburst-shape-13" width="39.97536225969488" opacity="0.3098795924685763" transform="matrix(1.0923321011418046,0.6077092897225862,-0.6077092897225862,1.0923321011418046,697.0957556587995,252.07057887437492)" fill="none" stroke="#ff6767" filter="url(#bbburst-blur-3)"></use><use xlink:href="#bbburst-shape-13" width="46.90725196256477" opacity="0.34960400602752817" transform="matrix(0.9318669682305265,-0.36280015645096797,0.36280015645096797,0.9318669682305265,-38.72628646569251,-72.92158987523919)" fill="none" stroke="#ffbd9b" filter="url(#bbburst-blur-2)"></use><use xlink:href="#bbburst-shape-1" width="33.45174631528243" opacity="0.37269391589204426" transform="matrix(0.7503297737174529,0.6610637115082901,-0.6610637115082901,0.7503297737174529,792.9042948520497,-155.67478815631452)" fill="#ffbd9b" filter="url(#bbburst-blur-2)"></use><use xlink:href="#bbburst-shape-8" width="36.11399025354609" opacity="0.18417630978922683" transform="matrix(1.089061790276719,-0.6135506637265319,0.6135506637265319,1.089061790276719,494.5182681423329,49.36455191307323)" fill="none" stroke="#00a19d" filter="url(#bbburst-blur-3)"></use><use xlink:href="#bbburst-shape-10" width="40.831202158996845" opacity="0.46432058523555486" transform="matrix(0.7181824880749066,0.6958548080041818,-0.6958548080041818,0.7181824880749066,422.624734444141,97.95400545346507)" fill="none" stroke="#ff6767" filter="url(#bbburst-blur-2)"></use><use xlink:href="#bbburst-shape-9" width="38.76222717697808" opacity="0.46566695864727425" transform="matrix(0.9773446451455015,-0.21165406824678284,0.21165406824678284,0.9773446451455015,87.54738628586648,132.16213848105843)" fill="none" stroke="#2c2891" filter="url(#bbburst-blur-2)"></use><use xlink:href="#bbburst-shape-6" width="39.665547200691734" opacity="0.11409592026368764" transform="matrix(0.8978084531752963,-0.8697355813159431,0.8697355813159431,0.8978084531752963,-315.04740194483486,250.17727613755505)" fill="#ff0075" filter="url(#bbburst-blur-3)"></use></svg>