<svg xmlns="http://www.w3.org/2000/svg" version="1.1" xmlns:xlink="http://www.w3.org/1999/xlink" xmlns:svgjs="http://svgjs.dev/svgjs" viewBox="0 0 800 800" opacity="1"><defs><filter id="bbburst-blur-1" x="-100%" y="-100%" width="400%" height="400%"><feGaussianBlur in="SourceGraphic" stdDeviation="1"></feGaussianBlur></filter><filter id="bbburst-blur-2" x="-100%" y="-100%" width="400%" height="400%"><feGaussianBlur in="SourceGraphic" stdDeviation="2"></feGaussianBlur></filter><filter id="bbburst-blur-3" x="-100%" y="-100%" width="400%" height="400%"><feGaussianBlur in="SourceGraphic" stdDeviation="4"></feGaussianBlur></filter><filter id="bbburst-blur-4" x="-100%" y="-100%" width="400%" height="400%"><feGaussianBlur in="SourceGraphic" stdDeviation="12"></feGaussianBlur></filter><symbol id="bbburst-shape-1" viewBox="0 0 194 167"><path d="m97 0 96.129 166.5H.871L97 0Z"></path></symbol><symbol id="bbburst-shape-2" viewBox="0 0 126 115"><path d="m63 0 62.77 43.877-23.976 70.996H24.206L.23 43.877 63 0Z"></path></symbol><symbol id="bbburst-shape-4" viewBox="0 0 149 143"><path d="M71.647 2.781c.898-2.764 4.808-2.764 5.706 0l15.445 47.534a3 3 0 0 0 2.853 2.073h49.98c2.906 0 4.115 3.719 1.764 5.427L106.96 87.193a2.999 2.999 0 0 0-1.09 3.354l15.445 47.534c.898 2.764-2.266 5.062-4.617 3.354l-40.435-29.378a3 3 0 0 0-3.526 0l-40.435 29.378c-2.351 1.708-5.515-.59-4.617-3.354L43.13 90.547a3 3 0 0 0-1.09-3.354L1.605 57.815c-2.35-1.708-1.142-5.427 1.764-5.427h49.98a3 3 0 0 0 2.853-2.073L71.647 2.781Z"></path></symbol><symbol id="bbburst-shape-5" viewBox="0 0 145 145"><circle cx="72.5" cy="72.5" r="72.5"></circle></symbol><symbol id="bbburst-shape-6" viewBox="0 0 133 116"><path d="M59.7487 10.2513c-13.6683-13.66839-35.8291-13.66839-49.4974 0-13.66839 13.6683-13.66839 35.8291 0 49.4974l49.4974-49.4974ZM66.5 66.5 41.7513 91.2487 66.5 115.997l24.7487-24.7483L66.5 66.5Zm56.249-6.7513c13.668-13.6683 13.668-35.8291 0-49.4974-13.669-13.66839-35.8294-13.66839-49.4977 0l49.4977 49.4974Zm-112.4977 0 31.5 31.5 49.4974-49.4974-31.5-31.5-49.4974 49.4974Zm80.9974 31.5 31.5003-31.5-49.4977-49.4974-31.5 31.5 49.4974 49.4974Z"></path></symbol><symbol id="bbburst-shape-8" viewBox="0 0 87 168"><path d="m12 12 31.2546 18.0749c16.4102 9.4902 20.014 31.6325 7.4603 45.8369L36.3296 92.1884c-12.5684 14.2206-8.9394 36.3916 7.5068 45.8636L75 156" stroke-width="14" stroke-linecap="round" stroke-linejoin="round"></path></symbol><symbol id="bbburst-shape-9" viewBox="0 0 182 172"><path d="M13.5809 69.845 91 13.5967l77.419 56.2483-29.571 91.012H43.1524L13.5809 69.845Z" stroke-width="22"></path></symbol><symbol id="bbburst-shape-10" viewBox="0 0 145 145"><circle cx="72.5" cy="72.5" r="61.5" fill="none" stroke-width="22"></circle></symbol><symbol id="bbburst-shape-12" viewBox="0 0 170 151"><path d="M69.3728 54.2122 85 10.0031l15.627 44.2091c1.413 3.9958 5.19 6.6672 9.428 6.6673h49.312l-39.149 26.1447c-3.803 2.5401-5.399 7.3367-3.875 11.6488l15.179 42.94-40.9683-27.36c-3.3621-2.245-7.7453-2.245-11.1074 0l-40.9682 27.36 15.1785-42.94c1.5243-4.3121-.0712-9.1087-3.8746-11.6488L10.6333 60.8795h49.3112c4.2381-.0001 8.0159-2.6715 9.4283-6.6673Z" stroke-width="12"></path></symbol><symbol id="bbburst-shape-13" viewBox="0 0 159 159"><path stroke-width="22" d="M11 11h137v137H11z"></path></symbol><symbol id="bbburst-shape-14" viewBox="0 0 185 109"><path d="M168 16.5C168 58.1975 134.197 92 92.5 92 50.8025 92 17 58.1975 17 16.5" stroke-width="33" stroke-linecap="round"></path></symbol></defs><use xlink:href="#bbburst-shape-1" width="53.85101774445555" opacity="0.198307360616234" transform="matrix(1.0253912353390335,0.7148935686449353,-0.7148935686449353,1.0253912353390335,927.6552563763457,-269.32591568329474)" fill="#7027a0" filter="url(#bbburst-blur-3)"></use><use xlink:href="#bbburst-shape-5" width="38.158598299269144" opacity="0.3063667818480905" transform="matrix(1.2475988571849417,-0.07744089068978671,0.07744089068978671,1.2475988571849417,525.9848197214234,156.90293408448514)" fill="#801fff" filter="url(#bbburst-blur-3)"></use><use xlink:href="#bbburst-shape-9" width="33.91360209785392" opacity="0.42098645286439373" transform="matrix(0.9964743381797465,0.08389811290628714,-0.08389811290628714,0.9964743381797465,156.80141634786793,18.51788427844616)" fill="none" stroke="#ff0075" filter="url(#bbburst-blur-2)"></use><use xlink:href="#bbburst-shape-6" width="34.8120758542775" opacity="0.27738727312180833" transform="matrix(0.9019169512073959,0.8654743284030763,-0.8654743284030763,0.9019169512073959,564.697495450251,303.90451567863715)" fill="#f52626" filter="url(#bbburst-blur-3)"></use><use xlink:href="#bbburst-shape-6" width="30.012954572939616" opacity="0.5499316769393181" transform="matrix(0.991682787727047,-0.12870605473680183,0.12870605473680183,0.991682787727047,263.9280816456778,-184.89791203620226)" fill="#00a19d" filter="url(#bbburst-blur-2)"></use><use xlink:href="#bbburst-shape-4" width="17.384151283772354" opacity="0.8789541359322873" transform="matrix(0.9959047722616038,0.09040843205455457,-0.09040843205455457,0.9959047722616038,385.1538248934159,35.12277935062434)" fill="#ffa6d5"></use><use xlink:href="#bbburst-shape-12" width="38.86681314198861" opacity="0.2568026013321896" transform="matrix(1.0760350445835507,-0.6361199437433762,0.6361199437433762,1.0760350445835507,-201.7153164188916,-91.40909460429702)" fill="none" stroke="#ff6060" filter="url(#bbburst-blur-3)"></use><use xlink:href="#bbburst-shape-12" width="28.07695725503686" opacity="0.7069995850694097" transform="matrix(0.991526713734965,0.12990294819572312,-0.12990294819572312,0.991526713734965,317.58200464557666,55.10962044040906)" fill="none" stroke="#ff0075" filter="url(#bbburst-blur-1)"></use><use xlink:href="#bbburst-shape-1" width="22.64226086509597" opacity="0.7578045383099892" transform="matrix(0.707602834718002,-0.706610379416442,0.706610379416442,0.707602834718002,47.801636309251364,214.91386060301772)" fill="#3db2ff" filter="url(#bbburst-blur-1)"></use><use xlink:href="#bbburst-shape-8" width="44.941233356381034" opacity="0.380058337195339" transform="matrix(0.926863982139223,-0.375397334317949,0.375397334317949,0.926863982139223,394.08416211805,-187.20604326010755)" fill="none" stroke="#ff5c58" filter="url(#bbburst-blur-2)"></use><use xlink:href="#bbburst-shape-13" width="27.205321667001794" opacity="0.6050375957762426" transform="matrix(0.8578765234423166,0.5138558849780009,-0.5138558849780009,0.8578765234423166,717.2367623137377,177.80651927090094)" fill="none" stroke="#ff0075" filter="url(#bbburst-blur-1)"></use><use xlink:href="#bbburst-shape-9" width="50.18208451017976" opacity="0.2762142749953528" transform="matrix(1.1123230422202952,-0.5702959317282452,0.5702959317282452,1.1123230422202952,36.44297712138746,-338.50508037702997)" fill="none" stroke="#ff5c58" filter="url(#bbburst-blur-3)"></use><use xlink:href="#bbburst-shape-8" width="28.011350853769198" opacity="0.750016926981806" transform="matrix(0.8498107064214897,-0.5270880033271567,0.5270880033271567,0.8498107064214897,233.3461021286036,-30.057091865852954)" fill="none" stroke="#ff6767" filter="url(#bbburst-blur-1)"></use><use xlink:href="#bbburst-shape-13" width="29.519799515246213" opacity="0.6181224103452836" transform="matrix(0.925602229425936,-0.378497705252934,0.378497705252934,0.925602229425936,406.68070995221245,41.30400922976372)" fill="none" stroke="#801fff" filter="url(#bbburst-blur-1)"></use><use xlink:href="#bbburst-shape-6" width="43.467124927823825" opacity="0.1204877701796957" transform="matrix(1.2485703490733249,0.05976690902929391,-0.05976690902929391,1.2485703490733249,750.0961319428304,-279.06170125992526)" fill="#ff6060" filter="url(#bbburst-blur-3)"></use><use xlink:href="#bbburst-shape-4" width="31.707608104863795" opacity="0.6530390483907645" transform="matrix(0.8386370103143098,0.5446907057505904,-0.5446907057505904,0.8386370103143098,608.596871780379,-100.14647554315795)" fill="#ff0075" filter="url(#bbburst-blur-1)"></use><use xlink:href="#bbburst-shape-2" width="47.25583550756404" opacity="0.20119931577914152" transform="matrix(0.8953368465703628,-0.8722797321808173,0.8722797321808173,0.8953368465703628,-328.5432327552426,88.79311964921351)" fill="#f52626" filter="url(#bbburst-blur-3)"></use><use xlink:href="#bbburst-shape-4" width="39.83130796095515" opacity="0.35924411713911053" transform="matrix(0.8754475506246218,-0.4833131346294557,0.4833131346294557,0.8754475506246218,-54.5954256750739,-94.39195177145692)" fill="#93ff8d" filter="url(#bbburst-blur-2)"></use><use xlink:href="#bbburst-shape-6" width="44.416312568096416" opacity="0.40439623455656315" transform="matrix(0.999177017895954,-0.04056213639033899,0.04056213639033899,0.999177017895954,626.3919324382505,42.61970572695509)" fill="#ff6060" filter="url(#bbburst-blur-2)"></use><use xlink:href="#bbburst-shape-4" width="57.00047661455763" opacity="-0.06131505850770558" transform="matrix(1.3198880525431058,-1.1490846482108998,1.1490846482108998,1.3198880525431058,-438.65567552988495,-429.0481726810102)" fill="#ff6767" filter="url(#bbburst-blur-4)"></use><use xlink:href="#bbburst-shape-12" width="42.67037162182697" opacity="0.05657263000659751" transform="matrix(1.6521695288104006,-0.5769192734433639,0.5769192734433639,1.6521695288104006,-102.72437879670028,103.77159378670194)" fill="none" stroke="#7027a0" filter="url(#bbburst-blur-4)"></use><use xlink:href="#bbburst-shape-14" width="33.83891164257488" opacity="0.1868927229448264" transform="matrix(1.245861633975927,0.10163064983966663,-0.10163064983966663,1.245861633975927,476.5074531206999,261.4336068762282)" fill="none" stroke="#3db2ff" filter="url(#bbburst-blur-3)"></use><use xlink:href="#bbburst-shape-14" width="23.227754871454902" opacity="0.7192203775572306" transform="matrix(0.8983953735329936,0.4391876054882616,-0.4391876054882616,0.8983953735329936,490.0682198995794,-65.99650021824976)" fill="none" stroke="#ff0075" filter="url(#bbburst-blur-1)"></use><use xlink:href="#bbburst-shape-13" width="27.431166495590116" opacity="0.3578920583931243" transform="matrix(0.8294802397122665,0.5585360614381858,-0.5585360614381858,0.8294802397122665,689.6978917696357,338.86390119323465)" fill="none" stroke="#fee440" filter="url(#bbburst-blur-2)"></use><use xlink:href="#bbburst-shape-10" width="27.911022511934856" opacity="0.6133000926246505" transform="matrix(0.8205798599547625,0.5715318831321858,-0.5715318831321858,0.8205798599547625,443.18095806906507,67.27028693764186)" fill="none" stroke="#7027a0" filter="url(#bbburst-blur-1)"></use><use xlink:href="#bbburst-shape-4" width="30.897099481097978" opacity="0.5332137339897045" transform="matrix(0.9913328347404381,-0.13137431547105072,0.13137431547105072,0.9913328347404381,140.82251708271724,92.24509108847974)" fill="#ffffff" filter="url(#bbburst-blur-2)"></use><use xlink:href="#bbburst-shape-4" width="41.23100917568689" opacity="-0.06856595417610145" transform="matrix(1.7284840547995015,-0.27357425372990424,0.27357425372990424,1.7284840547995015,-95.93667361854891,43.09958012534935)" fill="#00a19d" filter="url(#bbburst-blur-4)"></use><use xlink:href="#bbburst-shape-4" width="24.552489834830762" opacity="0.8815713207112365" transform="matrix(0.9885262696137986,-0.15104904595338361,0.15104904595338361,0.9885262696137986,285.2327390952508,-26.06074611435122)" fill="#fee440"></use><use xlink:href="#bbburst-shape-8" width="41.95465927131626" opacity="0.23077063394221176" transform="matrix(1.1721833774170145,-0.43414989313282226,0.43414989313282226,1.1721833774170145,304.51675406671666,-390.3128654413362)" fill="none" stroke="#fee440" filter="url(#bbburst-blur-3)"></use><use xlink:href="#bbburst-shape-6" width="19.746475592704147" opacity="0.9052744076268008" transform="matrix(0.766574719229091,0.6421551213210406,-0.6421551213210406,0.766574719229091,673.5021715584354,51.94519692804323)" fill="#7027a0"></use><use xlink:href="#bbburst-shape-6" width="26.624005438187606" opacity="0.6390696445926447" transform="matrix(0.9827198305722051,-0.18509925607666916,0.18509925607666916,0.9827198305722051,462.05328578302357,-54.86274844417835)" fill="#ff0075" filter="url(#bbburst-blur-1)"></use><use xlink:href="#bbburst-shape-13" width="23.964421065213138" opacity="0.9717273275541694" transform="matrix(0.9999352224763117,-0.011382040733057536,0.011382040733057536,0.9999352224763117,386.264989275935,12.573217043139095)" fill="none" stroke="#00a19d"></use><use xlink:href="#bbburst-shape-9" width="34.82345956001182" opacity="0.4709833427730601" transform="matrix(0.9966520534225841,0.08175991932815538,-0.08175991932815538,0.9966520534225841,649.3564827503401,-44.1540972548969)" fill="none" stroke="#ff5c58" filter="url(#bbburst-blur-2)"></use><use xlink:href="#bbburst-shape-5" width="51.253444891373064" opacity="0.18538356308252046" transform="matrix(1.1627775740909738,0.45874645850525114,-0.45874645850525114,1.1627775740909738,290.849610752897,-332.38324981517167)" fill="#801fff" filter="url(#bbburst-blur-3)"></use><use xlink:href="#bbburst-shape-8" width="35.89951900331887" opacity="0.5629206553930348" transform="matrix(0.9867946370628551,-0.16197636946168473,0.16197636946168473,0.9867946370628551,498.7726865490013,84.50665535230831)" fill="none" stroke="#ff6060" filter="url(#bbburst-blur-1)"></use><use xlink:href="#bbburst-shape-9" width="45.53316473360767" opacity="0.418099981095131" transform="matrix(0.9725952147761235,0.23250494230141905,-0.23250494230141905,0.9725952147761235,469.6435753524678,-256.4817753602464)" fill="none" stroke="#ff0075" filter="url(#bbburst-blur-2)"></use><use xlink:href="#bbburst-shape-6" width="28.327371999423324" opacity="0.5891696458181703" transform="matrix(0.9993200199709824,-0.03687136673891245,0.03687136673891245,0.9993200199709824,418.8749845856171,179.38786479288166)" fill="#fee440" filter="url(#bbburst-blur-1)"></use><use xlink:href="#bbburst-shape-6" width="41.04829410794872" opacity="0.40924010784137643" transform="matrix(0.8801484873752282,-0.47469847289737266,0.47469847289737266,0.8801484873752282,33.0049217922529,-155.32918903976642)" fill="#ff0075" filter="url(#bbburst-blur-2)"></use><use xlink:href="#bbburst-shape-12" width="44.832431578450354" opacity="0.2389339967195483" transform="matrix(1.2232481380021314,0.257223624253914,-0.257223624253914,1.2232481380021314,811.5497116195504,-161.16469591812466)" fill="none" stroke="#801fff" filter="url(#bbburst-blur-3)"></use><use xlink:href="#bbburst-shape-10" width="23.84557457139838" opacity="0.8152948932135754" transform="matrix(0.8246848774107148,0.5655924795911579,-0.5655924795911579,0.8246848774107148,533.722387551017,71.8775196864164)" fill="none" stroke="#801fff"></use><use xlink:href="#bbburst-shape-4" width="33.40091893303308" opacity="0.16231239024072386" transform="matrix(0.9533892981636483,-0.8084236798529754,0.8084236798529754,0.9533892981636483,-41.2925541177687,395.0643428501012)" fill="#ff6767" filter="url(#bbburst-blur-3)"></use><use xlink:href="#bbburst-shape-6" width="35.24359067303341" opacity="0.5952428772498239" transform="matrix(0.7130002756444598,-0.7011637518660847,0.7011637518660847,0.7130002756444598,232.22685583709188,-5.078947887009292)" fill="#7027a0" filter="url(#bbburst-blur-1)"></use><use xlink:href="#bbburst-shape-2" width="39.54474115394952" opacity="0.16150362193938073" transform="matrix(1.0166353523983604,-0.7272912485750542,0.7272912485750542,1.0166353523983604,363.95039721681997,266.15186988734735)" fill="#00a19d" filter="url(#bbburst-blur-3)"></use><use xlink:href="#bbburst-shape-9" width="17.667972663134638" opacity="0.8457567962103821" transform="matrix(0.9678143588781509,0.2516651877977438,-0.2516651877977438,0.9678143588781509,489.2261976190255,79.88377434220473)" fill="none" stroke="#93ff8d"></use><use xlink:href="#bbburst-shape-8" width="24.256738613234283" opacity="0.8043294419446686" transform="matrix(0.9935503457108554,-0.1133918451117169,0.1133918451117169,0.9935503457108554,328.2363634548123,-82.91833525139424)" fill="none" stroke="#43ff43"></use><use xlink:href="#bbburst-shape-8" width="39.67898504744134" opacity="0.11421531935322304" transform="matrix(1.070540985096859,-0.6453231742529064,0.6453231742529064,1.070540985096859,-239.9295334450433,154.52767126066686)" fill="none" stroke="#7027a0" filter="url(#bbburst-blur-3)"></use><use xlink:href="#bbburst-shape-13" width="37.42329037394674" opacity="0.18260482642660703" transform="matrix(1.2241934301182829,-0.2526864572058286,0.2526864572058286,1.2241934301182829,-3.6991164636137484,153.9131751117958)" fill="none" stroke="#00a19d" filter="url(#bbburst-blur-3)"></use><use xlink:href="#bbburst-shape-8" width="38.10498187572658" opacity="0.32235260004107325" transform="matrix(1.2193325636544992,-0.2751873892672898,0.2751873892672898,1.2193325636544992,-16.332147351329425,31.024611716149366)" fill="none" stroke="#43ff43" filter="url(#bbburst-blur-3)"></use><use xlink:href="#bbburst-shape-5" width="37.05009000010918" opacity="0.1934163744039884" transform="matrix(1.0519057085353702,-0.6752735596413507,0.6752735596413507,1.0519057085353702,470.6070706495709,36.419448909924824)" fill="#00a19d" filter="url(#bbburst-blur-3)"></use><use xlink:href="#bbburst-shape-5" width="36.39370093470653" opacity="0.49759302597935584" transform="matrix(0.730062435870819,0.683380450210837,-0.683380450210837,0.730062435870819,443.60840254091613,30.277797175398632)" fill="#ffa6d5" filter="url(#bbburst-blur-2)"></use><use xlink:href="#bbburst-shape-5" width="26.240699112127878" opacity="0.7402648522994629" transform="matrix(0.9526862512400754,-0.30395543538178715,0.30395543538178715,0.9526862512400754,337.9778354033644,114.93819673480277)" fill="#00a19d" filter="url(#bbburst-blur-1)"></use><use xlink:href="#bbburst-shape-9" width="38.87081404596665" opacity="0.40194525426230454" transform="matrix(0.980252601789435,0.19774942903847664,-0.19774942903847664,0.980252601789435,692.7194293299872,-131.53884639781052)" fill="none" stroke="#f52626" filter="url(#bbburst-blur-2)"></use><use xlink:href="#bbburst-shape-13" width="39.78540898841674" opacity="0.2649816743100818" transform="matrix(1.0918448784462211,0.6085842270472975,-0.6085842270472975,1.0918448784462211,924.4507407856204,84.39022672111918)" fill="none" stroke="#f52626" filter="url(#bbburst-blur-3)"></use><use xlink:href="#bbburst-shape-13" width="27.69332963593654" opacity="0.7385198429238344" transform="matrix(0.9997484764343545,-0.022427301825830786,0.022427301825830786,0.9997484764343545,395.85037616692745,116.58750557880546)" fill="none" stroke="#7027a0" filter="url(#bbburst-blur-1)"></use><use xlink:href="#bbburst-shape-8" width="34.09391371980138" opacity="0.5137797270234747" transform="matrix(0.9010908472714523,0.43363035521468773,-0.43363035521468773,0.9010908472714523,630.579160987437,-174.27104177716055)" fill="none" stroke="#43ff43" filter="url(#bbburst-blur-2)"></use><use xlink:href="#bbburst-shape-6" width="53.62195592328838" opacity="-0.0728107938150031" transform="matrix(1.335724164601437,1.1306374114187947,-1.1306374114187947,1.335724164601437,1155.887487093779,178.67421790686512)" fill="#ff0075" filter="url(#bbburst-blur-4)"></use><use xlink:href="#bbburst-shape-13" width="24.84455876963736" opacity="0.721977517858858" transform="matrix(0.9421164950258443,-0.33528571368344695,0.33528571368344695,0.9421164950258443,135.75366194828507,-13.019640029528205)" fill="none" stroke="#ffa6d5" filter="url(#bbburst-blur-1)"></use><use xlink:href="#bbburst-shape-14" width="33.390729242055336" opacity="0.09773911420854287" transform="matrix(1.5005632749668671,0.9004498086071817,-0.9004498086071817,1.5005632749668671,534.3620956917746,-568.1210934061174)" fill="none" stroke="#ff5c58" filter="url(#bbburst-blur-4)"></use><use xlink:href="#bbburst-shape-9" width="33.37160925024183" opacity="0.4906386507701085" transform="matrix(0.9820311023259473,0.18871914069453793,-0.18871914069453793,0.9820311023259473,447.77811764555736,232.7483558661491)" fill="none" stroke="#ff0075" filter="url(#bbburst-blur-2)"></use><use xlink:href="#bbburst-shape-2" width="24.9092038827137" opacity="0.8669106570885526" transform="matrix(0.841292400333451,0.5405803336611316,-0.5405803336611316,0.841292400333451,656.0444562367851,89.27305838212766)" fill="#93ff8d"></use><use xlink:href="#bbburst-shape-1" width="39.74458708899732" opacity="0.10264378289651754" transform="matrix(1.7102665844954634,-0.37079402632488906,0.37079402632488906,1.7102665844954634,413.5820533228157,76.47645106247751)" fill="#ff0075" filter="url(#bbburst-blur-4)"></use><use xlink:href="#bbburst-shape-6" width="37.879883460007235" opacity="0.4083432524343329" transform="matrix(0.8662444665197566,0.4996203801126433,-0.4996203801126433,0.8662444665197566,386.21358428075916,222.89143494695793)" fill="#ffffff" filter="url(#bbburst-blur-2)"></use><use xlink:href="#bbburst-shape-10" width="33.25210648988259" opacity="0.20074759510371942" transform="matrix(1.2347806980360885,-0.19446497822875486,0.19446497822875486,1.2347806980360885,288.18127024891805,-450.08912373568745)" fill="none" stroke="#43ff43" filter="url(#bbburst-blur-3)"></use><use xlink:href="#bbburst-shape-4" width="32.95796532393552" opacity="0.31438069970204185" transform="matrix(1.0726162240653714,0.6418679271250005,-0.6418679271250005,1.0726162240653714,601.0964275987503,266.59332249743755)" fill="#00a19d" filter="url(#bbburst-blur-3)"></use><use xlink:href="#bbburst-shape-5" width="41.03284546983798" opacity="-0.06066031001986749" transform="matrix(1.6648244964706425,-0.5393138195441235,0.5393138195441235,1.6648244964706425,493.65119327266376,-586.2223160656131)" fill="#00a19d" filter="url(#bbburst-blur-4)"></use><use xlink:href="#bbburst-shape-9" width="28.82954988486608" opacity="0.7381643770913817" transform="matrix(0.9901322113494979,-0.1401363766056233,0.1401363766056233,0.9901322113494979,441.1035945039878,43.98607767326337)" fill="none" stroke="#43ff43" filter="url(#bbburst-blur-1)"></use><use xlink:href="#bbburst-shape-13" width="45.17966318694342" opacity="0.09303496553047785" transform="matrix(1.284309444413221,1.18871748157037,-1.18871748157037,1.284309444413221,1062.1710745465707,-487.0570276818715)" fill="none" stroke="#801fff" filter="url(#bbburst-blur-4)"></use><use xlink:href="#bbburst-shape-9" width="39.39690010465537" opacity="0.47139120618571784" transform="matrix(0.8139356560885509,0.5809550307448074,-0.5809550307448074,0.8139356560885509,514.6972949927732,277.7531302917511)" fill="none" stroke="#801fff" filter="url(#bbburst-blur-2)"></use><use xlink:href="#bbburst-shape-8" width="40.87396927989203" opacity="0.11531704687869115" transform="matrix(1.2346438775696695,-0.1953317577347083,0.1953317577347083,1.2346438775696695,-58.215449557723666,-270.33901410612737)" fill="none" stroke="#ff0075" filter="url(#bbburst-blur-3)"></use><use xlink:href="#bbburst-shape-13" width="25.62150800958008" opacity="0.07669878910517047" transform="matrix(1.488068428122454,0.9209518734576574,-0.9209518734576574,1.488068428122454,1111.3048468977313,-3.080918366792389)" fill="none" stroke="#ff0075" filter="url(#bbburst-blur-4)"></use><use xlink:href="#bbburst-shape-10" width="30.75789106820902" opacity="0.797516275638793" transform="matrix(0.9999398691077419,-0.010966228558259204,0.010966228558259204,0.9999398691077419,466.72564473791044,-28.475814100604623)" fill="none" stroke="#f52626"></use><use xlink:href="#bbburst-shape-10" width="29.128314306804015" opacity="0.47794366279577416" transform="matrix(0.9926535822074041,-0.12099118038439202,0.12099118038439202,0.9926535822074041,458.4030601606236,205.91384262905012)" fill="none" stroke="#00a19d" filter="url(#bbburst-blur-2)"></use><use xlink:href="#bbburst-shape-2" width="35.9363409968038" opacity="0.41495095131349746" transform="matrix(0.9777387273325199,0.20982607338980624,-0.20982607338980624,0.9777387273325199,678.6077862929709,160.91597526747762)" fill="#93ff8d" filter="url(#bbburst-blur-2)"></use><use xlink:href="#bbburst-shape-9" width="27.08830200034799" opacity="0.60650508590087" transform="matrix(0.8621967711272318,0.5065735167355039,-0.5065735167355039,0.8621967711272318,472.74879717310216,179.86368679925312)" fill="none" stroke="#3db2ff" filter="url(#bbburst-blur-1)"></use><use xlink:href="#bbburst-shape-4" width="37.289069492489645" opacity="0.5820456939948515" transform="matrix(0.9317071629993852,-0.36321035560076914,0.36321035560076914,0.9317071629993852,90.26601379378317,-83.08932181136191)" fill="#00a19d" filter="url(#bbburst-blur-1)"></use><use xlink:href="#bbburst-shape-6" width="26.38922994269658" opacity="0.6465851402377132" transform="matrix(0.9966739661251613,-0.08149236312895028,0.08149236312895028,0.9966739661251613,316.79452259715765,156.9685191978474)" fill="#fee440" filter="url(#bbburst-blur-1)"></use></svg>