<svg xmlns="http://www.w3.org/2000/svg" version="1.1" xmlns:xlink="http://www.w3.org/1999/xlink" xmlns:svgjs="http://svgjs.dev/svgjs" viewBox="0 0 800 800" opacity="0.72"><defs><linearGradient x1="50%" y1="0%" x2="50%" y2="100%" id="ggglitch-grad"><stop stop-color="hsla(184, 100%, 33%, 1.00)" stop-opacity="1" offset="45%"></stop><stop stop-color="hsla(340, 100%, 42%, 1.00)" stop-opacity="1" offset="100%"></stop></linearGradient><clipPath id="SvgjsClipPath1478"><rect width="50" height="800" x="0" y="0"></rect><rect width="50" height="800" x="100" y="0"></rect><rect width="50" height="800" x="200" y="0"></rect><rect width="50" height="800" x="300" y="0"></rect><rect width="50" height="800" x="400" y="0"></rect><rect width="50" height="800" x="500" y="0"></rect><rect width="50" height="800" x="600" y="0"></rect><rect width="50" height="800" x="700" y="0"></rect><rect width="50" height="800" x="800" y="0"></rect><rect width="50" height="800" x="900" y="0"></rect><rect width="50" height="800" x="1000" y="0"></rect><rect width="50" height="800" x="1100" y="0"></rect><rect width="50" height="800" x="1200" y="0"></rect><rect width="50" height="800" x="1300" y="0"></rect><rect width="50" height="800" x="1400" y="0"></rect><rect width="50" height="800" x="1500" y="0"></rect><rect width="50" height="800" x="1600" y="0"></rect></clipPath><clipPath id="SvgjsClipPath1479"><rect width="50" height="800" x="50" y="0"></rect><rect width="50" height="800" x="150" y="0"></rect><rect width="50" height="800" x="250" y="0"></rect><rect width="50" height="800" x="350" y="0"></rect><rect width="50" height="800" x="450" y="0"></rect><rect width="50" height="800" x="550" y="0"></rect><rect width="50" height="800" x="650" y="0"></rect><rect width="50" height="800" x="750" y="0"></rect><rect width="50" height="800" x="850" y="0"></rect><rect width="50" height="800" x="950" y="0"></rect><rect width="50" height="800" x="1050" y="0"></rect><rect width="50" height="800" x="1150" y="0"></rect><rect width="50" height="800" x="1250" y="0"></rect><rect width="50" height="800" x="1350" y="0"></rect><rect width="50" height="800" x="1450" y="0"></rect><rect width="50" height="800" x="1550" y="0"></rect></clipPath></defs><g stroke-width="23" stroke="url(#ggglitch-grad)" fill="none"><polygon points="-11.5,11.5 11.5,-11.5 811.5,788.5 788.5,811.5" stroke="none" fill="url(#ggglitch-grad)" clip-path="url(&quot;#SvgjsClipPath1478&quot;)" opacity="0.4" transform="translate(0 17)"></polygon><polygon points="-11.5,11.5 11.5,-11.5 811.5,788.5 788.5,811.5" stroke="none" fill="url(#ggglitch-grad)" clip-path="url(&quot;#SvgjsClipPath1479&quot;)"></polygon><polygon points="788.5,-11.5 811.5,11.5 11.5,811.5 -11.5,788.5" stroke="none" fill="url(#ggglitch-grad)" clip-path="url(&quot;#SvgjsClipPath1478&quot;)" opacity="0.4" transform="translate(0 17)"></polygon><polygon points="788.5,-11.5 811.5,11.5 11.5,811.5 -11.5,788.5" stroke="none" fill="url(#ggglitch-grad)" clip-path="url(&quot;#SvgjsClipPath1479&quot;)"></polygon></g></svg>