<svg xmlns="http://www.w3.org/2000/svg" version="1.1" xmlns:xlink="http://www.w3.org/1999/xlink" xmlns:svgjs="http://svgjs.dev/svgjs" viewBox="0 0 800 800" opacity="0.72"><defs><linearGradient x1="50%" y1="0%" x2="50%" y2="100%" id="ggglitch-grad"><stop stop-color="hsla(184, 100%, 33%, 1.00)" stop-opacity="1" offset="45%"></stop><stop stop-color="hsla(340, 100%, 42%, 1.00)" stop-opacity="1" offset="100%"></stop></linearGradient><clipPath id="SvgjsClipPath1612"><rect width="57.142857142857146" height="800" x="0" y="0"></rect><rect width="57.142857142857146" height="800" x="114.28571428571429" y="0"></rect><rect width="57.142857142857146" height="800" x="228.57142857142858" y="0"></rect><rect width="57.142857142857146" height="800" x="342.8571428571429" y="0"></rect><rect width="57.142857142857146" height="800" x="457.14285714285717" y="0"></rect><rect width="57.142857142857146" height="800" x="571.4285714285714" y="0"></rect><rect width="57.142857142857146" height="800" x="685.7142857142858" y="0"></rect><rect width="57.142857142857146" height="800" x="800" y="0"></rect><rect width="57.142857142857146" height="800" x="914.2857142857143" y="0"></rect><rect width="57.142857142857146" height="800" x="1028.5714285714287" y="0"></rect><rect width="57.142857142857146" height="800" x="1142.857142857143" y="0"></rect><rect width="57.142857142857146" height="800" x="1257.142857142857" y="0"></rect><rect width="57.142857142857146" height="800" x="1371.4285714285716" y="0"></rect><rect width="57.142857142857146" height="800" x="1485.7142857142858" y="0"></rect><rect width="57.142857142857146" height="800" x="1600" y="0"></rect></clipPath><clipPath id="SvgjsClipPath1613"><rect width="57.142857142857146" height="800" x="57.142857142857146" y="0"></rect><rect width="57.142857142857146" height="800" x="171.42857142857144" y="0"></rect><rect width="57.142857142857146" height="800" x="285.7142857142857" y="0"></rect><rect width="57.142857142857146" height="800" x="400" y="0"></rect><rect width="57.142857142857146" height="800" x="514.2857142857143" y="0"></rect><rect width="57.142857142857146" height="800" x="628.5714285714287" y="0"></rect><rect width="57.142857142857146" height="800" x="742.8571428571429" y="0"></rect><rect width="57.142857142857146" height="800" x="857.1428571428572" y="0"></rect><rect width="57.142857142857146" height="800" x="971.4285714285716" y="0"></rect><rect width="57.142857142857146" height="800" x="1085.7142857142858" y="0"></rect><rect width="57.142857142857146" height="800" x="1200" y="0"></rect><rect width="57.142857142857146" height="800" x="1314.2857142857144" y="0"></rect><rect width="57.142857142857146" height="800" x="1428.5714285714287" y="0"></rect><rect width="57.142857142857146" height="800" x="1542.857142857143" y="0"></rect></clipPath></defs><g stroke-width="16" stroke="url(#ggglitch-grad)" fill="none"><polygon points="-8,8 8,-8 808,792 792,808" stroke="none" fill="url(#ggglitch-grad)" clip-path="url(&quot;#SvgjsClipPath1612&quot;)" opacity="0.38" transform="translate(0 -674)"></polygon><polygon points="-8,8 8,-8 808,792 792,808" stroke="none" fill="url(#ggglitch-grad)" clip-path="url(&quot;#SvgjsClipPath1613&quot;)" transform="translate(0 -694)"></polygon><polygon points="-8,8 8,-8 808,792 792,808" stroke="none" fill="url(#ggglitch-grad)" clip-path="url(&quot;#SvgjsClipPath1612&quot;)" opacity="0.38" transform="translate(0 -554)"></polygon><polygon points="-8,8 8,-8 808,792 792,808" stroke="none" fill="url(#ggglitch-grad)" clip-path="url(&quot;#SvgjsClipPath1613&quot;)" transform="translate(0 -574)"></polygon><polygon points="-8,8 8,-8 808,792 792,808" stroke="none" fill="url(#ggglitch-grad)" clip-path="url(&quot;#SvgjsClipPath1612&quot;)" opacity="0.38" transform="translate(0 -434)"></polygon><polygon points="-8,8 8,-8 808,792 792,808" stroke="none" fill="url(#ggglitch-grad)" clip-path="url(&quot;#SvgjsClipPath1613&quot;)" transform="translate(0 -454)"></polygon><polygon points="-8,8 8,-8 808,792 792,808" stroke="none" fill="url(#ggglitch-grad)" clip-path="url(&quot;#SvgjsClipPath1612&quot;)" opacity="0.38" transform="translate(0 -314)"></polygon><polygon points="-8,8 8,-8 808,792 792,808" stroke="none" fill="url(#ggglitch-grad)" clip-path="url(&quot;#SvgjsClipPath1613&quot;)" transform="translate(0 -334)"></polygon><polygon points="-8,8 8,-8 808,792 792,808" stroke="none" fill="url(#ggglitch-grad)" clip-path="url(&quot;#SvgjsClipPath1612&quot;)" opacity="0.38" transform="translate(0 -194)"></polygon><polygon points="-8,8 8,-8 808,792 792,808" stroke="none" fill="url(#ggglitch-grad)" clip-path="url(&quot;#SvgjsClipPath1613&quot;)" transform="translate(0 -214)"></polygon><polygon points="-8,8 8,-8 808,792 792,808" stroke="none" fill="url(#ggglitch-grad)" clip-path="url(&quot;#SvgjsClipPath1612&quot;)" opacity="0.38" transform="translate(0 -74)"></polygon><polygon points="-8,8 8,-8 808,792 792,808" stroke="none" fill="url(#ggglitch-grad)" clip-path="url(&quot;#SvgjsClipPath1613&quot;)" transform="translate(0 -94)"></polygon><polygon points="-8,8 8,-8 808,792 792,808" stroke="none" fill="url(#ggglitch-grad)" clip-path="url(&quot;#SvgjsClipPath1612&quot;)" opacity="0.38" transform="translate(0 46)"></polygon><polygon points="-8,8 8,-8 808,792 792,808" stroke="none" fill="url(#ggglitch-grad)" clip-path="url(&quot;#SvgjsClipPath1613&quot;)" transform="translate(0 26)"></polygon><polygon points="-8,8 8,-8 808,792 792,808" stroke="none" fill="url(#ggglitch-grad)" clip-path="url(&quot;#SvgjsClipPath1612&quot;)" opacity="0.38" transform="translate(0 166)"></polygon><polygon points="-8,8 8,-8 808,792 792,808" stroke="none" fill="url(#ggglitch-grad)" clip-path="url(&quot;#SvgjsClipPath1613&quot;)" transform="translate(0 146)"></polygon><polygon points="-8,8 8,-8 808,792 792,808" stroke="none" fill="url(#ggglitch-grad)" clip-path="url(&quot;#SvgjsClipPath1612&quot;)" opacity="0.38" transform="translate(0 286)"></polygon><polygon points="-8,8 8,-8 808,792 792,808" stroke="none" fill="url(#ggglitch-grad)" clip-path="url(&quot;#SvgjsClipPath1613&quot;)" transform="translate(0 266)"></polygon><polygon points="-8,8 8,-8 808,792 792,808" stroke="none" fill="url(#ggglitch-grad)" clip-path="url(&quot;#SvgjsClipPath1612&quot;)" opacity="0.38" transform="translate(0 406)"></polygon><polygon points="-8,8 8,-8 808,792 792,808" stroke="none" fill="url(#ggglitch-grad)" clip-path="url(&quot;#SvgjsClipPath1613&quot;)" transform="translate(0 386)"></polygon><polygon points="-8,8 8,-8 808,792 792,808" stroke="none" fill="url(#ggglitch-grad)" clip-path="url(&quot;#SvgjsClipPath1612&quot;)" opacity="0.38" transform="translate(0 526)"></polygon><polygon points="-8,8 8,-8 808,792 792,808" stroke="none" fill="url(#ggglitch-grad)" clip-path="url(&quot;#SvgjsClipPath1613&quot;)" transform="translate(0 506)"></polygon><polygon points="-8,8 8,-8 808,792 792,808" stroke="none" fill="url(#ggglitch-grad)" clip-path="url(&quot;#SvgjsClipPath1612&quot;)" opacity="0.38" transform="translate(0 646)"></polygon><polygon points="-8,8 8,-8 808,792 792,808" stroke="none" fill="url(#ggglitch-grad)" clip-path="url(&quot;#SvgjsClipPath1613&quot;)" transform="translate(0 626)"></polygon><polygon points="-8,8 8,-8 808,792 792,808" stroke="none" fill="url(#ggglitch-grad)" clip-path="url(&quot;#SvgjsClipPath1612&quot;)" opacity="0.38" transform="translate(0 766)"></polygon><polygon points="-8,8 8,-8 808,792 792,808" stroke="none" fill="url(#ggglitch-grad)" clip-path="url(&quot;#SvgjsClipPath1613&quot;)" transform="translate(0 746)"></polygon></g></svg>