<svg xmlns="http://www.w3.org/2000/svg" version="1.1" xmlns:xlink="http://www.w3.org/1999/xlink" xmlns:svgjs="http://svgjs.dev/svgjs" viewBox="0 0 800 800"><defs><filter id="llleaves-blur-2" x="-100%" y="-100%" width="400%" height="400%"><feGaussianBlur in="SourceGraphic" stdDeviation="2"></feGaussianBlur></filter><filter id="llleaves-blur-3" x="-100%" y="-100%" width="400%" height="400%"><feGaussianBlur in="SourceGraphic" stdDeviation="4"></feGaussianBlur></filter><filter id="llleaves-blur-4" x="-100%" y="-100%" width="400%" height="400%"><feGaussianBlur in="SourceGraphic" stdDeviation="12"></feGaussianBlur></filter></defs><g fill="hsl(0, 0%, 13%)"><path d="M349 251H399C427 251 449 273 449 301H399C371 301 349 279 349 251Z " transform="matrix(0.6058370782042842,-0.16233355584966883,0.16233355584966883,0.6058370782042842,112.46694438198199,173.56005519963543)" opacity="0.96"></path><path d="M693 167H743C771 167 793 189 793 217H743C715 217 693 195 693 167Z " transform="matrix(-0.23073394516058546,0.20775377737938722,-0.20775377737938722,-0.23073394516058546,954.3240465111573,81.93986087794772)" filter="url(#llleaves-blur-2)" opacity="0.48"></path><path d="M462 154H512C540 154 562 176 562 204H512C484 204 462 182 462 154Z " transform="matrix(0.3946177001012787,-0.4231756740105159,0.4231756740105159,0.3946177001012787,234.207291900263,325.0293767752553)" opacity="0.89"></path><path d="M137 425H187C215 425 237 447 237 475H187C159 475 137 453 137 425Z " transform="matrix(-0.3840705477983342,-0.11013045738702995,0.11013045738702995,-0.3840705477983342,209.262486614125,643.426142040625)" filter="url(#llleaves-blur-2)" opacity="0.61"></path><path d="M258 713H308C336 713 358 735 358 763H308C280 763 258 741 258 713Z " transform="matrix(0.2971781814913405,-0.4755845051182205,0.4755845051182205,0.2971781814913405,-134.5122446765796,665.1625296358026)" opacity="0.86"></path><path d="M133 287H183C211 287 233 309 233 337H183C155 337 133 315 133 287Z " transform="matrix(-0.3854388496100736,-0.08898556999899562,0.08898556999899562,-0.3854388496100736,225.77181163895682,448.54128038815907)" filter="url(#llleaves-blur-2)" opacity="0.61"></path><path d="M580 183H630C658 183 680 205 680 233H630C602 233 580 211 580 183Z " transform="matrix(0.17621865025381808,-0.5117761209164905,0.5117761209164905,0.17621865025381808,412.5328171894646,493.76547692459485)" opacity="0.83"></path><path d="M677 444H727C755 444 777 466 777 494H727C699 494 677 472 677 444Z " transform="matrix(-0.3306094807203057,0.10742153204736067,-0.10742153204736067,-0.3306094807203057,1017.7337910138745,545.9603926593921)" filter="url(#llleaves-blur-2)" opacity="0.53"></path></g><g fill="none" stroke-width="3" stroke="hsl(0, 0%, 13%)"><path d="M22 27H72C100 27 122 49 122 77H72C44 77 22 55 22 27Z " transform="matrix(-0.2203857521263547,-0.414485316609292,0.414485316609292,-0.2203857521263547,66.31453768941435,93.30300190643945)" opacity="0.72"></path><path d="M135 704H185C213 704 235 726 235 754H185C157 754 135 732 135 704Z " transform="matrix(-0.3840705477983342,-0.11013045738702995,0.11013045738702995,-0.3840705477983342,175.767947907547,1029.3615639615864)" filter="url(#llleaves-blur-2)" opacity="0.61"></path><path d="M11 718H61C89 718 111 740 111 768H61C33 768 11 746 11 718Z " transform="matrix(-0.0945755082887764,-0.48654881097945624,0.48654881097945624,-0.0945755082887764,-294.73666055212067,842.9490801283076)" opacity="0.76"></path><path d="M11 247H61C89 247 111 269 111 297H61C33 297 11 275 11 247Z " transform="matrix(-0.0945755082887764,-0.48654881097945624,0.48654881097945624,-0.0945755082887764,-65.57217058079674,327.404015724294)" opacity="0.76"></path><path d="M443 611H493C521 611 543 633 543 661H493C465 661 443 639 443 611Z " transform="matrix(0.42741727672115043,-0.39857305861834813,0.39857305861834813,0.42741727672115043,28.790817295203453,560.659129904194)" opacity="0.90"></path></g></svg>