<svg xmlns="http://www.w3.org/2000/svg" version="1.1" xmlns:xlink="http://www.w3.org/1999/xlink" xmlns:svgjs="http://svgjs.dev/svgjs" viewBox="0 0 800 800"><defs><linearGradient x1="50%" y1="0%" x2="50%" y2="100%" id="nnneon-grad"><stop stop-color="hsl(162, 100%, 58%)" stop-opacity="1" offset="0%"></stop><stop stop-color="hsl(270, 73%, 53%)" stop-opacity="1" offset="100%"></stop></linearGradient><filter id="nnneon-filter" x="-100%" y="-100%" width="400%" height="400%" filterUnits="objectBoundingBox" primitiveUnits="userSpaceOnUse" color-interpolation-filters="sRGB">
	<feGaussianBlur stdDeviation="17 16" x="0%" y="0%" width="100%" height="100%" in="SourceGraphic" edgeMode="none" result="blur"></feGaussianBlur></filter><filter id="nnneon-filter2" x="-100%" y="-100%" width="400%" height="400%" filterUnits="objectBoundingBox" primitiveUnits="userSpaceOnUse" color-interpolation-filters="sRGB">
	<feGaussianBlur stdDeviation="27 17" x="0%" y="0%" width="100%" height="100%" in="SourceGraphic" edgeMode="none" result="blur"></feGaussianBlur></filter></defs><g stroke-width="26.5" stroke="url(#nnneon-grad)" fill="none" transform="rotate(30, 400, 400)"><path d="M389.8386494307554 253.4458928856822C396.12649316300394 249.81625846234806 403.87350683699606 249.81625846234806 410.1613505692446 253.44690902073916L521.8386578654703 317.9237267877668C528.1265015977187 321.55336121110093 532.0000084347148 328.26290099197314 532.0000084347148 335.52318597369845V464.4768215077537C532.0000084347148 471.73710648947895 528.1265015977187 478.44664627035115 521.8386578654703 482.0772968287422L410.1613505692446 546.5541145957699C403.87350683699606 550.183749019104 396.12649316300394 550.183749019104 389.8386494307554 546.553098460713L278.1613421345298 482.07628069368536C271.8734984022812 478.44664627035115 267.9999915652852 471.73710648947895 267.9999915652852 464.4768215077537V335.52318597369845C267.9999915652852 328.26290099197314 271.8734984022812 321.55336121110093 278.1613421345298 317.92271065270984L389.8386494307554 253.4458928856822Z " filter="url(#nnneon-filter)"></path><path d="M594.8386494307554 253.4458928856822C601.1264931630039 249.81625846234806 608.8735068369961 249.81625846234806 615.1613505692446 253.44690902073916L726.8386578654703 317.9237267877668C733.1265015977187 321.55336121110093 737.0000084347148 328.26290099197314 737.0000084347148 335.52318597369845V464.4768215077537C737.0000084347148 471.73710648947895 733.1265015977187 478.44664627035115 726.8386578654703 482.0772968287422L615.1613505692446 546.5541145957699C608.8735068369961 550.183749019104 601.1264931630039 550.183749019104 594.8386494307554 546.553098460713L483.1613421345298 482.07628069368536C476.8734984022812 478.44664627035115 472.9999915652852 471.73710648947895 472.9999915652852 464.4768215077537V335.52318597369845C472.9999915652852 328.26290099197314 476.8734984022812 321.55336121110093 483.1613421345298 317.92271065270984L594.8386494307554 253.4458928856822Z " filter="url(#nnneon-filter2)" opacity="0.7"></path><path d="M184.83864943075542 253.4458928856822C191.12649316300394 249.81625846234806 198.87350683699606 249.81625846234806 205.16135056924458 253.44690902073916L316.8386578654703 317.9237267877668C323.12650159771874 321.55336121110093 327.0000084347148 328.26290099197314 327.0000084347148 335.52318597369845V464.4768215077537C327.0000084347148 471.73710648947895 323.12650159771874 478.44664627035115 316.8386578654703 482.0772968287422L205.16135056924458 546.5541145957699C198.87350683699606 550.183749019104 191.12649316300394 550.183749019104 184.83864943075542 546.553098460713L73.16134213452978 482.07628069368536C66.8734984022812 478.44664627035115 62.9999915652852 471.73710648947895 62.9999915652852 464.4768215077537V335.52318597369845C62.9999915652852 328.26290099197314 66.8734984022812 321.55336121110093 73.16134213452978 317.92271065270984L184.83864943075542 253.4458928856822Z " filter="url(#nnneon-filter2)" opacity="0.7"></path><path d="M389.8386494307554 253.4458928856822C396.12649316300394 249.81625846234806 403.87350683699606 249.81625846234806 410.1613505692446 253.44690902073916L521.8386578654703 317.9237267877668C528.1265015977187 321.55336121110093 532.0000084347148 328.26290099197314 532.0000084347148 335.52318597369845V464.4768215077537C532.0000084347148 471.73710648947895 528.1265015977187 478.44664627035115 521.8386578654703 482.0772968287422L410.1613505692446 546.5541145957699C403.87350683699606 550.183749019104 396.12649316300394 550.183749019104 389.8386494307554 546.553098460713L278.1613421345298 482.07628069368536C271.8734984022812 478.44664627035115 267.9999915652852 471.73710648947895 267.9999915652852 464.4768215077537V335.52318597369845C267.9999915652852 328.26290099197314 271.8734984022812 321.55336121110093 278.1613421345298 317.92271065270984L389.8386494307554 253.4458928856822Z "></path></g></svg>