<svg xmlns="http://www.w3.org/2000/svg" version="1.1" xmlns:xlink="http://www.w3.org/1999/xlink" xmlns:svgjs="http://svgjs.dev/svgjs" viewBox="0 0 800 800"><defs><linearGradient x1="50%" y1="0%" x2="50%" y2="100%" id="nnneon-grad"><stop stop-color="hsl(162, 100%, 58%)" stop-opacity="1" offset="0%"></stop><stop stop-color="hsl(270, 73%, 53%)" stop-opacity="1" offset="100%"></stop></linearGradient><filter id="nnneon-filter" x="-100%" y="-100%" width="400%" height="400%" filterUnits="objectBoundingBox" primitiveUnits="userSpaceOnUse" color-interpolation-filters="sRGB">
	<feGaussianBlur stdDeviation="19 20" x="0%" y="0%" width="100%" height="100%" in="SourceGraphic" edgeMode="none" result="blur"></feGaussianBlur></filter><filter id="nnneon-filter2" x="-100%" y="-100%" width="400%" height="400%" filterUnits="objectBoundingBox" primitiveUnits="userSpaceOnUse" color-interpolation-filters="sRGB">
	<feGaussianBlur stdDeviation="10 17" x="0%" y="0%" width="100%" height="100%" in="SourceGraphic" edgeMode="none" result="blur"></feGaussianBlur></filter></defs><g stroke-width="32" stroke="url(#nnneon-grad)" fill="none" transform="rotate(18, 400, 400)"><path d="M383.02592575364827 155.18801573232173C393.5294828972907 149.12487641152487 406.4705171027093 149.12487641152487 416.97407424635173 155.18971313974635L603.525939843456 262.89530645512207C614.0294969870984 268.9584457759189 620.5000140898078 280.16642700078495 620.5000140898078 292.29440304980335V507.7055896805547C620.5000140898078 519.8335657295731 614.0294969870984 531.0415469544391 603.525939843456 537.1063836826606L416.97407424635173 644.8119769980362C406.4705171027093 650.8751163188331 393.5294828972907 650.8751163188331 383.02592575364827 644.8102795906117L196.47406015654406 537.104686275236C185.9705030129016 531.0415469544391 179.49998591019227 519.8335657295731 179.49998591019227 507.7055896805547V292.29440304980335C179.49998591019227 280.16642700078495 185.9705030129016 268.9584457759189 196.47406015654406 262.8936090476974L383.02592575364827 155.18801573232173Z " filter="url(#nnneon-filter)"></path><path d="M487.02592575364827 155.18801573232173C497.5294828972907 149.12487641152487 510.4705171027093 149.12487641152487 520.9740742463517 155.18971313974635L707.525939843456 262.89530645512207C718.0294969870984 268.9584457759189 724.5000140898078 280.16642700078495 724.5000140898078 292.29440304980335V507.7055896805547C724.5000140898078 519.8335657295731 718.0294969870984 531.0415469544391 707.525939843456 537.1063836826606L520.9740742463517 644.8119769980362C510.4705171027093 650.8751163188331 497.5294828972907 650.8751163188331 487.02592575364827 644.8102795906117L300.47406015654406 537.104686275236C289.9705030129016 531.0415469544391 283.49998591019227 519.8335657295731 283.49998591019227 507.7055896805547V292.29440304980335C283.49998591019227 280.16642700078495 289.9705030129016 268.9584457759189 300.47406015654406 262.8936090476974L487.02592575364827 155.18801573232173Z " filter="url(#nnneon-filter2)" opacity="0.75"></path><path d="M279.02592575364827 155.18801573232173C289.5294828972907 149.12487641152487 302.4705171027093 149.12487641152487 312.97407424635173 155.18971313974635L499.52593984345594 262.89530645512207C510.02949698709836 268.9584457759189 516.5000140898078 280.16642700078495 516.5000140898078 292.29440304980335V507.7055896805547C516.5000140898078 519.8335657295731 510.02949698709836 531.0415469544391 499.52593984345594 537.1063836826606L312.97407424635173 644.8119769980362C302.4705171027093 650.8751163188331 289.5294828972907 650.8751163188331 279.02592575364827 644.8102795906117L92.47406015654406 537.104686275236C81.97050301290159 531.0415469544391 75.49998591019227 519.8335657295731 75.49998591019227 507.7055896805547V292.29440304980335C75.49998591019227 280.16642700078495 81.97050301290159 268.9584457759189 92.47406015654406 262.8936090476974L279.02592575364827 155.18801573232173Z " filter="url(#nnneon-filter2)" opacity="0.75"></path><path d="M383.02592575364827 155.18801573232173C393.5294828972907 149.12487641152487 406.4705171027093 149.12487641152487 416.97407424635173 155.18971313974635L603.525939843456 262.89530645512207C614.0294969870984 268.9584457759189 620.5000140898078 280.16642700078495 620.5000140898078 292.29440304980335V507.7055896805547C620.5000140898078 519.8335657295731 614.0294969870984 531.0415469544391 603.525939843456 537.1063836826606L416.97407424635173 644.8119769980362C406.4705171027093 650.8751163188331 393.5294828972907 650.8751163188331 383.02592575364827 644.8102795906117L196.47406015654406 537.104686275236C185.9705030129016 531.0415469544391 179.49998591019227 519.8335657295731 179.49998591019227 507.7055896805547V292.29440304980335C179.49998591019227 280.16642700078495 185.9705030129016 268.9584457759189 196.47406015654406 262.8936090476974L383.02592575364827 155.18801573232173Z "></path></g></svg>