<svg xmlns="http://www.w3.org/2000/svg" version="1.1" xmlns:xlink="http://www.w3.org/1999/xlink" xmlns:svgjs="http://svgjs.dev/svgjs" viewBox="0 0 800 800" opacity="0.37" width="800" height="800"><g stroke-width="1.25" stroke="hsla(84, 70%, 65%, 1.00)" fill="none"><rect width="40" height="2.894736842105263" x="-20" y="-1.4473684210526314" stroke="none" fill="hsla(329, 74%, 51%, 1.00)" rx="1.4473684210526314" transform="rotate(45, 0, 0)"></rect><rect width="2.894736842105263" height="40" x="-1.4473684210526314" y="-20" stroke="none" fill="hsla(329, 74%, 51%, 1.00)" rx="1.4473684210526314" transform="rotate(45, 0, 0)"></rect><rect width="40" height="2.894736842105263" x="60" y="-1.4473684210526314" stroke="none" fill="hsla(84, 70%, 65%, 1.00)" rx="1.4473684210526314" transform="rotate(45, 80, 0)"></rect><rect width="2.894736842105263" height="40" x="78.55263157894737" y="-20" stroke="none" fill="hsla(84, 70%, 65%, 1.00)" rx="1.4473684210526314" transform="rotate(45, 80, 0)"></rect><rect width="40" height="2.894736842105263" x="140" y="-1.4473684210526314" stroke="none" fill="hsla(329, 74%, 51%, 1.00)" rx="1.4473684210526314" transform="rotate(45, 160, 0)"></rect><rect width="2.894736842105263" height="40" x="158.55263157894737" y="-20" stroke="none" fill="hsla(329, 74%, 51%, 1.00)" rx="1.4473684210526314" transform="rotate(45, 160, 0)"></rect><rect width="40" height="2.894736842105263" x="220" y="-1.4473684210526314" stroke="none" fill="hsla(84, 70%, 65%, 1.00)" rx="1.4473684210526314" transform="rotate(45, 240, 0)"></rect><rect width="2.894736842105263" height="40" x="238.55263157894737" y="-20" stroke="none" fill="hsla(84, 70%, 65%, 1.00)" rx="1.4473684210526314" transform="rotate(45, 240, 0)"></rect><rect width="40" height="2.894736842105263" x="300" y="-1.4473684210526314" stroke="none" fill="hsla(329, 74%, 51%, 1.00)" rx="1.4473684210526314" transform="rotate(45, 320, 0)"></rect><rect width="2.894736842105263" height="40" x="318.55263157894734" y="-20" stroke="none" fill="hsla(329, 74%, 51%, 1.00)" rx="1.4473684210526314" transform="rotate(45, 320, 0)"></rect><rect width="40" height="2.894736842105263" x="380" y="-1.4473684210526314" stroke="none" fill="hsla(84, 70%, 65%, 1.00)" rx="1.4473684210526314" transform="rotate(45, 400, 0)"></rect><rect width="2.894736842105263" height="40" x="398.55263157894734" y="-20" stroke="none" fill="hsla(84, 70%, 65%, 1.00)" rx="1.4473684210526314" transform="rotate(45, 400, 0)"></rect><rect width="40" height="2.894736842105263" x="460" y="-1.4473684210526314" stroke="none" fill="hsla(329, 74%, 51%, 1.00)" rx="1.4473684210526314" transform="rotate(45, 480, 0)"></rect><rect width="2.894736842105263" height="40" x="478.55263157894734" y="-20" stroke="none" fill="hsla(329, 74%, 51%, 1.00)" rx="1.4473684210526314" transform="rotate(45, 480, 0)"></rect><rect width="40" height="2.894736842105263" x="540" y="-1.4473684210526314" stroke="none" fill="hsla(84, 70%, 65%, 1.00)" rx="1.4473684210526314" transform="rotate(45, 560, 0)"></rect><rect width="2.894736842105263" height="40" x="558.5526315789474" y="-20" stroke="none" fill="hsla(84, 70%, 65%, 1.00)" rx="1.4473684210526314" transform="rotate(45, 560, 0)"></rect><rect width="40" height="2.894736842105263" x="620" y="-1.4473684210526314" stroke="none" fill="hsla(329, 74%, 51%, 1.00)" rx="1.4473684210526314" transform="rotate(45, 640, 0)"></rect><rect width="2.894736842105263" height="40" x="638.5526315789474" y="-20" stroke="none" fill="hsla(329, 74%, 51%, 1.00)" rx="1.4473684210526314" transform="rotate(45, 640, 0)"></rect><rect width="40" height="2.894736842105263" x="700" y="-1.4473684210526314" stroke="none" fill="hsla(84, 70%, 65%, 1.00)" rx="1.4473684210526314" transform="rotate(45, 720, 0)"></rect><rect width="2.894736842105263" height="40" x="718.5526315789474" y="-20" stroke="none" fill="hsla(84, 70%, 65%, 1.00)" rx="1.4473684210526314" transform="rotate(45, 720, 0)"></rect><rect width="40" height="2.894736842105263" x="780" y="-1.4473684210526314" stroke="none" fill="hsla(329, 74%, 51%, 1.00)" rx="1.4473684210526314" transform="rotate(45, 800, 0)"></rect><rect width="2.894736842105263" height="40" x="798.5526315789474" y="-20" stroke="none" fill="hsla(329, 74%, 51%, 1.00)" rx="1.4473684210526314" transform="rotate(45, 800, 0)"></rect><rect width="40" height="2.894736842105263" x="-20" y="78.55263157894737" stroke="none" fill="hsla(84, 70%, 65%, 1.00)" rx="1.4473684210526314" transform="rotate(45, 0, 80)"></rect><rect width="2.894736842105263" height="40" x="-1.4473684210526314" y="60" stroke="none" fill="hsla(84, 70%, 65%, 1.00)" rx="1.4473684210526314" transform="rotate(45, 0, 80)"></rect><rect width="40" height="2.894736842105263" x="60" y="78.55263157894737" stroke="none" fill="hsla(329, 74%, 51%, 1.00)" rx="1.4473684210526314" transform="rotate(45, 80, 80)"></rect><rect width="2.894736842105263" height="40" x="78.55263157894737" y="60" stroke="none" fill="hsla(329, 74%, 51%, 1.00)" rx="1.4473684210526314" transform="rotate(45, 80, 80)"></rect><rect width="40" height="2.894736842105263" x="140" y="78.55263157894737" stroke="none" fill="hsla(84, 70%, 65%, 1.00)" rx="1.4473684210526314" transform="rotate(45, 160, 80)"></rect><rect width="2.894736842105263" height="40" x="158.55263157894737" y="60" stroke="none" fill="hsla(84, 70%, 65%, 1.00)" rx="1.4473684210526314" transform="rotate(45, 160, 80)"></rect><rect width="40" height="2.894736842105263" x="220" y="78.55263157894737" stroke="none" fill="hsla(329, 74%, 51%, 1.00)" rx="1.4473684210526314" transform="rotate(45, 240, 80)"></rect><rect width="2.894736842105263" height="40" x="238.55263157894737" y="60" stroke="none" fill="hsla(329, 74%, 51%, 1.00)" rx="1.4473684210526314" transform="rotate(45, 240, 80)"></rect><rect width="40" height="2.894736842105263" x="300" y="78.55263157894737" stroke="none" fill="hsla(84, 70%, 65%, 1.00)" rx="1.4473684210526314" transform="rotate(45, 320, 80)"></rect><rect width="2.894736842105263" height="40" x="318.55263157894734" y="60" stroke="none" fill="hsla(84, 70%, 65%, 1.00)" rx="1.4473684210526314" transform="rotate(45, 320, 80)"></rect><rect width="40" height="2.894736842105263" x="380" y="78.55263157894737" stroke="none" fill="hsla(329, 74%, 51%, 1.00)" rx="1.4473684210526314" transform="rotate(45, 400, 80)"></rect><rect width="2.894736842105263" height="40" x="398.55263157894734" y="60" stroke="none" fill="hsla(329, 74%, 51%, 1.00)" rx="1.4473684210526314" transform="rotate(45, 400, 80)"></rect><rect width="40" height="2.894736842105263" x="460" y="78.55263157894737" stroke="none" fill="hsla(84, 70%, 65%, 1.00)" rx="1.4473684210526314" transform="rotate(45, 480, 80)"></rect><rect width="2.894736842105263" height="40" x="478.55263157894734" y="60" stroke="none" fill="hsla(84, 70%, 65%, 1.00)" rx="1.4473684210526314" transform="rotate(45, 480, 80)"></rect><rect width="40" height="2.894736842105263" x="540" y="78.55263157894737" stroke="none" fill="hsla(329, 74%, 51%, 1.00)" rx="1.4473684210526314" transform="rotate(45, 560, 80)"></rect><rect width="2.894736842105263" height="40" x="558.5526315789474" y="60" stroke="none" fill="hsla(329, 74%, 51%, 1.00)" rx="1.4473684210526314" transform="rotate(45, 560, 80)"></rect><rect width="40" height="2.894736842105263" x="620" y="78.55263157894737" stroke="none" fill="hsla(84, 70%, 65%, 1.00)" rx="1.4473684210526314" transform="rotate(45, 640, 80)"></rect><rect width="2.894736842105263" height="40" x="638.5526315789474" y="60" stroke="none" fill="hsla(84, 70%, 65%, 1.00)" rx="1.4473684210526314" transform="rotate(45, 640, 80)"></rect><rect width="40" height="2.894736842105263" x="700" y="78.55263157894737" stroke="none" fill="hsla(329, 74%, 51%, 1.00)" rx="1.4473684210526314" transform="rotate(45, 720, 80)"></rect><rect width="2.894736842105263" height="40" x="718.5526315789474" y="60" stroke="none" fill="hsla(329, 74%, 51%, 1.00)" rx="1.4473684210526314" transform="rotate(45, 720, 80)"></rect><rect width="40" height="2.894736842105263" x="780" y="78.55263157894737" stroke="none" fill="hsla(84, 70%, 65%, 1.00)" rx="1.4473684210526314" transform="rotate(45, 800, 80)"></rect><rect width="2.894736842105263" height="40" x="798.5526315789474" y="60" stroke="none" fill="hsla(84, 70%, 65%, 1.00)" rx="1.4473684210526314" transform="rotate(45, 800, 80)"></rect><rect width="40" height="2.894736842105263" x="-20" y="158.55263157894737" stroke="none" fill="hsla(329, 74%, 51%, 1.00)" rx="1.4473684210526314" transform="rotate(45, 0, 160)"></rect><rect width="2.894736842105263" height="40" x="-1.4473684210526314" y="140" stroke="none" fill="hsla(329, 74%, 51%, 1.00)" rx="1.4473684210526314" transform="rotate(45, 0, 160)"></rect><rect width="40" height="2.894736842105263" x="60" y="158.55263157894737" stroke="none" fill="hsla(84, 70%, 65%, 1.00)" rx="1.4473684210526314" transform="rotate(45, 80, 160)"></rect><rect width="2.894736842105263" height="40" x="78.55263157894737" y="140" stroke="none" fill="hsla(84, 70%, 65%, 1.00)" rx="1.4473684210526314" transform="rotate(45, 80, 160)"></rect><rect width="40" height="2.894736842105263" x="140" y="158.55263157894737" stroke="none" fill="hsla(329, 74%, 51%, 1.00)" rx="1.4473684210526314" transform="rotate(45, 160, 160)"></rect><rect width="2.894736842105263" height="40" x="158.55263157894737" y="140" stroke="none" fill="hsla(329, 74%, 51%, 1.00)" rx="1.4473684210526314" transform="rotate(45, 160, 160)"></rect><rect width="40" height="2.894736842105263" x="220" y="158.55263157894737" stroke="none" fill="hsla(84, 70%, 65%, 1.00)" rx="1.4473684210526314" transform="rotate(45, 240, 160)"></rect><rect width="2.894736842105263" height="40" x="238.55263157894737" y="140" stroke="none" fill="hsla(84, 70%, 65%, 1.00)" rx="1.4473684210526314" transform="rotate(45, 240, 160)"></rect><rect width="40" height="2.894736842105263" x="300" y="158.55263157894737" stroke="none" fill="hsla(329, 74%, 51%, 1.00)" rx="1.4473684210526314" transform="rotate(45, 320, 160)"></rect><rect width="2.894736842105263" height="40" x="318.55263157894734" y="140" stroke="none" fill="hsla(329, 74%, 51%, 1.00)" rx="1.4473684210526314" transform="rotate(45, 320, 160)"></rect><rect width="40" height="2.894736842105263" x="380" y="158.55263157894737" stroke="none" fill="hsla(84, 70%, 65%, 1.00)" rx="1.4473684210526314" transform="rotate(45, 400, 160)"></rect><rect width="2.894736842105263" height="40" x="398.55263157894734" y="140" stroke="none" fill="hsla(84, 70%, 65%, 1.00)" rx="1.4473684210526314" transform="rotate(45, 400, 160)"></rect><rect width="40" height="2.894736842105263" x="460" y="158.55263157894737" stroke="none" fill="hsla(329, 74%, 51%, 1.00)" rx="1.4473684210526314" transform="rotate(45, 480, 160)"></rect><rect width="2.894736842105263" height="40" x="478.55263157894734" y="140" stroke="none" fill="hsla(329, 74%, 51%, 1.00)" rx="1.4473684210526314" transform="rotate(45, 480, 160)"></rect><rect width="40" height="2.894736842105263" x="540" y="158.55263157894737" stroke="none" fill="hsla(84, 70%, 65%, 1.00)" rx="1.4473684210526314" transform="rotate(45, 560, 160)"></rect><rect width="2.894736842105263" height="40" x="558.5526315789474" y="140" stroke="none" fill="hsla(84, 70%, 65%, 1.00)" rx="1.4473684210526314" transform="rotate(45, 560, 160)"></rect><rect width="40" height="2.894736842105263" x="620" y="158.55263157894737" stroke="none" fill="hsla(329, 74%, 51%, 1.00)" rx="1.4473684210526314" transform="rotate(45, 640, 160)"></rect><rect width="2.894736842105263" height="40" x="638.5526315789474" y="140" stroke="none" fill="hsla(329, 74%, 51%, 1.00)" rx="1.4473684210526314" transform="rotate(45, 640, 160)"></rect><rect width="40" height="2.894736842105263" x="700" y="158.55263157894737" stroke="none" fill="hsla(84, 70%, 65%, 1.00)" rx="1.4473684210526314" transform="rotate(45, 720, 160)"></rect><rect width="2.894736842105263" height="40" x="718.5526315789474" y="140" stroke="none" fill="hsla(84, 70%, 65%, 1.00)" rx="1.4473684210526314" transform="rotate(45, 720, 160)"></rect><rect width="40" height="2.894736842105263" x="780" y="158.55263157894737" stroke="none" fill="hsla(329, 74%, 51%, 1.00)" rx="1.4473684210526314" transform="rotate(45, 800, 160)"></rect><rect width="2.894736842105263" height="40" x="798.5526315789474" y="140" stroke="none" fill="hsla(329, 74%, 51%, 1.00)" rx="1.4473684210526314" transform="rotate(45, 800, 160)"></rect><rect width="40" height="2.894736842105263" x="-20" y="238.55263157894737" stroke="none" fill="hsla(84, 70%, 65%, 1.00)" rx="1.4473684210526314" transform="rotate(45, 0, 240)"></rect><rect width="2.894736842105263" height="40" x="-1.4473684210526314" y="220" stroke="none" fill="hsla(84, 70%, 65%, 1.00)" rx="1.4473684210526314" transform="rotate(45, 0, 240)"></rect><rect width="40" height="2.894736842105263" x="60" y="238.55263157894737" stroke="none" fill="hsla(329, 74%, 51%, 1.00)" rx="1.4473684210526314" transform="rotate(45, 80, 240)"></rect><rect width="2.894736842105263" height="40" x="78.55263157894737" y="220" stroke="none" fill="hsla(329, 74%, 51%, 1.00)" rx="1.4473684210526314" transform="rotate(45, 80, 240)"></rect><rect width="40" height="2.894736842105263" x="140" y="238.55263157894737" stroke="none" fill="hsla(84, 70%, 65%, 1.00)" rx="1.4473684210526314" transform="rotate(45, 160, 240)"></rect><rect width="2.894736842105263" height="40" x="158.55263157894737" y="220" stroke="none" fill="hsla(84, 70%, 65%, 1.00)" rx="1.4473684210526314" transform="rotate(45, 160, 240)"></rect><rect width="40" height="2.894736842105263" x="220" y="238.55263157894737" stroke="none" fill="hsla(329, 74%, 51%, 1.00)" rx="1.4473684210526314" transform="rotate(45, 240, 240)"></rect><rect width="2.894736842105263" height="40" x="238.55263157894737" y="220" stroke="none" fill="hsla(329, 74%, 51%, 1.00)" rx="1.4473684210526314" transform="rotate(45, 240, 240)"></rect><rect width="40" height="2.894736842105263" x="300" y="238.55263157894737" stroke="none" fill="hsla(84, 70%, 65%, 1.00)" rx="1.4473684210526314" transform="rotate(45, 320, 240)"></rect><rect width="2.894736842105263" height="40" x="318.55263157894734" y="220" stroke="none" fill="hsla(84, 70%, 65%, 1.00)" rx="1.4473684210526314" transform="rotate(45, 320, 240)"></rect><rect width="40" height="2.894736842105263" x="380" y="238.55263157894737" stroke="none" fill="hsla(329, 74%, 51%, 1.00)" rx="1.4473684210526314" transform="rotate(45, 400, 240)"></rect><rect width="2.894736842105263" height="40" x="398.55263157894734" y="220" stroke="none" fill="hsla(329, 74%, 51%, 1.00)" rx="1.4473684210526314" transform="rotate(45, 400, 240)"></rect><rect width="40" height="2.894736842105263" x="460" y="238.55263157894737" stroke="none" fill="hsla(84, 70%, 65%, 1.00)" rx="1.4473684210526314" transform="rotate(45, 480, 240)"></rect><rect width="2.894736842105263" height="40" x="478.55263157894734" y="220" stroke="none" fill="hsla(84, 70%, 65%, 1.00)" rx="1.4473684210526314" transform="rotate(45, 480, 240)"></rect><rect width="40" height="2.894736842105263" x="540" y="238.55263157894737" stroke="none" fill="hsla(329, 74%, 51%, 1.00)" rx="1.4473684210526314" transform="rotate(45, 560, 240)"></rect><rect width="2.894736842105263" height="40" x="558.5526315789474" y="220" stroke="none" fill="hsla(329, 74%, 51%, 1.00)" rx="1.4473684210526314" transform="rotate(45, 560, 240)"></rect><rect width="40" height="2.894736842105263" x="620" y="238.55263157894737" stroke="none" fill="hsla(84, 70%, 65%, 1.00)" rx="1.4473684210526314" transform="rotate(45, 640, 240)"></rect><rect width="2.894736842105263" height="40" x="638.5526315789474" y="220" stroke="none" fill="hsla(84, 70%, 65%, 1.00)" rx="1.4473684210526314" transform="rotate(45, 640, 240)"></rect><rect width="40" height="2.894736842105263" x="700" y="238.55263157894737" stroke="none" fill="hsla(329, 74%, 51%, 1.00)" rx="1.4473684210526314" transform="rotate(45, 720, 240)"></rect><rect width="2.894736842105263" height="40" x="718.5526315789474" y="220" stroke="none" fill="hsla(329, 74%, 51%, 1.00)" rx="1.4473684210526314" transform="rotate(45, 720, 240)"></rect><rect width="40" height="2.894736842105263" x="780" y="238.55263157894737" stroke="none" fill="hsla(84, 70%, 65%, 1.00)" rx="1.4473684210526314" transform="rotate(45, 800, 240)"></rect><rect width="2.894736842105263" height="40" x="798.5526315789474" y="220" stroke="none" fill="hsla(84, 70%, 65%, 1.00)" rx="1.4473684210526314" transform="rotate(45, 800, 240)"></rect><rect width="40" height="2.894736842105263" x="-20" y="318.55263157894734" stroke="none" fill="hsla(329, 74%, 51%, 1.00)" rx="1.4473684210526314" transform="rotate(45, 0, 320)"></rect><rect width="2.894736842105263" height="40" x="-1.4473684210526314" y="300" stroke="none" fill="hsla(329, 74%, 51%, 1.00)" rx="1.4473684210526314" transform="rotate(45, 0, 320)"></rect><rect width="40" height="2.894736842105263" x="60" y="318.55263157894734" stroke="none" fill="hsla(84, 70%, 65%, 1.00)" rx="1.4473684210526314" transform="rotate(45, 80, 320)"></rect><rect width="2.894736842105263" height="40" x="78.55263157894737" y="300" stroke="none" fill="hsla(84, 70%, 65%, 1.00)" rx="1.4473684210526314" transform="rotate(45, 80, 320)"></rect><rect width="40" height="2.894736842105263" x="140" y="318.55263157894734" stroke="none" fill="hsla(329, 74%, 51%, 1.00)" rx="1.4473684210526314" transform="rotate(45, 160, 320)"></rect><rect width="2.894736842105263" height="40" x="158.55263157894737" y="300" stroke="none" fill="hsla(329, 74%, 51%, 1.00)" rx="1.4473684210526314" transform="rotate(45, 160, 320)"></rect><rect width="40" height="2.894736842105263" x="220" y="318.55263157894734" stroke="none" fill="hsla(84, 70%, 65%, 1.00)" rx="1.4473684210526314" transform="rotate(45, 240, 320)"></rect><rect width="2.894736842105263" height="40" x="238.55263157894737" y="300" stroke="none" fill="hsla(84, 70%, 65%, 1.00)" rx="1.4473684210526314" transform="rotate(45, 240, 320)"></rect><rect width="40" height="2.894736842105263" x="300" y="318.55263157894734" stroke="none" fill="hsla(329, 74%, 51%, 1.00)" rx="1.4473684210526314" transform="rotate(45, 320, 320)"></rect><rect width="2.894736842105263" height="40" x="318.55263157894734" y="300" stroke="none" fill="hsla(329, 74%, 51%, 1.00)" rx="1.4473684210526314" transform="rotate(45, 320, 320)"></rect><rect width="40" height="2.894736842105263" x="380" y="318.55263157894734" stroke="none" fill="hsla(84, 70%, 65%, 1.00)" rx="1.4473684210526314" transform="rotate(45, 400, 320)"></rect><rect width="2.894736842105263" height="40" x="398.55263157894734" y="300" stroke="none" fill="hsla(84, 70%, 65%, 1.00)" rx="1.4473684210526314" transform="rotate(45, 400, 320)"></rect><rect width="40" height="2.894736842105263" x="460" y="318.55263157894734" stroke="none" fill="hsla(329, 74%, 51%, 1.00)" rx="1.4473684210526314" transform="rotate(45, 480, 320)"></rect><rect width="2.894736842105263" height="40" x="478.55263157894734" y="300" stroke="none" fill="hsla(329, 74%, 51%, 1.00)" rx="1.4473684210526314" transform="rotate(45, 480, 320)"></rect><rect width="40" height="2.894736842105263" x="540" y="318.55263157894734" stroke="none" fill="hsla(84, 70%, 65%, 1.00)" rx="1.4473684210526314" transform="rotate(45, 560, 320)"></rect><rect width="2.894736842105263" height="40" x="558.5526315789474" y="300" stroke="none" fill="hsla(84, 70%, 65%, 1.00)" rx="1.4473684210526314" transform="rotate(45, 560, 320)"></rect><rect width="40" height="2.894736842105263" x="620" y="318.55263157894734" stroke="none" fill="hsla(329, 74%, 51%, 1.00)" rx="1.4473684210526314" transform="rotate(45, 640, 320)"></rect><rect width="2.894736842105263" height="40" x="638.5526315789474" y="300" stroke="none" fill="hsla(329, 74%, 51%, 1.00)" rx="1.4473684210526314" transform="rotate(45, 640, 320)"></rect><rect width="40" height="2.894736842105263" x="700" y="318.55263157894734" stroke="none" fill="hsla(84, 70%, 65%, 1.00)" rx="1.4473684210526314" transform="rotate(45, 720, 320)"></rect><rect width="2.894736842105263" height="40" x="718.5526315789474" y="300" stroke="none" fill="hsla(84, 70%, 65%, 1.00)" rx="1.4473684210526314" transform="rotate(45, 720, 320)"></rect><rect width="40" height="2.894736842105263" x="780" y="318.55263157894734" stroke="none" fill="hsla(329, 74%, 51%, 1.00)" rx="1.4473684210526314" transform="rotate(45, 800, 320)"></rect><rect width="2.894736842105263" height="40" x="798.5526315789474" y="300" stroke="none" fill="hsla(329, 74%, 51%, 1.00)" rx="1.4473684210526314" transform="rotate(45, 800, 320)"></rect><rect width="40" height="2.894736842105263" x="-20" y="398.55263157894734" stroke="none" fill="hsla(84, 70%, 65%, 1.00)" rx="1.4473684210526314" transform="rotate(45, 0, 400)"></rect><rect width="2.894736842105263" height="40" x="-1.4473684210526314" y="380" stroke="none" fill="hsla(84, 70%, 65%, 1.00)" rx="1.4473684210526314" transform="rotate(45, 0, 400)"></rect><rect width="40" height="2.894736842105263" x="60" y="398.55263157894734" stroke="none" fill="hsla(329, 74%, 51%, 1.00)" rx="1.4473684210526314" transform="rotate(45, 80, 400)"></rect><rect width="2.894736842105263" height="40" x="78.55263157894737" y="380" stroke="none" fill="hsla(329, 74%, 51%, 1.00)" rx="1.4473684210526314" transform="rotate(45, 80, 400)"></rect><rect width="40" height="2.894736842105263" x="140" y="398.55263157894734" stroke="none" fill="hsla(84, 70%, 65%, 1.00)" rx="1.4473684210526314" transform="rotate(45, 160, 400)"></rect><rect width="2.894736842105263" height="40" x="158.55263157894737" y="380" stroke="none" fill="hsla(84, 70%, 65%, 1.00)" rx="1.4473684210526314" transform="rotate(45, 160, 400)"></rect><rect width="40" height="2.894736842105263" x="220" y="398.55263157894734" stroke="none" fill="hsla(329, 74%, 51%, 1.00)" rx="1.4473684210526314" transform="rotate(45, 240, 400)"></rect><rect width="2.894736842105263" height="40" x="238.55263157894737" y="380" stroke="none" fill="hsla(329, 74%, 51%, 1.00)" rx="1.4473684210526314" transform="rotate(45, 240, 400)"></rect><rect width="40" height="2.894736842105263" x="300" y="398.55263157894734" stroke="none" fill="hsla(84, 70%, 65%, 1.00)" rx="1.4473684210526314" transform="rotate(45, 320, 400)"></rect><rect width="2.894736842105263" height="40" x="318.55263157894734" y="380" stroke="none" fill="hsla(84, 70%, 65%, 1.00)" rx="1.4473684210526314" transform="rotate(45, 320, 400)"></rect><rect width="40" height="2.894736842105263" x="380" y="398.55263157894734" stroke="none" fill="hsla(329, 74%, 51%, 1.00)" rx="1.4473684210526314" transform="rotate(45, 400, 400)"></rect><rect width="2.894736842105263" height="40" x="398.55263157894734" y="380" stroke="none" fill="hsla(329, 74%, 51%, 1.00)" rx="1.4473684210526314" transform="rotate(45, 400, 400)"></rect><rect width="40" height="2.894736842105263" x="460" y="398.55263157894734" stroke="none" fill="hsla(84, 70%, 65%, 1.00)" rx="1.4473684210526314" transform="rotate(45, 480, 400)"></rect><rect width="2.894736842105263" height="40" x="478.55263157894734" y="380" stroke="none" fill="hsla(84, 70%, 65%, 1.00)" rx="1.4473684210526314" transform="rotate(45, 480, 400)"></rect><rect width="40" height="2.894736842105263" x="540" y="398.55263157894734" stroke="none" fill="hsla(329, 74%, 51%, 1.00)" rx="1.4473684210526314" transform="rotate(45, 560, 400)"></rect><rect width="2.894736842105263" height="40" x="558.5526315789474" y="380" stroke="none" fill="hsla(329, 74%, 51%, 1.00)" rx="1.4473684210526314" transform="rotate(45, 560, 400)"></rect><rect width="40" height="2.894736842105263" x="620" y="398.55263157894734" stroke="none" fill="hsla(84, 70%, 65%, 1.00)" rx="1.4473684210526314" transform="rotate(45, 640, 400)"></rect><rect width="2.894736842105263" height="40" x="638.5526315789474" y="380" stroke="none" fill="hsla(84, 70%, 65%, 1.00)" rx="1.4473684210526314" transform="rotate(45, 640, 400)"></rect><rect width="40" height="2.894736842105263" x="700" y="398.55263157894734" stroke="none" fill="hsla(329, 74%, 51%, 1.00)" rx="1.4473684210526314" transform="rotate(45, 720, 400)"></rect><rect width="2.894736842105263" height="40" x="718.5526315789474" y="380" stroke="none" fill="hsla(329, 74%, 51%, 1.00)" rx="1.4473684210526314" transform="rotate(45, 720, 400)"></rect><rect width="40" height="2.894736842105263" x="780" y="398.55263157894734" stroke="none" fill="hsla(84, 70%, 65%, 1.00)" rx="1.4473684210526314" transform="rotate(45, 800, 400)"></rect><rect width="2.894736842105263" height="40" x="798.5526315789474" y="380" stroke="none" fill="hsla(84, 70%, 65%, 1.00)" rx="1.4473684210526314" transform="rotate(45, 800, 400)"></rect><rect width="40" height="2.894736842105263" x="-20" y="478.55263157894734" stroke="none" fill="hsla(329, 74%, 51%, 1.00)" rx="1.4473684210526314" transform="rotate(45, 0, 480)"></rect><rect width="2.894736842105263" height="40" x="-1.4473684210526314" y="460" stroke="none" fill="hsla(329, 74%, 51%, 1.00)" rx="1.4473684210526314" transform="rotate(45, 0, 480)"></rect><rect width="40" height="2.894736842105263" x="60" y="478.55263157894734" stroke="none" fill="hsla(84, 70%, 65%, 1.00)" rx="1.4473684210526314" transform="rotate(45, 80, 480)"></rect><rect width="2.894736842105263" height="40" x="78.55263157894737" y="460" stroke="none" fill="hsla(84, 70%, 65%, 1.00)" rx="1.4473684210526314" transform="rotate(45, 80, 480)"></rect><rect width="40" height="2.894736842105263" x="140" y="478.55263157894734" stroke="none" fill="hsla(329, 74%, 51%, 1.00)" rx="1.4473684210526314" transform="rotate(45, 160, 480)"></rect><rect width="2.894736842105263" height="40" x="158.55263157894737" y="460" stroke="none" fill="hsla(329, 74%, 51%, 1.00)" rx="1.4473684210526314" transform="rotate(45, 160, 480)"></rect><rect width="40" height="2.894736842105263" x="220" y="478.55263157894734" stroke="none" fill="hsla(84, 70%, 65%, 1.00)" rx="1.4473684210526314" transform="rotate(45, 240, 480)"></rect><rect width="2.894736842105263" height="40" x="238.55263157894737" y="460" stroke="none" fill="hsla(84, 70%, 65%, 1.00)" rx="1.4473684210526314" transform="rotate(45, 240, 480)"></rect><rect width="40" height="2.894736842105263" x="300" y="478.55263157894734" stroke="none" fill="hsla(329, 74%, 51%, 1.00)" rx="1.4473684210526314" transform="rotate(45, 320, 480)"></rect><rect width="2.894736842105263" height="40" x="318.55263157894734" y="460" stroke="none" fill="hsla(329, 74%, 51%, 1.00)" rx="1.4473684210526314" transform="rotate(45, 320, 480)"></rect><rect width="40" height="2.894736842105263" x="380" y="478.55263157894734" stroke="none" fill="hsla(84, 70%, 65%, 1.00)" rx="1.4473684210526314" transform="rotate(45, 400, 480)"></rect><rect width="2.894736842105263" height="40" x="398.55263157894734" y="460" stroke="none" fill="hsla(84, 70%, 65%, 1.00)" rx="1.4473684210526314" transform="rotate(45, 400, 480)"></rect><rect width="40" height="2.894736842105263" x="460" y="478.55263157894734" stroke="none" fill="hsla(329, 74%, 51%, 1.00)" rx="1.4473684210526314" transform="rotate(45, 480, 480)"></rect><rect width="2.894736842105263" height="40" x="478.55263157894734" y="460" stroke="none" fill="hsla(329, 74%, 51%, 1.00)" rx="1.4473684210526314" transform="rotate(45, 480, 480)"></rect><rect width="40" height="2.894736842105263" x="540" y="478.55263157894734" stroke="none" fill="hsla(84, 70%, 65%, 1.00)" rx="1.4473684210526314" transform="rotate(45, 560, 480)"></rect><rect width="2.894736842105263" height="40" x="558.5526315789474" y="460" stroke="none" fill="hsla(84, 70%, 65%, 1.00)" rx="1.4473684210526314" transform="rotate(45, 560, 480)"></rect><rect width="40" height="2.894736842105263" x="620" y="478.55263157894734" stroke="none" fill="hsla(329, 74%, 51%, 1.00)" rx="1.4473684210526314" transform="rotate(45, 640, 480)"></rect><rect width="2.894736842105263" height="40" x="638.5526315789474" y="460" stroke="none" fill="hsla(329, 74%, 51%, 1.00)" rx="1.4473684210526314" transform="rotate(45, 640, 480)"></rect><rect width="40" height="2.894736842105263" x="700" y="478.55263157894734" stroke="none" fill="hsla(84, 70%, 65%, 1.00)" rx="1.4473684210526314" transform="rotate(45, 720, 480)"></rect><rect width="2.894736842105263" height="40" x="718.5526315789474" y="460" stroke="none" fill="hsla(84, 70%, 65%, 1.00)" rx="1.4473684210526314" transform="rotate(45, 720, 480)"></rect><rect width="40" height="2.894736842105263" x="780" y="478.55263157894734" stroke="none" fill="hsla(329, 74%, 51%, 1.00)" rx="1.4473684210526314" transform="rotate(45, 800, 480)"></rect><rect width="2.894736842105263" height="40" x="798.5526315789474" y="460" stroke="none" fill="hsla(329, 74%, 51%, 1.00)" rx="1.4473684210526314" transform="rotate(45, 800, 480)"></rect><rect width="40" height="2.894736842105263" x="-20" y="558.5526315789474" stroke="none" fill="hsla(84, 70%, 65%, 1.00)" rx="1.4473684210526314" transform="rotate(45, 0, 560)"></rect><rect width="2.894736842105263" height="40" x="-1.4473684210526314" y="540" stroke="none" fill="hsla(84, 70%, 65%, 1.00)" rx="1.4473684210526314" transform="rotate(45, 0, 560)"></rect><rect width="40" height="2.894736842105263" x="60" y="558.5526315789474" stroke="none" fill="hsla(329, 74%, 51%, 1.00)" rx="1.4473684210526314" transform="rotate(45, 80, 560)"></rect><rect width="2.894736842105263" height="40" x="78.55263157894737" y="540" stroke="none" fill="hsla(329, 74%, 51%, 1.00)" rx="1.4473684210526314" transform="rotate(45, 80, 560)"></rect><rect width="40" height="2.894736842105263" x="140" y="558.5526315789474" stroke="none" fill="hsla(84, 70%, 65%, 1.00)" rx="1.4473684210526314" transform="rotate(45, 160, 560)"></rect><rect width="2.894736842105263" height="40" x="158.55263157894737" y="540" stroke="none" fill="hsla(84, 70%, 65%, 1.00)" rx="1.4473684210526314" transform="rotate(45, 160, 560)"></rect><rect width="40" height="2.894736842105263" x="220" y="558.5526315789474" stroke="none" fill="hsla(329, 74%, 51%, 1.00)" rx="1.4473684210526314" transform="rotate(45, 240, 560)"></rect><rect width="2.894736842105263" height="40" x="238.55263157894737" y="540" stroke="none" fill="hsla(329, 74%, 51%, 1.00)" rx="1.4473684210526314" transform="rotate(45, 240, 560)"></rect><rect width="40" height="2.894736842105263" x="300" y="558.5526315789474" stroke="none" fill="hsla(84, 70%, 65%, 1.00)" rx="1.4473684210526314" transform="rotate(45, 320, 560)"></rect><rect width="2.894736842105263" height="40" x="318.55263157894734" y="540" stroke="none" fill="hsla(84, 70%, 65%, 1.00)" rx="1.4473684210526314" transform="rotate(45, 320, 560)"></rect><rect width="40" height="2.894736842105263" x="380" y="558.5526315789474" stroke="none" fill="hsla(329, 74%, 51%, 1.00)" rx="1.4473684210526314" transform="rotate(45, 400, 560)"></rect><rect width="2.894736842105263" height="40" x="398.55263157894734" y="540" stroke="none" fill="hsla(329, 74%, 51%, 1.00)" rx="1.4473684210526314" transform="rotate(45, 400, 560)"></rect><rect width="40" height="2.894736842105263" x="460" y="558.5526315789474" stroke="none" fill="hsla(84, 70%, 65%, 1.00)" rx="1.4473684210526314" transform="rotate(45, 480, 560)"></rect><rect width="2.894736842105263" height="40" x="478.55263157894734" y="540" stroke="none" fill="hsla(84, 70%, 65%, 1.00)" rx="1.4473684210526314" transform="rotate(45, 480, 560)"></rect><rect width="40" height="2.894736842105263" x="540" y="558.5526315789474" stroke="none" fill="hsla(329, 74%, 51%, 1.00)" rx="1.4473684210526314" transform="rotate(45, 560, 560)"></rect><rect width="2.894736842105263" height="40" x="558.5526315789474" y="540" stroke="none" fill="hsla(329, 74%, 51%, 1.00)" rx="1.4473684210526314" transform="rotate(45, 560, 560)"></rect><rect width="40" height="2.894736842105263" x="620" y="558.5526315789474" stroke="none" fill="hsla(84, 70%, 65%, 1.00)" rx="1.4473684210526314" transform="rotate(45, 640, 560)"></rect><rect width="2.894736842105263" height="40" x="638.5526315789474" y="540" stroke="none" fill="hsla(84, 70%, 65%, 1.00)" rx="1.4473684210526314" transform="rotate(45, 640, 560)"></rect><rect width="40" height="2.894736842105263" x="700" y="558.5526315789474" stroke="none" fill="hsla(329, 74%, 51%, 1.00)" rx="1.4473684210526314" transform="rotate(45, 720, 560)"></rect><rect width="2.894736842105263" height="40" x="718.5526315789474" y="540" stroke="none" fill="hsla(329, 74%, 51%, 1.00)" rx="1.4473684210526314" transform="rotate(45, 720, 560)"></rect><rect width="40" height="2.894736842105263" x="780" y="558.5526315789474" stroke="none" fill="hsla(84, 70%, 65%, 1.00)" rx="1.4473684210526314" transform="rotate(45, 800, 560)"></rect><rect width="2.894736842105263" height="40" x="798.5526315789474" y="540" stroke="none" fill="hsla(84, 70%, 65%, 1.00)" rx="1.4473684210526314" transform="rotate(45, 800, 560)"></rect><rect width="40" height="2.894736842105263" x="-20" y="638.5526315789474" stroke="none" fill="hsla(329, 74%, 51%, 1.00)" rx="1.4473684210526314" transform="rotate(45, 0, 640)"></rect><rect width="2.894736842105263" height="40" x="-1.4473684210526314" y="620" stroke="none" fill="hsla(329, 74%, 51%, 1.00)" rx="1.4473684210526314" transform="rotate(45, 0, 640)"></rect><rect width="40" height="2.894736842105263" x="60" y="638.5526315789474" stroke="none" fill="hsla(84, 70%, 65%, 1.00)" rx="1.4473684210526314" transform="rotate(45, 80, 640)"></rect><rect width="2.894736842105263" height="40" x="78.55263157894737" y="620" stroke="none" fill="hsla(84, 70%, 65%, 1.00)" rx="1.4473684210526314" transform="rotate(45, 80, 640)"></rect><rect width="40" height="2.894736842105263" x="140" y="638.5526315789474" stroke="none" fill="hsla(329, 74%, 51%, 1.00)" rx="1.4473684210526314" transform="rotate(45, 160, 640)"></rect><rect width="2.894736842105263" height="40" x="158.55263157894737" y="620" stroke="none" fill="hsla(329, 74%, 51%, 1.00)" rx="1.4473684210526314" transform="rotate(45, 160, 640)"></rect><rect width="40" height="2.894736842105263" x="220" y="638.5526315789474" stroke="none" fill="hsla(84, 70%, 65%, 1.00)" rx="1.4473684210526314" transform="rotate(45, 240, 640)"></rect><rect width="2.894736842105263" height="40" x="238.55263157894737" y="620" stroke="none" fill="hsla(84, 70%, 65%, 1.00)" rx="1.4473684210526314" transform="rotate(45, 240, 640)"></rect><rect width="40" height="2.894736842105263" x="300" y="638.5526315789474" stroke="none" fill="hsla(329, 74%, 51%, 1.00)" rx="1.4473684210526314" transform="rotate(45, 320, 640)"></rect><rect width="2.894736842105263" height="40" x="318.55263157894734" y="620" stroke="none" fill="hsla(329, 74%, 51%, 1.00)" rx="1.4473684210526314" transform="rotate(45, 320, 640)"></rect><rect width="40" height="2.894736842105263" x="380" y="638.5526315789474" stroke="none" fill="hsla(84, 70%, 65%, 1.00)" rx="1.4473684210526314" transform="rotate(45, 400, 640)"></rect><rect width="2.894736842105263" height="40" x="398.55263157894734" y="620" stroke="none" fill="hsla(84, 70%, 65%, 1.00)" rx="1.4473684210526314" transform="rotate(45, 400, 640)"></rect><rect width="40" height="2.894736842105263" x="460" y="638.5526315789474" stroke="none" fill="hsla(329, 74%, 51%, 1.00)" rx="1.4473684210526314" transform="rotate(45, 480, 640)"></rect><rect width="2.894736842105263" height="40" x="478.55263157894734" y="620" stroke="none" fill="hsla(329, 74%, 51%, 1.00)" rx="1.4473684210526314" transform="rotate(45, 480, 640)"></rect><rect width="40" height="2.894736842105263" x="540" y="638.5526315789474" stroke="none" fill="hsla(84, 70%, 65%, 1.00)" rx="1.4473684210526314" transform="rotate(45, 560, 640)"></rect><rect width="2.894736842105263" height="40" x="558.5526315789474" y="620" stroke="none" fill="hsla(84, 70%, 65%, 1.00)" rx="1.4473684210526314" transform="rotate(45, 560, 640)"></rect><rect width="40" height="2.894736842105263" x="620" y="638.5526315789474" stroke="none" fill="hsla(329, 74%, 51%, 1.00)" rx="1.4473684210526314" transform="rotate(45, 640, 640)"></rect><rect width="2.894736842105263" height="40" x="638.5526315789474" y="620" stroke="none" fill="hsla(329, 74%, 51%, 1.00)" rx="1.4473684210526314" transform="rotate(45, 640, 640)"></rect><rect width="40" height="2.894736842105263" x="700" y="638.5526315789474" stroke="none" fill="hsla(84, 70%, 65%, 1.00)" rx="1.4473684210526314" transform="rotate(45, 720, 640)"></rect><rect width="2.894736842105263" height="40" x="718.5526315789474" y="620" stroke="none" fill="hsla(84, 70%, 65%, 1.00)" rx="1.4473684210526314" transform="rotate(45, 720, 640)"></rect><rect width="40" height="2.894736842105263" x="780" y="638.5526315789474" stroke="none" fill="hsla(329, 74%, 51%, 1.00)" rx="1.4473684210526314" transform="rotate(45, 800, 640)"></rect><rect width="2.894736842105263" height="40" x="798.5526315789474" y="620" stroke="none" fill="hsla(329, 74%, 51%, 1.00)" rx="1.4473684210526314" transform="rotate(45, 800, 640)"></rect><rect width="40" height="2.894736842105263" x="-20" y="718.5526315789474" stroke="none" fill="hsla(84, 70%, 65%, 1.00)" rx="1.4473684210526314" transform="rotate(45, 0, 720)"></rect><rect width="2.894736842105263" height="40" x="-1.4473684210526314" y="700" stroke="none" fill="hsla(84, 70%, 65%, 1.00)" rx="1.4473684210526314" transform="rotate(45, 0, 720)"></rect><rect width="40" height="2.894736842105263" x="60" y="718.5526315789474" stroke="none" fill="hsla(329, 74%, 51%, 1.00)" rx="1.4473684210526314" transform="rotate(45, 80, 720)"></rect><rect width="2.894736842105263" height="40" x="78.55263157894737" y="700" stroke="none" fill="hsla(329, 74%, 51%, 1.00)" rx="1.4473684210526314" transform="rotate(45, 80, 720)"></rect><rect width="40" height="2.894736842105263" x="140" y="718.5526315789474" stroke="none" fill="hsla(84, 70%, 65%, 1.00)" rx="1.4473684210526314" transform="rotate(45, 160, 720)"></rect><rect width="2.894736842105263" height="40" x="158.55263157894737" y="700" stroke="none" fill="hsla(84, 70%, 65%, 1.00)" rx="1.4473684210526314" transform="rotate(45, 160, 720)"></rect><rect width="40" height="2.894736842105263" x="220" y="718.5526315789474" stroke="none" fill="hsla(329, 74%, 51%, 1.00)" rx="1.4473684210526314" transform="rotate(45, 240, 720)"></rect><rect width="2.894736842105263" height="40" x="238.55263157894737" y="700" stroke="none" fill="hsla(329, 74%, 51%, 1.00)" rx="1.4473684210526314" transform="rotate(45, 240, 720)"></rect><rect width="40" height="2.894736842105263" x="300" y="718.5526315789474" stroke="none" fill="hsla(84, 70%, 65%, 1.00)" rx="1.4473684210526314" transform="rotate(45, 320, 720)"></rect><rect width="2.894736842105263" height="40" x="318.55263157894734" y="700" stroke="none" fill="hsla(84, 70%, 65%, 1.00)" rx="1.4473684210526314" transform="rotate(45, 320, 720)"></rect><rect width="40" height="2.894736842105263" x="380" y="718.5526315789474" stroke="none" fill="hsla(329, 74%, 51%, 1.00)" rx="1.4473684210526314" transform="rotate(45, 400, 720)"></rect><rect width="2.894736842105263" height="40" x="398.55263157894734" y="700" stroke="none" fill="hsla(329, 74%, 51%, 1.00)" rx="1.4473684210526314" transform="rotate(45, 400, 720)"></rect><rect width="40" height="2.894736842105263" x="460" y="718.5526315789474" stroke="none" fill="hsla(84, 70%, 65%, 1.00)" rx="1.4473684210526314" transform="rotate(45, 480, 720)"></rect><rect width="2.894736842105263" height="40" x="478.55263157894734" y="700" stroke="none" fill="hsla(84, 70%, 65%, 1.00)" rx="1.4473684210526314" transform="rotate(45, 480, 720)"></rect><rect width="40" height="2.894736842105263" x="540" y="718.5526315789474" stroke="none" fill="hsla(329, 74%, 51%, 1.00)" rx="1.4473684210526314" transform="rotate(45, 560, 720)"></rect><rect width="2.894736842105263" height="40" x="558.5526315789474" y="700" stroke="none" fill="hsla(329, 74%, 51%, 1.00)" rx="1.4473684210526314" transform="rotate(45, 560, 720)"></rect><rect width="40" height="2.894736842105263" x="620" y="718.5526315789474" stroke="none" fill="hsla(84, 70%, 65%, 1.00)" rx="1.4473684210526314" transform="rotate(45, 640, 720)"></rect><rect width="2.894736842105263" height="40" x="638.5526315789474" y="700" stroke="none" fill="hsla(84, 70%, 65%, 1.00)" rx="1.4473684210526314" transform="rotate(45, 640, 720)"></rect><rect width="40" height="2.894736842105263" x="700" y="718.5526315789474" stroke="none" fill="hsla(329, 74%, 51%, 1.00)" rx="1.4473684210526314" transform="rotate(45, 720, 720)"></rect><rect width="2.894736842105263" height="40" x="718.5526315789474" y="700" stroke="none" fill="hsla(329, 74%, 51%, 1.00)" rx="1.4473684210526314" transform="rotate(45, 720, 720)"></rect><rect width="40" height="2.894736842105263" x="780" y="718.5526315789474" stroke="none" fill="hsla(84, 70%, 65%, 1.00)" rx="1.4473684210526314" transform="rotate(45, 800, 720)"></rect><rect width="2.894736842105263" height="40" x="798.5526315789474" y="700" stroke="none" fill="hsla(84, 70%, 65%, 1.00)" rx="1.4473684210526314" transform="rotate(45, 800, 720)"></rect><rect width="40" height="2.894736842105263" x="-20" y="798.5526315789474" stroke="none" fill="hsla(329, 74%, 51%, 1.00)" rx="1.4473684210526314" transform="rotate(45, 0, 800)"></rect><rect width="2.894736842105263" height="40" x="-1.4473684210526314" y="780" stroke="none" fill="hsla(329, 74%, 51%, 1.00)" rx="1.4473684210526314" transform="rotate(45, 0, 800)"></rect><rect width="40" height="2.894736842105263" x="60" y="798.5526315789474" stroke="none" fill="hsla(84, 70%, 65%, 1.00)" rx="1.4473684210526314" transform="rotate(45, 80, 800)"></rect><rect width="2.894736842105263" height="40" x="78.55263157894737" y="780" stroke="none" fill="hsla(84, 70%, 65%, 1.00)" rx="1.4473684210526314" transform="rotate(45, 80, 800)"></rect><rect width="40" height="2.894736842105263" x="140" y="798.5526315789474" stroke="none" fill="hsla(329, 74%, 51%, 1.00)" rx="1.4473684210526314" transform="rotate(45, 160, 800)"></rect><rect width="2.894736842105263" height="40" x="158.55263157894737" y="780" stroke="none" fill="hsla(329, 74%, 51%, 1.00)" rx="1.4473684210526314" transform="rotate(45, 160, 800)"></rect><rect width="40" height="2.894736842105263" x="220" y="798.5526315789474" stroke="none" fill="hsla(84, 70%, 65%, 1.00)" rx="1.4473684210526314" transform="rotate(45, 240, 800)"></rect><rect width="2.894736842105263" height="40" x="238.55263157894737" y="780" stroke="none" fill="hsla(84, 70%, 65%, 1.00)" rx="1.4473684210526314" transform="rotate(45, 240, 800)"></rect><rect width="40" height="2.894736842105263" x="300" y="798.5526315789474" stroke="none" fill="hsla(329, 74%, 51%, 1.00)" rx="1.4473684210526314" transform="rotate(45, 320, 800)"></rect><rect width="2.894736842105263" height="40" x="318.55263157894734" y="780" stroke="none" fill="hsla(329, 74%, 51%, 1.00)" rx="1.4473684210526314" transform="rotate(45, 320, 800)"></rect><rect width="40" height="2.894736842105263" x="380" y="798.5526315789474" stroke="none" fill="hsla(84, 70%, 65%, 1.00)" rx="1.4473684210526314" transform="rotate(45, 400, 800)"></rect><rect width="2.894736842105263" height="40" x="398.55263157894734" y="780" stroke="none" fill="hsla(84, 70%, 65%, 1.00)" rx="1.4473684210526314" transform="rotate(45, 400, 800)"></rect><rect width="40" height="2.894736842105263" x="460" y="798.5526315789474" stroke="none" fill="hsla(329, 74%, 51%, 1.00)" rx="1.4473684210526314" transform="rotate(45, 480, 800)"></rect><rect width="2.894736842105263" height="40" x="478.55263157894734" y="780" stroke="none" fill="hsla(329, 74%, 51%, 1.00)" rx="1.4473684210526314" transform="rotate(45, 480, 800)"></rect><rect width="40" height="2.894736842105263" x="540" y="798.5526315789474" stroke="none" fill="hsla(84, 70%, 65%, 1.00)" rx="1.4473684210526314" transform="rotate(45, 560, 800)"></rect><rect width="2.894736842105263" height="40" x="558.5526315789474" y="780" stroke="none" fill="hsla(84, 70%, 65%, 1.00)" rx="1.4473684210526314" transform="rotate(45, 560, 800)"></rect><rect width="40" height="2.894736842105263" x="620" y="798.5526315789474" stroke="none" fill="hsla(329, 74%, 51%, 1.00)" rx="1.4473684210526314" transform="rotate(45, 640, 800)"></rect><rect width="2.894736842105263" height="40" x="638.5526315789474" y="780" stroke="none" fill="hsla(329, 74%, 51%, 1.00)" rx="1.4473684210526314" transform="rotate(45, 640, 800)"></rect><rect width="40" height="2.894736842105263" x="700" y="798.5526315789474" stroke="none" fill="hsla(84, 70%, 65%, 1.00)" rx="1.4473684210526314" transform="rotate(45, 720, 800)"></rect><rect width="2.894736842105263" height="40" x="718.5526315789474" y="780" stroke="none" fill="hsla(84, 70%, 65%, 1.00)" rx="1.4473684210526314" transform="rotate(45, 720, 800)"></rect><rect width="40" height="2.894736842105263" x="780" y="798.5526315789474" stroke="none" fill="hsla(329, 74%, 51%, 1.00)" rx="1.4473684210526314" transform="rotate(45, 800, 800)"></rect><rect width="2.894736842105263" height="40" x="798.5526315789474" y="780" stroke="none" fill="hsla(329, 74%, 51%, 1.00)" rx="1.4473684210526314" transform="rotate(45, 800, 800)"></rect></g></svg>