<svg xmlns="http://www.w3.org/2000/svg" version="1.1" xmlns:xlink="http://www.w3.org/1999/xlink" xmlns:svgjs="http://svgjs.dev/svgjs" viewBox="0 0 800 800" opacity="0.37" width="800" height="800"><g stroke-width="1.25" stroke="hsla(84, 70%, 65%, 1.00)" fill="none"><rect width="7.368421052631579" height="7.368421052631579" x="-3.6842105263157894" y="-3.6842105263157894" fill="hsla(84, 70%, 65%, 1.00)" stroke="none"></rect><rect width="7.368421052631579" height="7.368421052631579" x="76.3157894736842" y="-3.6842105263157894" fill="hsla(329, 74%, 51%, 1.00)" stroke="none"></rect><rect width="7.368421052631579" height="7.368421052631579" x="156.31578947368422" y="-3.6842105263157894" fill="hsla(84, 70%, 65%, 1.00)" stroke="none"></rect><rect width="7.368421052631579" height="7.368421052631579" x="236.31578947368422" y="-3.6842105263157894" fill="hsla(329, 74%, 51%, 1.00)" stroke="none"></rect><rect width="7.368421052631579" height="7.368421052631579" x="316.3157894736842" y="-3.6842105263157894" fill="hsla(84, 70%, 65%, 1.00)" stroke="none"></rect><rect width="7.368421052631579" height="7.368421052631579" x="396.3157894736842" y="-3.6842105263157894" fill="hsla(329, 74%, 51%, 1.00)" stroke="none"></rect><rect width="7.368421052631579" height="7.368421052631579" x="476.3157894736842" y="-3.6842105263157894" fill="hsla(84, 70%, 65%, 1.00)" stroke="none"></rect><rect width="7.368421052631579" height="7.368421052631579" x="556.3157894736842" y="-3.6842105263157894" fill="hsla(329, 74%, 51%, 1.00)" stroke="none"></rect><rect width="7.368421052631579" height="7.368421052631579" x="636.3157894736842" y="-3.6842105263157894" fill="hsla(84, 70%, 65%, 1.00)" stroke="none"></rect><rect width="7.368421052631579" height="7.368421052631579" x="716.3157894736842" y="-3.6842105263157894" fill="hsla(329, 74%, 51%, 1.00)" stroke="none"></rect><rect width="7.368421052631579" height="7.368421052631579" x="796.3157894736842" y="-3.6842105263157894" fill="hsla(84, 70%, 65%, 1.00)" stroke="none"></rect><rect width="7.368421052631579" height="7.368421052631579" x="-3.6842105263157894" y="76.3157894736842" fill="hsla(329, 74%, 51%, 1.00)" stroke="none"></rect><rect width="7.368421052631579" height="7.368421052631579" x="76.3157894736842" y="76.3157894736842" fill="hsla(84, 70%, 65%, 1.00)" stroke="none"></rect><rect width="7.368421052631579" height="7.368421052631579" x="156.31578947368422" y="76.3157894736842" fill="hsla(329, 74%, 51%, 1.00)" stroke="none"></rect><rect width="7.368421052631579" height="7.368421052631579" x="236.31578947368422" y="76.3157894736842" fill="hsla(84, 70%, 65%, 1.00)" stroke="none"></rect><rect width="7.368421052631579" height="7.368421052631579" x="316.3157894736842" y="76.3157894736842" fill="hsla(329, 74%, 51%, 1.00)" stroke="none"></rect><rect width="7.368421052631579" height="7.368421052631579" x="396.3157894736842" y="76.3157894736842" fill="hsla(84, 70%, 65%, 1.00)" stroke="none"></rect><rect width="7.368421052631579" height="7.368421052631579" x="476.3157894736842" y="76.3157894736842" fill="hsla(329, 74%, 51%, 1.00)" stroke="none"></rect><rect width="7.368421052631579" height="7.368421052631579" x="556.3157894736842" y="76.3157894736842" fill="hsla(84, 70%, 65%, 1.00)" stroke="none"></rect><rect width="7.368421052631579" height="7.368421052631579" x="636.3157894736842" y="76.3157894736842" fill="hsla(329, 74%, 51%, 1.00)" stroke="none"></rect><rect width="7.368421052631579" height="7.368421052631579" x="716.3157894736842" y="76.3157894736842" fill="hsla(84, 70%, 65%, 1.00)" stroke="none"></rect><rect width="7.368421052631579" height="7.368421052631579" x="796.3157894736842" y="76.3157894736842" fill="hsla(329, 74%, 51%, 1.00)" stroke="none"></rect><rect width="7.368421052631579" height="7.368421052631579" x="-3.6842105263157894" y="156.31578947368422" fill="hsla(84, 70%, 65%, 1.00)" stroke="none"></rect><rect width="7.368421052631579" height="7.368421052631579" x="76.3157894736842" y="156.31578947368422" fill="hsla(329, 74%, 51%, 1.00)" stroke="none"></rect><rect width="7.368421052631579" height="7.368421052631579" x="156.31578947368422" y="156.31578947368422" fill="hsla(84, 70%, 65%, 1.00)" stroke="none"></rect><rect width="7.368421052631579" height="7.368421052631579" x="236.31578947368422" y="156.31578947368422" fill="hsla(329, 74%, 51%, 1.00)" stroke="none"></rect><rect width="7.368421052631579" height="7.368421052631579" x="316.3157894736842" y="156.31578947368422" fill="hsla(84, 70%, 65%, 1.00)" stroke="none"></rect><rect width="7.368421052631579" height="7.368421052631579" x="396.3157894736842" y="156.31578947368422" fill="hsla(329, 74%, 51%, 1.00)" stroke="none"></rect><rect width="7.368421052631579" height="7.368421052631579" x="476.3157894736842" y="156.31578947368422" fill="hsla(84, 70%, 65%, 1.00)" stroke="none"></rect><rect width="7.368421052631579" height="7.368421052631579" x="556.3157894736842" y="156.31578947368422" fill="hsla(329, 74%, 51%, 1.00)" stroke="none"></rect><rect width="7.368421052631579" height="7.368421052631579" x="636.3157894736842" y="156.31578947368422" fill="hsla(84, 70%, 65%, 1.00)" stroke="none"></rect><rect width="7.368421052631579" height="7.368421052631579" x="716.3157894736842" y="156.31578947368422" fill="hsla(329, 74%, 51%, 1.00)" stroke="none"></rect><rect width="7.368421052631579" height="7.368421052631579" x="796.3157894736842" y="156.31578947368422" fill="hsla(84, 70%, 65%, 1.00)" stroke="none"></rect><rect width="7.368421052631579" height="7.368421052631579" x="-3.6842105263157894" y="236.31578947368422" fill="hsla(329, 74%, 51%, 1.00)" stroke="none"></rect><rect width="7.368421052631579" height="7.368421052631579" x="76.3157894736842" y="236.31578947368422" fill="hsla(84, 70%, 65%, 1.00)" stroke="none"></rect><rect width="7.368421052631579" height="7.368421052631579" x="156.31578947368422" y="236.31578947368422" fill="hsla(329, 74%, 51%, 1.00)" stroke="none"></rect><rect width="7.368421052631579" height="7.368421052631579" x="236.31578947368422" y="236.31578947368422" fill="hsla(84, 70%, 65%, 1.00)" stroke="none"></rect><rect width="7.368421052631579" height="7.368421052631579" x="316.3157894736842" y="236.31578947368422" fill="hsla(329, 74%, 51%, 1.00)" stroke="none"></rect><rect width="7.368421052631579" height="7.368421052631579" x="396.3157894736842" y="236.31578947368422" fill="hsla(84, 70%, 65%, 1.00)" stroke="none"></rect><rect width="7.368421052631579" height="7.368421052631579" x="476.3157894736842" y="236.31578947368422" fill="hsla(329, 74%, 51%, 1.00)" stroke="none"></rect><rect width="7.368421052631579" height="7.368421052631579" x="556.3157894736842" y="236.31578947368422" fill="hsla(84, 70%, 65%, 1.00)" stroke="none"></rect><rect width="7.368421052631579" height="7.368421052631579" x="636.3157894736842" y="236.31578947368422" fill="hsla(329, 74%, 51%, 1.00)" stroke="none"></rect><rect width="7.368421052631579" height="7.368421052631579" x="716.3157894736842" y="236.31578947368422" fill="hsla(84, 70%, 65%, 1.00)" stroke="none"></rect><rect width="7.368421052631579" height="7.368421052631579" x="796.3157894736842" y="236.31578947368422" fill="hsla(329, 74%, 51%, 1.00)" stroke="none"></rect><rect width="7.368421052631579" height="7.368421052631579" x="-3.6842105263157894" y="316.3157894736842" fill="hsla(84, 70%, 65%, 1.00)" stroke="none"></rect><rect width="7.368421052631579" height="7.368421052631579" x="76.3157894736842" y="316.3157894736842" fill="hsla(329, 74%, 51%, 1.00)" stroke="none"></rect><rect width="7.368421052631579" height="7.368421052631579" x="156.31578947368422" y="316.3157894736842" fill="hsla(84, 70%, 65%, 1.00)" stroke="none"></rect><rect width="7.368421052631579" height="7.368421052631579" x="236.31578947368422" y="316.3157894736842" fill="hsla(329, 74%, 51%, 1.00)" stroke="none"></rect><rect width="7.368421052631579" height="7.368421052631579" x="316.3157894736842" y="316.3157894736842" fill="hsla(84, 70%, 65%, 1.00)" stroke="none"></rect><rect width="7.368421052631579" height="7.368421052631579" x="396.3157894736842" y="316.3157894736842" fill="hsla(329, 74%, 51%, 1.00)" stroke="none"></rect><rect width="7.368421052631579" height="7.368421052631579" x="476.3157894736842" y="316.3157894736842" fill="hsla(84, 70%, 65%, 1.00)" stroke="none"></rect><rect width="7.368421052631579" height="7.368421052631579" x="556.3157894736842" y="316.3157894736842" fill="hsla(329, 74%, 51%, 1.00)" stroke="none"></rect><rect width="7.368421052631579" height="7.368421052631579" x="636.3157894736842" y="316.3157894736842" fill="hsla(84, 70%, 65%, 1.00)" stroke="none"></rect><rect width="7.368421052631579" height="7.368421052631579" x="716.3157894736842" y="316.3157894736842" fill="hsla(329, 74%, 51%, 1.00)" stroke="none"></rect><rect width="7.368421052631579" height="7.368421052631579" x="796.3157894736842" y="316.3157894736842" fill="hsla(84, 70%, 65%, 1.00)" stroke="none"></rect><rect width="7.368421052631579" height="7.368421052631579" x="-3.6842105263157894" y="396.3157894736842" fill="hsla(329, 74%, 51%, 1.00)" stroke="none"></rect><rect width="7.368421052631579" height="7.368421052631579" x="76.3157894736842" y="396.3157894736842" fill="hsla(84, 70%, 65%, 1.00)" stroke="none"></rect><rect width="7.368421052631579" height="7.368421052631579" x="156.31578947368422" y="396.3157894736842" fill="hsla(329, 74%, 51%, 1.00)" stroke="none"></rect><rect width="7.368421052631579" height="7.368421052631579" x="236.31578947368422" y="396.3157894736842" fill="hsla(84, 70%, 65%, 1.00)" stroke="none"></rect><rect width="7.368421052631579" height="7.368421052631579" x="316.3157894736842" y="396.3157894736842" fill="hsla(329, 74%, 51%, 1.00)" stroke="none"></rect><rect width="7.368421052631579" height="7.368421052631579" x="396.3157894736842" y="396.3157894736842" fill="hsla(84, 70%, 65%, 1.00)" stroke="none"></rect><rect width="7.368421052631579" height="7.368421052631579" x="476.3157894736842" y="396.3157894736842" fill="hsla(329, 74%, 51%, 1.00)" stroke="none"></rect><rect width="7.368421052631579" height="7.368421052631579" x="556.3157894736842" y="396.3157894736842" fill="hsla(84, 70%, 65%, 1.00)" stroke="none"></rect><rect width="7.368421052631579" height="7.368421052631579" x="636.3157894736842" y="396.3157894736842" fill="hsla(329, 74%, 51%, 1.00)" stroke="none"></rect><rect width="7.368421052631579" height="7.368421052631579" x="716.3157894736842" y="396.3157894736842" fill="hsla(84, 70%, 65%, 1.00)" stroke="none"></rect><rect width="7.368421052631579" height="7.368421052631579" x="796.3157894736842" y="396.3157894736842" fill="hsla(329, 74%, 51%, 1.00)" stroke="none"></rect><rect width="7.368421052631579" height="7.368421052631579" x="-3.6842105263157894" y="476.3157894736842" fill="hsla(84, 70%, 65%, 1.00)" stroke="none"></rect><rect width="7.368421052631579" height="7.368421052631579" x="76.3157894736842" y="476.3157894736842" fill="hsla(329, 74%, 51%, 1.00)" stroke="none"></rect><rect width="7.368421052631579" height="7.368421052631579" x="156.31578947368422" y="476.3157894736842" fill="hsla(84, 70%, 65%, 1.00)" stroke="none"></rect><rect width="7.368421052631579" height="7.368421052631579" x="236.31578947368422" y="476.3157894736842" fill="hsla(329, 74%, 51%, 1.00)" stroke="none"></rect><rect width="7.368421052631579" height="7.368421052631579" x="316.3157894736842" y="476.3157894736842" fill="hsla(84, 70%, 65%, 1.00)" stroke="none"></rect><rect width="7.368421052631579" height="7.368421052631579" x="396.3157894736842" y="476.3157894736842" fill="hsla(329, 74%, 51%, 1.00)" stroke="none"></rect><rect width="7.368421052631579" height="7.368421052631579" x="476.3157894736842" y="476.3157894736842" fill="hsla(84, 70%, 65%, 1.00)" stroke="none"></rect><rect width="7.368421052631579" height="7.368421052631579" x="556.3157894736842" y="476.3157894736842" fill="hsla(329, 74%, 51%, 1.00)" stroke="none"></rect><rect width="7.368421052631579" height="7.368421052631579" x="636.3157894736842" y="476.3157894736842" fill="hsla(84, 70%, 65%, 1.00)" stroke="none"></rect><rect width="7.368421052631579" height="7.368421052631579" x="716.3157894736842" y="476.3157894736842" fill="hsla(329, 74%, 51%, 1.00)" stroke="none"></rect><rect width="7.368421052631579" height="7.368421052631579" x="796.3157894736842" y="476.3157894736842" fill="hsla(84, 70%, 65%, 1.00)" stroke="none"></rect><rect width="7.368421052631579" height="7.368421052631579" x="-3.6842105263157894" y="556.3157894736842" fill="hsla(329, 74%, 51%, 1.00)" stroke="none"></rect><rect width="7.368421052631579" height="7.368421052631579" x="76.3157894736842" y="556.3157894736842" fill="hsla(84, 70%, 65%, 1.00)" stroke="none"></rect><rect width="7.368421052631579" height="7.368421052631579" x="156.31578947368422" y="556.3157894736842" fill="hsla(329, 74%, 51%, 1.00)" stroke="none"></rect><rect width="7.368421052631579" height="7.368421052631579" x="236.31578947368422" y="556.3157894736842" fill="hsla(84, 70%, 65%, 1.00)" stroke="none"></rect><rect width="7.368421052631579" height="7.368421052631579" x="316.3157894736842" y="556.3157894736842" fill="hsla(329, 74%, 51%, 1.00)" stroke="none"></rect><rect width="7.368421052631579" height="7.368421052631579" x="396.3157894736842" y="556.3157894736842" fill="hsla(84, 70%, 65%, 1.00)" stroke="none"></rect><rect width="7.368421052631579" height="7.368421052631579" x="476.3157894736842" y="556.3157894736842" fill="hsla(329, 74%, 51%, 1.00)" stroke="none"></rect><rect width="7.368421052631579" height="7.368421052631579" x="556.3157894736842" y="556.3157894736842" fill="hsla(84, 70%, 65%, 1.00)" stroke="none"></rect><rect width="7.368421052631579" height="7.368421052631579" x="636.3157894736842" y="556.3157894736842" fill="hsla(329, 74%, 51%, 1.00)" stroke="none"></rect><rect width="7.368421052631579" height="7.368421052631579" x="716.3157894736842" y="556.3157894736842" fill="hsla(84, 70%, 65%, 1.00)" stroke="none"></rect><rect width="7.368421052631579" height="7.368421052631579" x="796.3157894736842" y="556.3157894736842" fill="hsla(329, 74%, 51%, 1.00)" stroke="none"></rect><rect width="7.368421052631579" height="7.368421052631579" x="-3.6842105263157894" y="636.3157894736842" fill="hsla(84, 70%, 65%, 1.00)" stroke="none"></rect><rect width="7.368421052631579" height="7.368421052631579" x="76.3157894736842" y="636.3157894736842" fill="hsla(329, 74%, 51%, 1.00)" stroke="none"></rect><rect width="7.368421052631579" height="7.368421052631579" x="156.31578947368422" y="636.3157894736842" fill="hsla(84, 70%, 65%, 1.00)" stroke="none"></rect><rect width="7.368421052631579" height="7.368421052631579" x="236.31578947368422" y="636.3157894736842" fill="hsla(329, 74%, 51%, 1.00)" stroke="none"></rect><rect width="7.368421052631579" height="7.368421052631579" x="316.3157894736842" y="636.3157894736842" fill="hsla(84, 70%, 65%, 1.00)" stroke="none"></rect><rect width="7.368421052631579" height="7.368421052631579" x="396.3157894736842" y="636.3157894736842" fill="hsla(329, 74%, 51%, 1.00)" stroke="none"></rect><rect width="7.368421052631579" height="7.368421052631579" x="476.3157894736842" y="636.3157894736842" fill="hsla(84, 70%, 65%, 1.00)" stroke="none"></rect><rect width="7.368421052631579" height="7.368421052631579" x="556.3157894736842" y="636.3157894736842" fill="hsla(329, 74%, 51%, 1.00)" stroke="none"></rect><rect width="7.368421052631579" height="7.368421052631579" x="636.3157894736842" y="636.3157894736842" fill="hsla(84, 70%, 65%, 1.00)" stroke="none"></rect><rect width="7.368421052631579" height="7.368421052631579" x="716.3157894736842" y="636.3157894736842" fill="hsla(329, 74%, 51%, 1.00)" stroke="none"></rect><rect width="7.368421052631579" height="7.368421052631579" x="796.3157894736842" y="636.3157894736842" fill="hsla(84, 70%, 65%, 1.00)" stroke="none"></rect><rect width="7.368421052631579" height="7.368421052631579" x="-3.6842105263157894" y="716.3157894736842" fill="hsla(329, 74%, 51%, 1.00)" stroke="none"></rect><rect width="7.368421052631579" height="7.368421052631579" x="76.3157894736842" y="716.3157894736842" fill="hsla(84, 70%, 65%, 1.00)" stroke="none"></rect><rect width="7.368421052631579" height="7.368421052631579" x="156.31578947368422" y="716.3157894736842" fill="hsla(329, 74%, 51%, 1.00)" stroke="none"></rect><rect width="7.368421052631579" height="7.368421052631579" x="236.31578947368422" y="716.3157894736842" fill="hsla(84, 70%, 65%, 1.00)" stroke="none"></rect><rect width="7.368421052631579" height="7.368421052631579" x="316.3157894736842" y="716.3157894736842" fill="hsla(329, 74%, 51%, 1.00)" stroke="none"></rect><rect width="7.368421052631579" height="7.368421052631579" x="396.3157894736842" y="716.3157894736842" fill="hsla(84, 70%, 65%, 1.00)" stroke="none"></rect><rect width="7.368421052631579" height="7.368421052631579" x="476.3157894736842" y="716.3157894736842" fill="hsla(329, 74%, 51%, 1.00)" stroke="none"></rect><rect width="7.368421052631579" height="7.368421052631579" x="556.3157894736842" y="716.3157894736842" fill="hsla(84, 70%, 65%, 1.00)" stroke="none"></rect><rect width="7.368421052631579" height="7.368421052631579" x="636.3157894736842" y="716.3157894736842" fill="hsla(329, 74%, 51%, 1.00)" stroke="none"></rect><rect width="7.368421052631579" height="7.368421052631579" x="716.3157894736842" y="716.3157894736842" fill="hsla(84, 70%, 65%, 1.00)" stroke="none"></rect><rect width="7.368421052631579" height="7.368421052631579" x="796.3157894736842" y="716.3157894736842" fill="hsla(329, 74%, 51%, 1.00)" stroke="none"></rect><rect width="7.368421052631579" height="7.368421052631579" x="-3.6842105263157894" y="796.3157894736842" fill="hsla(84, 70%, 65%, 1.00)" stroke="none"></rect><rect width="7.368421052631579" height="7.368421052631579" x="76.3157894736842" y="796.3157894736842" fill="hsla(329, 74%, 51%, 1.00)" stroke="none"></rect><rect width="7.368421052631579" height="7.368421052631579" x="156.31578947368422" y="796.3157894736842" fill="hsla(84, 70%, 65%, 1.00)" stroke="none"></rect><rect width="7.368421052631579" height="7.368421052631579" x="236.31578947368422" y="796.3157894736842" fill="hsla(329, 74%, 51%, 1.00)" stroke="none"></rect><rect width="7.368421052631579" height="7.368421052631579" x="316.3157894736842" y="796.3157894736842" fill="hsla(84, 70%, 65%, 1.00)" stroke="none"></rect><rect width="7.368421052631579" height="7.368421052631579" x="396.3157894736842" y="796.3157894736842" fill="hsla(329, 74%, 51%, 1.00)" stroke="none"></rect><rect width="7.368421052631579" height="7.368421052631579" x="476.3157894736842" y="796.3157894736842" fill="hsla(84, 70%, 65%, 1.00)" stroke="none"></rect><rect width="7.368421052631579" height="7.368421052631579" x="556.3157894736842" y="796.3157894736842" fill="hsla(329, 74%, 51%, 1.00)" stroke="none"></rect><rect width="7.368421052631579" height="7.368421052631579" x="636.3157894736842" y="796.3157894736842" fill="hsla(84, 70%, 65%, 1.00)" stroke="none"></rect><rect width="7.368421052631579" height="7.368421052631579" x="716.3157894736842" y="796.3157894736842" fill="hsla(329, 74%, 51%, 1.00)" stroke="none"></rect><rect width="7.368421052631579" height="7.368421052631579" x="796.3157894736842" y="796.3157894736842" fill="hsla(84, 70%, 65%, 1.00)" stroke="none"></rect></g></svg>