<svg xmlns="http://www.w3.org/2000/svg" version="1.1" xmlns:xlink="http://www.w3.org/1999/xlink" xmlns:svgjs="http://svgjs.dev/svgjs" viewBox="0 0 800 800"><defs><filter id="ssspot-filter" x="-20%" y="-20%" width="140%" height="140%" filterUnits="objectBoundingBox" primitiveUnits="userSpaceOnUse" color-interpolation-filters="sRGB">
	<feTurbulence type="turbulence" baseFrequency="0.022 0.218" numOctaves="2" seed="53" stitchTiles="stitch" x="0%" y="0%" width="100%" height="100%" result="turbulence"></feTurbulence>
	<feGaussianBlur stdDeviation="0 3" x="0%" y="0%" width="100%" height="100%" in="turbulence" edgeMode="duplicate" result="blur"></feGaussianBlur>
	<feDisplacementMap in="SourceGraphic" in2="blur" scale="32" xChannelSelector="R" yChannelSelector="B" x="0%" y="0%" width="100%" height="100%" result="displacementMap"></feDisplacementMap>
</filter></defs><rect width="100%" height="100%" fill="hsl(0, 0%, 100%)"></rect><g fill="hsl(208, 42%, 79%)" filter="url(#ssspot-filter)"><circle r="5.3775971936072215" cx="161.79050244046434" cy="233.00589023859953" opacity="0.1953801498977843"></circle><circle r="6.407778982674287" cx="114.01582176995223" cy="201.58592149074028" opacity="0.5891286055892272"></circle><circle r="6.1415571582222865" cx="383.65489037969064" cy="351.20224635842465" opacity="0.8027291338974644"></circle><circle r="4.09836084080772" cx="439.33996135049483" cy="228.17026438960244" opacity="0.8219922341334076"></circle><circle r="3.5458451617929905" cx="527.7680095809483" cy="454.3705202132278" opacity="0.4092754494993526"></circle><circle r="6.456671795263181" cx="67.13447427317739" cy="545.7337087110138" opacity="0.9793362467010959"></circle><circle r="6.129726989964719" cx="17.724086580513067" cy="560.9081926035594" opacity="0.16574094823234004"></circle><circle r="3.6935519144812647" cx="161.7216458476285" cy="107.14441786398632" opacity="0.3569479146820037"></circle><circle r="3.28139364915332" cx="777.2172383846771" cy="113.71990118209152" opacity="0.8360133230581778"></circle><circle r="5.435459573599561" cx="644.34514105642" cy="786.6445323722428" opacity="0.4757628280891255"></circle><circle r="4.495259405133561" cx="277.3937165813286" cy="438.5555191337328" opacity="0.48681638741357236"></circle><circle r="4.942697732726661" cx="393.87008858774" cy="419.57298314639166" opacity="0.8543900901389356"></circle><circle r="3.729318920484225" cx="235.97222340544502" cy="347.1789813435789" opacity="0.5201400846394169"></circle><circle r="5.799171910034412" cx="70.60004689521061" cy="675.8315808662633" opacity="0.6278517500252052"></circle><circle r="3.9138271471705064" cx="731.1213336485313" cy="654.8882508669229" opacity="0.5922937327194745"></circle><circle r="7.78120619372242" cx="374.5454422467623" cy="613.7218500026162" opacity="0.20550317180388614"></circle><circle r="6.514043599829305" cx="649.3027638178797" cy="638.5519493703538" opacity="0.5511315636415198"></circle><circle r="5.815198324284092" cx="313.9668873015904" cy="240.1787988395522" opacity="0.2256931064235427"></circle><circle r="4.068612616070258" cx="298.97845315894375" cy="774.4883961294559" opacity="0.4451506128576359"></circle><circle r="4.983728731339078" cx="29.12021896014857" cy="602.3067808421995" opacity="0.7730625341575702"></circle><circle r="9.057264812119415" cx="676.0019615739762" cy="504.91317624040283" opacity="0.15946689654171364"></circle><circle r="4.562502077598623" cx="208.75869373619486" cy="169.861407689338" opacity="0.31132676022496586"></circle><circle r="4.428808800780463" cx="489.26345774958355" cy="235.72739309814125" opacity="0.7231161176878107"></circle><circle r="4.189694709083153" cx="608.7183825474646" cy="548.070588656492" opacity="0.33906507004070563"></circle><circle r="3.8839239310961586" cx="547.4232840873646" cy="184.65276035864142" opacity="0.8730627201666781"></circle><circle r="3.6759438937976463" cx="392.63105505600055" cy="281.50082070649336" opacity="0.3936736048334445"></circle><circle r="6.817708666779486" cx="658.0850868602496" cy="19.998545230225094" opacity="0.1099592443034374"></circle><circle r="6.818326139174569" cx="178.6765926225926" cy="428.6939706448998" opacity="0.4777187587884991"></circle><circle r="8.271685575101353" cx="651.3757286501943" cy="126.76747273499286" opacity="0.2147314052379748"></circle><circle r="5.02684253369329" cx="348.62274891265974" cy="339.69098911570836" opacity="0.86012294544828"></circle><circle r="10.119223075710439" cx="286.59037836896925" cy="563.2268466822933" opacity="0.13418274180534287"></circle><circle r="4.952044428212585" cx="472.8775478886139" cy="523.9263964122188" opacity="0.10747348894736013"></circle><circle r="5.530052781864246" cx="18.118571288300537" cy="160.73470964103365" opacity="0.40261954297211244"></circle><circle r="5.456189647706957" cx="629.2705050151162" cy="311.67168352410556" opacity="0.5171759080709186"></circle><circle r="3.1675960515310244" cx="604.8905755761406" cy="251.42024861870493" opacity="0.8917905561790066"></circle><circle r="7.815787517576963" cx="363.8074336883813" cy="274.876012853209" opacity="0.1677880834507951"></circle><circle r="4.620887209960525" cx="402.5768393367035" cy="528.2651132889615" opacity="0.8076808430426228"></circle><circle r="5.482942360715651" cx="262.2977204610088" cy="663.0444135114316" opacity="0.9517026419382519"></circle><circle r="8.575694267585785" cx="595.1485478634467" cy="696.5599325205565" opacity="0.3821893697728064"></circle><circle r="7.0093710390769015" cx="759.031132776824" cy="709.6673598930372" opacity="0.26613857584442924"></circle><circle r="5.638074567813145" cx="689.402520983885" cy="545.6371916761628" opacity="0.21885494467452898"></circle><circle r="6.302984488244632" cx="344.1567088428954" cy="408.05981365594164" opacity="0.6728172871682567"></circle><circle r="4.060557419763499" cx="658.5851459064328" cy="398.3752717561653" opacity="0.4796111577368315"></circle><circle r="5.072491581480163" cx="434.20677134879236" cy="432.8972105014183" opacity="0.4052777963144042"></circle><circle r="4.267734571440466" cx="336.8483070340198" cy="366.17539672444656" opacity="0.23927340768515634"></circle><circle r="5.353942368690526" cx="210.3350541767874" cy="785.7462798402106" opacity="0.5834185686751027"></circle><circle r="5.837705136161238" cx="126.17019915625774" cy="638.5597993463215" opacity="0.7940612773041673"></circle><circle r="2.675582595652344" cx="343.06344852549114" cy="190.45906303856123" opacity="0.47039435808448815"></circle><circle r="4.47254977188917" cx="425.6059834554367" cy="375.8650217176682" opacity="0.9967034169210149"></circle><circle r="7.089491841116459" cx="117.47443039477004" cy="15.70999171304756" opacity="0.6673185735748017"></circle><circle r="2.721484279787705" cx="493.8357941724011" cy="423.0534435090979" opacity="0.36971285004745946"></circle><circle r="3.80966169419811" cx="386.990732969907" cy="467.84601177747464" opacity="0.4721072237796181"></circle><circle r="7.5866082550965" cx="684.7891651482528" cy="44.10596405475387" opacity="0.1592189364253948"></circle><circle r="6.81374545691725" cx="505.5352119055834" cy="666.6078888678799" opacity="0.32393001960134116"></circle><circle r="8.005911025791677" cx="210.61260589208237" cy="660.8262529498936" opacity="0.31649464805169397"></circle><circle r="5.347157032575257" cx="234.66249705127348" cy="136.47251203747948" opacity="0.9900567957083598"></circle><circle r="4.919648772459673" cx="95.51334043467736" cy="306.34394517459856" opacity="0.5002161754654019"></circle><circle r="4.058217912886602" cx="230.53486258296374" cy="733.2913586245098" opacity="0.7787221496394214"></circle><circle r="4.24499317689353" cx="59.681954217028576" cy="32.89819251464961" opacity="0.7813500722025863"></circle><circle r="7.396753470051994" cx="406.3208829260692" cy="325.6492594634967" opacity="0.9722419272883671"></circle><circle r="9.247098960139356" cx="710.124160975953" cy="471.4280637267523" opacity="0.8295676592665575"></circle><circle r="3.3558571727847086" cx="494.73213449670277" cy="582.6417490530143" opacity="0.19192820389935691"></circle><circle r="8.807461193150129" cx="238.89509625885634" cy="545.4441062659901" opacity="0.15594480344087783"></circle><circle r="5.906482864842069" cx="322.63471154975167" cy="319.657879802221" opacity="0.5706009248669962"></circle><circle r="4.164557542669201" cx="736.4747979866877" cy="110.36608388731445" opacity="0.13335618838110347"></circle><circle r="2.7371496280754606" cx="83.42583036363335" cy="16.778382938675904" opacity="0.1492010448856929"></circle><circle r="8.989680765618314" cx="58.61700414084286" cy="741.0713332020323" opacity="0.2510676627659536"></circle><circle r="8.270385047314372" cx="303.7642260697903" cy="61.19642665459304" opacity="0.15299867762720706"></circle><circle r="5.008329198408319" cx="658.9773384193969" cy="722.0339670070167" opacity="0.2569862262410424"></circle><circle r="3.0333019223480444" cx="114.1822327174288" cy="227.29756631763357" opacity="0.3682870345244411"></circle><circle r="5.372517947343612" cx="110.0976427545144" cy="597.8658189853784" opacity="0.2307197948864575"></circle><circle r="4.794996168382981" cx="645.0763697929913" cy="490.4398694432653" opacity="0.296325020124662"></circle><circle r="8.338250386347575" cx="321.8295994729052" cy="100.34345709671094" opacity="0.43354752699450416"></circle><circle r="4.250984953157198" cx="158.41601639176736" cy="636.9477890322381" opacity="0.8819639392833545"></circle><circle r="6.1392893958559664" cx="266.90206038282304" cy="281.9901002010715" opacity="0.7375431817311772"></circle><circle r="5.1632944042212285" cx="621.6176944778372" cy="270.7980000167276" opacity="0.5581094088909694"></circle><circle r="4.040172221293632" cx="204.80541270447927" cy="97.91032243110023" opacity="0.26537261225797637"></circle><circle r="5.0340518823448015" cx="94.54611294793322" cy="559.7695398300048" opacity="0.756563784051927"></circle><circle r="6.575689725696119" cx="696.9401483052301" cy="98.34022146763937" opacity="0.25437319663442565"></circle><circle r="3.9952722975953607" cx="665.7528057671664" cy="603.8882723712267" opacity="0.4297876262529726"></circle><circle r="7.045229129097996" cx="166.63735454221845" cy="555.5708427101686" opacity="0.7584584845567767"></circle><circle r="3.2847146235575404" cx="480.92321089139665" cy="557.7845168181175" opacity="0.45380370266794345"></circle><circle r="4.779472735243761" cx="641.4274033015248" cy="375.9359912638723" opacity="0.33294275836641063"></circle><circle r="5.9175749013456125" cx="514.113586912652" cy="775.1960274493734" opacity="0.5519749190276585"></circle><circle r="6.494431878295315" cx="164.77584366713478" cy="717.0353312785892" opacity="0.3318624388551392"></circle><circle r="9.706411472742623" cx="734.2332057748864" cy="417.02454304148864" opacity="0.7034356121470156"></circle><circle r="4.566584727362462" cx="179.1188969971881" cy="677.0147970422829" opacity="0.14279876268893937"></circle><circle r="5.611638982753625" cx="747.0506954073306" cy="575.9699469031663" opacity="0.28295905676269406"></circle><circle r="4.972246951491147" cx="97.91280253303152" cy="464.2672871050053" opacity="0.41400259027554165"></circle><circle r="3.8585062486594985" cx="50.61103705196174" cy="316.51172938642543" opacity="0.9125310200304217"></circle><circle r="5.192416613744312" cx="241.5292588388557" cy="90.06501498385406" opacity="0.7089903392394618"></circle><circle r="5.65891222441304" cx="17.23751478422553" cy="14.204827404086872" opacity="0.9432049970821935"></circle><circle r="8.343951440147537" cx="413.49751756076284" cy="61.40076218802946" opacity="0.9809987082673984"></circle><circle r="8.718771256787576" cx="779.4702245546665" cy="377.91588798634615" opacity="0.7477511669761979"></circle><circle r="4.711858431750221" cx="299.4690425291428" cy="268.05014832079377" opacity="0.19243969544670658"></circle><circle r="7.87009760910899" cx="285.93362256503104" cy="317.41448992200947" opacity="0.10965356360498674"></circle><circle r="5.250535090880346" cx="691.3921148089273" cy="328.26386942688663" opacity="0.7240097034737315"></circle><circle r="5.412653273952507" cx="324.2856263525592" cy="676.8771704824859" opacity="0.5567794973854983"></circle><circle r="6.2063978618428965" cx="453.5899331602882" cy="84.83446879904201" opacity="0.4533172742929914"></circle><circle r="4.094469554234131" cx="95.21184222164858" cy="269.9785222147137" opacity="0.964916768960894"></circle><circle r="4.244127035451977" cx="104.3240048473727" cy="681.413991499225" opacity="0.2678004476047886"></circle><circle r="7.776973025232412" cx="282.18081207184963" cy="94.33839788194929" opacity="0.6391119257449903"></circle><circle r="4.328376631741545" cx="202.81877191026726" cy="321.7391259145033" opacity="0.30231428655415654"></circle><circle r="6.422146420322681" cx="241.93341409625555" cy="786.6407818036415" opacity="0.7571338563883154"></circle><circle r="3.6731524615479323" cx="764.4549766083924" cy="146.7253493396729" opacity="0.6732160761803171"></circle><circle r="5.027490077401458" cx="789.1974609531969" cy="140.55063723737624" opacity="0.7032307698606617"></circle><circle r="4.173585930760722" cx="98.9165401016588" cy="124.0710440800108" opacity="0.1608841998566384"></circle><circle r="7.008553322763349" cx="196.38848950585174" cy="281.93191664118945" opacity="0.12535021490188802"></circle><circle r="4.079677240356145" cx="11.16469447986894" cy="375.9675559635029" opacity="0.3019217054997462"></circle><circle r="7.124534389360768" cx="674.038050804519" cy="677.6065626118877" opacity="0.6813815995979894"></circle><circle r="5.992402120489764" cx="692.5076164883795" cy="205.49733286633776" opacity="0.13996993910098116"></circle><circle r="4.895528310906201" cx="249.43368454074266" cy="418.7222348413361" opacity="0.7586508831862432"></circle><circle r="5.325262005105883" cx="233.3999220959101" cy="590.105960696032" opacity="0.14133936958697388"></circle><circle r="5.766348568129629" cx="32.85223917381997" cy="273.1467122799515" opacity="0.2173845305307049"></circle><circle r="4.4738417325565525" cx="720.7571277198929" cy="784.2553810760472" opacity="0.3286968496562903"></circle><circle r="6.9383095354791084" cx="337.49881133391904" cy="262.24404076494676" opacity="0.6651739997530868"></circle><circle r="5.604653294178682" cx="768.2473887129538" cy="675.7803591585437" opacity="0.43493965563834847"></circle><circle r="4.935287302430956" cx="570.5366045930998" cy="734.615044067676" opacity="0.4558556836115846"></circle><circle r="6.689362487893868" cx="664.6537164969435" cy="763.8734110841225" opacity="0.5750766186483144"></circle><circle r="5.936026346235479" cx="752.1751099160971" cy="209.48930905365685" opacity="0.32890388226377565"></circle><circle r="2.8061677540230066" cx="669.5348321609767" cy="555.6068290087971" opacity="0.36951424202361927"></circle><circle r="5.042710074005655" cx="62.91033780174549" cy="237.30720660251444" opacity="0.9489577895671849"></circle><circle r="6.576022096975802" cx="599.0719140680303" cy="108.39377486990291" opacity="0.36574714524133833"></circle><circle r="6.9660084669840625" cx="497.09047387279367" cy="90.45657406884517" opacity="0.5312983603042504"></circle><circle r="5.246018713732447" cx="787.8023559721405" cy="211.82088438110696" opacity="0.6905858568173451"></circle><circle r="3.1386705643973793" cx="742.3662172658303" cy="681.7882606907823" opacity="0.4181260930782349"></circle><circle r="7.724250377619597" cx="756.1228961684147" cy="488.95305201130344" opacity="0.19926224236349366"></circle><circle r="7.277245906133167" cx="281.4912436182543" cy="492.2797755003548" opacity="0.16251125325058224"></circle><circle r="6.867293306506021" cx="62.47079202616878" cy="396.25054653936314" opacity="0.862185057370849"></circle><circle r="3.6782241654053696" cx="500.8856788075908" cy="441.6916298117717" opacity="0.5439786831537172"></circle><circle r="5.334344900961071" cx="354.0988710163457" cy="440.7765848371955" opacity="0.5820912965813461"></circle><circle r="5.999819897621188" cx="545.5506204346286" cy="783.4131998741603" opacity="0.6226811268813873"></circle><circle r="3.499524051349013" cx="550.5032182280885" cy="209.91680731453843" opacity="0.936442013165309"></circle><circle r="4.551479593732364" cx="245.5631210993536" cy="691.540985255779" opacity="0.20785731698570287"></circle><circle r="5.808929842849834" cx="602.7498092953409" cy="449.634875704266" opacity="0.6820769055633555"></circle><circle r="7.416784014909721" cx="141.5272952465167" cy="299.3188855112667" opacity="0.9651107019145244"></circle><circle r="6.303331163880463" cx="452.8689355056985" cy="579.512975258296" opacity="0.8853492183717712"></circle><circle r="6.89354000042141" cx="526.5995386985305" cy="736.6621004962428" opacity="0.7195740596245993"></circle><circle r="5.833895220415064" cx="507.0435845362652" cy="318.38082571593026" opacity="0.161751938946593"></circle><circle r="4.058875603092605" cx="97.2104762918367" cy="39.37748950054778" opacity="0.18214373634953612"></circle><circle r="5.310117324698734" cx="317.0504546276722" cy="173.14230859195382" opacity="0.5232627443573669"></circle><circle r="4.156643042617682" cx="377.0105727029719" cy="151.1307289928763" opacity="0.32481240346076445"></circle><circle r="5.6753715255111254" cx="288.5251698992626" cy="20.50901103870115" opacity="0.3280244608306088"></circle><circle r="4.207917473937702" cx="149.33366759116186" cy="693.6340337859283" opacity="0.25021523359220543"></circle><circle r="5.635539580277728" cx="426.905882241851" cy="353.6655280792355" opacity="0.2784317012574862"></circle><circle r="3.6269814088982884" cx="726.6515270681216" cy="752.1326664897416" opacity="0.7470699478816543"></circle><circle r="6.665417254599484" cx="85.57993142320775" cy="709.6718790921441" opacity="0.6358083034306997"></circle><circle r="6.071354373236086" cx="379.7600062151797" cy="199.4896633723117" opacity="0.38469851217161066"></circle><circle r="5.031400221668376" cx="100.33474783822186" cy="151.40911055162286" opacity="0.8134491860604036"></circle><circle r="7.034137977566669" cx="729.7062855585424" cy="337.2653529070406" opacity="0.8439081319004157"></circle><circle r="4.525490428631825" cx="598.6306253419286" cy="748.2681822475421" opacity="0.35038768884284277"></circle><circle r="4.8825879760890345" cx="788.7473488184004" cy="655.7860260770389" opacity="0.12261935563888224"></circle><circle r="5.712024324753917" cx="71.91831451508509" cy="318.11989262947003" opacity="0.7592296453739378"></circle><circle r="7.6742474923535156" cx="304.3697930787928" cy="350.380844254517" opacity="0.5089522687086379"></circle><circle r="9.146865895717276" cx="199.85615684914197" cy="569.7671334074732" opacity="0.7106381341277664"></circle><circle r="3.1257611727820755" cx="10.423570369271179" cy="323.1858062342516" opacity="0.18636482732086823"></circle><circle r="8.694779582648062" cx="22.73740218958201" cy="405.6739758098458" opacity="0.6214924420681012"></circle><circle r="4.480343178225274" cx="759.2637971868811" cy="66.43273859118551" opacity="0.47699554880035766"></circle><circle r="6.863564964876035" cx="571.7181250448211" cy="773.8877937375571" opacity="0.9008965350247632"></circle><circle r="5.953924760195093" cx="719.5911581623847" cy="17.031746171125455" opacity="0.2406035222672143"></circle><circle r="6.510309934562853" cx="559.4408213049605" cy="401.1095154645043" opacity="0.31893426227772603"></circle><circle r="5.028421058837884" cx="349.46508557441865" cy="227.28029268140415" opacity="0.8893395382690455"></circle><circle r="2.868958857560688" cx="10.436301693894267" cy="297.76301514834904" opacity="0.5076179392525737"></circle><circle r="6.148616285432158" cx="484.4567642126664" cy="399.1469931526865" opacity="0.979006233230478"></circle><circle r="4.620274750900946" cx="458.5311390289957" cy="462.6195949905219" opacity="0.6669536031912325"></circle><circle r="3.355260655440336" cx="721.7478222242138" cy="587.5391700602614" opacity="0.4116727529470926"></circle><circle r="5.707872800728815" cx="524.6604371361294" cy="361.2503226775041" opacity="0.5358409406283196"></circle><circle r="5.361549259432581" cx="355.2341353976365" cy="650.38501774619" opacity="0.7699263632798771"></circle><circle r="6.201615037086224" cx="407.00648705164326" cy="203.10536154164862" opacity="0.6789802475425065"></circle><circle r="5.112121138164369" cx="242.1836893174828" cy="13.819395213721668" opacity="0.866949652260887"></circle><circle r="4.109436274197256" cx="48.60740786320317" cy="121.3362596539523" opacity="0.1773179467231072"></circle><circle r="5.083324684871338" cx="777.8362976422966" cy="13.142923791212956" opacity="0.6592954887760979"></circle><circle r="8.959033109927041" cx="120.69528188463363" cy="780.2324160472955" opacity="0.7339667336585719"></circle><circle r="4.8732984433304685" cx="387.1298166091765" cy="496.0695079727072" opacity="0.5277815595590533"></circle><circle r="2.392842755824431" cx="61.134660362075984" cy="7.331544620691642" opacity="0.9305027529158153"></circle><circle r="2.074016517962972" cx="736.3504424164687" cy="794.2562209836069" opacity="0.2544420125484283"></circle><circle r="3.905157043149939" cx="165.53025477038906" cy="587.7645024618151" opacity="0.1656444574358122"></circle><circle r="6.982358250695302" cx="629.5243812728343" cy="750.8223674926783" opacity="0.5885364651234903"></circle><circle r="5.500729981758765" cx="711.1664651647541" cy="358.63320314855093" opacity="0.16301038428820394"></circle><circle r="5.691733902201237" cx="151.12244667989754" cy="136.19317729694671" opacity="0.4425695469414287"></circle><circle r="5.33128648787846" cx="129.7736066780042" cy="330.04140067770754" opacity="0.9219583515102776"></circle><circle r="5.831829309111023" cx="361.2901028975327" cy="515.3510445705332" opacity="0.27296780209463384"></circle><circle r="4.564927665638632" cx="186.7371841469382" cy="142.72185404224984" opacity="0.30977692047932515"></circle><circle r="3.3500815458424538" cx="14.81116309465506" cy="134.3945683453913" opacity="0.7526200906196945"></circle><circle r="3.972274871615824" cx="462.5580879716509" cy="306.58797856968414" opacity="0.6661809251325074"></circle><circle r="5.067703012104868" cx="432.65166087950206" cy="292.6504548658544" opacity="0.529136295138489"></circle><circle r="6.891600198531137" cx="550.0059376960164" cy="266.7282021753973" opacity="0.4521286681985023"></circle><circle r="7.48246419518914" cx="214.81967929764267" cy="408.7910419039704" opacity="0.2840190915791271"></circle><circle r="5.938931401298366" cx="326.54070743215647" cy="584.5284736395786" opacity="0.6080517384242425"></circle><circle r="3.823960208564073" cx="49.665865383118344" cy="290.37900992236024" opacity="0.1086379491696595"></circle><circle r="5.102129555017634" cx="271.7101766719045" cy="127.61711127471946" opacity="0.8855184133461964"></circle><circle r="8.642933003555713" cx="401.6021786228403" cy="706.7287749156603" opacity="0.9799865052519038"></circle><circle r="6.59569407683947" cx="14.107022709331531" cy="445.47999818913416" opacity="0.34287071911326994"></circle><circle r="7.978367270609173" cx="300.5528426494453" cy="520.1026140520321" opacity="0.3130072683620011"></circle><circle r="5.743389198427736" cx="107.14310497484884" cy="67.6868232690244" opacity="0.9004901844310198"></circle><circle r="5.243325882463727" cx="466.05018695252005" cy="15.282619133233462" opacity="0.45080422459569447"></circle><circle r="5.8565264441182325" cx="40.03903790059951" cy="370.26654720831675" opacity="0.19468444455445455"></circle><circle r="5.573697220408464" cx="695.9988127033685" cy="268.66029887840983" opacity="0.9106482661167397"></circle><circle r="8.508785121277146" cx="607.1167360802123" cy="23.17645302632516" opacity="0.13056300702493145"></circle><circle r="3.9340044118592683" cx="179.86842794205162" cy="515.4167161881036" opacity="0.665378179306713"></circle><circle r="4.482830298824506" cx="691.9795680657452" cy="741.0199355726229" opacity="0.9260973326668472"></circle><circle r="5.428710185891466" cx="605.2682765240934" cy="381.179293527687" opacity="0.588573384400349"></circle><circle r="5.330452255148853" cx="685.3088637333375" cy="702.9884188483586" opacity="0.9504248528024679"></circle><circle r="4.797880895361372" cx="157.3671921534672" cy="394.4585109045311" opacity="0.9181736350075289"></circle><circle r="5.942200619101937" cx="591.3917360314778" cy="578.2334906805603" opacity="0.2952409725113721"></circle><circle r="5.539803617782654" cx="715.1539402816935" cy="60.41586062408823" opacity="0.18770799317910042"></circle><circle r="4.469478574090925" cx="652.7917854640925" cy="347.4279507064153" opacity="0.23403495655038647"></circle><circle r="4.7433680002447485" cx="185.0656261487837" cy="787.116176343355" opacity="0.5016843894214991"></circle><circle r="3.9227725124352393" cx="506.2934344738179" cy="176.1106693876032" opacity="0.46742391948959383"></circle><circle r="4.651526142795888" cx="784.0478566092764" cy="86.50131301631711" opacity="0.4434136765016049"></circle><circle r="5.657430139707742" cx="663.899103401473" cy="296.00420816719685" opacity="0.40823388402583105"></circle><circle r="5.728766725546683" cx="73.86379658001252" cy="132.79314999458933" opacity="0.21225037568612912"></circle><circle r="9.26009522949823" cx="582.6173713494575" cy="527.450318743894" opacity="0.33522132651279024"></circle><circle r="4.8705441344713005" cx="476.1846485473805" cy="154.90692870133856" opacity="0.6091601652109068"></circle><circle r="4.8945230845858525" cx="418.93221295843927" cy="489.88687342498184" opacity="0.7872373833313195"></circle><circle r="8.499318902850124" cx="205.88299247523355" cy="500.50482025778814" opacity="0.5241332299331305"></circle><circle r="4.833199533331651" cx="56.113908067695895" cy="180.50465628229693" opacity="0.40830102330927753"></circle><circle r="5.155725091593675" cx="242.91609873714506" cy="177.13030295314974" opacity="0.1435448147191063"></circle><circle r="6.673808327924721" cx="63.556901693728044" cy="612.5742725947551" opacity="0.8177954037438835"></circle><circle r="4.008646374763799" cx="123.99871993279022" cy="533.10476990112" opacity="0.8838802031064643"></circle><circle r="8.790887751894282" cx="404.20835148662485" cy="760.0962635061068" opacity="0.8644661608239274"></circle><circle r="3.6458514855727815" cx="786.7060885174127" cy="47.77345365639322" opacity="0.20882787583151263"></circle><circle r="4.654984038948239" cx="432.58792726320445" cy="403.69048147468163" opacity="0.21447068765941296"></circle><circle r="4.258727686629698" cx="740.3987237936798" cy="135.16982014659908" opacity="0.6793616032397549"></circle><circle r="4.609530576401757" cx="444.17670160133963" cy="552.9610672155765" opacity="0.1480215280886504"></circle><circle r="6.578001858325888" cx="365.90557166286874" cy="310.3384996863972" opacity="0.46859408598076224"></circle><circle r="4.470261426624339" cx="787.547124520112" cy="703.5893650945955" opacity="0.5457641385639831"></circle><circle r="3.519139603550163" cx="788.2750890709326" cy="775.5827674629091" opacity="0.8199814651746977"></circle><circle r="5.089932835944443" cx="250.7983211568892" cy="152.58731766986472" opacity="0.9947950858374367"></circle><circle r="5.65955574231748" cx="258.1577348088765" cy="325.7602768341641" opacity="0.9665733465444156"></circle><circle r="2.8397837327236695" cx="163.8785238651307" cy="84.09333671423094" opacity="0.2670976875582977"></circle><circle r="6.9975565959874695" cx="48.6097231306177" cy="437.09381471886405" opacity="0.723579834079549"></circle><circle r="4.798119524200452" cx="141.23715788988048" cy="600.8689641729529" opacity="0.9400719725420434"></circle><circle r="7.151199820229358" cx="305.63488062681665" cy="142.842080451522" opacity="0.261769086665416"></circle><circle r="2.7450149510760182" cx="148.67647011835842" cy="94.63872542785349" opacity="0.6611283988709614"></circle><circle r="7.508505063064257" cx="337.27236210182997" cy="623.0237328268415" opacity="0.13955447951761257"></circle><circle r="7.2714188198929435" cx="287.444654831629" cy="696.8618419245404" opacity="0.8794424626542385"></circle><circle r="6.112622982164579" cx="767.3433721116919" cy="629.1895091388338" opacity="0.778019162497014"></circle><circle r="4.416637613103125" cx="294.21662929389026" cy="183.7718596898683" opacity="0.7980650121313728"></circle><circle r="7.486070307562484" cx="527.2170151904131" cy="295.28112120447946" opacity="0.675728385530894"></circle><circle r="4.233092239698242" cx="729.1141741259827" cy="203.14234499927278" opacity="0.3363015307717825"></circle><circle r="7.1537916425984385" cx="19.239200384504922" cy="105.75556474029872" opacity="0.3001263807206467"></circle><circle r="4.572986498733307" cx="16.111603901024573" cy="224.16869771525697" opacity="0.1050642209540546"></circle><circle r="4.57097717596233" cx="466.4035021389577" cy="248.59493240795504" opacity="0.4792393041103653"></circle><circle r="4.3629788999128385" cx="529.1937856324313" cy="18.241234451206015" opacity="0.8228085187063915"></circle><circle r="5.2912023382032585" cx="354.7687926289822" cy="573.9410472978582" opacity="0.14022422187545516"></circle><circle r="7.383283066810003" cx="601.5465359643752" cy="300.3268182308052" opacity="0.1752556523734688"></circle><circle r="8.482982692679059" cx="272.7113107248259" cy="599.1197911007565" opacity="0.10868440354143194"></circle><circle r="3.697451032542237" cx="273.61215517051346" cy="198.43450048136506" opacity="0.6086750600964979"></circle><circle r="5.459990390232261" cx="203.7915775847789" cy="623.7270431547166" opacity="0.896082100760693"></circle><circle r="6.581621608239537" cx="420.97691918387017" cy="456.7945193506153" opacity="0.5244433453578445"></circle><circle r="5.6083816603438565" cx="783.7075073746663" cy="266.6636184136066" opacity="0.458948652082378"></circle><circle r="3.3975062191369587" cx="10.826209380434907" cy="273.55381180498335" opacity="0.8493267789472081"></circle><circle r="2.4940780503235" cx="5.28842035766887" cy="198.0686510514941" opacity="0.34306905863553405"></circle><circle r="6.021860369263173" cx="459.95791684362945" cy="405.6427575654343" opacity="0.11710402527877156"></circle><circle r="3.1016068982654903" cx="423.64129738536104" cy="111.16156794590799" opacity="0.6822565359322477"></circle><circle r="7.904253329969169" cx="22.16679776458296" cy="766.7153812963196" opacity="0.9011851808913959"></circle><circle r="3.603708875985098" cx="788.7303531407026" cy="175.45876168312742" opacity="0.9249091139607927"></circle><circle r="3.6414581649812434" cx="178.29395524664096" cy="613.429389555415" opacity="0.6103116933405569"></circle><circle r="6.889198413594848" cx="781.5336650932348" cy="587.3308613139827" opacity="0.683888325921338"></circle><circle r="3.3985950931731894" cx="426.4976259589673" cy="531.5328325486677" opacity="0.9821561198944044"></circle><circle r="8.298076083664611" cx="531.5647238943552" cy="64.33647597226509" opacity="0.9830519952470409"></circle><circle r="4.964234123851792" cx="84.19912681165762" cy="210.6926572863605" opacity="0.9813168147916832"></circle><circle r="3.852716853934191" cx="12.316586118926523" cy="247.97628617559317" opacity="0.8584792305542347"></circle><circle r="8.01197234694943" cx="61.695498079048164" cy="579.6094764341707" opacity="0.7280346535635757"></circle><circle r="6.505662501108846" cx="122.95387198788615" cy="707.5619731960293" opacity="0.7408463566783068"></circle><circle r="6.612068407290359" cx="625.4456008435609" cy="518.7752440130653" opacity="0.51798072769417"></circle><circle r="5.605466425761797" cx="465.1594509831437" cy="278.77622781575246" opacity="0.6147469000880184"></circle><circle r="5.44724748655136" cx="58.80227831858084" cy="213.79590639669823" opacity="0.9181040046074154"></circle><circle r="5.376468044962712" cx="687.0963991838015" cy="642.6712990331774" opacity="0.6330329512228403"></circle><circle r="8.381963986959727" cx="694.1257163333767" cy="781.2656279945713" opacity="0.6624632266212254"></circle><circle r="4.0986256644867645" cx="151.0893256454974" cy="10.905140666454328" opacity="0.21639657102194837"></circle><circle r="5.1256889595154025" cx="519.5444537471169" cy="258.61595510690603" opacity="0.22640257590658538"></circle><circle r="3.186762898862725" cx="37.20501057435684" cy="333.9524981635808" opacity="0.864805191205383"></circle><circle r="4.169750860191401" cx="703.7518519714514" cy="133.72748402916167" opacity="0.15429010452700354"></circle><circle r="6.1831005567803" cx="11.415673693413263" cy="627.838689206146" opacity="0.18464524487964148"></circle><circle r="4.689147119536822" cx="158.28823970659283" cy="260.7204896468228" opacity="0.6929133665524937"></circle><circle r="5.223579237948986" cx="430.422537741052" cy="261.9604590224584" opacity="0.3711297142448706"></circle><circle r="5.317940984356406" cx="109.80231878937187" cy="249.55260631937307" opacity="0.9553351003052464"></circle><circle r="6.40275309216076" cx="130.13490975135713" cy="46.577470784668314" opacity="0.1404888478353029"></circle><circle r="3.3662325702593696" cx="495.76592962787805" cy="464.72325639014224" opacity="0.7241220661708204"></circle><circle r="3.6386837479749423" cx="787.1665653553382" cy="319.4003906786811" opacity="0.4428721698144783"></circle><circle r="5.777245452840594" cx="519.33816177445" cy="407.9415369070289" opacity="0.5673168374782793"></circle><circle r="7.27678309602877" cx="375.5496844099402" cy="546.7075668436461" opacity="0.7477331949199489"></circle><circle r="4.344790650564174" cx="717.3550747156615" cy="607.4476101208836" opacity="0.1570546163685187"></circle><circle r="3.6115728761345265" cx="448.01417891480975" cy="119.58409257173896" opacity="0.2761187913014027"></circle><circle r="7.413157211353548" cx="431.95066217481497" cy="26.030789910065852" opacity="0.5157629374585602"></circle><circle r="5.889863282086851" cx="90.33614149275431" cy="179.1574045791465" opacity="0.7966328618842767"></circle><circle r="5.152006263903719" cx="632.082021684309" cy="68.44358907867655" opacity="0.5213379887030215"></circle><circle r="4.423566307759217" cx="301.9618050420972" cy="216.92209865115004" opacity="0.22498918970626866"></circle><circle r="7.611226375719401" cx="267.29712276008013" cy="734.6700699585425" opacity="0.8561006679809999"></circle><circle r="3.9246081086147937" cx="346.6244681992089" cy="119.45462521492381" opacity="0.6853238614246847"></circle><circle r="4.842465800301554" cx="538.8671838004311" cy="235.18474188045377" opacity="0.5334612500906031"></circle><circle r="5.6731700842851245" cx="274.27269521590244" cy="164.07649191894004" opacity="0.5026672683649347"></circle><circle r="8.275710415435517" cx="601.5771588144562" cy="415.26860312074734" opacity="0.21121874854144806"></circle><circle r="6.4420350037754375" cx="501.020216389283" cy="538.175953636569" opacity="0.22209348776427346"></circle><circle r="7.594190192260481" cx="426.1909216005645" cy="665.7643788383102" opacity="0.7773561086807164"></circle><circle r="3.963620622425394" cx="484.06235053944397" cy="336.7803451342581" opacity="0.22822017082897858"></circle><circle r="3.835439652195218" cx="18.546290270191385" cy="197.01568005984794" opacity="0.5208103030433295"></circle><circle r="7.621878865016072" cx="414.9172146588227" cy="573.2078469239312" opacity="0.9651524650177085"></circle><circle r="7.8125031283615805" cx="88.95549889779734" cy="432.03425606357945" opacity="0.38404199677396855"></circle><circle r="4.9948960983009645" cx="28.451609587496474" cy="37.470885517358546" opacity="0.5030973608465734"></circle><circle r="2.471301490120537" cx="129.51885325746454" cy="88.92892358539197" opacity="0.17064708620499597"></circle><circle r="5.3282595339237115" cx="626.5565529900244" cy="161.62810006217902" opacity="0.6507517331368283"></circle><circle r="6.4455621602316455" cx="188.46759851477427" cy="250.85453998457274" opacity="0.3236832302409326"></circle><circle r="3.1716176848938447" cx="274.5282928624516" cy="248.04025916859" opacity="0.6045715253812077"></circle><circle r="7.831557836487269" cx="586.749527946059" cy="614.6721255867285" opacity="0.9646389969573782"></circle><circle r="7.092099180460763" cx="723.7844654098125" cy="300.5601866062992" opacity="0.9984641985981791"></circle><circle r="4.0851744080152015" cx="153.80526787762292" cy="32.56812046881133" opacity="0.44721704452706434"></circle><circle r="4.567915210544932" cx="557.6629989298604" cy="131.77551936850637" opacity="0.2859402981188558"></circle><circle r="6.516301042960793" cx="210.48799109788425" cy="449.59227753579097" opacity="0.7576377665757349"></circle><circle r="4.9632826210205945" cx="368.12069514108066" cy="96.8217203429068" opacity="0.8445474511324182"></circle><circle r="4.469998544187369" cx="365.0226693067105" cy="178.8088444705055" opacity="0.8867443164209374"></circle><circle r="6.846000285415227" cx="331.14265970915835" cy="541.4321148021409" opacity="0.3759721804952578"></circle><circle r="9.31508362850359" cx="502.7339791487625" cy="704.0910596192022" opacity="0.264231542209014"></circle><circle r="7.509398500525932" cx="389.3951204539609" cy="25.386249431080092" opacity="0.10646640283741159"></circle><circle r="8.734626953059347" cx="42.24842370315018" cy="702.407319367862" opacity="0.46409579833327586"></circle><circle r="5.060750904670961" cx="729.4818082721793" cy="701.8610682583318" opacity="0.10318695005974819"></circle><circle r="2.7212473896208533" cx="137.80569033972708" cy="116.56153958244728" opacity="0.5572461266815655"></circle><circle r="4.911731486293388" cx="263.85409226796884" cy="226.13689866315113" opacity="0.2862042855890803"></circle><circle r="9.05435645919897" cx="630.0560477244542" cy="603.3628366745545" opacity="0.4713612841861189"></circle><circle r="7.214849772113463" cx="371.7019315162177" cy="385.4923852735445" opacity="0.15637213532412353"></circle><circle r="7.8594719131538495" cx="250.51532401399876" cy="507.9642890054298" opacity="0.16688011688915066"></circle><circle r="4.436577094342856" cx="324.00316389255056" cy="203.60693082615876" opacity="0.1722055534786312"></circle><circle r="6.432448488519924" cx="695.2108487357225" cy="425.03103074201886" opacity="0.9323206786811339"></circle><circle r="5.735503873104783" cx="528.9123384914761" cy="153.3406298955453" opacity="0.7895739540313006"></circle><circle r="3.563146796391359" cx="491.45905637582695" cy="607.6132830406021" opacity="0.9138994769653653"></circle><circle r="5.199275813292985" cx="230.24343714738154" cy="478.77947090119346" opacity="0.8081107278930961"></circle><circle r="6.259217725248846" cx="764.4614386048181" cy="782.706477949692" opacity="0.6863614981245093"></circle><circle r="6.8523921869157505" cx="584.275420536018" cy="199.96879203411743" opacity="0.7969170913212301"></circle><circle r="5.81296093012644" cx="555.6051836540166" cy="674.6339471306015" opacity="0.5976000002294601"></circle><circle r="5.250952194286563" cx="688.1671974527209" cy="160.37830140313477" opacity="0.5869692636563186"></circle><circle r="3.5217950139275485" cx="188.54912888586364" cy="223.264429116109" opacity="0.4252666191424076"></circle><circle r="3.7838771337603694" cx="166.440439197026" cy="282.07020322037073" opacity="0.12015965534895343"></circle><circle r="3.758173316003661" cx="648.8162045747217" cy="536.8495690532213" opacity="0.8120901282138424"></circle><circle r="5.510315544600209" cx="435.03950731871504" cy="144.51093203123577" opacity="0.1898899943466644"></circle><circle r="5.543140130068629" cx="37.35364422213323" cy="243.19363248815768" opacity="0.38956592865125117"></circle><circle r="5.606711443062883" cx="460.431227675548" cy="367.90266183129637" opacity="0.2785128147580007"></circle><circle r="4.731787397144432" cx="35.19000557006657" cy="479.73318470063595" opacity="0.9796399913711169"></circle><circle r="3.7284183847117305" cx="208.6472353685791" cy="70.17319190540721" opacity="0.3774209972885234"></circle><circle r="6.200451970076173" cx="509.42185259272446" cy="628.8726675156979" opacity="0.9269339188150318"></circle><circle r="3.7044106311962373" cx="650.794769569441" cy="272.87942788063134" opacity="0.7637847326105239"></circle><circle r="5.204520393961732" cx="787.4163801286555" cy="486.91814801670284" opacity="0.151812724277473"></circle><circle r="5.789436933746167" cx="447.14672258033227" cy="612.8081426155578" opacity="0.9866581923166619"></circle><circle r="8.731895912905022" cx="43.62229970343601" cy="649.9757552986227" opacity="0.8166877217022395"></circle><circle r="4.589696198089417" cx="84.69961017948698" cy="243.23145589450363" opacity="0.7503195261473693"></circle><circle r="3.808563602928132" cx="478.29678520032405" cy="482.9373394098048" opacity="0.9804000318973387"></circle><circle r="11.68854913607916" cx="448.74084352282847" cy="725.1015913820278" opacity="0.11041511708302386"></circle><circle r="5.2011316749673036" cx="235.2265674195446" cy="314.0231202662064" opacity="0.2101376249417024"></circle><circle r="7.787284593987547" cx="226.32013921093755" cy="246.45234720716337" opacity="0.20918049568771668"></circle><circle r="8.112357902578022" cx="474.8700649600467" cy="53.9893423065153" opacity="0.34662932000400615"></circle><circle r="3.753267991510252" cx="126.98170935609107" cy="397.38348086482193" opacity="0.6487325156627696"></circle><circle r="5.788350032452815" cx="266.1960060479603" cy="464.4529694823854" opacity="0.7332816952907294"></circle><circle r="6.4762360610721075" cx="317.7208070799231" cy="389.682937467719" opacity="0.23464970652552633"></circle><circle r="8.126004895144982" cx="186.5833390829377" cy="385.7320718718671" opacity="0.7216182291789214"></circle><circle r="4.868097455508597" cx="214.49679436405177" cy="123.46219260444667" opacity="0.4496431751070692"></circle><circle r="3.809380995666514" cx="417.27819336628653" cy="169.3412301867962" opacity="0.4166497927205186"></circle><circle r="8.600452919877345" cx="98.61339458485274" cy="347.22419860260214" opacity="0.9440143058065037"></circle><circle r="3.8802856446668166" cx="180.63220168156738" cy="111.02478533460493" opacity="0.19779467604374573"></circle><circle r="4.961428586289915" cx="712.7331651618241" cy="527.7823886968492" opacity="0.4550994209967737"></circle><circle r="6.785928795612074" cx="541.9863516956965" cy="336.99861534201915" opacity="0.8574301251936173"></circle><circle r="6.022453891703682" cx="391.4088841312148" cy="656.7266788840332" opacity="0.30384413303538704"></circle><circle r="6.593810586422555" cx="319.8821329179673" cy="291.1249550182866" opacity="0.4485733356505567"></circle><circle r="4.119974477525609" cx="171.62790166396775" cy="43.86596823747826" opacity="0.5747695822680305"></circle><circle r="7.767832267303752" cx="653.58520801373" cy="239.31036970183462" opacity="0.643122781993328"></circle><circle r="3.222054956164375" cx="350.36927819390127" cy="143.35432321988895" opacity="0.7812148109499946"></circle><circle r="5.9395071939702895" cx="504.7455275819843" cy="132.84706010212864" opacity="0.8518285504797527"></circle><circle r="4.9223344105601115" cx="788.5792513460793" cy="738.0160156826539" opacity="0.4936796878499434"></circle><circle r="6.730200769853123" cx="752.1744122655264" cy="365.3915388566023" opacity="0.29359412139245217"></circle><circle r="4.970737909381975" cx="541.8296735238835" cy="559.1563664078127" opacity="0.9764905308749663"></circle><circle r="9.138247960936752" cx="128.21412887977263" cy="486.0125791451966" opacity="0.22473362608989222"></circle><circle r="3.606738118483621" cx="488.75439285575897" cy="503.7367741764519" opacity="0.7563235977618622"></circle><circle r="2.3201602378314266" cx="195.5473445701099" cy="754.4481342569802" opacity="0.7421220097416457"></circle><circle r="4.554306383939002" cx="758.6990561242021" cy="322.2247436089918" opacity="0.4438821054308211"></circle><circle r="7.317560291212483" cx="131.0507694661038" cy="365.8415167667701" opacity="0.593636891551567"></circle><circle r="6.565841957177598" cx="163.8523988525111" cy="164.24602391165772" opacity="0.884452368244963"></circle><circle r="5.47563160515787" cx="137.3493627645636" cy="243.1942656557127" opacity="0.27648028241831063"></circle><circle r="2.038436359346613" cx="140.9853620106264" cy="66.50524585953293" opacity="0.9036457930101353"></circle><circle r="5.79623801855832" cx="326.45212558037286" cy="447.80461137107955" opacity="0.9893928740009806"></circle><circle r="5.051483871109819" cx="57.755959709736366" cy="260.3151618494503" opacity="0.985031169456371"></circle><circle r="6.538020733115792" cx="286.20098998888596" cy="374.860239551053" opacity="0.9127660858689143"></circle><circle r="7.242063191163951" cx="665.8092122353648" cy="457.2888716278656" opacity="0.9151170353775894"></circle><circle r="6.080642843672022" cx="762.8836630696692" cy="742.5176035702074" opacity="0.6814464201287365"></circle><circle r="5.091845678153108" cx="689.5654513079571" cy="593.2342805289462" opacity="0.20616009003394103"></circle><circle r="4.227272416881316" cx="31.502033345744085" cy="182.52365485108118" opacity="0.1730429147238466"></circle><circle r="4.6234984946318445" cx="565.4273599338384" cy="166.62159991207523" opacity="0.4694675042834976"></circle><circle r="3.063284903119037" cx="784.6479503244822" cy="408.01920618387305" opacity="0.4786353053652068"></circle><circle r="5.42578631143712" cx="644.6871414179137" cy="426.0900774797488" opacity="0.284985775970015"></circle><circle r="4.185077770150407" cx="723.8401298760583" cy="228.76766553910832" opacity="0.9508456238894867"></circle><circle r="3.8119025621266727" cx="87.65801703213302" cy="494.573245186634" opacity="0.5241600873312922"></circle><circle r="7.956575507318153" cx="582.9052080818775" cy="68.44393461696237" opacity="0.7466216451433016"></circle><circle r="4.831330624805014" cx="90.23215903154407" cy="626.096745329267" opacity="0.28924323112576805"></circle><circle r="7.105721571621348" cx="558.0411492090533" cy="307.49287244642613" opacity="0.44428619280000337"></circle><circle r="2.8030899751463574" cx="156.91956783119136" cy="59.71616840082643" opacity="0.287447598879769"></circle><circle r="7.615744517183986" cx="593.9867981188372" cy="150.14921894687345" opacity="0.8719725955728426"></circle><circle r="3.618946520742389" cx="626.5987216283767" cy="561.5898731116873" opacity="0.30754029113426984"></circle><circle r="7.69412026512418" cx="13.65806168629608" cy="504.0153294754844" opacity="0.7559803567853896"></circle><circle r="7.447511017592784" cx="752.0857824220205" cy="34.38232676168618" opacity="0.11052834787536371"></circle><circle r="7.356031222876184" cx="250.87960470088686" cy="386.49329702002086" opacity="0.26565233026826807"></circle><circle r="5.974303097189383" cx="579.0961550491526" cy="652.8011171225922" opacity="0.734205047877719"></circle><circle r="6.30707162494706" cx="131.79421643355172" cy="424.4869604329119" opacity="0.4516566709861842"></circle><circle r="7.5075517851476725" cx="631.7558801396596" cy="198.2798822164639" opacity="0.19779026161560384"></circle><circle r="5.486065947503614" cx="707.8220262576708" cy="712.3073292048985" opacity="0.9224868728169986"></circle><circle r="5.567538764621957" cx="137.5555199612816" cy="668.4712236189317" opacity="0.54463508098461"></circle><circle r="7.957878330536937" cx="740.0400663357362" cy="255.54467201088903" opacity="0.8555373633738981"></circle><circle r="5.669531370264513" cx="647.5052649463935" cy="572.9626350620441" opacity="0.9918599982141932"></circle><circle r="6.906382279409577" cx="270.4859566961555" cy="775.9424909418836" opacity="0.3250651853414002"></circle><circle r="5.829203982464071" cx="539.4557018070499" cy="103.96577793553521" opacity="0.7105130954025283"></circle><circle r="3.7793839473153112" cx="771.0939304469563" cy="232.93487610350195" opacity="0.666754320868576"></circle><circle r="7.583377142406512" cx="306.53697413648297" cy="612.5290679363954" opacity="0.4232854358090148"></circle><circle r="4.409135605468312" cx="215.6473285619717" cy="366.15074148750756" opacity="0.9635618280832662"></circle><circle r="6.483776082856549" cx="285.95415994817574" cy="402.1364822022844" opacity="0.820156318498528"></circle><circle r="6.252997805678066" cx="708.5594025932519" cy="675.8785123235089" opacity="0.9807420822142549"></circle><circle r="7.113302138835971" cx="255.63994093575897" cy="51.45601935186971" opacity="0.9220151865413233"></circle><circle r="6.580419034570515" cx="490.77783007886205" cy="368.4359990645483" opacity="0.4786728270332451"></circle><circle r="4.758613537138571" cx="778.881153917638" cy="434.47037487263907" opacity="0.5325434726111948"></circle><circle r="5.133332960349703" cx="549.7538822724188" cy="705.3812290942433" opacity="0.5874941426885794"></circle><circle r="5.298119134765787" cx="604.1961516575765" cy="785.0895490017494" opacity="0.48597590601275775"></circle><circle r="2.7099395196058147" cx="337.01084552936567" cy="158.49610883534783" opacity="0.3110417832206184"></circle><circle r="5.565066088330342" cx="71.57868381916462" cy="281.2286712665308" opacity="0.36094605616076647"></circle><circle r="4.686937751936165" cx="138.0987089601649" cy="450.54976626525996" opacity="0.2923416534481017"></circle><circle r="4.122692834745874" cx="763.5634918632777" cy="179.97068518552953" opacity="0.7289853656099504"></circle><circle r="6.281903820833598" cx="38.40737372706188" cy="531.2783590689688" opacity="0.8166795824116886"></circle><circle r="7.379700589295288" cx="625.5871900451793" cy="712.7563338497715" opacity="0.9752003295461831"></circle><circle r="5.915231798309961" cx="61.75553771245152" cy="509.42568129160037" opacity="0.22308370712673425"></circle><circle r="5.1017563581528105" cx="65.47102014391197" cy="469.2753648535731" opacity="0.7503560180767542"></circle><circle r="5.85991610189718" cx="52.80473617440371" cy="86.07068878221983" opacity="0.5843772363611237"></circle><circle r="5.652648480769608" cx="573.2813634985807" cy="240.06671098528653" opacity="0.7740180325000116"></circle><circle r="4.25778783053598" cx="267.0444907190191" cy="354.6548731830369" opacity="0.6390283365992634"></circle><circle r="4.288720248498252" cx="523.2610939918234" cy="484.79946003207505" opacity="0.812711372892772"></circle><circle r="4.512916386578704" cx="169.39538465995196" cy="766.3213159101942" opacity="0.5174208055969965"></circle><circle r="4.792596461379721" cx="678.0643595018087" cy="358.75157243585454" opacity="0.6470336377249601"></circle><circle r="4.934558418881582" cx="178.73566756335504" cy="75.34786776740809" opacity="0.7305008696659345"></circle><circle r="7.608630643575188" cx="76.27252601409847" cy="781.6602265676864" opacity="0.2779284797395256"></circle><circle r="6.784767424653934" cx="459.5437951716095" cy="679.2828807689367" opacity="0.44616325028934034"></circle><circle r="6.688813325422808" cx="470.33158000726957" cy="640.0053331189665" opacity="0.6202582733797491"></circle><circle r="7.191775818568194" cx="612.3706805549915" cy="648.0243076209291" opacity="0.8452281081851936"></circle><circle r="6.654403957116389" cx="579.5807129956959" cy="278.43438380894275" opacity="0.12294265284380992"></circle><circle r="4.304036006957587" cx="695.0546928793509" cy="301.8425456656302" opacity="0.5992922525967577"></circle><circle r="3.088493622320463" cx="379.23826394660136" cy="444.0849891798013" opacity="0.9469438152962328"></circle><circle r="3.7502517504458264" cx="731.6073553447102" cy="728.6275949358418" opacity="0.19923628462273868"></circle><circle r="5.970503546735516" cx="404.4436936944047" cy="242.8990528401786" opacity="0.41503939018854696"></circle><circle r="6.294487134516801" cx="240.46057360185617" cy="207.2757388483719" opacity="0.8061219020808407"></circle><circle r="6.103535183804177" cx="543.7730513884696" cy="593.2867605872711" opacity="0.6394306183754364"></circle><circle r="5.135219731253505" cx="16.376449325323957" cy="348.44333587243113" opacity="0.5666828532507312"></circle><circle r="6.708644453029094" cx="447.5539148267994" cy="495.01990895732376" opacity="0.8698668499172898"></circle><circle r="5.072984696628682" cx="29.7396067375761" cy="304.2355536830054" opacity="0.48755883226789465"></circle><circle r="4.6219038783773785" cx="115.49417926404234" cy="289.59025594741695" opacity="0.42052960354740865"></circle><circle r="8.74295938050218" cx="212.08755543082813" cy="707.0087737729748" opacity="0.4791561063381544"></circle><circle r="4.721010952839898" cx="639.6468023908152" cy="677.1094736338728" opacity="0.1283190873761293"></circle><circle r="6.2113483024877025" cx="142.15501030443343" cy="748.089495228391" opacity="0.1501707926682889"></circle><circle r="4.6239674769930215" cx="212.7488423932975" cy="756.0993802876399" opacity="0.32971147293365954"></circle><circle r="4.376180327051632" cx="468.0478854748494" cy="435.94130287433046" opacity="0.7962012414690866"></circle><circle r="7.885188730721447" cx="495.95096401086676" cy="279.69031306848564" opacity="0.4541351156134673"></circle><circle r="6.061189550360826" cx="540.9391012238776" cy="528.8460334260537" opacity="0.6190076656493927"></circle><circle r="5.858334679958031" cx="512.6754431814014" cy="222.95296597706545" opacity="0.1268312993970156"></circle><circle r="7.397597408323767" cx="95.93636944874561" cy="392.796461410331" opacity="0.6112757539825855"></circle><circle r="8.081575662114913" cx="436.0631166832512" cy="781.4491317430504" opacity="0.9383994692727632"></circle><circle r="4.564312965726273" cx="613.2973720713086" cy="483.105726985144" opacity="0.18173118193035318"></circle><circle r="2.9505704075621204" cx="450.5908101349387" cy="524.9214841355887" opacity="0.8838331551829487"></circle><circle r="6.096875681109644" cx="125.91593708839642" cy="149.17463957608538" opacity="0.9439132860477951"></circle><circle r="4.5659338151607685" cx="305.26182387026444" cy="471.1527056898793" opacity="0.3780079588118779"></circle><circle r="2.4132487180982416" cx="400.4343485993029" cy="152.0651012702794" opacity="0.11002090534937814"></circle><circle r="3.3693315942336457" cx="739.186164832163" cy="770.3464079428657" opacity="0.3895100406517047"></circle><circle r="5.651901732415675" cx="725.2763764379129" cy="627.2855661367023" opacity="0.7017048126992899"></circle><circle r="4.01832511329681" cx="173.49121277855642" cy="193.10487686022645" opacity="0.20685582874451636"></circle><circle r="4.983317516250251" cx="327.6491343994187" cy="13.83642899701256" opacity="0.8120727748407803"></circle><circle r="6.868743515721034" cx="216.87642684119248" cy="36.244109239022215" opacity="0.3085985665079745"></circle><circle r="7.898544508044451" cx="336.9196260662559" cy="43.33897387733199" opacity="0.888203991689511"></circle><circle r="3.8665457358577715" cx="403.9425756105008" cy="387.9748752815711" opacity="0.9720625265995754"></circle><circle r="7.079240970984897" cx="610.5002309874095" cy="222.3506814965089" opacity="0.5815970789955106"></circle><circle r="3.7107006690519486" cx="695.564380909031" cy="237.93593084174105" opacity="0.46063423853016605"></circle><circle r="4.793256541555154" cx="360.56450239927267" cy="13.753553762970876" opacity="0.52810345502594"></circle><circle r="5.203106155385369" cx="100.2745957453166" cy="517.9754467354377" opacity="0.6288084984045577"></circle><circle r="11.156662666375624" cx="773.1646342701916" cy="536.7984718828262" opacity="0.7927344414719378"></circle><circle r="7.020165338589523" cx="357.33674791519906" cy="693.3065878630985" opacity="0.4407652482194334"></circle><circle r="6.624255438305356" cx="488.0082779142451" cy="202.87767180118036" opacity="0.9056115932927306"></circle><circle r="5.054212480055527" cx="526.6627193489472" cy="204.4034915265371" opacity="0.9124938010695208"></circle><circle r="4.412262551785808" cx="58.30800765547813" cy="154.70483930536693" opacity="0.6709690081452527"></circle><circle r="4.745767509263326" cx="583.840231474965" cy="364.7124906388083" opacity="0.27623209763123446"></circle><circle r="6.840476687978141" cx="127.19569158004512" cy="566.6168155008468" opacity="0.9592411985649566"></circle><circle r="7.414491451259978" cx="68.19358250588876" cy="354.3868096934675" opacity="0.935026238370362"></circle><circle r="5.174250781001258" cx="526.2953730339958" cy="509.9929732316644" opacity="0.3127091009633874"></circle><circle r="4.097717720897688" cx="661.5574778731926" cy="323.8392799522818" opacity="0.4559040713579866"></circle><circle r="5.566398766311785" cx="364.10364740888326" cy="733.7323716929438" opacity="0.20476877693636242"></circle><circle r="7.90528263617057" cx="343.3289341243936" cy="485.4028874469942" opacity="0.39776694426129067"></circle><circle r="7.68997708496355" cx="171.98441914095156" cy="351.1755702727825" opacity="0.8408680818568259"></circle><circle r="4.14320546318059" cx="581.9713642173424" cy="326.6380431111283" opacity="0.8549052215834156"></circle><circle r="4.065358968422496" cx="473.92210529843237" cy="123.26175649309376" opacity="0.9366076588289751"></circle><circle r="5.067748738383198" cx="561.0161967471436" cy="360.916376302393" opacity="0.8784318819348766"></circle><circle r="4.381425831683421" cx="84.73741627863937" cy="94.0549443207471" opacity="0.5142004752780693"></circle><circle r="3.824935506325006" cx="369.0708215169026" cy="790.7528859841474" opacity="0.7266460424119493"></circle><circle r="6.567655783065997" cx="459.9144060133352" cy="176.9003654770199" opacity="0.43950331268709497"></circle><circle r="5.199550133983628" cx="443.10764427255646" cy="198.90460678764748" opacity="0.5431262704499125"></circle><circle r="2.4513127760985505" cx="38.91634569176164" cy="209.7752767287731" opacity="0.2112431701672373"></circle><circle r="5.971046369859276" cx="316.3865111125936" cy="726.6409141859127" opacity="0.7847517517361853"></circle><circle r="5.612202573963481" cx="329.3528480142238" cy="773.788360429395" opacity="0.860297514363175"></circle><circle r="2.5390324865918856" cx="402.6142508868742" cy="129.68124099501685" opacity="0.7602986556831858"></circle><circle r="6.434534450347616" cx="231.50500674591618" cy="283.4377896775949" opacity="0.8727403339917736"></circle><circle r="4.472866102390512" cx="242.7740971129015" cy="450.0966284331846" opacity="0.10019127564354191"></circle><circle r="4.166096142525548" cx="664.3926016612171" cy="209.6410076282177" opacity="0.28509225514735476"></circle><circle r="5.273236662992076" cx="733.3654670624001" cy="509.7408847452646" opacity="0.129512464892029"></circle><circle r="5.431182663088199" cx="66.13471688887927" cy="59.533996010681165" opacity="0.9456532838134182"></circle><circle r="6.6492061179382" cx="713.5229188167524" cy="184.7453643613264" opacity="0.38969894584605336"></circle><circle r="6.773718262179398" cx="714.6957070908653" cy="562.1438205134264" opacity="0.8775367809234361"></circle><circle r="6.2996772510998404" cx="272.49751355027536" cy="632.7694850539543" opacity="0.8818934669759905"></circle><circle r="4.991281014173129" cx="513.4160279869428" cy="385.56485260246933" opacity="0.9804356377147775"></circle><circle r="7.525414976004076" cx="144.2715989673962" cy="209.49447494412865" opacity="0.6852645005890856"></circle><circle r="4.657873636423165" cx="664.9460899110911" cy="176.95769537785696" opacity="0.5449126802561737"></circle><circle r="4.720723367126758" cx="182.86901231851715" cy="735.8095406724293" opacity="0.8314335854965877"></circle><circle r="7.3040326544149785" cx="301.97115141451883" cy="651.8872085600492" opacity="0.18784084635432968"></circle><circle r="3.686497782603923" cx="404.19061625575915" cy="92.11901397361655" opacity="0.5420385167800124"></circle><circle r="4.770804256044127" cx="189.97111215127447" cy="14.538913213517029" opacity="0.5527495267774462"></circle><circle r="5.515804907823374" cx="444.8457305069569" cy="330.9669975470353" opacity="0.4847838294095793"></circle><circle r="4.484458715885186" cx="190.57020781610584" cy="50.023475100999875" opacity="0.2189695125629289"></circle><circle r="4.148528103751071" cx="386.07971470960865" cy="582.2502275783637" opacity="0.5307349220786514"></circle><circle r="5.229519685973904" cx="500.48169347300245" cy="25.127438578689308" opacity="0.11519023915019104"></circle><circle r="4.540499368748266" cx="362.4195965479476" cy="67.47983996670125" opacity="0.8652350737591069"></circle><circle r="8.564188937489707" cx="478.63782903956115" cy="764.9359557681191" opacity="0.5060321874938898"></circle><circle r="5.841826392165743" cx="414.12223954593577" cy="619.2356276446604" opacity="0.4970343008284165"></circle><circle r="6.19893306881341" cx="168.4211885105717" cy="315.44866859891704" opacity="0.6040762366754147"></circle><circle r="4.735927971564627" cx="408.9088966756468" cy="298.10791843648076" opacity="0.5007388682862045"></circle><circle r="4.2644744503423055" cx="238.8900784405074" cy="630.1640999941529" opacity="0.5712860667674873"></circle><circle r="6.6433719413871914" cx="566.9942291650887" cy="479.230892650806" opacity="0.11164440827126366"></circle><circle r="4.737983717859624" cx="114.39160301506108" cy="103.06282994379885" opacity="0.9686327110775534"></circle><circle r="5.211417034486351" cx="97.6900708371621" cy="655.3144089731388" opacity="0.8335608578221433"></circle><circle r="7.474146815712604" cx="104.56365819305998" cy="741.757218613799" opacity="0.12904020473088948"></circle><circle r="8.224816883338477" cx="664.6143670770834" cy="85.21891275551422" opacity="0.7764449229266478"></circle><circle r="4.496732756684005" cx="377.41184749028486" cy="241.96927643105752" opacity="0.13295816823227802"></circle><circle r="8.731590341162677" cx="169.71881730985703" cy="470.26583985349174" opacity="0.9091146540130045"></circle><circle r="7.080947336911182" cx="303.4970585442455" cy="425.29842327963223" opacity="0.29805921741559394"></circle><circle r="5.524495338845541" cx="236.17117071213013" cy="761.0207425134018" opacity="0.10242918328583356"></circle><circle r="3.9735860819421283" cx="733.7099377509735" cy="165.64850028756743" opacity="0.19729418902126863"></circle><circle r="3.0540070532930392" cx="382.7758909912467" cy="118.93904412883526" opacity="0.21564816259666464"></circle><circle r="4.866100789780532" cx="628.1125690437395" cy="345.06196894336995" opacity="0.5137708578552199"></circle><circle r="6.089379603609425" cx="546.8053646264241" cy="433.13770374103274" opacity="0.9823481781136596"></circle><circle r="3.2994449334731195" cx="153.56981706315224" cy="787.8167594473782" opacity="0.6373679593028048"></circle><circle r="5.772911384711083" cx="132.76290822507406" cy="178.10254102851337" opacity="0.90172202498126"></circle><circle r="5.019909278345188" cx="131.43505118428843" cy="269.5123626805044" opacity="0.58379399309757"></circle><circle r="8.434301492656788" cx="542.6886585598587" cy="635.0739483185822" opacity="0.34848617546007743"></circle><circle r="5.481042064825109" cx="150.48417825162525" cy="522.278888286801" opacity="0.8477260139498535"></circle><circle r="4.37995846946267" cx="604.5506690097676" cy="341.5509899132237" opacity="0.6122290750204803"></circle><circle r="4.571292876260991" cx="755.1014984714337" cy="454.46318149327146" opacity="0.7802669408908508"></circle><circle r="4.927237830361492" cx="753.2113723598515" cy="286.1917431998683" opacity="0.9331146747003626"></circle><circle r="5.274313435223717" cx="698.7436395790218" cy="387.49538337941414" opacity="0.8194513895363498"></circle><circle r="3.532681685280118" cx="738.6187337184266" cy="85.55088209423538" opacity="0.5316250296576565"></circle><circle r="7.6665529165606685" cx="17.967978384607484" cy="70.11600330602255" opacity="0.6165115721678419"></circle><circle r="7.121101840211001" cx="561.8996632056527" cy="26.16268183565417" opacity="0.38255100630710914"></circle><circle r="6.041961073702639" cx="209.1132036115721" cy="204.83096716940764" opacity="0.6360661122436865"></circle><circle r="1.3378340873382797" cx="140.26010210936903" cy="78.42133389503675" opacity="0.5943280649502958"></circle><circle r="4.14936930657515" cx="13.401903724310362" cy="690.047451051578" opacity="0.5558457590754273"></circle><circle r="6.0817889394537445" cx="364.40649808268995" cy="765.9539616719195" opacity="0.4471763944629584"></circle></g></svg>