<svg xmlns="http://www.w3.org/2000/svg" version="1.1" xmlns:xlink="http://www.w3.org/1999/xlink" xmlns:svgjs="http://svgjs.dev/svgjs" viewBox="0 0 800 800"><defs><filter id="ssspot-filter" x="-20%" y="-20%" width="140%" height="140%" filterUnits="objectBoundingBox" primitiveUnits="userSpaceOnUse" color-interpolation-filters="sRGB">
	<feTurbulence type="turbulence" baseFrequency="0.022 0.218" numOctaves="2" seed="244" stitchTiles="stitch" x="0%" y="0%" width="100%" height="100%" result="turbulence"></feTurbulence>
	<feGaussianBlur stdDeviation="0 3" x="0%" y="0%" width="100%" height="100%" in="turbulence" edgeMode="duplicate" result="blur"></feGaussianBlur>
	<feDisplacementMap in="SourceGraphic" in2="blur" scale="32" xChannelSelector="R" yChannelSelector="B" x="0%" y="0%" width="100%" height="100%" result="displacementMap"></feDisplacementMap>
</filter></defs><rect width="100%" height="100%" fill="#070a0d"></rect><g fill="hsl(208, 27%, 73%)" filter="url(#ssspot-filter)"><circle r="3.2930385111406983" cx="790.5402078599295" cy="121.5830849973501" opacity="0.4301093917379464"></circle><circle r="4.759962552368205" cx="16.478898580610217" cy="617.3752670633314" opacity="0.5974685848720721"></circle><circle r="6.839646341709169" cx="182.15317995145068" cy="609.8939409865447" opacity="0.7610579072526924"></circle><circle r="5.980352224364456" cx="260.24001523042523" cy="648.4894607401455" opacity="0.12087896715805822"></circle><circle r="6.6342071360685155" cx="352.44957003765376" cy="706.7466181604253" opacity="0.4227476104586364"></circle><circle r="3.5771133329673432" cx="433.2826631431678" cy="62.41563237640785" opacity="0.18591548144787406"></circle><circle r="4.138173986181538" cx="469.3065743257275" cy="676.329286663934" opacity="0.33871851324252045"></circle><circle r="5.798957658811932" cx="290.62361813124863" cy="480.394688053078" opacity="0.382715752002322"></circle><circle r="4.087214332575408" cx="768.9039549285533" cy="779.9522979522033" opacity="0.4735227357641153"></circle><circle r="6.41353637091064" cx="13.720422032894312" cy="655.5023070620105" opacity="0.25084032678399637"></circle><circle r="7.326399381444633" cx="372.10989976001" cy="455.78014389320174" opacity="0.9077859418943197"></circle><circle r="5.395130475543397" cx="164.54517812486395" cy="17.22628631781678" opacity="0.46073043851024165"></circle><circle r="4.120311778451166" cx="116.41947722995775" cy="514.3039902486291" opacity="0.6027466479585475"></circle><circle r="5.092110845175901" cx="309.06924538177856" cy="345.7784622943443" opacity="0.9102064745338878"></circle><circle r="4.8429462290400185" cx="667.4891049709418" cy="338.6469581374375" opacity="0.6853526022437476"></circle><circle r="5.075627225607455" cx="34.83741009997456" cy="555.6669716820905" opacity="0.8738685197108768"></circle><circle r="6.332710630922722" cx="655.1489502680913" cy="628.6796521844964" opacity="0.47499983118203903"></circle><circle r="4.855177361405927" cx="22.427551695151855" cy="389.9515926173916" opacity="0.8527409743411531"></circle><circle r="4.390711997118637" cx="128.77856479330353" cy="703.2299934520017" opacity="0.558386007403774"></circle><circle r="5.721291997058808" cx="724.8669478284326" cy="71.30899599207244" opacity="0.41952580607835666"></circle><circle r="3.9869668142122254" cx="59.882887120485364" cy="337.6192591666441" opacity="0.5307043650713924"></circle><circle r="4.012717521311834" cx="532.6542314853031" cy="461.31207012591744" opacity="0.7990339993866538"></circle><circle r="6.978796049800449" cx="274.78525888892653" cy="513.1798221676294" opacity="0.563671998141903"></circle><circle r="4.374377936421267" cx="217.59002513234395" cy="382.54209339783176" opacity="0.3038644082691995"></circle><circle r="5.775790055024581" cx="539.3004866331123" cy="56.96716754272969" opacity="0.41083657093559156"></circle><circle r="7.83200722747785" cx="510.00733158205287" cy="694.5909968864755" opacity="0.28383419069255134"></circle><circle r="9.23926070201319" cx="65.52250291965979" cy="101.98928705787687" opacity="0.4944345927044641"></circle><circle r="4.7838997932055864" cx="196.59330612007085" cy="150.74619131657147" opacity="0.7354695018716888"></circle><circle r="8.331898689102513" cx="309.9753948144976" cy="96.00502688281453" opacity="0.38624375564691904"></circle><circle r="6.33186591520094" cx="692.3635003131114" cy="60.279620398369424" opacity="0.6027418223218197"></circle><circle r="5.939742439433778" cx="279.4459005203483" cy="197.4084910566891" opacity="0.8839857941877298"></circle><circle r="6.836350059236169" cx="783.3013570715967" cy="706.4902950668627" opacity="0.25934624843435733"></circle><circle r="2.6725941268443374" cx="244.79788074634882" cy="121.63433688012918" opacity="0.16964095665269516"></circle><circle r="5.557440781003836" cx="787.5713135779478" cy="489.8677661722853" opacity="0.9984275340285012"></circle><circle r="6.615758264944436" cx="523.5031951122728" cy="202.04262430783143" opacity="0.9500104554912975"></circle><circle r="4.721242883748989" cx="97.51370234907066" cy="491.3238004585704" opacity="0.5271593823875643"></circle><circle r="6.082267396737198" cx="217.32367488058554" cy="564.851372742771" opacity="0.13851859933756272"></circle><circle r="6.211592780559596" cx="85.92080951519092" cy="523.9115452456914" opacity="0.9663673810488398"></circle><circle r="4.339256229886699" cx="776.8825631604643" cy="450.0888877150966" opacity="0.9137347486437603"></circle><circle r="4.086278113695042" cx="247.71257731555025" cy="335.3234749748996" opacity="0.4324693568817135"></circle><circle r="5.498142404820063" cx="23.439084353026743" cy="365.9410032420104" opacity="0.8499497138849241"></circle><circle r="5.155526861450295" cx="429.88724302358446" cy="39.152215800000434" opacity="0.6348278795165292"></circle><circle r="3.9549316017694625" cx="117.46131761800588" cy="308.2399430294381" opacity="0.9090474118390327"></circle><circle r="7.136984967903603" cx="775.0460279909618" cy="668.67831301663" opacity="0.4731318848868753"></circle><circle r="8.433588193090715" cx="631.8999600619183" cy="22.178971129995247" opacity="0.815161378494258"></circle><circle r="6.56117288671661" cx="560.0067770344795" cy="287.4668188206851" opacity="0.7443879130416506"></circle><circle r="3.1645540459890182" cx="283.2790282585577" cy="777.232237955712" opacity="0.181515527806686"></circle><circle r="5.763963304274398" cx="451.2476388739884" cy="171.52330167809123" opacity="0.10246705180802536"></circle><circle r="3.9554468488546313" cx="448.62283363231654" cy="466.644642439759" opacity="0.3386597114101501"></circle><circle r="3.1241512010951564" cx="667.0685073154601" cy="498.2531419719539" opacity="0.9101162179246758"></circle><circle r="6.210838781701482" cx="726.3857305917669" cy="357.8735849444801" opacity="0.9655191786734736"></circle><circle r="3.557107918286384" cx="281.89172797495803" cy="590.2136764404389" opacity="0.5591377349704025"></circle><circle r="3.683180992115285" cx="474.9299419058736" cy="503.521897855594" opacity="0.2982352249435881"></circle><circle r="4.521429617791397" cx="217.37160721763198" cy="530.314974580816" opacity="0.8554170509737521"></circle><circle r="6.384699269231756" cx="329.5673543250224" cy="770.8719720231039" opacity="0.9664348822447701"></circle><circle r="5.705557263690482" cx="658.2493383610984" cy="76.26364309065555" opacity="0.5051491993918098"></circle><circle r="9.204102535307978" cx="217.54726262971164" cy="311.99128496127565" opacity="0.4949444642696609"></circle><circle r="8.655969098603059" cx="749.831860456545" cy="199.76766557697908" opacity="0.8402938576683224"></circle><circle r="5.76428130769121" cx="106.48784775487873" cy="237.6606404056777" opacity="0.6505029800279443"></circle><circle r="3.782545200066114" cx="748.4313842772127" cy="760.3208621792368" opacity="0.23490012602322563"></circle><circle r="6.499839578926803" cx="339.3880359837233" cy="433.5350085858718" opacity="0.7494075426730222"></circle><circle r="4.438983692791173" cx="671.3743818138677" cy="449.6805124029092" opacity="0.8124731156514797"></circle><circle r="3.7003290974895915" cx="436.63326833720106" cy="509.9883759362475" opacity="0.3270455566277822"></circle><circle r="6.426637664068235" cx="239.60626012145215" cy="626.0541937808158" opacity="0.14673122762948285"></circle><circle r="3.326905600972449" cx="187.46273791154277" cy="101.28896247117439" opacity="0.5753520898502971"></circle><circle r="6.045515169571006" cx="117.21849401147682" cy="347.1726167434931" opacity="0.5118581714316409"></circle><circle r="6.462634106897468" cx="343.4118988319539" cy="120.72581570311466" opacity="0.3498890866210178"></circle><circle r="4.479243960228597" cx="251.01942793605576" cy="151.43628987763577" opacity="0.4356873315871923"></circle><circle r="4.452596168234129" cx="707.2368721741805" cy="742.9214459943673" opacity="0.3362290725482364"></circle><circle r="4.333547069009088" cx="264.17371793325344" cy="231.30327539942732" opacity="0.1934198772181388"></circle><circle r="3.016263108262047" cx="348.8104906417739" cy="789.9403404533863" opacity="0.5917563704267509"></circle><circle r="3.799776901719806" cx="304.8742818956565" cy="721.1145761206453" opacity="0.35210143134981964"></circle><circle r="4.151038002704823" cx="669.9323797619166" cy="206.14379001265473" opacity="0.10855772652406609"></circle><circle r="4.33203756001531" cx="15.370899334550215" cy="432.8992190256101" opacity="0.3949965021761146"></circle><circle r="5.097001595631515" cx="519.7061940363118" cy="280.7506499913935" opacity="0.6322247979099854"></circle><circle r="6.062067677793117" cx="635.6383425059826" cy="333.9041885852979" opacity="0.5024217321353105"></circle><circle r="6.166158817551721" cx="515.2605998619133" cy="14.525357740244571" opacity="0.8576428588723957"></circle><circle r="3.837787287007617" cx="145.5266349602838" cy="333.5679841939375" opacity="0.2808614654442277"></circle><circle r="4.116979150380393" cx="604.7389185916978" cy="717.8149550490111" opacity="0.3130007073656391"></circle><circle r="6.754053135971562" cx="197.61560635996204" cy="710.30234258306" opacity="0.25891840161586654"></circle><circle r="9.387824141549789" cx="198.38465836862505" cy="67.06404774308973" opacity="0.3461690450199562"></circle><circle r="6.237528049283135" cx="701.8471086272399" cy="529.9945292579336" opacity="0.37031788583308856"></circle><circle r="5.1561362082063145" cx="789.093232340244" cy="160.95652172039766" opacity="0.9005856254822903"></circle><circle r="4.4960661412687255" cx="163.25425438586376" cy="98.74871302450063" opacity="0.8983939890677346"></circle><circle r="8.343927820991262" cx="347.8112515023703" cy="291.4958814401044" opacity="0.2373689733009056"></circle><circle r="4.284385158635786" cx="554.8474043585937" cy="210.27349977495257" opacity="0.8704979456845019"></circle><circle r="6.364419469058993" cx="745.1352589757076" cy="438.76428552695296" opacity="0.4758814541811638"></circle><circle r="6.761770695128196" cx="264.00925290474953" cy="417.10962409469516" opacity="0.545447233922282"></circle><circle r="8.642300002356642" cx="727.4954002374986" cy="171.17207238946992" opacity="0.46954233685141955"></circle><circle r="4.030726060127773" cx="732.8848732629175" cy="724.6198142955493" opacity="0.4712799519946962"></circle><circle r="5.764829435510766" cx="407.8342099350191" cy="326.07456447394526" opacity="0.2525613109999115"></circle><circle r="4.705576815047078" cx="14.748861734333902" cy="512.1634787456699" opacity="0.5093195064943368"></circle><circle r="5.874109139669248" cx="536.0106427705158" cy="32.799713015962375" opacity="0.41996596248371076"></circle><circle r="5.299919688920116" cx="224.87200917645796" cy="20.364078468927172" opacity="0.1179271992168675"></circle><circle r="4.175472957216602" cx="786.4037781557373" cy="212.8062240778079" opacity="0.4856561492804752"></circle><circle r="4.17887971160445" cx="259.487215685179" cy="78.97706067376596" opacity="0.6424286602084097"></circle><circle r="9.406344452117303" cx="174.5768098070184" cy="646.4140891795886" opacity="0.41827465743175274"></circle><circle r="5.032877107514575" cx="381.13109671899787" cy="74.74256025636163" opacity="0.7160744545337598"></circle><circle r="4.395116570199167" cx="440.52874417885334" cy="129.03763740426268" opacity="0.42121699600357887"></circle><circle r="3.5866180989073664" cx="533.3389920618142" cy="605.504648311383" opacity="0.8833165489965947"></circle><circle r="5.91250085694355" cx="77.86992688601003" cy="784.6371327014189" opacity="0.8431490924531766"></circle><circle r="7.4855937294543375" cx="566.5735127989859" cy="120.70601445611655" opacity="0.5001607596681478"></circle><circle r="5.008168265972895" cx="33.626438828807856" cy="472.30373997063924" opacity="0.6780007004867571"></circle><circle r="9.188717281328564" cx="422.8173270668735" cy="626.008535461837" opacity="0.9889682473697985"></circle><circle r="6.527300813609253" cx="598.8245854344422" cy="13.258894774945997" opacity="0.8467336458874644"></circle><circle r="3.394312411726345" cx="742.394284769475" cy="501.99598070617" opacity="0.3284205916114027"></circle><circle r="9.340741768206762" cx="96.0154213389274" cy="129.46072968960073" opacity="0.5412186374393082"></circle><circle r="4.492894621364467" cx="709.677363953527" cy="394.80870814033716" opacity="0.3127195076263622"></circle><circle r="7.3938705213397675" cx="538.8820220496275" cy="162.29669389130746" opacity="0.5001414937171433"></circle><circle r="6.2752831514846275" cx="424.01900305825586" cy="431.406686001736" opacity="0.19232225839672287"></circle><circle r="7.063035962928794" cx="14.407595554963361" cy="770.1103229781099" opacity="0.1650981441064847"></circle><circle r="8.646906650759389" cx="90.4123366679324" cy="205.34761989003073" opacity="0.22843464323734045"></circle><circle r="7.427426437842044" cx="353.88682830126123" cy="85.36276369422372" opacity="0.37814522261814865"></circle><circle r="5.478746188586941" cx="692.7385750617186" cy="290.42392837606866" opacity="0.9913983340810102"></circle><circle r="6.480823673092671" cx="688.1003197250767" cy="380.03337102790204" opacity="0.7032491361448191"></circle><circle r="5.117154329934529" cx="381.68564326255506" cy="626.6534335165734" opacity="0.42008235227510715"></circle><circle r="4.297982618008031" cx="557.915072595149" cy="553.0578993972933" opacity="0.6089898358075383"></circle><circle r="6.102050231329702" cx="740.8903770999398" cy="93.46230099021723" opacity="0.6428330631731145"></circle><circle r="3.887611231021581" cx="9.743193675141832" cy="347.8985328623757" opacity="0.6701229538855175"></circle><circle r="5.913205836033573" cx="335.1257844690472" cy="364.2711084885688" opacity="0.986304065884119"></circle><circle r="4.641004697444637" cx="520.998769839248" cy="418.3960921978201" opacity="0.7810752579762165"></circle><circle r="4.182174005623284" cx="397.89717148364537" cy="13.494798782585088" opacity="0.3138635408863589"></circle><circle r="4.051212065600285" cx="767.3689187229219" cy="91.91859256144832" opacity="0.7526476212397398"></circle><circle r="3.9413455019302677" cx="788.1383651433366" cy="592.6289333151694" opacity="0.6307541617194401"></circle><circle r="6.431458251767349" cx="569.3213433187307" cy="477.8641457639355" opacity="0.880408296952244"></circle><circle r="6.114073986253899" cx="241.85875466730224" cy="277.4060961679469" opacity="0.312092217076975"></circle><circle r="8.306920696213982" cx="200.01032465832628" cy="410.79381460625603" opacity="0.5024016502224847"></circle><circle r="5.722723279380736" cx="595.8641330325687" cy="50.61560809443079" opacity="0.6870731731178169"></circle><circle r="4.372180412278973" cx="724.543351161891" cy="273.69583223545857" opacity="0.8600952659369111"></circle><circle r="5.228249267512503" cx="643.3064865029585" cy="380.82148948870037" opacity="0.5717592768268985"></circle><circle r="3.78914643037494" cx="11.864795385278121" cy="563.6081114673436" opacity="0.2997347330118951"></circle><circle r="4.738499993735475" cx="144.23235636558442" cy="244.3518633353518" opacity="0.32177598336631885"></circle><circle r="8.841441149740735" cx="437.4327443300829" cy="216.38195980951258" opacity="0.2641295465736911"></circle><circle r="8.390371581483375" cx="154.07497269522366" cy="565.3168470270301" opacity="0.7009402262331524"></circle><circle r="4.957977818799048" cx="711.3485776455998" cy="26.766843697660477" opacity="0.7651259650681566"></circle><circle r="3.429706652057276" cx="685.3968202916856" cy="472.01263179519646" opacity="0.8271092525555845"></circle><circle r="3.72601772741924" cx="459.1645578966029" cy="317.72925689752117" opacity="0.6011214055681467"></circle><circle r="2.829724334833302" cx="263.07200141581063" cy="780.3490916387143" opacity="0.6000347795659101"></circle><circle r="4.673563035498132" cx="33.996457164028136" cy="532.5361856251428" opacity="0.26411108360368574"></circle><circle r="7.0913490064054345" cx="747.2463235148965" cy="298.7230526023102" opacity="0.4446432184226963"></circle><circle r="2.838514611042343" cx="561.3721253602421" cy="247.3929906402277" opacity="0.5006973180039223"></circle><circle r="5.3002498524957335" cx="75.41985809692818" cy="650.4632430631837" opacity="0.4784427248820785"></circle><circle r="5.607914063657423" cx="50.226735596164815" cy="694.2314645992468" opacity="0.3083206066741324"></circle><circle r="3.9536127320639998" cx="785.597790281745" cy="14.239644025820846" opacity="0.21636119448255242"></circle><circle r="5.198492811209632" cx="727.7225867707983" cy="415.2971764072022" opacity="0.5525327156669284"></circle><circle r="6.839032732867133" cx="121.41709463828657" cy="395.07795404804114" opacity="0.9764959402221484"></circle><circle r="4.903081703651736" cx="766.9666816425254" cy="62.04565139326423" opacity="0.3395008628583752"></circle><circle r="2.37299905084296" cx="686.9391869649362" cy="771.0566647054972" opacity="0.8903857847050362"></circle><circle r="5.542669471976132" cx="397.7952583529547" cy="400.0847085374432" opacity="0.1613425409529896"></circle><circle r="4.360541312763107" cx="288.9863848579918" cy="357.3601893360321" opacity="0.7639365763951133"></circle><circle r="3.9346022447048417" cx="669.4937709021897" cy="232.27368406874288" opacity="0.637685980851541"></circle><circle r="4.2876158252682375" cx="548.7491256151894" cy="579.3384255878734" opacity="0.18007793164408098"></circle><circle r="4.666102777814929" cx="719.8400086564689" cy="133.9597010655282" opacity="0.6880864233351045"></circle><circle r="4.0841204926927315" cx="488.27973017669757" cy="224.98333084066667" opacity="0.16461376108665848"></circle><circle r="5.65433263712176" cx="613.4531384855751" cy="675.3856377668665" opacity="0.2765431286830865"></circle><circle r="6.127366039614785" cx="115.86440382708237" cy="784.8495101538213" opacity="0.18506326202661105"></circle><circle r="4.823667928728531" cx="476.036549774701" cy="735.8015653341408" opacity="0.7722058147795673"></circle><circle r="7.1118175344260495" cx="588.4473522569081" cy="569.186647158474" opacity="0.780511461493142"></circle><circle r="3.45665371515853" cx="63.1124569975357" cy="625.3829539048252" opacity="0.9964057504768284"></circle><circle r="7.241756921302141" cx="704.4225974129457" cy="206.5058491829593" opacity="0.8490027362159496"></circle><circle r="3.1888655814820113" cx="578.0464381544405" cy="34.896215255489906" opacity="0.5181312290531891"></circle><circle r="6.147959091101194" cx="179.3299680497943" cy="503.00517325415484" opacity="0.17068137793445862"></circle><circle r="8.217628615062694" cx="579.8078741626217" cy="521.9996323064591" opacity="0.9456301492023302"></circle><circle r="4.609764671988041" cx="644.8576288605232" cy="185.35989229129032" opacity="0.2565904469726058"></circle><circle r="7.481754644339514" cx="573.048057501451" cy="741.3529664008331" opacity="0.8320569247133408"></circle><circle r="5.157118107224642" cx="68.2511233129848" cy="284.946214751165" opacity="0.31718811393543767"></circle><circle r="6.754896061446959" cx="175.45539768392703" cy="178.9902978041628" opacity="0.6184955654217335"></circle><circle r="8.999731853871005" cx="156.83526059074032" cy="431.37831978894116" opacity="0.7600162735973286"></circle><circle r="6.690978390231238" cx="590.9835670944336" cy="286.8178196908978" opacity="0.7569480518703764"></circle><circle r="5.17847394668128" cx="223.7527223285603" cy="102.07623882497934" opacity="0.6599957226059283"></circle><circle r="4.131412270189271" cx="134.01192935091373" cy="225.89074600999433" opacity="0.3647755342935819"></circle><circle r="3.8482295543516467" cx="660.3403957597959" cy="362.57310433027186" opacity="0.7273086422948472"></circle><circle r="4.75683765646047" cx="312.91666345768965" cy="290.8970546834688" opacity="0.7273163101577863"></circle><circle r="5.464633986048759" cx="159.85298341069722" cy="359.0570325914871" opacity="0.600667226884783"></circle><circle r="3.4943154948643333" cx="41.19326188377201" cy="507.95924195483735" opacity="0.3524236240056422"></circle><circle r="5.302922556157388" cx="59.28311435099446" cy="536.0519260034683" opacity="0.8295596131089911"></circle><circle r="7.25973105664532" cx="356.19978897614135" cy="603.0200734238812" opacity="0.5052228610619194"></circle><circle r="6.996176265702578" cx="54.40535509268318" cy="140.10656373805492" opacity="0.5999326907365482"></circle><circle r="4.140744851425284" cx="667.2385007318727" cy="737.5369723233341" opacity="0.8463659093652609"></circle><circle r="7.69781344265497" cx="264.92612524439636" cy="560.2939737476869" opacity="0.6176930174779565"></circle><circle r="7.55437350076107" cx="236.93165858980848" cy="666.8018981818457" opacity="0.5645807509095165"></circle><circle r="6.556176408925243" cx="45.976622933902505" cy="777.1394784207711" opacity="0.25972083927455225"></circle><circle r="7.699472155265221" cx="638.7944152984903" cy="132.91396170429275" opacity="0.3089633176504051"></circle><circle r="4.404656420611704" cx="194.49658150333337" cy="549.2594527503668" opacity="0.8512238771769846"></circle><circle r="6.53318778940753" cx="480.28823028018815" cy="568.4746124364653" opacity="0.5124425960372536"></circle><circle r="5.455906778632205" cx="181.8686028254301" cy="740.2819477883644" opacity="0.757835493496952"></circle><circle r="4.662577445609573" cx="378.4544384842147" cy="689.5276762516413" opacity="0.31833248246567103"></circle><circle r="3.717813857460253" cx="9.91315775994995" cy="537.3357379276433" opacity="0.732110418004688"></circle><circle r="4.074962356654" cx="300.3764881598595" cy="753.6029509340405" opacity="0.9282480790074727"></circle><circle r="3.6282462898345296" cx="544.8954023161606" cy="8.930554748687777" opacity="0.8345355123730266"></circle><circle r="5.948625276607953" cx="444.66043589914364" cy="353.4921394785717" opacity="0.8777751412254557"></circle><circle r="3.5042224495840077" cx="405.08634183690384" cy="242.07359940209224" opacity="0.7911594915470426"></circle><circle r="5.3021462072061345" cx="685.5783369881673" cy="256.9447472170674" opacity="0.8560039830220492"></circle><circle r="8.411263613050608" cx="198.15700891845773" cy="466.0835622779679" opacity="0.9168233462006784"></circle><circle r="4.818757283834352" cx="675.5629279778669" cy="425.7360327156883" opacity="0.13105107275822372"></circle><circle r="8.043908302101483" cx="165.98294974893022" cy="390.4512926007984" opacity="0.9818675118509217"></circle><circle r="3.8979983474709665" cx="17.181117805012605" cy="411.8558593886198" opacity="0.43102042580839683"></circle><circle r="8.447903138757912" cx="358.01970901842765" cy="23.96562111061069" opacity="0.4181395041388155"></circle><circle r="5.9141328720131074" cx="637.3555875535121" cy="415.89758329867084" opacity="0.9293223299508883"></circle><circle r="4.683861042237931" cx="329.3729603294631" cy="741.1752080841453" opacity="0.15872386227361046"></circle><circle r="5.451769029965933" cx="274.5177176969018" cy="291.0179638595647" opacity="0.7340943485254693"></circle><circle r="6.147133853770383" cx="200.2586529420151" cy="360.4131433674214" opacity="0.9929641051299902"></circle><circle r="7.643360767174799" cx="295.05767048511296" cy="61.038692923856736" opacity="0.5158946694095206"></circle><circle r="5.292479426147839" cx="573.8509203990357" cy="414.8587295220927" opacity="0.664710836926546"></circle><circle r="3.6241371711366677" cx="768.9268546753476" cy="471.4525636538187" opacity="0.45626436732695586"></circle><circle r="3.88477072690317" cx="679.5498292233619" cy="611.6645871112233" opacity="0.6159287948837485"></circle><circle r="8.530629074942823" cx="407.465870754197" cy="151.92650222651415" opacity="0.3372107924861629"></circle><circle r="7.112569781137961" cx="660.3311196440017" cy="108.3459443580764" opacity="0.4498408033751"></circle><circle r="6.086842657055253" cx="393.5778471360457" cy="352.2070919707957" opacity="0.3259905850541802"></circle><circle r="4.777954989734631" cx="58.86294803282417" cy="497.15269988108804" opacity="0.46754807969290635"></circle><circle r="3.410686545355368" cx="480.04816664701616" cy="480.8561441676962" opacity="0.18908129702845677"></circle><circle r="7.008714546049831" cx="326.73137529676615" cy="324.35850436561566" opacity="0.8047189879779482"></circle><circle r="3.173840922543067" cx="576.1036509755576" cy="602.0804131720565" opacity="0.1232096114970913"></circle><circle r="5.749299126045787" cx="101.07239602829571" cy="626.6376011832908" opacity="0.15161164354074202"></circle><circle r="6.628649840315605" cx="785.4571283576836" cy="352.81569212715095" opacity="0.5757062806568781"></circle><circle r="5.739830529840367" cx="240.69127224612762" cy="508.5886958141033" opacity="0.49357435676163275"></circle><circle r="10.302091136754559" cx="365.88697093196026" cy="547.7674328077849" opacity="0.5667051345776953"></circle><circle r="6.962129634769882" cx="478.4027870551772" cy="413.2878875836197" opacity="0.12810365123607495"></circle><circle r="6.708683226446312" cx="463.3679429981314" cy="781.0331553365951" opacity="0.2451784092361107"></circle><circle r="3.143239896204946" cx="276.8854072869255" cy="251.192205552401" opacity="0.5526029263591525"></circle><circle r="7.735943737035221" cx="455.6211525932667" cy="604.9041413395189" opacity="0.34096310081583847"></circle><circle r="4.504049464545682" cx="463.3820234378632" cy="707.8758511673113" opacity="0.3224065689437092"></circle><circle r="5.571019847745877" cx="622.1935162531162" cy="741.9579203831163" opacity="0.7592568485816604"></circle><circle r="4.839786514016053" cx="202.84657574210655" cy="233.47730438872355" opacity="0.720502628407253"></circle><circle r="6.711131873585542" cx="453.9902453304324" cy="289.6573669557668" opacity="0.9794073167109695"></circle><circle r="6.18649879376763" cx="630.2064738550952" cy="443.83015520129584" opacity="0.700738151790647"></circle><circle r="7.323035193301917" cx="358.5562276324413" cy="252.62955511810384" opacity="0.33228530403705947"></circle><circle r="3.596023116983143" cx="63.694426326381034" cy="671.5090314360313" opacity="0.9389814330051148"></circle><circle r="5.834828114482591" cx="450.0777112117269" cy="87.67365336698735" opacity="0.6608197228512556"></circle><circle r="5.447275430493552" cx="506.0382253556774" cy="432.6312179082727" opacity="0.4450398951237309"></circle><circle r="5.5791816352119055" cx="14.530882064245088" cy="201.00951520802764" opacity="0.9809581588366972"></circle><circle r="4.614867150089457" cx="485.8587451157407" cy="275.31408701759045" opacity="0.9352690863653735"></circle><circle r="5.064960881542097" cx="475.47135924206674" cy="636.0038032105231" opacity="0.23514443836780155"></circle><circle r="6.120269805955838" cx="151.05005572892384" cy="167.27237984950452" opacity="0.8772615307921728"></circle><circle r="5.937661611309995" cx="280.0406783183997" cy="147.6246596549785" opacity="0.4908876563267367"></circle><circle r="4.0295319807696055" cx="695.1581572501018" cy="93.30514204580321" opacity="0.8854539148309658"></circle><circle r="7.031472585715742" cx="332.03390446766076" cy="51.808906110121484" opacity="0.30537400354011257"></circle><circle r="4.995174798573539" cx="185.0079214924513" cy="779.7961644974745" opacity="0.3370655173991922"></circle><circle r="4.887259754055265" cx="503.79129816744546" cy="361.20626014419474" opacity="0.12584737618343783"></circle><circle r="3.6675981964519564" cx="615.50499257379" cy="468.4999640994813" opacity="0.8506570327686862"></circle><circle r="4.84543251456182" cx="529.7872925164479" cy="545.0671823121046" opacity="0.5081053135188941"></circle><circle r="8.997666050399278" cx="20.75683932247247" cy="273.2708752805194" opacity="0.8253252098235362"></circle><circle r="2.417470880898878" cx="699.060096938621" cy="760.8051184918472" opacity="0.945560484023356"></circle><circle r="5.872654722784407" cx="547.9846936268539" cy="512.2486312361459" opacity="0.3735142042188556"></circle><circle r="3.517638165576222" cx="689.661390588037" cy="495.26348041229164" opacity="0.9302208337451693"></circle><circle r="6.372329499676052" cx="761.8240681538856" cy="411.8176646746825" opacity="0.866378900137246"></circle><circle r="9.279649238345174" cx="116.84570177654875" cy="167.70632799162595" opacity="0.3272221733558942"></circle><circle r="5.460521636586801" cx="266.36743997734106" cy="453.72156719775506" opacity="0.14726539879795947"></circle><circle r="4.629564957436845" cx="89.0189370273252" cy="332.48445571448457" opacity="0.8123657597682825"></circle><circle r="5.7586394987600675" cx="659.9083551686131" cy="787.6837167113912" opacity="0.21677979729810565"></circle><circle r="6.077683155257591" cx="474.1721790984899" cy="345.0713967509306" opacity="0.8007370130143079"></circle><circle r="5.569838272332562" cx="89.74924129597737" cy="421.90710664196223" opacity="0.2536127729862686"></circle><circle r="7.1751673957081765" cx="742.6431778347209" cy="695.2644925576776" opacity="0.9693741528862518"></circle><circle r="4.80564683599196" cx="557.6698506599391" cy="438.0164964852507" opacity="0.34235670715177485"></circle><circle r="6.93337544253467" cx="214.70469871505833" cy="748.6964819260994" opacity="0.17853001844504296"></circle><circle r="7.598555520197029" cx="22.46890049105951" cy="98.03667826562416" opacity="0.5162520673462155"></circle><circle r="8.877008290059685" cx="299.67661799352004" cy="428.85540186063884" opacity="0.8548402289568656"></circle><circle r="4.1461435835527976" cx="547.6458566797057" cy="315.22332530931357" opacity="0.7342206066269455"></circle><circle r="4.3490332473791575" cx="304.79637136055794" cy="788.6704656582078" opacity="0.2940835292633394"></circle><circle r="5.013981345211722" cx="687.0441580490804" cy="317.12324319570473" opacity="0.2333547100329845"></circle><circle r="4.605969773332221" cx="363.25873629846285" cy="333.25069938560296" opacity="0.4327030026444326"></circle><circle r="3.8493893234471908" cx="12.8696766195135" cy="484.9180845784917" opacity="0.4052393431510807"></circle><circle r="4.655017549554695" cx="359.88247093982454" cy="400.1592748533508" opacity="0.92816787025666"></circle><circle r="3.5950575562050004" cx="196.43130732538015" cy="122.82807669331467" opacity="0.8804470351720227"></circle><circle r="5.098350906874194" cx="653.9315530346611" cy="296.42753384922975" opacity="0.7123655497477797"></circle><circle r="5.442090636417181" cx="134.46752721604895" cy="649.2271291584512" opacity="0.9442075425325476"></circle><circle r="10.065068595174875" cx="163.61444380588952" cy="687.4859548830708" opacity="0.41586000693812597"></circle><circle r="3.7065395462009567" cx="430.07425236603245" cy="316.57364308318927" opacity="0.4595978167080995"></circle><circle r="8.180172352283805" cx="398.6494025369779" cy="584.4399485751637" opacity="0.5876106360579587"></circle><circle r="5.312587101044977" cx="302.09844641564393" cy="572.2664152077265" opacity="0.9309353115382656"></circle><circle r="3.726243902510976" cx="738.4691848525154" cy="30.184037072682845" opacity="0.12242835055018883"></circle><circle r="3.6977078770724052" cx="787.4860923254903" cy="45.355935921995425" opacity="0.49497533807367966"></circle><circle r="4.784986428696885" cx="619.4161630402199" cy="64.33598695344091" opacity="0.8422852468875184"></circle><circle r="5.353928643717886" cx="94.74503256807407" cy="692.5822201126094" opacity="0.5593184064625162"></circle><circle r="6.418656537536483" cx="668.456568459778" cy="401.3638587807642" opacity="0.5080219704437737"></circle><circle r="4.56784091244394" cx="287.2905344793135" cy="699.1149280228342" opacity="0.62966803742858"></circle><circle r="8.884401414917305" cx="17.294624786446587" cy="693.7692847040216" opacity="0.10966019678911079"></circle><circle r="2.633768469437262" cx="703.5278558219788" cy="459.21515791626297" opacity="0.7788353680730656"></circle><circle r="3.3585399507796763" cx="18.61112591882714" cy="452.776680942372" opacity="0.5388541735805413"></circle><circle r="5.804840499213785" cx="436.74096960804496" cy="680.7705955756655" opacity="0.6298425788056654"></circle><circle r="6.009058656513473" cx="383.94789981285896" cy="116.35208182398804" opacity="0.5775162633661747"></circle><circle r="3.378624090585256" cx="354.5137092307838" cy="740.0390927500102" opacity="0.30245311583185636"></circle><circle r="4.307591329805433" cx="565.5378220337451" cy="16.062393684030564" opacity="0.5610950475224562"></circle><circle r="6.032391418757581" cx="700.7373464866812" cy="345.43814798605496" opacity="0.5553753230555435"></circle><circle r="5.524489884471186" cx="134.42350247141965" cy="591.8733982164044" opacity="0.35397508385690124"></circle><circle r="3.9464920850054845" cx="416.9763028095946" cy="83.6318269758206" opacity="0.8203206130980532"></circle><circle r="3.3141716396606613" cx="506.3334621683121" cy="485.5614062466175" opacity="0.3645760960916121"></circle><circle r="3.9544429291078025" cx="678.0180224149449" cy="14.361622072969492" opacity="0.13269592800133498"></circle><circle r="4.658335740484574" cx="240.52145905310704" cy="476.4914418134191" opacity="0.9331471792046799"></circle><circle r="3.292917026060932" cx="743.9113818491318" cy="788.6505480684201" opacity="0.8291740806187888"></circle><circle r="5.172235868780034" cx="71.43971137790562" cy="712.7964432913844" opacity="0.5400709413217057"></circle><circle r="5.432686631207249" cx="421.78069825433255" cy="539.007484941795" opacity="0.8054731310434696"></circle><circle r="4.789927369652603" cx="608.3984091359927" cy="357.14580836930435" opacity="0.23065738539410194"></circle><circle r="5.722358264327378" cx="314.2501592016272" cy="393.76792734700155" opacity="0.19042896969982456"></circle><circle r="6.726713465678246" cx="482.95662605838737" cy="14.875489109013415" opacity="0.4614734033960618"></circle><circle r="5.27205484553704" cx="495.57452939784713" cy="455.04405471448354" opacity="0.5164724465744263"></circle><circle r="4.522145714420032" cx="470.3252656365056" cy="198.80830175151397" opacity="0.4064038858004292"></circle><circle r="3.824813291677827" cx="552.8628058670289" cy="626.6909121733199" opacity="0.11791928641728916"></circle><circle r="4.690187548127937" cx="645.9589917319993" cy="254.41845671382902" opacity="0.4908598288761252"></circle><circle r="4.81831923876913" cx="167.13620978115924" cy="248.26132073410974" opacity="0.2815276366180534"></circle><circle r="7.788120212494492" cx="166.51553315550854" cy="136.9640885356998" opacity="0.4316760454790257"></circle><circle r="8.466977961267162" cx="588.0023334437647" cy="779.5852161122373" opacity="0.9602866954391293"></circle><circle r="3.0151180268177318" cx="178.4892826300813" cy="533.2457465201325" opacity="0.13857299609697807"></circle><circle r="6.192889689576733" cx="741.6728302650516" cy="386.0244264328333" opacity="0.198442424423808"></circle><circle r="4.225373247985096" cx="361.17035793432615" cy="654.8068104451231" opacity="0.4643571260133982"></circle><circle r="6.921435759714797" cx="536.5347494549068" cy="780.8666097971259" opacity="0.3398685127996861"></circle><circle r="9.137067809813782" cx="370.68719639613226" cy="190.02806701525049" opacity="0.9182761710494743"></circle><circle r="7.09667094015185" cx="594.2604283365187" cy="327.956545420954" opacity="0.44243182557420746"></circle><circle r="3.9289180326863784" cx="450.9811012072619" cy="258.56166182643506" opacity="0.5126353722984762"></circle><circle r="5.983886003493935" cx="332.48893720603854" cy="481.01744201248147" opacity="0.20392826720308987"></circle><circle r="4.195810375552371" cx="80.99897682536415" cy="256.22889407806383" opacity="0.10741721617167763"></circle><circle r="6.296356824929823" cx="153.99500428614638" cy="466.024293889578" opacity="0.10940062146163046"></circle><circle r="7.965208960775114" cx="234.41541193358688" cy="56.46951924075364" opacity="0.9184716792576804"></circle><circle r="3.6099976903994433" cx="465.96640316987737" cy="236.15474481459586" opacity="0.473925683427585"></circle><circle r="5.52331486200349" cx="110.80647143027086" cy="559.1321665546998" opacity="0.7583809189663463"></circle><circle r="5.800154455378359" cx="584.4926734462883" cy="250.72422203114706" opacity="0.3328629511335931"></circle><circle r="5.686097396706495" cx="208.6921048255341" cy="503.047287759113" opacity="0.2736110595758844"></circle><circle r="5.74779812528024" cx="368.2539045628084" cy="367.03340527276765" opacity="0.2639319382090224"></circle><circle r="6.346228482539724" cx="760.7741789753478" cy="363.99067067431855" opacity="0.7834475280004752"></circle><circle r="5.144292791810669" cx="432.2274664493715" cy="574.1847413753812" opacity="0.35971967586788556"></circle><circle r="4.815604198549072" cx="763.9880585759817" cy="581.8220368149011" opacity="0.6241375919518746"></circle><circle r="6.859093686022373" cx="766.3656751914988" cy="738.8662240325722" opacity="0.19420659207625682"></circle><circle r="4.153589040893506" cx="787.7691702145473" cy="790.8171717489188" opacity="0.8100555292898562"></circle><circle r="3.1496281733305977" cx="711.8587148418245" cy="792.4103419649482" opacity="0.47745123155919256"></circle><circle r="4.877775841661116" cx="212.9751731314907" cy="265.7015435793928" opacity="0.5886778580546447"></circle><circle r="5.18316267345054" cx="393.7013422816771" cy="42.150558112454505" opacity="0.5478077920272852"></circle><circle r="5.223914244012196" cx="55.94642012673334" cy="464.50336671631163" opacity="0.9615531184699293"></circle><circle r="6.36941582859137" cx="241.52682418430237" cy="720.2465614300609" opacity="0.9005150429714109"></circle><circle r="6.529613082193567" cx="589.3012845708306" cy="450.1364486067993" opacity="0.458354902543159"></circle><circle r="4.3476614352356835" cx="541.2000808208169" cy="263.8674537843845" opacity="0.8664406127355764"></circle><circle r="3.0958001990916375" cx="639.8879304776729" cy="686.5856313122783" opacity="0.14429707064825495"></circle><circle r="6.24307074929051" cx="183.52738831330294" cy="272.7312945295264" opacity="0.18943711737197702"></circle><circle r="3.7243213635549144" cx="408.56213021810174" cy="786.0271592331808" opacity="0.8961572080646859"></circle><circle r="4.623939039013233" cx="116.12164860993384" cy="459.3948938910041" opacity="0.5675277762124331"></circle><circle r="7.095058561805109" cx="115.00395398849182" cy="97.45695015015059" opacity="0.4004551336894403"></circle><circle r="4.862480909609658" cx="337.09737331305155" cy="673.6355950846229" opacity="0.7271320488828203"></circle><circle r="6.687898756558521" cx="550.1494470987312" cy="704.5758031177659" opacity="0.8081125993183238"></circle><circle r="4.566425966459677" cx="620.0104799058886" cy="100.31160405245969" opacity="0.4676110732094748"></circle><circle r="5.609993687990386" cx="235.49603560933772" cy="586.126613163624" opacity="0.559820631240099"></circle><circle r="6.60010066038684" cx="290.0526901887597" cy="646.3099999039415" opacity="0.30559883264043575"></circle><circle r="5.285900921623455" cx="788.7295676144108" cy="765.759580429757" opacity="0.9958336421668766"></circle><circle r="5.496582488231864" cx="510.58133086656767" cy="393.95609969136854" opacity="0.6845053639055428"></circle><circle r="8.846554153606728" cx="45.70039670427488" cy="183.27680146572686" opacity="0.1382650016673059"></circle><circle r="4.669710587975454" cx="418.89871959806135" cy="705.7281511653008" opacity="0.5993672485571678"></circle><circle r="7.976493328154023" cx="147.70017313548016" cy="280.4592601806016" opacity="0.24722778626728362"></circle><circle r="5.424898533183859" cx="35.11374768736364" cy="339.1624349051089" opacity="0.9031151936951514"></circle><circle r="5.760292031468758" cx="754.608746052704" cy="626.9024669589702" opacity="0.6313092325238175"></circle><circle r="4.247873824528705" cx="242.52621254392352" cy="543.0704158224654" opacity="0.3473904648431613"></circle><circle r="3.8243192915387394" cx="81.70461802589298" cy="464.5141709955969" opacity="0.4301677992065006"></circle><circle r="6.1512903840435245" cx="18.718528190968893" cy="588.3330075490892" opacity="0.16602223962821694"></circle><circle r="4.839033402594129" cx="583.2880966519838" cy="649.1714757504704" opacity="0.49950929677232603"></circle><circle r="4.892764387886832" cx="283.7198519443602" cy="617.2658003218958" opacity="0.8646581966965288"></circle><circle r="6.644937960377074" cx="187.393565203497" cy="333.69194531229965" opacity="0.8129870528702978"></circle><circle r="10.075535291663106" cx="316.2174908325768" cy="236.7462530432473" opacity="0.8301304827160526"></circle><circle r="5.311930694309626" cx="659.9587824747364" cy="43.71404162010647" opacity="0.12868028356175737"></circle><circle r="6.820557913081386" cx="493.77591831089313" cy="599.7709155167757" opacity="0.4964298751191294"></circle><circle r="6.422550241432071" cx="410.53475816845764" cy="190.36997323569136" opacity="0.4218136492453455"></circle><circle r="6.35921993616925" cx="435.4681651819185" cy="402.88412451153357" opacity="0.9763643238633332"></circle><circle r="5.582887913241948" cx="547.7692222219971" cy="390.36334216832734" opacity="0.9083835508551252"></circle><circle r="7.784630392906308" cx="429.8010503385687" cy="749.5931062439395" opacity="0.7136315024521815"></circle><circle r="6.218893949617382" cx="421.2296895626749" cy="365.0071476227053" opacity="0.6647505169585687"></circle><circle r="3.928442906909434" cx="68.70920106718633" cy="312.1326966003733" opacity="0.14234308560919512"></circle><circle r="5.5574061412752815" cx="200.78658679186412" cy="670.1156527337805" opacity="0.10026517991608655"></circle><circle r="5.445113371322727" cx="80.48748522284166" cy="553.6367285666091" opacity="0.6512280275787675"></circle><circle r="3.0282851353320854" cx="221.632265903157" cy="145.69607939921474" opacity="0.5888062999340932"></circle><circle r="8.24556667680786" cx="406.3698726032427" cy="463.44372476145077" opacity="0.4680207562179247"></circle><circle r="5.635336515015139" cx="537.2573441322389" cy="354.69813782154284" opacity="0.4176946871658236"></circle><circle r="2.8491192880253635" cx="439.35006846172" cy="486.74746241007585" opacity="0.25653378535500176"></circle><circle r="3.700002016514415" cx="626.8383903369775" cy="704.9785783095134" opacity="0.6223671918202286"></circle><circle r="7.346508832418916" cx="102.2025660528318" cy="758.8642988421711" opacity="0.8786953768358666"></circle><circle r="7.280240202796357" cx="614.5801937222155" cy="184.37543761105036" opacity="0.4586767771500917"></circle><circle r="3.7565127409970467" cx="384.15216498585454" cy="770.750093370849" opacity="0.593127952352242"></circle><circle r="6.011332684300473" cx="333.1294176088578" cy="575.5862447613432" opacity="0.3623608276601149"></circle><circle r="2.708871147388493" cx="541.1196340311537" cy="414.070123478175" opacity="0.37898386251449534"></circle><circle r="6.877784044631417" cx="503.9050535098573" cy="245.40247769834474" opacity="0.17877855077044424"></circle><circle r="6.4867913450835175" cx="617.4979830744916" cy="591.236228498362" opacity="0.4472932826481206"></circle><circle r="4.7018712674835665" cx="145.78336985666235" cy="755.9567361897333" opacity="0.2936325335715049"></circle><circle r="4.23381024916049" cx="137.76434086258098" cy="200.14139430972594" opacity="0.7715711238107406"></circle><circle r="6.08867978744281" cx="274.42655045651355" cy="320.2915242590905" opacity="0.46457212013734783"></circle><circle r="6.089523016029564" cx="724.0744251004737" cy="235.4098952133127" opacity="0.5907204573958829"></circle><circle r="5.467563159381221" cx="643.219657054523" cy="759.4963993290321" opacity="0.8203260120793919"></circle><circle r="7.215812055047628" cx="664.6395915612087" cy="705.2901489861541" opacity="0.11041762450059107"></circle><circle r="10.33503563273397" cx="225.4333661617076" cy="435.26473633666325" opacity="0.20366449654962085"></circle><circle r="4.005636330054286" cx="269.4169082408086" cy="43.095923255108175" opacity="0.4342172488752776"></circle><circle r="6.556673371618836" cx="627.2678664262459" cy="784.9268664643465" opacity="0.6174767745055225"></circle><circle r="4.942009697773546" cx="587.3115962340503" cy="691.2692840677976" opacity="0.11112003532450848"></circle><circle r="9.128727569787525" cx="389.93567323026633" cy="729.9049400789057" opacity="0.7207793898388023"></circle><circle r="6.3299673421640525" cx="381.025404016789" cy="301.41711062765364" opacity="0.43088307350987476"></circle><circle r="6.386482216553377" cx="115.43558733345245" cy="60.53939686830016" opacity="0.8232431857843798"></circle><circle r="4.969204068663607" cx="52.549399982896944" cy="429.01010346435953" opacity="0.8499902869783726"></circle><circle r="7.632389201245225" cx="389.0722869853671" cy="510.3843883680715" opacity="0.583231303329234"></circle><circle r="7.362509398744415" cx="116.90954181352525" cy="730.4175643009189" opacity="0.22674256539375517"></circle><circle r="5.628478950600872" cx="328.0382102275901" cy="638.3269668342886" opacity="0.9799380769000468"></circle><circle r="8.137649197844683" cx="503.33422074037856" cy="316.66843624799986" opacity="0.1927320400472491"></circle><circle r="7.372311779103632" cx="513.8217899206174" cy="126.32625856082386" opacity="0.6675346040441209"></circle><circle r="4.430912978905229" cx="747.6515133429874" cy="466.6330808513104" opacity="0.6789809963218527"></circle><circle r="8.000984321976404" cx="75.1758127511034" cy="741.4715679924822" opacity="0.9754294438759405"></circle><circle r="7.3521490408682375" cx="560.9079274940947" cy="672.1817667679451" opacity="0.9836134869217301"></circle><circle r="5.0793448820093055" cx="232.3787246849953" cy="356.3373850211277" opacity="0.951420363184372"></circle><circle r="6.8692327617067015" cx="235.01937238560333" cy="218.85655476209655" opacity="0.5068066932775882"></circle><circle r="5.637347740271848" cx="11.249050117243913" cy="315.52484742621647" opacity="0.6637129946427192"></circle><circle r="4.661297164356889" cx="148.39427808103858" cy="42.47901679603628" opacity="0.6355472686128233"></circle><circle r="6.540865824103442" cx="246.1338864507739" cy="760.7720127380877" opacity="0.5440074611407975"></circle><circle r="7.982666774486529" cx="649.4431085211505" cy="578.5325888475445" opacity="0.24846544740784407"></circle><circle r="5.120770035546245" cx="699.5647552585484" cy="120.10139045214251" opacity="0.651850320160722"></circle><circle r="5.859031852318678" cx="625.5877276183941" cy="279.4153476986332" opacity="0.3105273200863386"></circle><circle r="4.7446236727352336" cx="577.2422206728105" cy="187.1787182294813" opacity="0.21324573849346"></circle><circle r="2.810854243997178" cx="514.8589471042262" cy="614.1601628736863" opacity="0.7244181328847137"></circle><circle r="8.473099173923648" cx="362.8100923050679" cy="152.55526524267003" opacity="0.4214781417806862"></circle><circle r="4.406349163575678" cx="269.89868410781895" cy="107.64106136245753" opacity="0.7981872071689069"></circle><circle r="3.8497293862401554" cx="669.2064138636825" cy="763.2775282162166" opacity="0.7609614739520706"></circle><circle r="4.9387022124851025" cx="313.71767313075543" cy="140.39754810759206" opacity="0.7074248711897181"></circle><circle r="3.785673404401678" cx="199.14706958491257" cy="23.352890749064418" opacity="0.5061849744043527"></circle><circle r="4.237285393053656" cx="665.2777822885936" cy="523.5909912564154" opacity="0.8580761469511942"></circle><circle r="6.782018579838844" cx="765.682793819071" cy="167.54716780059263" opacity="0.7085138194035222"></circle><circle r="6.681206699760897" cx="174.39738240930467" cy="215.07262307595136" opacity="0.9103845482844961"></circle><circle r="4.5682829729466885" cx="424.440508503981" cy="258.75750376182725" opacity="0.6250540439681594"></circle><circle r="4.4968821824728" cx="363.13828881992083" cy="761.6370756324092" opacity="0.6611012174456121"></circle><circle r="5.802653190585518" cx="444.969307651319" cy="652.1159105922903" opacity="0.63180293616694"></circle><circle r="6.158145293691048" cx="601.881066791712" cy="412.5266372430384" opacity="0.34445218695807855"></circle><circle r="7.769422146739048" cx="583.0380814611937" cy="152.38799709423324" opacity="0.8682811738631582"></circle><circle r="7.0609585024924675" cx="535.5862521425017" cy="655.8615070962143" opacity="0.7032325233142313"></circle><circle r="5.876925016817628" cx="762.8568518518033" cy="512.5898381689468" opacity="0.9791498365441379"></circle><circle r="6.343265880538925" cx="496.8052070777167" cy="162.42527411249813" opacity="0.5103438369578982"></circle><circle r="5.0107584772278155" cx="223.19111474773135" cy="785.8825686842688" opacity="0.4056605493519454"></circle><circle r="5.136130347599639" cx="509.7431803372765" cy="637.3390712675123" opacity="0.23013660148310403"></circle><circle r="7.622756472387062" cx="49.91205827373655" cy="52.36559351191043" opacity="0.6233399465823328"></circle><circle r="5.866629431598472" cx="739.4657511002825" cy="327.12469557151894" opacity="0.8251669620402337"></circle><circle r="7.030342916606058" cx="576.6446974767591" cy="375.0578257631563" opacity="0.6689753367629233"></circle><circle r="4.23026899795832" cx="536.8601811374352" cy="87.71210380890054" opacity="0.9013485508767559"></circle><circle r="3.0785007298603966" cx="263.51776258010636" cy="622.0887763625568" opacity="0.9405420434757139"></circle><circle r="3.8957664069459206" cx="621.1089322075019" cy="650.4790048207656" opacity="0.7723248938048625"></circle><circle r="6.47906237155642" cx="495.9242231227933" cy="665.3197532003195" opacity="0.39507044812753456"></circle><circle r="4.064697743557286" cx="588.590279141754" cy="617.7372075408803" opacity="0.9627445113042651"></circle><circle r="3.0729238558384515" cx="708.8372572830275" cy="486.2575598711338" opacity="0.9440162912864223"></circle><circle r="5.287444687494454" cx="254.91891325774378" cy="600.33439665869" opacity="0.6656363829003313"></circle><circle r="7.14453220131745" cx="55.385795705766746" cy="573.0940849936694" opacity="0.2579505746393739"></circle><circle r="4.979150385396494" cx="616.1505576881846" cy="497.3693133274076" opacity="0.7975215373825489"></circle><circle r="3.9338089132101883" cx="65.69974619067025" cy="392.1694109196919" opacity="0.346270793779365"></circle><circle r="4.57372895950061" cx="783.0164168414229" cy="539.9177796856419" opacity="0.39767375367062385"></circle><circle r="7.98130192182294" cx="30.47325102689638" cy="730.9933474643701" opacity="0.5692015429594688"></circle><circle r="4.564473182309621" cx="719.7146093649238" cy="776.8471467230653" opacity="0.18997468353643757"></circle><circle r="6.509401859158443" cx="314.38594512023246" cy="179.68253198297973" opacity="0.5795255016020309"></circle><circle r="4.666373114555951" cx="403.8993173412447" cy="63.49558250529761" opacity="0.6854173530051169"></circle><circle r="5.329239160471109" cx="613.7338556333483" cy="247.65855174221733" opacity="0.2707850711360341"></circle><circle r="3.9435300637821475" cx="789.1303689071067" cy="433.47685720997885" opacity="0.8992170995248078"></circle><circle r="6.892161877093341" cx="525.7853471709798" cy="732.6719997142361" opacity="0.7622469755875688"></circle><circle r="2.0831845638525275" cx="243.02287534274345" cy="137.31200967462806" opacity="0.4585411053305617"></circle><circle r="6.085648350778174" cx="479.92183264486033" cy="87.25255903153896" opacity="0.958767820656275"></circle><circle r="6.6582202164586795" cx="49.756529490578195" cy="602.1298243617938" opacity="0.6180211966328818"></circle><circle r="8.121576012406937" cx="87.12562287021372" cy="593.890114781013" opacity="0.8298679083826881"></circle><circle r="6.5832934375032295" cx="266.8623907114839" cy="680.613485551189" opacity="0.618120292630295"></circle><circle r="2.583508415650461" cx="686.9679387669801" cy="789.8052360002974" opacity="0.5537018445961492"></circle><circle r="4.949261973555478" cx="783.7750308337091" cy="309.9459787631208" opacity="0.46706650042742803"></circle><circle r="4.072112650265763" cx="639.83229929966" cy="531.0552032377477" opacity="0.6364477423730124"></circle><circle r="4.725893008756708" cx="199.7625846188452" cy="195.73633649255703" opacity="0.23989355098695198"></circle><circle r="4.226817449174439" cx="414.5647161506311" cy="108.24400140721993" opacity="0.2876190797169799"></circle><circle r="6.092478319709192" cx="531.9550548449726" cy="234.57050050542372" opacity="0.9967012370778111"></circle><circle r="7.253627468796812" cx="632.8155118869615" cy="215.22426089547943" opacity="0.7086122510511946"></circle><circle r="7.252644133554659" cx="115.41650469683593" cy="276.17253758171665" opacity="0.5815465231694305"></circle><circle r="5.904729333663873" cx="784.2675713153408" cy="633.2752874023878" opacity="0.45395183568914255"></circle><circle r="4.290684823136269" cx="88.24935275001563" cy="366.5964336412583" opacity="0.9376281009240789"></circle><circle r="6.364505307753123" cx="723.8446606803257" cy="624.0333052686457" opacity="0.1548905114332069"></circle><circle r="4.775139136304389" cx="582.5408330002103" cy="88.38180878328986" opacity="0.12317523177009192"></circle><circle r="6.297218676604366" cx="271.6721282043533" cy="730.3684770686316" opacity="0.6524500021699317"></circle><circle r="7.55238752593779" cx="16.60966199084466" cy="145.78169460752528" opacity="0.2214250031375879"></circle><circle r="6.74972639587907" cx="100.80398351088225" cy="19.842640692250505" opacity="0.48471551872081264"></circle><circle r="5.188914372262302" cx="618.4805030562445" cy="150.35339077698697" opacity="0.6340346671791851"></circle><circle r="5.071002293623991" cx="728.218431368641" cy="586.9359095503033" opacity="0.11316293893661089"></circle><circle r="5.685512917269547" cx="516.491344333442" cy="573.8868106407255" opacity="0.5112851140328011"></circle><circle r="4.588574385555669" cx="790.6710963684574" cy="740.2605558259912" opacity="0.26944422544532076"></circle><circle r="7.3816017444469955" cx="80.15019890325108" cy="169.04697522465307" opacity="0.594127565258361"></circle><circle r="4.65392910858763" cx="247.56685011879466" cy="19.742097747663443" opacity="0.36333472718282556"></circle><circle r="2.710237436957384" cx="728.1357470451763" cy="472.46964179062326" opacity="0.40831784388426284"></circle><circle r="6.205650962611679" cx="149.3685625619213" cy="78.7721170981794" opacity="0.6215149339297849"></circle><circle r="7.89897561258579" cx="465.13695489013213" cy="382.64745826086323" opacity="0.9654756498369181"></circle><circle r="7.903159063404543" cx="172.10254863896745" cy="304.8763122473671" opacity="0.43430573159704566"></circle><circle r="4.9115298466121775" cx="763.6798284256193" cy="239.0876302117243" opacity="0.3187670835492574"></circle><circle r="8.083917534033235" cx="145.0493942140869" cy="527.8768072806856" opacity="0.7127611702718454"></circle><circle r="7.155110825428293" cx="702.3926553118001" cy="603.0361569747639" opacity="0.6963944715302656"></circle><circle r="5.463000850887253" cx="694.9517406852989" cy="670.1686085417207" opacity="0.5120543746759937"></circle><circle r="5.117637862192025" cx="38.99922087518227" cy="14.103224521452955" opacity="0.14527408073976147"></circle><circle r="4.85808402012904" cx="80.79702854588461" cy="65.86335139266683" opacity="0.9941490580857073"></circle><circle r="5.825397278564918" cx="327.94683555388303" cy="524.5089465458944" opacity="0.6099270337333736"></circle><circle r="3.230768565105402" cx="721.1124243120611" cy="511.321446486755" opacity="0.3378053201452892"></circle><circle r="7.0418781902617" cx="727.2931703580538" cy="656.8753822532667" opacity="0.25627288822419836"></circle><circle r="5.669849581599098" cx="657.6082629178732" cy="664.3709444593915" opacity="0.5352863918346664"></circle><circle r="7.165466923907177" cx="697.7394257679819" cy="716.1356477682351" opacity="0.5613243294297078"></circle><circle r="3.9964156500967833" cx="461.0886707973653" cy="38.832948453325606" opacity="0.7239136025231406"></circle><circle r="4.229545864219214" cx="530.1247941894013" cy="493.15931670663736" opacity="0.5295716579223045"></circle><circle r="6.721891153637101" cx="214.78642674612854" cy="630.3985294375613" opacity="0.9001154667585199"></circle><circle r="8.563748664143125" cx="308.97605398028236" cy="17.97607425653437" opacity="0.8616688552775357"></circle><circle r="6.037711676356581" cx="312.42661289124106" cy="612.151477203414" opacity="0.9374424964354118"></circle><circle r="6.738107350529729" cx="504.88056551816" cy="529.4630846943086" opacity="0.3754979049270619"></circle><circle r="4.234055986422379" cx="510.61776650823435" cy="97.13859370010279" opacity="0.49998272496543494"></circle><circle r="3.2755858627420302" cx="760.3766696386328" cy="21.333073710775093" opacity="0.6147974981392224"></circle><circle r="6.225641920390004" cx="292.91235383646415" cy="540.5465303781284" opacity="0.8279418446568241"></circle><circle r="3.1813135004796047" cx="76.98498710015264" cy="502.4582980195212" opacity="0.6744276164273417"></circle><circle r="6.582432430795134" cx="472.35291853619566" cy="528.9974650759967" opacity="0.4501893466879968"></circle><circle r="3.9634934621122344" cx="150.18671687209945" cy="785.4622358269085" opacity="0.7672602481159478"></circle><circle r="5.455988451422604" cx="612.5259246871009" cy="543.8214649745044" opacity="0.7440167234564417"></circle><circle r="6.937380387545501" cx="340.0273890939016" cy="203.83459220540527" opacity="0.5305508913390505"></circle><circle r="5.682317043397465" cx="674.2167118954208" cy="142.0108189360809" opacity="0.19989201546397972"></circle><circle r="2.8049161444192796" cx="559.152192497249" cy="595.6554320402079" opacity="0.4219296668864676"></circle><circle r="5.420870830352966" cx="786.0518707222262" cy="396.0347858913502" opacity="0.6252933736432783"></circle><circle r="5.082011354602694" cx="653.1064348677738" cy="473.64899379526275" opacity="0.3603884851438621"></circle><circle r="6.269846068066886" cx="563.724233097382" cy="62.619000595649396" opacity="0.15825299865265102"></circle><circle r="6.124580433657119" cx="307.74014473962774" cy="674.6346169073311" opacity="0.3046624998338025"></circle><circle r="5.611333281269859" cx="709.3796589425824" cy="436.3507068609866" opacity="0.8894371012138"></circle><circle r="6.422968224104391" cx="663.8371628225283" cy="172.62220209026867" opacity="0.827119566654235"></circle><circle r="7.8117324066217115" cx="595.3311891230518" cy="217.63640230973402" opacity="0.79492823095115"></circle><circle r="6.7777762442411795" cx="473.2087121409839" cy="131.1795896091776" opacity="0.16728128817013194"></circle><circle r="4.656424520705127" cx="499.21675675157064" cy="197.9726883989585" opacity="0.6983338836632635"></circle><circle r="4.729602479720025" cx="567.6193807093863" cy="340.56029829614897" opacity="0.9971819799906753"></circle><circle r="3.934210606512449" cx="694.6348873985914" cy="169.28827722835752" opacity="0.31953711035589"></circle><circle r="3.3160067804797886" cx="480.91723198584697" cy="52.93482814100436" opacity="0.4278598709163568"></circle><circle r="3.305789745720804" cx="271.8030765830922" cy="11.788078406499238" opacity="0.17753137233205363"></circle><circle r="6.4202960179325" cx="52.325882110655456" cy="365.5983436642781" opacity="0.9486539540504155"></circle><circle r="7.433763602383758" cx="13.837006630559562" cy="46.93445872841386" opacity="0.4164426072286893"></circle><circle r="7.431406303929801" cx="245.15674130524692" cy="390.7219278274784" opacity="0.41086839087741345"></circle><circle r="5.618546954366865" cx="745.860377810499" cy="134.0349589252213" opacity="0.3301206876199807"></circle><circle r="4.3956601162131825" cx="439.8086032084343" cy="13.271366602872712" opacity="0.12375866679299077"></circle><circle r="3.979498958032712" cx="249.73310366546667" cy="176.90568906226798" opacity="0.8923722503140508"></circle><circle r="5.623496474064709" cx="739.0107300221497" cy="550.9985215869555" opacity="0.3694218603803272"></circle><circle r="5.909574765686976" cx="119.97879039837021" cy="672.2454470061083" opacity="0.1327432527505025"></circle><circle r="2.632034655420434" cx="726.4184442396194" cy="754.5966309424587" opacity="0.85811638204395"></circle><circle r="7.08330163461872" cx="133.953585346463" cy="131.614473013637" opacity="0.4990739966502561"></circle><circle r="4.75472198905032" cx="776.2712932430328" cy="269.31809392160767" opacity="0.22368145076971463"></circle><circle r="3.77159262381184" cx="139.37506995330477" cy="619.9974641663323" opacity="0.30789256323631176"></circle><circle r="3.5187150423777704" cx="472.0816367674974" cy="446.52691772305354" opacity="0.11378295585766146"></circle><circle r="5.530219815573892" cx="615.6261816918576" cy="384.1387570121776" opacity="0.3691335530901064"></circle><circle r="5.24860310568759" cx="454.5671201239121" cy="552.6259583330932" opacity="0.6446352695006173"></circle><circle r="6.111311033807024" cx="36.66995039846156" cy="309.075030519863" opacity="0.5470177074567327"></circle><circle r="5.530078057693689" cx="406.078989370128" cy="282.7452698872999" opacity="0.270558813428984"></circle><circle r="6.848113809868299" cx="615.7003113853049" cy="307.9407789622348" opacity="0.48538883882366624"></circle><circle r="5.78916612865449" cx="502.7664555136871" cy="764.0962973722627" opacity="0.9381366485519632"></circle><circle r="6.296501860155434" cx="193.6177489509635" cy="582.535241696993" opacity="0.5145611013144127"></circle><circle r="4.04906158340814" cx="768.6195647365165" cy="122.14790500857322" opacity="0.6975512672891796"></circle><circle r="5.316569810182314" cx="271.7393305428981" cy="375.6844745546772" opacity="0.4636404242247567"></circle><circle r="6.45217785704785" cx="219.45043170261928" cy="180.05679494132576" opacity="0.45995304238361734"></circle><circle r="2.8503989127774707" cx="327.55091320906274" cy="711.9377241057143" opacity="0.973367758870041"></circle><circle r="4.048507477236905" cx="449.69469326308206" cy="439.5993093433235" opacity="0.5453660172219105"></circle><circle r="6.918781243244839" cx="225.2013427039335" cy="694.7662985804938" opacity="0.9901814397996562"></circle><circle r="5.705912302466341" cx="293.75310358827966" cy="268.1108186592109" opacity="0.6110712963887408"></circle><circle r="7.325326641599563" cx="384.8930525894674" cy="223.65446113653132" opacity="0.9409100057049904"></circle><circle r="5.695651438340601" cx="686.1464026282673" cy="561.2545274415464" opacity="0.37203933665997824"></circle><circle r="6.517667857679945" cx="616.9422871695112" cy="623.4168091114185" opacity="0.9323193620214811"></circle><circle r="3.545936202043114" cx="152.45409346135008" cy="493.08064620704533" opacity="0.934401557124539"></circle><circle r="6.6006901503659865" cx="37.259950143097264" cy="643.8058612967812" opacity="0.9327142758746331"></circle><circle r="4.44249871069435" cx="533.5467256933777" cy="438.47978734164275" opacity="0.7656604158665424"></circle><circle r="8.83784522481229" cx="40.74047776588438" cy="234.22603996748367" opacity="0.13602764003771642"></circle><circle r="7.915652809011601" cx="507.81332423829554" cy="54.14144372398781" opacity="0.32167046605240096"></circle><circle r="4.578553050842722" cx="790.5383650344372" cy="83.6182911102792" opacity="0.57027267739941"></circle><circle r="6.05753436286357" cx="155.0497435537516" cy="723.9117755584532" opacity="0.35397291215734505"></circle><circle r="8.33999280631025" cx="402.0102819860352" cy="660.8788193993283" opacity="0.9610600118998119"></circle></g></svg>