<svg xmlns="http://www.w3.org/2000/svg" version="1.1" xmlns:xlink="http://www.w3.org/1999/xlink" xmlns:svgjs="http://svgjs.dev/svgjs" viewBox="0 0 800 800"><defs><filter id="ssspot-filter" x="-20%" y="-20%" width="140%" height="140%" filterUnits="objectBoundingBox" primitiveUnits="userSpaceOnUse" color-interpolation-filters="sRGB">
	<feTurbulence type="turbulence" baseFrequency="0.022 0.218" numOctaves="2" seed="70" stitchTiles="stitch" x="0%" y="0%" width="100%" height="100%" result="turbulence"></feTurbulence>
	<feGaussianBlur stdDeviation="0 3" x="0%" y="0%" width="100%" height="100%" in="turbulence" edgeMode="duplicate" result="blur"></feGaussianBlur>
	<feDisplacementMap in="SourceGraphic" in2="blur" scale="32" xChannelSelector="R" yChannelSelector="B" x="0%" y="0%" width="100%" height="100%" result="displacementMap"></feDisplacementMap>
</filter></defs><rect width="100%" height="100%" fill="#080f11"></rect><g fill="hsl(0, 0%, 58%)" filter="url(#ssspot-filter)"><circle r="3.7492513020182745" cx="625.4182742214506" cy="600.2952127708033" opacity="0.945019375499603"></circle><circle r="5.76228788657559" cx="425.02654763145046" cy="536.6884565586805" opacity="0.9075085857255815"></circle><circle r="6.1575813968574575" cx="260.5561399706416" cy="185.53758642833878" opacity="0.3998777694915211"></circle><circle r="4.581782617378648" cx="531.0833230184062" cy="604.6726673709859" opacity="0.333762171889878"></circle><circle r="6.425748732847177" cx="22.148230612647065" cy="254.77191133062365" opacity="0.3635970105299835"></circle><circle r="5.803445624827796" cx="52.11075208235213" cy="21.811386564126483" opacity="0.8174558997454877"></circle><circle r="2.2267610333756407" cx="703.4942627178868" cy="209.13850250703737" opacity="0.9273256124666175"></circle><circle r="5.218786392318002" cx="444.6506951465921" cy="378.92021852795295" opacity="0.8471122212494587"></circle><circle r="4.977662315481409" cx="109.02290558143157" cy="582.5780199972562" opacity="0.6399074506038733"></circle><circle r="4.9121772147378975" cx="20.050395601892955" cy="650.9400645207651" opacity="0.10364652621681476"></circle><circle r="3.723429951726219" cx="767.6178524696027" cy="284.57873436436284" opacity="0.5202458570201131"></circle><circle r="6.801870521550656" cx="433.2128616352934" cy="757.2557556234284" opacity="0.256112213579336"></circle><circle r="6.537376313701728" cx="248.98882673181095" cy="783.7189981713357" opacity="0.31631287448721324"></circle><circle r="4.658752383118662" cx="214.67270225933183" cy="277.711089417356" opacity="0.751356080332317"></circle><circle r="5.425612400863384" cx="134.30645080197456" cy="548.2788710215414" opacity="0.38767651998788133"></circle><circle r="2.8862451606071033" cx="552.8305449137495" cy="759.2609138229159" opacity="0.5834442122727199"></circle><circle r="4.3598553936886075" cx="135.12667893843795" cy="176.7796980189569" opacity="0.46654953856636316"></circle><circle r="2.5873821876138" cx="706.3809773320704" cy="192.84507895409487" opacity="0.5269487960701403"></circle><circle r="5.095060977717367" cx="357.32562999838126" cy="11.336878423647057" opacity="0.1174193293630913"></circle><circle r="3.979124819203708" cx="733.745085774225" cy="719.3504259857441" opacity="0.1365571561368729"></circle><circle r="4.9220624733294684" cx="117.44816743011964" cy="88.60377123662886" opacity="0.11649808684105742"></circle><circle r="5.266453067076064" cx="114.74778496625879" cy="153.34057884838825" opacity="0.7591494915546948"></circle><circle r="8.433109601736" cx="170.14895371472178" cy="649.8744615481677" opacity="0.2838666385706611"></circle><circle r="4.7371711219220245" cx="350.1851249431684" cy="82.8158204106777" opacity="0.9734803008848825"></circle><circle r="6.809971567167235" cx="260.9954959399782" cy="339.47474921900965" opacity="0.4450352405590209"></circle><circle r="4.461962613039588" cx="476.8184193624611" cy="184.31178128074671" opacity="0.6830719113268913"></circle><circle r="5.556237998409088" cx="374.0763897059963" cy="155.3101121398287" opacity="0.14139138487509095"></circle><circle r="3.319642951107343" cx="711.9372531677053" cy="250.21694597423797" opacity="0.6544195457081519"></circle><circle r="6.001586285911035" cx="618.695517320219" cy="459.2168268643704" opacity="0.2695599100408492"></circle><circle r="7.159400982909428" cx="67.8368095760151" cy="63.688309024924756" opacity="0.9045708499520184"></circle><circle r="6.638139905205741" cx="506.15925772741235" cy="537.2127614218956" opacity="0.8383190040968208"></circle><circle r="7.262570332349252" cx="612.7251091029973" cy="415.83322632369715" opacity="0.19400068287308941"></circle><circle r="5.9064210271920805" cx="566.4215949296635" cy="639.3469877304217" opacity="0.520916858412566"></circle><circle r="3.4484003703884802" cx="107.65407192557385" cy="220.57744775484946" opacity="0.799127192246739"></circle><circle r="4.894710692172189" cx="423.0962940513751" cy="351.87123466370826" opacity="0.472310902385067"></circle><circle r="6.407871105833543" cx="663.7967281367578" cy="107.55718512434244" opacity="0.7345705742260379"></circle><circle r="5.669756596342168" cx="16.681705049630043" cy="573.9169227105052" opacity="0.308455724163169"></circle><circle r="2.9044132368120796" cx="271.48198196974874" cy="81.86253559188344" opacity="0.293615791721016"></circle><circle r="3.334133140920383" cx="245.26012003298345" cy="549.7086095016687" opacity="0.4268960195251891"></circle><circle r="4.904594896784117" cx="708.2375841933139" cy="585.6433364561101" opacity="0.3170797066716181"></circle><circle r="4.707858887583294" cx="163.7387633273514" cy="519.4211658092553" opacity="0.1571357099617766"></circle><circle r="4.7955175313428615" cx="348.05750309909655" cy="37.094558447408595" opacity="0.13328471420017934"></circle><circle r="8.617753056645421" cx="295.83912318956266" cy="717.1806738488714" opacity="0.9097843854372256"></circle><circle r="4.194880656733178" cx="57.777693147396555" cy="589.7414461149572" opacity="0.8507702856725815"></circle><circle r="8.746547946795" cx="68.21232570810206" cy="658.9185233611528" opacity="0.9455319358305795"></circle><circle r="5.632050973198329" cx="137.4440241612843" cy="517.3956652873742" opacity="0.8870467693396292"></circle><circle r="4.681270564050015" cx="131.17104209599896" cy="340.11295608194416" opacity="0.9432744269598189"></circle><circle r="4.781963011178134" cx="15.157574324894473" cy="21.18589263181825" opacity="0.38151731397708744"></circle><circle r="4.8287808999070725" cx="518.3373417623259" cy="506.5315433775587" opacity="0.5216490160632158"></circle><circle r="5.783285802907496" cx="657.229403188708" cy="320.29996026141157" opacity="0.7187300139991227"></circle><circle r="5.648529900774162" cx="552.5873414519343" cy="708.9936653390874" opacity="0.3673211053348726"></circle><circle r="5.892913638805443" cx="779.8900013630214" cy="182.8045920909741" opacity="0.781588897619836"></circle><circle r="3.7645339012586696" cx="16.450453941667337" cy="452.64320203640466" opacity="0.7602979700350148"></circle><circle r="4.925191558576675" cx="569.1620932552227" cy="449.57375539021456" opacity="0.3026012500867521"></circle><circle r="5.609074057941003" cx="493.8049446585645" cy="635.8456276280727" opacity="0.39529638259764033"></circle><circle r="8.12922824742087" cx="246.23186155318098" cy="452.68532155960946" opacity="0.8771786977888877"></circle><circle r="4.258332253228424" cx="750.9026450244628" cy="683.3237142206153" opacity="0.4466146870380431"></circle><circle r="6.929773599868602" cx="585.8249626120048" cy="17.68229746126437" opacity="0.7029120823537112"></circle><circle r="5.224640691553764" cx="759.6455370760657" cy="160.87775327036562" opacity="0.561296631834023"></circle><circle r="5.577127415026909" cx="200.7474765149359" cy="490.5685036581807" opacity="0.5942730004200075"></circle><circle r="6.7737074486156885" cx="435.4604325366116" cy="444.3986561483577" opacity="0.9040684306808141"></circle><circle r="9.768172551722605" cx="19.971191576682" cy="770.7567803934841" opacity="0.5147830225440471"></circle><circle r="6.19864013201642" cx="605.9096726005583" cy="128.8998406832684" opacity="0.1749280566026571"></circle><circle r="4.372507214422432" cx="766.4986191986274" cy="438.28719215070265" opacity="0.6753128285707608"></circle><circle r="5.628095906965503" cx="326.9162645499552" cy="631.3099077489751" opacity="0.7800181924049318"></circle><circle r="4.342802798742649" cx="532.6790419548181" cy="667.1707133106538" opacity="0.881275142580903"></circle><circle r="5.213945686762143" cx="339.4665733909705" cy="585.9747531887473" opacity="0.6366542100066911"></circle><circle r="5.859270338918128" cx="687.260470430317" cy="614.1355311060589" opacity="0.796547128420537"></circle><circle r="9.671701278530167" cx="156.2450300364794" cy="141.35683493998755" opacity="0.29163465746684925"></circle><circle r="4.580592877808792" cx="583.710142798182" cy="744.631345622105" opacity="0.511676909495719"></circle><circle r="8.975920826107213" cx="256.89384385053177" cy="693.6394822972193" opacity="0.15194274584025208"></circle><circle r="4.579013734521034" cx="77.05842397903864" cy="99.20288821641378" opacity="0.655387686703084"></circle><circle r="6.132268806362209" cx="576.9922831166529" cy="257.56649427882115" opacity="0.21263085882974636"></circle><circle r="4.746766778722906" cx="267.0859313074839" cy="16.4279436528467" opacity="0.5481242103748551"></circle><circle r="4.813544595928446" cx="733.8378101857082" cy="191.77051997429206" opacity="0.5626456516704498"></circle><circle r="7.19179429762765" cx="152.73972748259254" cy="372.32879821801527" opacity="0.690082731235151"></circle><circle r="6.0349239908828" cx="81.99613320974737" cy="589.2639017281276" opacity="0.3348193804382555"></circle><circle r="3.592134335989614" cx="781.3162401142384" cy="658.0148625475164" opacity="0.2590218155388162"></circle><circle r="4.5484924658550385" cx="48.16750113926859" cy="183.22480811949941" opacity="0.4942954718523801"></circle><circle r="4.919298953089724" cx="362.5866158714758" cy="765.325902674568" opacity="0.3342961622528602"></circle><circle r="4.700621568463635" cx="91.81622993387654" cy="748.1529647974565" opacity="0.8493448409996249"></circle><circle r="4.891625426721541" cx="364.13265947871986" cy="637.2174994411159" opacity="0.45838354707671314"></circle><circle r="2.6895240094505968" cx="119.53965829429349" cy="127.85900595147973" opacity="0.54468649275523"></circle><circle r="5.821324428674895" cx="742.5616346562815" cy="272.4927309239869" opacity="0.5922558127288072"></circle><circle r="7.294486676903301" cx="308.06365451065136" cy="281.96638549468355" opacity="0.6579182481507901"></circle><circle r="6.289122895979489" cx="363.95319280543737" cy="731.3324516458218" opacity="0.9804837028553686"></circle><circle r="6.295577274295678" cx="486.8643369142243" cy="208.42167445123854" opacity="0.2958228155499283"></circle><circle r="4.3199042049513645" cx="92.90480870088707" cy="360.3074108997323" opacity="0.23500755193953995"></circle><circle r="4.952005374269098" cx="559.9899706811773" cy="97.58047935895611" opacity="0.9688246592618615"></circle><circle r="6.104556823116015" cx="588.824579098653" cy="319.31273966109467" opacity="0.8297180973079786"></circle><circle r="4.823241721712965" cx="574.822320209777" cy="204.84128140342023" opacity="0.8211118149224649"></circle><circle r="7.144777365115937" cx="161.71130074663228" cy="29.513971936029268" opacity="0.21625376264613783"></circle><circle r="3.8637131177649504" cx="207.42875118656283" cy="785.7030054187425" opacity="0.4965167016832178"></circle><circle r="6.192944216504042" cx="292.91572124284136" cy="773.2684397187915" opacity="0.3376166220392909"></circle><circle r="5.527486892121745" cx="637.9075797633049" cy="674.9749221434174" opacity="0.5618467114754295"></circle><circle r="4.251020907561687" cx="296.442053344579" cy="38.947601779849954" opacity="0.9499402732342225"></circle><circle r="5.108209070334441" cx="437.50066264908514" cy="139.9074648826411" opacity="0.5235488467775173"></circle><circle r="5.660862776977604" cx="597.015728994176" cy="178.60517599271256" opacity="0.1447549695315598"></circle><circle r="6.179916363365374" cx="428.2495696233493" cy="504.5590623424654" opacity="0.9262407558064945"></circle><circle r="4.138029035017959" cx="626.3166094443177" cy="384.88417461275066" opacity="0.1448763666939474"></circle><circle r="7.543190891990131" cx="444.76729581021857" cy="19.761652774405363" opacity="0.9937793207425455"></circle><circle r="7.398107786312685" cx="384.3843745983796" cy="666.4856332695792" opacity="0.42042181637904597"></circle><circle r="6.406235064426077" cx="366.90488604763584" cy="456.010466309306" opacity="0.4399836237656798"></circle><circle r="5.44653067923375" cx="196.18026447457788" cy="296.29794853243834" opacity="0.7381432011333722"></circle><circle r="7.167920364430968" cx="689.9580551404125" cy="299.85029682769857" opacity="0.5910715318300197"></circle><circle r="5.795912434841002" cx="315.54379819853045" cy="329.04595763785954" opacity="0.35074072173974535"></circle><circle r="4.8084228021353725" cx="668.2581209631537" cy="439.1387646160969" opacity="0.9511773285364061"></circle><circle r="2.022407914482511" cx="700.4719338326177" cy="793.2548621917788" opacity="0.517686598641946"></circle><circle r="7.229879931542252" cx="222.2674728306782" cy="249.9463896286059" opacity="0.6924927269562813"></circle><circle r="6.974009331902301" cx="146.8693471232851" cy="445.5536796408861" opacity="0.26286141947617037"></circle><circle r="7.902677531797453" cx="779.5650342074038" cy="466.1866384268173" opacity="0.28377167567069034"></circle><circle r="4.757231087044158" cx="568.0171336884669" cy="540.2731488370526" opacity="0.8609560212556356"></circle><circle r="3.370307980817496" cx="737.271847600805" cy="781.6836765018834" opacity="0.13707956634996085"></circle><circle r="6.349176051293039" cx="327.2358296190332" cy="470.68736535500153" opacity="0.9107097167379173"></circle><circle r="6.667298580438642" cx="698.2144701349451" cy="660.7968024906405" opacity="0.3756179872860905"></circle><circle r="8.487882173071137" cx="411.09711754973245" cy="74.05513399615594" opacity="0.4787937449135189"></circle><circle r="5.382071174156401" cx="782.3265139308181" cy="502.3438907879025" opacity="0.29896075347273754"></circle><circle r="6.571127676733795" cx="254.14964396224943" cy="507.6212059459074" opacity="0.6695218793642301"></circle><circle r="5.527395766510319" cx="149.62508930257252" cy="611.9000963139471" opacity="0.2558014155129844"></circle><circle r="5.2433741896847055" cx="754.0230930523769" cy="526.9802392710396" opacity="0.32441595260946376"></circle><circle r="7.545377581291565" cx="773.9642188267965" cy="104.17323249693409" opacity="0.8477163646781332"></circle><circle r="4.868549900927111" cx="98.84025794998735" cy="393.3313395394808" opacity="0.18818965747132105"></circle><circle r="6.014730197464418" cx="596.2313853740552" cy="593.9678511476264" opacity="0.12761447458308767"></circle><circle r="4.260429627096184" cx="440.90454519077593" cy="95.18833489810996" opacity="0.6376759796919828"></circle><circle r="3.805959560088974" cx="593.0413072362333" cy="458.2234948609431" opacity="0.958362008889956"></circle><circle r="6.632698269926603" cx="331.36332169646727" cy="58.573928299842116" opacity="0.1938951240757089"></circle><circle r="5.0900052943728165" cx="250.3583880523207" cy="79.0871722552259" opacity="0.6607499990480814"></circle><circle r="4.876264967134194" cx="393.70608375734344" cy="727.7103122378705" opacity="0.7062069988695692"></circle><circle r="4.996339318219661" cx="537.2111010666257" cy="413.10833736733434" opacity="0.5925253161607129"></circle><circle r="3.515910033999499" cx="82.94322620477556" cy="227.20090979114036" opacity="0.458009565464356"></circle><circle r="2.593395910297232" cx="686.8915205936545" cy="790.461123702218" opacity="0.9410881227586176"></circle><circle r="6.20747614271399" cx="301.5136661718421" cy="670.472245175706" opacity="0.962412222009823"></circle><circle r="4.798245256968938" cx="522.6207512944846" cy="265.6447733492278" opacity="0.29207191217651507"></circle><circle r="5.391170005596441" cx="581.8076586089917" cy="571.145194352658" opacity="0.299756433379918"></circle><circle r="5.732319746816129" cx="541.4761232203908" cy="324.8267927610085" opacity="0.17243242121380645"></circle><circle r="6.416687963505884" cx="340.1637752717703" cy="346.79117511002573" opacity="0.2838476195313948"></circle><circle r="6.080186965864058" cx="616.8643494084403" cy="196.6493559296372" opacity="0.543284137120903"></circle><circle r="5.99441707671436" cx="743.5095493770868" cy="494.4270821416004" opacity="0.43938534133643115"></circle><circle r="4.993535474765876" cx="555.5815548958407" cy="13.184645350954588" opacity="0.8373394170962443"></circle><circle r="5.228504014200793" cx="119.03667306003136" cy="654.3902568007198" opacity="0.6972404207431318"></circle><circle r="4.936416159640743" cx="241.05735061727162" cy="367.5841291094021" opacity="0.5857466543219457"></circle><circle r="3.9125063732876946" cx="355.02976570085673" cy="369.9701097462503" opacity="0.34489601637484574"></circle><circle r="4.500637659420703" cx="238.67497108288416" cy="309.20661983906933" opacity="0.6168897934853929"></circle><circle r="4.300368895905912" cx="192.46016586624762" cy="522.0200049844736" opacity="0.807765283957554"></circle><circle r="7.8261172558889225" cx="192.6927198000914" cy="117.5940078005581" opacity="0.2694158500240663"></circle><circle r="5.614023959329662" cx="780.4773659417856" cy="627.0102109804628" opacity="0.5548097116780075"></circle><circle r="6.106188852777656" cx="459.89302727764795" cy="320.1195442712637" opacity="0.9145026405505434"></circle><circle r="6.947919391511352" cx="130.05902437455595" cy="779.7899949793759" opacity="0.10500827501572889"></circle><circle r="8.140480084851115" cx="87.1674337672103" cy="694.1450851532902" opacity="0.1749157890524159"></circle><circle r="4.545452510975731" cx="734.3977052687801" cy="448.7081588038321" opacity="0.16582181076928032"></circle><circle r="8.056463761279952" cx="54.64219545096356" cy="729.9815644654119" opacity="0.24022424371340426"></circle><circle r="7.895353733870504" cx="564.5133056243279" cy="669.4989995612831" opacity="0.8934182940700003"></circle><circle r="4.281125418981828" cx="337.3483158164728" cy="379.52633995833116" opacity="0.8472434801578123"></circle><circle r="5.77439360261652" cx="192.38050290944014" cy="75.64864731374647" opacity="0.9420813600976092"></circle><circle r="4.152726406095754" cx="476.1795177970309" cy="516.2600518216046" opacity="0.10304475704644982"></circle><circle r="3.6078763072752067" cx="419.06296991839844" cy="116.85863845290274" opacity="0.13094699491616138"></circle><circle r="4.1424824028340055" cx="329.3774132071615" cy="536.3324290248454" opacity="0.8124661737489702"></circle><circle r="4.303580448469049" cx="686.6512330007288" cy="744.8103178784322" opacity="0.7714159241503191"></circle><circle r="6.991328812293134" cx="410.701413565231" cy="572.8824953242047" opacity="0.8096382471046298"></circle><circle r="5.117906811678573" cx="294.75926983169427" cy="633.2956205167026" opacity="0.8749106712372468"></circle><circle r="5.881962527782073" cx="785.9777637829222" cy="215.46190519522196" opacity="0.7590856364266836"></circle><circle r="6.2752879187142945" cx="572.3755593980707" cy="353.3585461903282" opacity="0.5789265486594315"></circle><circle r="3.7012931950031867" cx="503.5484724379013" cy="392.78776866174695" opacity="0.652696302498246"></circle><circle r="7.892941232311383" cx="14.945625741173744" cy="714.7116089204017" opacity="0.2915151914231059"></circle><circle r="4.12779388669296" cx="362.94649018297287" cy="486.30442181820234" opacity="0.4214057699081194"></circle><circle r="4.972866705047223" cx="77.10814274455267" cy="129.37708280129053" opacity="0.38547131325328265"></circle><circle r="3.711839089156418" cx="732.5383827340407" cy="355.44034178497117" opacity="0.9240284961951384"></circle><circle r="8.3228942452833" cx="156.7733319510905" cy="86.87364292361681" opacity="0.8724713741984725"></circle><circle r="5.965903188930811" cx="643.5168292757285" cy="450.8733288186025" opacity="0.8684995731763546"></circle><circle r="3.7558884062127307" cx="543.2534894605925" cy="289.1292804419079" opacity="0.29205625098904237"></circle><circle r="5.519336586814153" cx="719.4679706274053" cy="691.2544717902032" opacity="0.11894051213276226"></circle><circle r="5.016135544547645" cx="213.12204424418366" cy="358.69093987185863" opacity="0.12960743209315292"></circle><circle r="7.417653984521442" cx="604.2397485281463" cy="654.994319040867" opacity="0.4248168754463386"></circle><circle r="5.321352948770428" cx="343.88261194434597" cy="435.419808502611" opacity="0.5745092475593627"></circle><circle r="8.265363145894465" cx="640.1161615032913" cy="350.79095671887217" opacity="0.4443396352191149"></circle><circle r="6.027670279431886" cx="113.38932890372162" cy="724.1962629452072" opacity="0.6348819648485214"></circle><circle r="6.43025580032392" cx="488.63595112013303" cy="270.72888274551167" opacity="0.32288208617060965"></circle><circle r="6.41042344824287" cx="323.4137153239268" cy="249.9266620947678" opacity="0.40162850930643834"></circle><circle r="4.198065789033465" cx="426.4162659093413" cy="617.1406583687448" opacity="0.9491572799391236"></circle><circle r="4.982112836815566" cx="179.64497330095034" cy="357.3826913919282" opacity="0.6609202311995847"></circle><circle r="3.529295252471542" cx="9.069160240002686" cy="382.11824349251214" opacity="0.40182048508764845"></circle><circle r="7.150339671525415" cx="177.35626192904783" cy="556.0592183393268" opacity="0.12298145021104902"></circle><circle r="6.823446070247777" cx="647.794616339609" cy="16.226230409378616" opacity="0.12336188096939886"></circle><circle r="6.133489226661008" cx="454.6859440847372" cy="783.0959120442521" opacity="0.1695609340991799"></circle><circle r="4.5191019661331575" cx="665.0340741587148" cy="222.5333489516471" opacity="0.8833866170900586"></circle><circle r="6.915738216330562" cx="430.18568702128135" cy="410.2010381441234" opacity="0.6999549974877436"></circle><circle r="5.643604056559723" cx="248.25008411734805" cy="285.6462102390893" opacity="0.9225633993969797"></circle><circle r="9.131702355435653" cx="338.5177437574238" cy="679.2626019252141" opacity="0.9918381833192895"></circle><circle r="4.253054624014342" cx="187.5105316428941" cy="436.8340776157346" opacity="0.43327737347986983"></circle><circle r="4.76487700917704" cx="627.447241111706" cy="548.4291546262436" opacity="0.469480661226099"></circle><circle r="5.695272253548243" cx="134.51690207748283" cy="112.03981957385847" opacity="0.731914878347172"></circle><circle r="4.5888748440245655" cx="781.1705841485592" cy="17.090826741373107" opacity="0.5410200680933118"></circle><circle r="5.826374262160577" cx="430.5877894513386" cy="169.32554605419398" opacity="0.9697938910798276"></circle><circle r="6.106116868640605" cx="438.3046304949378" cy="575.6557223582892" opacity="0.7375383784923055"></circle><circle r="6.220934396403933" cx="620.1037305926349" cy="162.58046178170656" opacity="0.9240904179950498"></circle><circle r="8.56209536106347" cx="107.46894561235887" cy="271.39547716699917" opacity="0.42524473441655697"></circle><circle r="3.207311519672338" cx="94.24164443881268" cy="185.9005290176655" opacity="0.75854245315184"></circle><circle r="6.810880868290081" cx="376.7169847248977" cy="590.6564227700463" opacity="0.17384784618737997"></circle><circle r="7.2159140828256145" cx="366.7815243099403" cy="398.71245051832375" opacity="0.2414099645809062"></circle><circle r="4.189355438283038" cx="584.5537882055066" cy="286.15522742989185" opacity="0.12679159335236173"></circle><circle r="7.453211648334467" cx="75.15734066022858" cy="477.5971127311215" opacity="0.6851610443968355"></circle><circle r="4.548849564134701" cx="503.9034556180428" cy="243.11971128816285" opacity="0.26982178100360643"></circle><circle r="9.00500471356077" cx="98.82118278688701" cy="510.1340452802608" opacity="0.7813075351894921"></circle><circle r="4.2645509130381996" cx="618.334584003291" cy="226.16308113722505" opacity="0.40176163930965014"></circle><circle r="4.775531914064073" cx="746.3896046945586" cy="306.3753882410522" opacity="0.3874281184239573"></circle><circle r="6.542017189896839" cx="557.2449182838025" cy="392.18003143612384" opacity="0.5697480026259405"></circle><circle r="3.910685743046681" cx="241.71425352791525" cy="611.2015049172502" opacity="0.515907966938235"></circle><circle r="6.5443504702794275" cx="257.7551781601687" cy="151.6641638655076" opacity="0.7130551355982635"></circle><circle r="5.288296104721496" cx="685.0647165119013" cy="239.40443737672632" opacity="0.8402894064162524"></circle><circle r="5.800110230708895" cx="698.0089987394963" cy="543.9092454686554" opacity="0.8173891795158453"></circle><circle r="5.820088900073672" cx="546.947786661213" cy="250.86887165773112" opacity="0.12088926212680744"></circle><circle r="5.572132515333631" cx="276.41696826312557" cy="115.87745222965223" opacity="0.8858927233529125"></circle><circle r="5.52013432450998" cx="279.7485485136692" cy="304.7736453361865" opacity="0.6275967482311903"></circle><circle r="3.959927270997871" cx="659.2643555378354" cy="175.6133463785947" opacity="0.6697555610202696"></circle><circle r="5.15448790728002" cx="398.39553467482887" cy="217.28785069477917" opacity="0.7832136720333301"></circle><circle r="8.462826003861764" cx="330.97987803124215" cy="780.3431166005497" opacity="0.6672330368614688"></circle><circle r="4.643978892297166" cx="116.72501470845944" cy="199.37581499168553" opacity="0.9914299357720687"></circle><circle r="4.603779885505824" cx="634.3336334049297" cy="521.3563282056466" opacity="0.500606736265304"></circle><circle r="4.165999175535733" cx="348.0634751953903" cy="133.91355868221447" opacity="0.3877153750970411"></circle><circle r="7.339564206459727" cx="103.16409462009138" cy="19.695997082267052" opacity="0.5176742516946378"></circle><circle r="4.458093032266522" cx="294.5439379513982" cy="550.54857188047" opacity="0.7503192159921958"></circle><circle r="8.08035599756305" cx="130.42511499736116" cy="244.5800607314226" opacity="0.8450204118143217"></circle><circle r="7.282599842144929" cx="458.83401978637363" cy="665.6385213008837" opacity="0.6214122132852204"></circle><circle r="6.381319857448279" cx="326.2360128206551" cy="304.6570745703312" opacity="0.3236556669627864"></circle><circle r="7.743092311178871" cx="60.040730675714414" cy="778.0444153484714" opacity="0.514268538411556"></circle><circle r="4.7196868725540515" cx="691.2332020713504" cy="134.20451984401257" opacity="0.5449247556520302"></circle><circle r="5.756773804428275" cx="703.3757587478808" cy="98.78319841835582" opacity="0.5587442895610416"></circle><circle r="5.877793537617729" cx="199.00601671959075" cy="226.74742998233452" opacity="0.680831738367678"></circle><circle r="3.0505047721568617" cx="695.1543473450297" cy="222.01567164177564" opacity="0.23133090920117513"></circle><circle r="4.992525588730708" cx="679.2593920610864" cy="17.96000871303575" opacity="0.22628275304500753"></circle><circle r="3.799070151126927" cx="138.7693975805436" cy="416.4976260627046" opacity="0.8779310716570443"></circle><circle r="3.6501576021787177" cx="315.2103035023908" cy="80.59691564295001" opacity="0.4458199988633551"></circle><circle r="9.180765033047807" cx="306.4280034925602" cy="195.57557145796466" opacity="0.3376703836202022"></circle><circle r="4.283983572148557" cx="704.3538582030516" cy="724.5167825263162" opacity="0.9357062982665941"></circle><circle r="3.469637763040026" cx="285.8243145124252" cy="382.23223133904077" opacity="0.32133030845161203"></circle><circle r="5.931142772278974" cx="494.59516737794996" cy="779.902444845322" opacity="0.17410018852544756"></circle><circle r="8.513238304439323" cx="372.4856360822623" cy="257.8361416531745" opacity="0.5381233082794291"></circle><circle r="5.878391383931396" cx="185.50365410589788" cy="387.4438849955593" opacity="0.31775353985342425"></circle><circle r="6.253762365360364" cx="483.703334372745" cy="609.5068209337363" opacity="0.6600245536427733"></circle><circle r="5.43214092392947" cx="583.8295644244902" cy="79.79534982902794" opacity="0.6634924725977931"></circle><circle r="6.76070073648191" cx="152.801164194821" cy="679.8744335092653" opacity="0.9619859275084155"></circle><circle r="4.912415814923202" cx="124.56756590999353" cy="367.865922705735" opacity="0.39405639650905466"></circle><circle r="3.646293355887389" cx="724.6957812371983" cy="666.7091322992775" opacity="0.10891380893601565"></circle><circle r="8.314882788866571" cx="274.99877528651604" cy="223.37009680911422" opacity="0.556054727676944"></circle><circle r="4.914301215861044" cx="757.3468261848674" cy="388.2012439628858" opacity="0.37864226660789013"></circle><circle r="6.850407893726823" cx="576.6923276399003" cy="142.4299649208822" opacity="0.6933988688086472"></circle><circle r="3.9778007692235327" cx="140.59574217214558" cy="748.6597029522691" opacity="0.918738034722068"></circle><circle r="4.148475290930452" cx="746.3819389913428" cy="557.9602262612455" opacity="0.35957241651332583"></circle><circle r="4.52157311147297" cx="85.16020816640115" cy="155.34457335919308" opacity="0.4293444944759647"></circle><circle r="5.610044969131553" cx="619.9098741170023" cy="785.0531819479879" opacity="0.4627718353243575"></circle><circle r="4.086750119199439" cx="444.2547514625899" cy="715.3840164139394" opacity="0.6935019547018492"></circle><circle r="6.74507529140679" cx="53.54644740032502" cy="138.7330003304607" opacity="0.12976814548759197"></circle><circle r="5.041244935535735" cx="498.0223173503707" cy="710.6916852941247" opacity="0.4991329685837922"></circle><circle r="6.812951291309119" cx="239.11892693393636" cy="128.65219748342113" opacity="0.6886179126574319"></circle><circle r="6.569484262872761" cx="525.965959628006" cy="695.9470726298172" opacity="0.1626852921940516"></circle><circle r="4.678767132552833" cx="567.8083412613597" cy="481.51840379931906" opacity="0.5987476608728949"></circle><circle r="6.831004651957876" cx="642.3905719068059" cy="707.9693816324283" opacity="0.9623852790847726"></circle><circle r="7.590205984297043" cx="356.2474994470838" cy="559.4868595020555" opacity="0.19093539767769901"></circle><circle r="4.003291645743297" cx="471.588389962041" cy="290.2440485254994" opacity="0.3807885599751426"></circle><circle r="5.406478745756473" cx="201.02129919471707" cy="578.924617509637" opacity="0.509729748674288"></circle><circle r="3.9972858497080743" cx="169.0825682106258" cy="225.20642819580095" opacity="0.4155694193541254"></circle><circle r="5.627932430291029" cx="146.3753623535462" cy="475.686659649357" opacity="0.3315038857229142"></circle><circle r="6.976692836130581" cx="474.57551944728544" cy="67.57635109198498" opacity="0.6287898455740297"></circle><circle r="7.305284077409953" cx="84.94403800737072" cy="626.9094658199031" opacity="0.6904322477944355"></circle><circle r="5.27875111658856" cx="40.65892925085304" cy="333.68159436832076" opacity="0.30555120132190183"></circle><circle r="4.596960113686891" cx="228.92042052091398" cy="502.3693095738155" opacity="0.5107260373795813"></circle><circle r="5.071606112453175" cx="571.8521426753118" cy="177.35300582136145" opacity="0.7749919042449547"></circle><circle r="2.673896353250942" cx="693.4144352586644" cy="768.4330969890322" opacity="0.2698788561836092"></circle><circle r="5.645653980896095" cx="325.2934000669985" cy="157.443582349082" opacity="0.6104557193038371"></circle><circle r="8.040770154472586" cx="781.5020742889776" cy="63.04110714333919" opacity="0.13880154642406975"></circle><circle r="5.305075330412745" cx="70.65065303028193" cy="548.4984794063531" opacity="0.7987951360228962"></circle><circle r="3.956207254339639" cx="99.50978741151319" cy="120.7159901197373" opacity="0.11910414622581274"></circle><circle r="4.9216052635483205" cx="466.1364928715103" cy="349.94246092176905" opacity="0.14313301943314832"></circle><circle r="4.65372405076489" cx="656.7542944814306" cy="288.2603958915506" opacity="0.6142316010483969"></circle><circle r="5.688748959418254" cx="174.80152829876056" cy="327.3668605856149" opacity="0.6045833786871466"></circle><circle r="3.8889466822015177" cx="518.2397925138171" cy="647.1596683361488" opacity="0.42977366087419777"></circle><circle r="7.45238177956389" cx="438.26565628326074" cy="53.20881897022613" opacity="0.6376541652679729"></circle><circle r="5.733825812308268" cx="539.0728142984213" cy="175.1007363273288" opacity="0.5767319288759807"></circle><circle r="4.579129239471792" cx="728.8987993580365" cy="642.3414905047498" opacity="0.8372231456349513"></circle><circle r="7.873836370869423" cx="264.3002580688779" cy="743.163658799261" opacity="0.8997550603865005"></circle><circle r="7.957698289992809" cx="656.95811317241" cy="623.3060515721111" opacity="0.8614082183043738"></circle><circle r="4.741275028981237" cx="269.17913260488876" cy="424.9974575660341" opacity="0.3808151612001637"></circle><circle r="6.375015993492125" cx="401.45743045595077" cy="751.9721099739199" opacity="0.48367803827877687"></circle><circle r="3.01017348198063" cx="572.0145058231346" cy="777.1598469350017" opacity="0.7543685322361976"></circle><circle r="4.493831419460275" cx="601.4241997106647" cy="496.53160029662746" opacity="0.12540785823468545"></circle><circle r="5.615320456634748" cx="740.5560785876633" cy="589.5319949186124" opacity="0.28636934568494077"></circle><circle r="6.672286248071689" cx="786.2672940950048" cy="543.541220048433" opacity="0.9030825009751449"></circle><circle r="5.821273840032459" cx="607.8776569407361" cy="343.2846831742384" opacity="0.9466329092722204"></circle><circle r="3.447938451755719" cx="403.84570892451836" cy="366.00178651129886" opacity="0.8082174309013972"></circle><circle r="8.173426865478664" cx="515.8109887112513" cy="742.3732352845685" opacity="0.44547273329230286"></circle><circle r="8.840687253022248" cx="419.253273367376" cy="661.2284721693214" opacity="0.215191570738622"></circle><circle r="6.181012095804007" cx="744.6553002275317" cy="617.5427558618048" opacity="0.3744127741980583"></circle><circle r="3.935777453814591" cx="787.0010540774452" cy="686.8864468328561" opacity="0.8976812939723621"></circle><circle r="5.273419130973613" cx="719.0992164922087" cy="285.0155964321627" opacity="0.9537120956301044"></circle><circle r="6.17483947041612" cx="85.83080498988893" cy="311.2611566298473" opacity="0.46763251387289184"></circle><circle r="4.7871762623824825" cx="657.518292158835" cy="411.3969576365887" opacity="0.6493561729191721"></circle><circle r="8.571225526749" cx="171.0258709013032" cy="260.7149098840043" opacity="0.8759274314379846"></circle><circle r="7.826225788221758" cx="101.59065698608656" cy="553.2626484777047" opacity="0.7332543614967473"></circle><circle r="4.32973980614849" cx="599.3136117102398" cy="528.0664301194238" opacity="0.18662825580250877"></circle><circle r="4.127676867335663" cx="372.3294002412665" cy="521.5660445529235" opacity="0.4978559446520828"></circle><circle r="4.7164049555774445" cx="216.95349757698767" cy="634.3068587010605" opacity="0.18362956302173725"></circle><circle r="6.784391068157177" cx="550.0378014296517" cy="49.321229254508296" opacity="0.3445525567824664"></circle><circle r="6.634626380364672" cx="460.30601690193186" cy="544.1617618742611" opacity="0.3786848012148615"></circle><circle r="3.765346313852137" cx="449.52246570978275" cy="188.41315650509515" opacity="0.44682990529635225"></circle><circle r="6.638702831508773" cx="22.1740112233801" cy="64.92345950805696" opacity="0.26456350385684513"></circle><circle r="7.299636594943896" cx="408.0083369958875" cy="701.8088595122622" opacity="0.3605064046755352"></circle><circle r="6.464266285269673" cx="680.1176589934051" cy="75.28992316712127" opacity="0.345054881328695"></circle><circle r="6.343159774364468" cx="264.53940389093617" cy="619.0642292818742" opacity="0.6839001234530375"></circle><circle r="5.0666670365369155" cx="714.2307257388294" cy="12.164479706997914" opacity="0.24245256048203048"></circle><circle r="5.381844648384678" cx="338.95562506914945" cy="404.34345961274596" opacity="0.47990698709942103"></circle><circle r="5.531771119589174" cx="674.0828168506513" cy="352.587817874361" opacity="0.1043131313222428"></circle><circle r="5.726752379427165" cx="216.87846067125787" cy="665.4865845192447" opacity="0.6120887991200644"></circle><circle r="5.6971336897323575" cx="640.643762630337" cy="229.12573830459658" opacity="0.9740447650294782"></circle><circle r="4.660156923365443" cx="654.0661896338315" cy="255.1845940896492" opacity="0.36893658959102027"></circle><circle r="6.207505311309619" cx="563.5256016653677" cy="305.9464318969068" opacity="0.8222346369931539"></circle><circle r="4.821660946203176" cx="484.9149623822475" cy="569.0833788424217" opacity="0.660311969001795"></circle><circle r="5.007847074393283" cx="615.7705371504647" cy="76.74808625020847" opacity="0.48866511180272254"></circle><circle r="4.384368488089047" cx="56.22069257026013" cy="210.25891931533386" opacity="0.73489126343872"></circle><circle r="3.7995721056299563" cx="285.1770005118265" cy="517.7918046932383" opacity="0.5551602537162547"></circle><circle r="6.272438446084593" cx="125.09760701108185" cy="308.10294703856965" opacity="0.32622868082723544"></circle><circle r="8.249179059377676" cx="20.33704345237532" cy="154.36629481498775" opacity="0.10120225148998734"></circle><circle r="6.822178779245775" cx="37.27056634514625" cy="470.61618303748924" opacity="0.11237124508784857"></circle><circle r="5.050976885698838" cx="600.4438730076404" cy="555.5730350887609" opacity="0.8161488386910971"></circle><circle r="5.980474821395708" cx="629.8449236150337" cy="114.1383467923265" opacity="0.6569078051709031"></circle><circle r="4.6367176163707065" cx="267.4504700519434" cy="257.4003021029459" opacity="0.4620468049895762"></circle><circle r="9.495128572840144" cx="348.5070725889657" cy="217.9872420442108" opacity="0.9389083341508283"></circle><circle r="10.368798097853738" cx="25.892300102563162" cy="107.75665709614859" opacity="0.4079674665317613"></circle><circle r="6.577438500631142" cx="785.6815094888123" cy="140.43567888868762" opacity="0.9395398167824816"></circle><circle r="4.844535689007536" cx="159.64972462303783" cy="770.5275694455884" opacity="0.9232085551670944"></circle><circle r="4.863443586142115" cx="352.30586236415235" cy="314.65376855322216" opacity="0.36256363078028786"></circle><circle r="6.164727020824465" cx="237.60825759475657" cy="577.8644216279924" opacity="0.3130374832769539"></circle><circle r="8.718079575271812" cx="414.41489364402565" cy="256.62995864359607" opacity="0.28171894552774046"></circle><circle r="4.22778659968337" cx="331.7740422674823" cy="107.35101721640754" opacity="0.30441667729669586"></circle><circle r="3.274346511525378" cx="292.86740032214954" cy="77.0255885425781" opacity="0.5296687803001549"></circle><circle r="3.39929141411202" cx="315.5278875523783" cy="375.28126100116555" opacity="0.4725572185244852"></circle><circle r="6.865131355229739" cx="37.37497622789167" cy="686.2764750111697" opacity="0.7699617679097542"></circle><circle r="6.511261472549821" cx="480.8683341294032" cy="19.35357732793759" opacity="0.8050817189942533"></circle><circle r="4.102241012424294" cx="771.6680290135797" cy="330.444101870668" opacity="0.8019281638411393"></circle><circle r="6.734602992553313" cx="457.9832420368025" cy="592.2704362191286" opacity="0.8922455934293738"></circle><circle r="5.056189399770046" cx="471.42970818718925" cy="745.9599971524641" opacity="0.41253894730085805"></circle><circle r="3.4566497844910975" cx="697.7138318756597" cy="174.91899210809308" opacity="0.5786589319674995"></circle><circle r="6.677246971469051" cx="260.2715170097609" cy="654.301420317259" opacity="0.34953917930165634"></circle><circle r="7.334819826145168" cx="70.23632359976416" cy="268.8580888787355" opacity="0.7154987191212381"></circle><circle r="4.908790952285744" cx="385.70072457692504" cy="785.055310007537" opacity="0.1740778227743599"></circle><circle r="6.330933995581578" cx="16.53766354667824" cy="417.0173936765636" opacity="0.9442190079482705"></circle><circle r="5.027212733263207" cx="761.132884738183" cy="255.6319012182307" opacity="0.7406383143147202"></circle><circle r="5.63133733364146" cx="740.8142285238778" cy="329.8054821556767" opacity="0.4671251129311237"></circle><circle r="5.644944829072716" cx="184.53863379567335" cy="768.9202008202731" opacity="0.7180781947433154"></circle><circle r="6.7656691254460135" cx="226.40084155646903" cy="715.3736668897549" opacity="0.964255704036727"></circle><circle r="6.5015556488989805" cx="436.52477342885317" cy="288.28563820100385" opacity="0.9244857479930888"></circle><circle r="5.2902005677243755" cx="497.99688530961123" cy="320.0893771663781" opacity="0.8341521245679324"></circle><circle r="7.618936213066811" cx="535.3845149274354" cy="783.3068321287261" opacity="0.9871240097332052"></circle><circle r="5.998396590974447" cx="699.9403689534751" cy="328.441811253051" opacity="0.3173811315714535"></circle><circle r="5.122998539854377" cx="376.8042862784975" cy="362.3288909707406" opacity="0.5570211994878517"></circle><circle r="4.428399590002312" cx="370.92766691847356" cy="699.5643730520984" opacity="0.5106765414244459"></circle><circle r="6.5846022703591895" cx="534.5211370104236" cy="550.8069993752558" opacity="0.8383982730259244"></circle><circle r="5.903664178449574" cx="643.573384948946" cy="75.56697285569862" opacity="0.61640469527867"></circle><circle r="4.248414571842195" cx="645.8768138648167" cy="199.26874598134702" opacity="0.5315166268026081"></circle><circle r="4.692441441263401" cx="611.5117269582446" cy="738.337292892669" opacity="0.21477553258551602"></circle><circle r="6.844111880465533" cx="737.6951133347603" cy="74.49704146902694" opacity="0.1848577511686651"></circle><circle r="4.458350803812" cx="485.5412619803067" cy="485.1654377010274" opacity="0.392935259590139"></circle><circle r="4.159022607053968" cx="443.35876103024026" cy="219.5837140514003" opacity="0.8254680973198927"></circle><circle r="3.4037125786360076" cx="759.5647278566951" cy="785.7138399296108" opacity="0.19079394369532351"></circle><circle r="4.433505637134495" cx="596.9246645874092" cy="685.4877190194691" opacity="0.8628031208489535"></circle><circle r="5.896992436444242" cx="292.4920780333371" cy="348.0807402140585" opacity="0.24919833077224726"></circle><circle r="3.19983839350045" cx="546.1745158764221" cy="449.9036692119804" opacity="0.7005239624067503"></circle><circle r="3.2980169790832643" cx="671.374005984554" cy="789.2395333758715" opacity="0.665912128870393"></circle><circle r="4.1647816707819345" cx="216.64973927980975" cy="604.6033763061511" opacity="0.8945820647233103"></circle><circle r="8.003209791649844" cx="488.21495353980043" cy="676.143257196493" opacity="0.6732619856228755"></circle><circle r="7.979757145949895" cx="714.9990350309022" cy="478.4734152782821" opacity="0.5777630297309867"></circle><circle r="4.62492352742807" cx="501.85775970061076" cy="419.6572579452259" opacity="0.7342419211780333"></circle><circle r="3.752402422035793" cx="592.8066651995655" cy="712.231620535586" opacity="0.782798198927812"></circle><circle r="3.6727785505085393" cx="513.5368613704385" cy="474.81228974240446" opacity="0.5623788504621443"></circle><circle r="6.926358033324806" cx="502.7030039036972" cy="156.29049356517555" opacity="0.8223967591476328"></circle><circle r="5.937603734406197" cx="649.5709263321394" cy="494.6744847163176" opacity="0.5732833493410927"></circle><circle r="4.605180972996789" cx="739.9961967493374" cy="145.48850167260966" opacity="0.7671236654438843"></circle><circle r="5.066309878700486" cx="65.67272759739721" cy="344.09074055242644" opacity="0.4389331206489877"></circle><circle r="3.9066966330544033" cx="17.800097232560844" cy="359.69931115087167" opacity="0.7852102420908549"></circle><circle r="7.0076912168599685" cx="380.4920434049881" cy="328.8974042603263" opacity="0.5286795239297739"></circle><circle r="4.709026581689833" cx="677.1934308124231" cy="195.823789441166" opacity="0.8452644113832897"></circle><circle r="4.3790968774740096" cx="787.8312658184059" cy="730.016410842764" opacity="0.8262012121208946"></circle><circle r="6.062280547926795" cx="515.7048011180622" cy="209.79950607396856" opacity="0.2249219847031661"></circle><circle r="5.4839290256070745" cx="407.9104718510518" cy="16.47595189825659" opacity="0.42448287300855714"></circle><circle r="5.159336007282796" cx="669.078638705101" cy="659.2357397265914" opacity="0.9997456091379658"></circle><circle r="5.377554638348016" cx="96.36652881410134" cy="334.11474645320766" opacity="0.5306239876513364"></circle><circle r="4.835820736851036" cx="115.813732304119" cy="57.743033137677244" opacity="0.2814431916728562"></circle><circle r="4.456022319809171" cx="465.24368500219475" cy="152.7820289536997" opacity="0.4716363308519541"></circle><circle r="6.874213578797404" cx="303.28364465941087" cy="598.9171642890813" opacity="0.2134812425292496"></circle><circle r="3.225901068433805" cx="259.7719038058704" cy="533.0649871922838" opacity="0.8261073323226786"></circle><circle r="5.206869141698947" cx="787.9123032194954" cy="296.2045544812573" opacity="0.9270234353139156"></circle><circle r="7.47204547772895" cx="656.5424067539923" cy="47.15358945269678" opacity="0.979614119239191"></circle><circle r="3.4262521151137015" cx="564.9092107487138" cy="597.1921075356481" opacity="0.13063330738460852"></circle><circle r="4.787482072182353" cx="537.6841907432555" cy="478.3449355670121" opacity="0.9074520672929713"></circle><circle r="3.6602690238932682" cx="544.5689016993276" cy="356.3527331599621" opacity="0.7172118861706009"></circle><circle r="5.949724994057082" cx="452.39597752907304" cy="479.9361101798027" opacity="0.9096700260082397"></circle><circle r="5.610823076271124" cx="76.97378785444343" cy="400.52202997851566" opacity="0.17373456710323903"></circle><circle r="3.426462590440827" cx="432.33972999342075" cy="330.41370779438955" opacity="0.26021874962982927"></circle><circle r="6.584153565676004" cx="43.170428701429465" cy="547.2092210871599" opacity="0.8469483131515837"></circle><circle r="5.620822708864063" cx="514.6881312731834" cy="293.5833547987638" opacity="0.4836217390390254"></circle><circle r="4.528257600170769" cx="472.04214799390337" cy="442.38300037410477" opacity="0.489856935529721"></circle><circle r="6.566004911455517" cx="593.3466361893431" cy="620.5384383515953" opacity="0.45918613328346247"></circle><circle r="4.63792639304109" cx="381.6076293995028" cy="92.86824586295414" opacity="0.38933149167681846"></circle><circle r="4.498936863735996" cx="617.7441935451731" cy="573.9087549665695" opacity="0.2878253523901526"></circle><circle r="4.626662853093196" cx="170.11663058514443" cy="489.7847203172423" opacity="0.2803895156254251"></circle><circle r="4.682833498356991" cx="315.7011445025958" cy="20.08346790921513" opacity="0.19007137990599066"></circle><circle r="4.110854600611956" cx="627.4456791538056" cy="634.1250939181616" opacity="0.1374490375859163"></circle><circle r="7.967073306652744" cx="16.03568757603745" cy="203.75254516566508" opacity="0.4904418794942389"></circle><circle r="4.514827304807132" cx="786.9707739154089" cy="778.9169666275395" opacity="0.1697635110102561"></circle><circle r="4.49259938532253" cx="626.5972704084573" cy="759.6154217239664" opacity="0.34299343440248375"></circle><circle r="9.90620162277189" cx="513.2958756816155" cy="100.09463723108477" opacity="0.8955286914266408"></circle><circle r="3.23425467364015" cx="65.92195238249178" cy="374.2619286102772" opacity="0.14183466261419814"></circle><circle r="5.567973521286367" cx="429.94911994894454" cy="730.8564845966441" opacity="0.7828633874225391"></circle><circle r="4.684060626557145" cx="306.6248786159823" cy="116.95026459370645" opacity="0.9957994958272354"></circle><circle r="5.279847060359705" cx="307.1106332579591" cy="499.3827127800954" opacity="0.4795031573809805"></circle><circle r="7.151532118159942" cx="595.4095268670992" cy="48.0001627531528" opacity="0.6498646181704073"></circle><circle r="4.002790884177053" cx="710.2040711400189" cy="777.5887081661405" opacity="0.6764534488190564"></circle><circle r="5.238337653731531" cx="228.2483823185482" cy="752.9544039631281" opacity="0.5989007340237178"></circle><circle r="4.846323955938146" cx="575.8407596459261" cy="423.7402941333361" opacity="0.18339711927271868"></circle><circle r="6.658797215919726" cx="732.4542076957563" cy="116.25098895788778" opacity="0.41107254932400017"></circle><circle r="5.358727546872212" cx="197.53617573999202" cy="741.4814023845454" opacity="0.6524251854973245"></circle><circle r="4.274058119660936" cx="752.8611522794806" cy="652.8321617770802" opacity="0.9037928487924007"></circle><circle r="8.66276425047824" cx="209.597300115204" cy="458.90368078636595" opacity="0.6113584562466736"></circle><circle r="5.576583752760227" cx="268.10746036230273" cy="50.15175750829906" opacity="0.9713171780876299"></circle><circle r="5.7176850705549835" cx="696.9504234222793" cy="439.3786964200387" opacity="0.6554326487730404"></circle><circle r="5.43926618753584" cx="229.99153156050085" cy="166.34318544553588" opacity="0.2745205000256957"></circle><circle r="3.940374000325802" cx="546.745901594917" cy="217.57388487612658" opacity="0.4327525508857073"></circle><circle r="8.946135682847284" cx="271.8895731663454" cy="479.4704162917569" opacity="0.40178552652298727"></circle><circle r="5.792098325740756" cx="135.67644949447066" cy="702.9171544571774" opacity="0.4719974606214784"></circle><circle r="4.349104782932061" cx="316.58421667869885" cy="420.0304217655366" opacity="0.2046736086600267"></circle><circle r="4.71712507470539" cx="512.9061441613869" cy="347.1601356385501" opacity="0.9030058080699107"></circle><circle r="4.413106372856255" cx="725.0501473092007" cy="37.8991143218093" opacity="0.29623224812922555"></circle><circle r="7.168416200377818" cx="729.7614971325055" cy="404.2150932867882" opacity="0.5434823459190534"></circle><circle r="6.697388615948173" cx="376.14502405298833" cy="65.7387468469168" opacity="0.29556332819320064"></circle><circle r="6.564780154953093" cx="56.96265531310446" cy="302.06646073071977" opacity="0.9058507557680843"></circle><circle r="7.384362580352601" cx="223.58943635779949" cy="406.26977891911406" opacity="0.34159732169732965"></circle><circle r="6.302261052835373" cx="655.9139617167134" cy="380.6141132878882" opacity="0.9624303533187613"></circle><circle r="3.745151044430204" cx="298.863391010142" cy="403.9331467530394" opacity="0.5309875157255046"></circle><circle r="7.200909148202435" cx="688.9230689567364" cy="386.38620969679295" opacity="0.8216325738099897"></circle><circle r="6.160019905071941" cx="463.0674661529731" cy="245.8773249969486" opacity="0.1781972995199189"></circle><circle r="2.912676231370398" cx="790.6573897108144" cy="421.0372055498464" opacity="0.7131426905081989"></circle><circle r="4.230880066121797" cx="623.8939624126551" cy="284.71734766046666" opacity="0.76403197600412"></circle><circle r="3.8789575826039058" cx="686.5291406907731" cy="267.7759161496141" opacity="0.7264855296190817"></circle><circle r="5.005583759634969" cx="183.0298774015078" cy="611.3345241407272" opacity="0.5063961260713331"></circle><circle r="6.8605734063098955" cx="554.4371478936988" cy="511.0274495238037" opacity="0.9599613895898017"></circle><circle r="3.9307504911609734" cx="468.4989890199838" cy="708.5146769066484" opacity="0.8509617280470437"></circle><circle r="4.808968177497942" cx="418.88389248174366" cy="785.1460026202701" opacity="0.9242784723055983"></circle><circle r="6.3042878203968495" cx="223.4795172371582" cy="54.481865450392476" opacity="0.7794892861271169"></circle><circle r="6.575640150004701" cx="728.5311549657233" cy="753.3509973787855" opacity="0.15936244537198674"></circle><circle r="7.363780993045161" cx="215.0446296123869" cy="18.61994325016619" opacity="0.6790006665517361"></circle><circle r="5.107786473408689" cx="400.7841234652379" cy="397.895418170382" opacity="0.4575824312350134"></circle><circle r="4.903234051197684" cx="70.70418271208537" cy="174.74730756510058" opacity="0.8191256450736253"></circle><circle r="4.9122180085675975" cx="288.1083816359991" cy="153.95398176874596" opacity="0.888112551876625"></circle><circle r="5.2808159828135075" cx="55.183027421835334" cy="418.0388325055382" opacity="0.19450066534947053"></circle><circle r="5.573534999383349" cx="472.96386983133135" cy="114.32222609889826" opacity="0.2821278891919453"></circle><circle r="5.824005466159482" cx="43.11180212239691" cy="364.9965019235006" opacity="0.2389674312060673"></circle><circle r="7.133751018141566" cx="191.21473347106448" cy="695.8327965353114" opacity="0.9212249325151038"></circle><circle r="5.110272654565355" cx="12.204357814729832" cy="611.2599035930235" opacity="0.9966077243658381"></circle><circle r="5.667602872279446" cx="398.9022642724351" cy="616.8787247291382" opacity="0.39246017747125084"></circle><circle r="5.929937638570028" cx="174.77087758509987" cy="411.417923449426" opacity="0.5627293051806612"></circle><circle r="6.820356620647404" cx="526.4715083581904" cy="378.0229337931861" opacity="0.7738999377801528"></circle><circle r="6.566793754638552" cx="275.7843830619183" cy="589.5609422591322" opacity="0.20640764228343567"></circle><circle r="3.4996151380000904" cx="771.8602531123303" cy="572.6373104599633" opacity="0.8042991467449687"></circle><circle r="6.393769482370693" cx="404.2324392249761" cy="149.5246802988676" opacity="0.24313047312737499"></circle><circle r="4.63581059797233" cx="146.3902291036296" cy="577.1041074188137" opacity="0.35248606254170656"></circle><circle r="7.577777364592588" cx="116.69670051618547" cy="611.8962151700291" opacity="0.49801692481012116"></circle><circle r="5.421834334772042" cx="37.56737195217389" cy="395.27897331439823" opacity="0.4765673791203616"></circle><circle r="6.386232724970622" cx="486.0337139268314" cy="369.8575347277699" opacity="0.7236097008016417"></circle><circle r="2.0933698773152165" cx="720.744160656448" cy="791.7046179744784" opacity="0.5821892253003987"></circle><circle r="6.222452751199636" cx="365.08573078546874" cy="185.9347654219685" opacity="0.1236251430498248"></circle><circle r="4.37215346956968" cx="709.387096309528" cy="157.68363155839336" opacity="0.869614671915644"></circle><circle r="6.616092063380968" cx="46.25773928056852" cy="237.11116068758284" opacity="0.42349286280820797"></circle><circle r="8.757693804353993" cx="510.87078907631917" cy="54.14681391014658" opacity="0.5908232688335207"></circle><circle r="6.600413284336923" cx="451.48990865189614" cy="633.559383876319" opacity="0.6184700295863201"></circle><circle r="4.888557983620446" cx="552.1287618860574" cy="620.8113844594225" opacity="0.679333054087649"></circle><circle r="4.7686604028156685" cx="495.6270439048316" cy="454.9489560155639" opacity="0.48548908624689635"></circle><circle r="7.096178035636393" cx="652.320262458238" cy="588.2327121463196" opacity="0.13461382542812533"></circle><circle r="6.056084828297319" cx="404.71511696446225" cy="458.535975219972" opacity="0.23313942606020296"></circle><circle r="6.062339711324931" cx="522.7690955381936" cy="440.70097730055306" opacity="0.2045337388277497"></circle><circle r="4.994112192082019" cx="365.313687482794" cy="288.5053383718855" opacity="0.8862238824700741"></circle><circle r="4.271872958148539" cx="343.7872454971423" cy="608.2862259969764" opacity="0.44030252382980495"></circle><circle r="5.056516507198759" cx="753.0178198230553" cy="29.571782926345957" opacity="0.9248844006009866"></circle><circle r="5.366955052248679" cx="650.89791859606" cy="556.3526869268773" opacity="0.39722881884623296"></circle><circle r="5.002303368350835" cx="367.08883398873655" cy="115.54791536864454" opacity="0.3954890406808925"></circle><circle r="4.734973439758053" cx="790.2806367872544" cy="341.36125901030255" opacity="0.36576992754187865"></circle><circle r="4.7272195609276775" cx="394.6921271138572" cy="115.61165417329806" opacity="0.758887612873528"></circle><circle r="4.051406379723924" cx="387.07366133085304" cy="38.18591532140181" opacity="0.2278931695563389"></circle><circle r="3.721378216803835" cx="69.24746070909964" cy="438.8240296164616" opacity="0.47947352493636797"></circle><circle r="5.960458845697201" cx="709.8058799774674" cy="627.545480565638" opacity="0.5685492180737322"></circle><circle r="5.214935428405232" cx="147.70473047926617" cy="207.27003040856746" opacity="0.17155413340626735"></circle><circle r="5.888456077505641" cx="339.28842418622037" cy="507.22464768854326" opacity="0.47815171510126975"></circle><circle r="4.445344824318207" cx="412.20072406608097" cy="187.8245581567671" opacity="0.5996862654188849"></circle><circle r="4.269471335642797" cx="397.5038081390694" cy="493.4389921842375" opacity="0.28379800379720943"></circle><circle r="4.925564177312951" cx="654.6978703600882" cy="147.70348879812283" opacity="0.4611566266499919"></circle><circle r="6.734906474831805" cx="619.6158503322586" cy="22.333909260944452" opacity="0.5234447715049991"></circle><circle r="3.5411830028167346" cx="645.632715443689" cy="787.8269320251923" opacity="0.9988296919062569"></circle><circle r="5.083475463574191" cx="99.59758340223496" cy="783.2010638949746" opacity="0.8128830216455836"></circle><circle r="4.185992749648062" cx="678.5152851992422" cy="573.2895012680985" opacity="0.36080873939210145"></circle><circle r="5.588094020809608" cx="680.1630937676046" cy="472.5043365753046" opacity="0.9814884741864172"></circle><circle r="5.282969059149764" cx="761.0986358012346" cy="363.1246059904797" opacity="0.7244481982621239"></circle><circle r="4.881497722333804" cx="438.3081050838614" cy="690.164022855537" opacity="0.925299077769236"></circle><circle r="5.713536360706379" cx="260.2495659917279" cy="386.2556819051348" opacity="0.20036741205798986"></circle><circle r="6.003730371550994" cx="318.128788724874" cy="568.4159402763457" opacity="0.1132452396532414"></circle><circle r="4.762716755248157" cx="763.7984511892672" cy="710.3218451258356" opacity="0.5352379383984852"></circle><circle r="4.070164185271983" cx="652.6897319431954" cy="737.815142079825" opacity="0.7504271134943503"></circle><circle r="7.408275113278761" cx="330.72394876904656" cy="729.0070752870431" opacity="0.9195181360585467"></circle><circle r="6.223124223626949" cx="226.15035371644214" cy="206.10361693126973" opacity="0.3718400849686445"></circle><circle r="5.195089166466028" cx="601.0838799372559" cy="368.9739073487565" opacity="0.554391959849102"></circle><circle r="3.1096705012269696" cx="553.9900628902454" cy="735.8894639420762" opacity="0.7625342198602555"></circle><circle r="4.513842846203584" cx="47.11088488009529" cy="622.8739441993205" opacity="0.7141065297095415"></circle><circle r="5.857071838968876" cx="592.5173629426329" cy="785.6897587894341" opacity="0.781092063880094"></circle><circle r="2.642498878627793" cx="164.18277071690093" cy="792.0690935821985" opacity="0.34811497429215954"></circle><circle r="5.774531722485788" cx="755.9389824833654" cy="215.17013711139907" opacity="0.41875510305197816"></circle><circle r="4.847312528962769" cx="267.6128117037101" cy="564.165213595904" opacity="0.6879760382886551"></circle><circle r="7.120145308390021" cx="15.528169297916177" cy="321.5533475608771" opacity="0.8340478108218847"></circle><circle r="6.096938681839466" cx="13.332817465571834" cy="534.7816172734283" opacity="0.7870144191963684"></circle><circle r="7.027812668295224" cx="763.7081597830729" cy="750.5341466284038" opacity="0.4653420564056854"></circle><circle r="6.504391067125445" cx="784.8231804410228" cy="595.3591052308913" opacity="0.2558437263025689"></circle><circle r="3.9158381142117853" cx="702.2774801434051" cy="413.81980262618845" opacity="0.43363391019227093"></circle><circle r="7.36922270421138" cx="178.5056337484769" cy="182.2740847662823" opacity="0.7936910214436552"></circle><circle r="6.408529537936505" cx="682.6172635305209" cy="699.3670384410632" opacity="0.41182399905453104"></circle><circle r="5.510494511178974" cx="155.9107394850408" cy="292.5477003321016" opacity="0.9050025301843022"></circle><circle r="4.692623511263853" cx="788.2096224977532" cy="379.3688738895996" opacity="0.10405510646533125"></circle><circle r="5.340489729574288" cx="764.1558443451387" cy="411.2382474328257" opacity="0.16163416738849717"></circle><circle r="7.784782091372273" cx="389.257733633089" cy="547.4600130878177" opacity="0.6793385969440727"></circle><circle r="7.8452067457763865" cx="467.89036486870293" cy="408.3685039215657" opacity="0.818879145005176"></circle><circle r="7.747449581287481" cx="385.1286093988973" cy="426.1842868634867" opacity="0.3269276203952517"></circle><circle r="6.140456516745063" cx="722.5991262582359" cy="545.2548422150279" opacity="0.157466090148594"></circle><circle r="8.151931327741487" cx="697.7856573730166" cy="508.9918282765965" opacity="0.6482062019278012"></circle><circle r="7.069127421951975" cx="785.3817211943069" cy="249.36586105928518" opacity="0.6861451815551665"></circle><circle r="5.590125256205688" cx="301.00218952315294" cy="449.8263054449329" opacity="0.8431346278354352"></circle><circle r="7.425371771559908" cx="669.7683173991646" cy="532.0905241055023" opacity="0.9661934729545093"></circle><circle r="4.735475762259228" cx="709.910169263999" cy="365.35912155949353" opacity="0.33957149543787063"></circle><circle r="6.501213314076601" cx="230.49439643928193" cy="99.17319075356386" opacity="0.7865062702195615"></circle><circle r="7.756219761059887" cx="34.77906580876505" cy="504.4884754227495" opacity="0.6566740603119466"></circle><circle r="6.6673358439896955" cx="107.36665453775878" cy="452.8734664222227" opacity="0.36027256861111523"></circle><circle r="5.412349407900094" cx="623.9327103614638" cy="316.87528861423823" opacity="0.8587132747721957"></circle><circle r="5.365370894701657" cx="732.1462583938815" cy="233.63822408595829" opacity="0.7604910468880052"></circle><circle r="4.7307185373217235" cx="34.93196095358083" cy="593.1969964026285" opacity="0.23906406089067309"></circle><circle r="5.901899259997993" cx="233.67601950115167" cy="332.50071069398365" opacity="0.24579096595428418"></circle><circle r="3.833484921375685" cx="555.875358352072" cy="574.0728626366258" opacity="0.836729781931828"></circle><circle r="4.814731772972773" cx="201.57027301757128" cy="155.28226010540004" opacity="0.2575286757126847"></circle><circle r="4.243200367590008" cx="661.7264170984824" cy="767.9793647249013" opacity="0.7274545803553666"></circle><circle r="5.9567195836463895" cx="584.4489822024628" cy="390.2749658672605" opacity="0.8796677387750873"></circle><circle r="6.183974160512605" cx="612.2467470903102" cy="257.5579591189532" opacity="0.6267484832404092"></circle><circle r="7.899199103368961" cx="520.4056421587801" cy="16.45940587107905" opacity="0.11645697508073763"></circle><circle r="6.992905836716723" cx="512.6300459023295" cy="583.4651846795691" opacity="0.47701748778510256"></circle><circle r="5.162197936154361" cx="217.49550292831407" cy="542.8207433632987" opacity="0.10073362878840349"></circle><circle r="5.334261993981223" cx="405.26488244121583" cy="307.3399066781502" opacity="0.3344437166921338"></circle><circle r="6.0477882020525495" cx="166.92012912532067" cy="729.1418770336745" opacity="0.1270654523187716"></circle><circle r="5.844767580730704" cx="698.8891349604858" cy="52.23565156814364" opacity="0.3202278404991352"></circle><circle r="5.731720723370367" cx="588.7915134922304" cy="228.03925975883757" opacity="0.35057987705350135"></circle><circle r="6.499249945094487" cx="208.98843220229512" cy="323.52799904810877" opacity="0.17371585844436258"></circle><circle r="4.147286104410189" cx="19.840453262239127" cy="286.6863259107673" opacity="0.9650918025012059"></circle><circle r="9.744016608733642" cx="539.4321199100722" cy="132.9984775362893" opacity="0.9253535262487742"></circle><circle r="4.9024131966257105" cx="121.1707484028068" cy="400.16196511111457" opacity="0.7726523694908521"></circle></g></svg>