<svg xmlns="http://www.w3.org/2000/svg" version="1.1" xmlns:xlink="http://www.w3.org/1999/xlink" xmlns:svgjs="http://svgjs.dev/svgjs" viewBox="0 0 800 800"><defs><filter id="ssspot-filter" x="-20%" y="-20%" width="140%" height="140%" filterUnits="objectBoundingBox" primitiveUnits="userSpaceOnUse" color-interpolation-filters="sRGB">
	<feTurbulence type="turbulence" baseFrequency="0.022 0.218" numOctaves="2" seed="227" stitchTiles="stitch" x="0%" y="0%" width="100%" height="100%" result="turbulence"></feTurbulence>
	<feGaussianBlur stdDeviation="0 3" x="0%" y="0%" width="100%" height="100%" in="turbulence" edgeMode="duplicate" result="blur"></feGaussianBlur>
	<feDisplacementMap in="SourceGraphic" in2="blur" scale="32" xChannelSelector="R" yChannelSelector="B" x="0%" y="0%" width="100%" height="100%" result="displacementMap"></feDisplacementMap>
</filter></defs><rect width="100%" height="100%" fill="#080f11"></rect><g fill="hsl(0, 0%, 58%)" filter="url(#ssspot-filter)"><circle r="4.929840953404661" cx="570.0795965193096" cy="282.87126998659545" opacity="0.17122090623869618"></circle><circle r="4.496203107133205" cx="403.35807176122097" cy="482.23678044270207" opacity="0.838696588113316"></circle><circle r="7.116789448322008" cx="615.9517658802519" cy="160.6666874261118" opacity="0.5392225295984274"></circle><circle r="5.173324571355012" cx="742.0488306503693" cy="645.8140440613261" opacity="0.13936625673753994"></circle><circle r="6.780338222542893" cx="83.71134942785302" cy="530.8242628453592" opacity="0.9076418402827111"></circle><circle r="3.5140745682908143" cx="8.896856554846563" cy="687.0464092821468" opacity="0.2678994012741086"></circle><circle r="3.780082982579181" cx="389.62399829213746" cy="728.4221197346517" opacity="0.120014129689299"></circle><circle r="5.600782733037843" cx="81.82628023201723" cy="359.0765205657151" opacity="0.1710126747076412"></circle><circle r="8.208351959949272" cx="420.02443163009247" cy="293.7446440169271" opacity="0.45670604406499493"></circle><circle r="5.229862259793074" cx="181.64839996376935" cy="348.8702265621961" opacity="0.5854209570401646"></circle><circle r="3.7638712095432085" cx="262.08070224554695" cy="200.21036522662075" opacity="0.7613088904823818"></circle><circle r="5.8842732396535915" cx="665.8030224701855" cy="679.6117229226479" opacity="0.942282530431892"></circle><circle r="5.717774275107505" cx="584.8213906661114" cy="103.14697408530077" opacity="0.45958425290133853"></circle><circle r="5.244195231689181" cx="597.3198685451873" cy="489.5699110851066" opacity="0.274065355328187"></circle><circle r="4.045118826314975" cx="12.645942673998627" cy="521.3180074605908" opacity="0.2892241663492435"></circle><circle r="6.739059065451045" cx="672.0533904376039" cy="135.2766091056056" opacity="0.3797391832746966"></circle><circle r="5.682309124973196" cx="266.0531489424574" cy="114.96577663274716" opacity="0.5653441529478335"></circle><circle r="6.346545663563495" cx="177.71449439953358" cy="113.72222048763587" opacity="0.8050221001246085"></circle><circle r="5.508701985660808" cx="247.5744690548174" cy="497.778644040945" opacity="0.9785380888177009"></circle><circle r="6.991165746576168" cx="240.8681620604474" cy="231.7562906966872" opacity="0.33557952381349565"></circle><circle r="5.13082869049696" cx="373.92795901723224" cy="651.9314831215278" opacity="0.2135650154329852"></circle><circle r="6.861613118739511" cx="610.1058503098545" cy="432.67072696337533" opacity="0.35185879510254414"></circle><circle r="4.347885585575474" cx="338.95449225680755" cy="480.7065282534032" opacity="0.10064438456251155"></circle><circle r="3.6610830522803415" cx="489.83369122616756" cy="624.5953710313374" opacity="0.5862439119142437"></circle><circle r="7.905233888470754" cx="263.26501817274016" cy="47.758380013733984" opacity="0.7742713168449455"></circle><circle r="4.001852102338364" cx="685.8217073311534" cy="10.376052782043157" opacity="0.4940932322694326"></circle><circle r="6.435696768976751" cx="240.12041581332957" cy="732.7804673425965" opacity="0.13326980657770351"></circle><circle r="6.76081847411669" cx="362.6511125949404" cy="417.9006731481157" opacity="0.7821864481205906"></circle><circle r="9.133006084158144" cx="19.400071682281517" cy="259.458197174884" opacity="0.5882841298032856"></circle><circle r="2.887974445025425" cx="454.3092398255158" cy="294.85239697322396" opacity="0.722703115257675"></circle><circle r="4.507674185565712" cx="691.1884061947184" cy="256.99501422936123" opacity="0.781495827579669"></circle><circle r="7.104110262170334" cx="550.8727613705761" cy="626.6892873370213" opacity="0.5165727664933981"></circle><circle r="6.464448087962408" cx="171.32937057059885" cy="742.7248656176374" opacity="0.6426682330596893"></circle><circle r="3.8833225483956992" cx="419.095677963959" cy="688.7443751872808" opacity="0.8549665942619541"></circle><circle r="3.8538452200728397" cx="601.230302358144" cy="212.07422496500448" opacity="0.5692088112564375"></circle><circle r="3.9006429767395407" cx="91.74658285133715" cy="175.00150921259862" opacity="0.6735614008567941"></circle><circle r="5.106285425569142" cx="750.9204374024318" cy="155.84779994109368" opacity="0.8982211066225552"></circle><circle r="5.5483228849217605" cx="328.0195270695001" cy="651.4876488529333" opacity="0.6314878633811337"></circle><circle r="3.865469056788208" cx="366.0414859481942" cy="99.73380052595536" opacity="0.6060775165178759"></circle><circle r="4.518752283193309" cx="640.1709350241398" cy="124.39008135966833" opacity="0.2902051323731557"></circle><circle r="2.3050541421626143" cx="600.5196079676164" cy="177.69714180433928" opacity="0.5351750330335373"></circle><circle r="4.828334425606563" cx="500.36013428402396" cy="605.476914080869" opacity="0.14028259858383219"></circle><circle r="7.070850724908212" cx="318.31815296265455" cy="122.9953496448164" opacity="0.7291704548499575"></circle><circle r="4.390381994383521" cx="267.9154247539828" cy="368.9264615809269" opacity="0.9639756651301489"></circle><circle r="7.180470897929087" cx="391.5758149095842" cy="198.03213882774975" opacity="0.9428955469548224"></circle><circle r="7.720525946225843" cx="298.68667980908026" cy="44.409978985560564" opacity="0.9041302907111661"></circle><circle r="5.086189651361282" cx="698.342681697424" cy="414.7926339534" opacity="0.42934828086024857"></circle><circle r="9.163268567353382" cx="62.700693691534035" cy="289.34346623192926" opacity="0.23083390176187754"></circle><circle r="3.3901746256212157" cx="353.5120214418206" cy="291.68390125728723" opacity="0.7342808271049928"></circle><circle r="5.35293230443639" cx="187.89311970218193" cy="389.92353997587844" opacity="0.5225377402609701"></circle><circle r="3.3044407318185307" cx="353.10031489472044" cy="353.8591789982379" opacity="0.4869159291372144"></circle><circle r="5.525476469100204" cx="271.3792060966093" cy="433.6691155737793" opacity="0.2549962969156873"></circle><circle r="3.608301308078431" cx="524.788161047615" cy="336.8648494105772" opacity="0.9732359836243346"></circle><circle r="5.251523673148878" cx="348.10981289866606" cy="547.1298519823032" opacity="0.7347886022015896"></circle><circle r="5.81481550818177" cx="423.7992136795501" cy="716.5455485574694" opacity="0.38278922542326443"></circle><circle r="4.915067769405475" cx="710.1310747316352" cy="718.1213887428281" opacity="0.5236031630368618"></circle><circle r="2.7160053337027232" cx="477.9546591968161" cy="299.0307544462657" opacity="0.6969746561397597"></circle><circle r="5.747745022862636" cx="294.45437881942473" cy="770.4386880233" opacity="0.13284195216895206"></circle><circle r="8.437281876237622" cx="289.48613193641705" cy="591.240367325211" opacity="0.31378303651847395"></circle><circle r="4.644120731973232" cx="270.8095778868475" cy="235.9619146744265" opacity="0.7458659883650571"></circle><circle r="4.676992717150607" cx="653.1925004881516" cy="493.19595712624925" opacity="0.9147247375964828"></circle><circle r="7.28499286940033" cx="432.45718437275667" cy="331.1163182717448" opacity="0.5252300486058776"></circle><circle r="3.4798576682963174" cx="117.83525924274299" cy="161.80793237104047" opacity="0.5761185607059551"></circle><circle r="2.715801308029955" cx="26.86290172358544" cy="674.3727932207515" opacity="0.21892011316135235"></circle><circle r="2.9154371801852124" cx="365.24211068609213" cy="631.690937477683" opacity="0.5029210197180473"></circle><circle r="5.977234380361468" cx="537.5916509546621" cy="706.8798120513796" opacity="0.42712288218038397"></circle><circle r="10.688730742649115" cx="538.5721329174463" cy="114.46179881624622" opacity="0.1504305021058726"></circle><circle r="3.540458627716876" cx="403.2956372008065" cy="709.4335227457997" opacity="0.12329377806509081"></circle><circle r="5.7304971195737995" cx="666.3001720119629" cy="245.6502971157549" opacity="0.8984968394268574"></circle><circle r="3.653405620620121" cx="751.8595275427515" cy="539.5726373744561" opacity="0.19941217678568068"></circle><circle r="3.923936750459853" cx="313.759085157948" cy="788.5836166522498" opacity="0.4440784131465346"></circle><circle r="4.40990261887427" cx="229.40876140377293" cy="766.6205549319527" opacity="0.7295310221609456"></circle><circle r="6.00017894504561" cx="93.89603969118521" cy="421.3303437909425" opacity="0.834147582708455"></circle><circle r="4.921729205297511" cx="112.00849435870636" cy="101.24605997377598" opacity="0.9619391274789405"></circle><circle r="8.716268603983362" cx="116.3935725974372" cy="598.7354577867052" opacity="0.5664115334333282"></circle><circle r="10.287583530280875" cx="33.17343399114085" cy="447.0893339893754" opacity="0.3686391864695453"></circle><circle r="5.440970304677038" cx="211.71162712316269" cy="299.0294455337801" opacity="0.5145378928722526"></circle><circle r="4.1091635208036" cx="784.7597115731281" cy="640.839682974476" opacity="0.4323660674771691"></circle><circle r="6.451351207280332" cx="669.0408391993794" cy="208.0962283906024" opacity="0.42842721264359196"></circle><circle r="4.273320566583336" cx="469.1331864588697" cy="533.3479302052051" opacity="0.16635650215652328"></circle><circle r="3.5830031498290236" cx="374.52890830829585" cy="223.21926056059044" opacity="0.15288121555101788"></circle><circle r="5.098555335577793" cx="307.86606737287843" cy="488.363041328209" opacity="0.7877388527848733"></circle><circle r="5.605022039782019" cx="59.28435229044713" cy="673.1856481925245" opacity="0.6246389731793606"></circle><circle r="5.168580581837646" cx="640.3580282422164" cy="46.27490450209815" opacity="0.43116454134909343"></circle><circle r="4.536954793158056" cx="364.0072847571005" cy="331.34896051129925" opacity="0.9491301670337067"></circle><circle r="3.377722595334589" cx="586.4374304403979" cy="197.87000720245257" opacity="0.7210376574494"></circle><circle r="4.448264770262768" cx="356.9561314363398" cy="790.5568930381253" opacity="0.4780500072214975"></circle><circle r="5.547943736946851" cx="623.8818264260477" cy="324.0463117852869" opacity="0.793950773825016"></circle><circle r="3.6870819451200276" cx="218.69611976994636" cy="174.33891269716352" opacity="0.6998662370607834"></circle><circle r="7.291207849460221" cx="559.1050014197959" cy="390.70032163360025" opacity="0.24084029210544342"></circle><circle r="5.996337891677546" cx="453.49283209097746" cy="252.05347018741662" opacity="0.3528715865082912"></circle><circle r="4.22554918769366" cx="398.14898516254107" cy="127.88440707575506" opacity="0.17543786202052403"></circle><circle r="3.699234057779581" cx="456.4337712457763" cy="590.6616562828175" opacity="0.48608472492103927"></circle><circle r="7.108513894691091" cx="158.36235809426597" cy="378.49771336657625" opacity="0.9392342042891613"></circle><circle r="4.974907300947949" cx="780.3059207387369" cy="301.28057234607587" opacity="0.2881989610222925"></circle><circle r="3.457910986757301" cx="431.05197917503017" cy="644.2851502539834" opacity="0.7407230210805755"></circle><circle r="5.893414249153161" cx="249.38651468439684" cy="588.6787348670421" opacity="0.19006689698316526"></circle><circle r="6.860580456522165" cx="156.95268401026942" cy="417.61570319332174" opacity="0.588109578378194"></circle><circle r="3.3901010464506145" cx="340.0478113005422" cy="90.16349021782392" opacity="0.6326832375774057"></circle><circle r="5.8147886732649825" cx="782.9112386980737" cy="589.588522282914" opacity="0.5831854207889469"></circle><circle r="7.065061990249296" cx="40.75928402288705" cy="624.4337686063502" opacity="0.18680594907466588"></circle><circle r="6.25764974950348" cx="676.4103785482719" cy="753.6688914235181" opacity="0.8788472819641138"></circle><circle r="5.880621557653516" cx="700.2633597671628" cy="673.3220578206892" opacity="0.9033738629601776"></circle><circle r="7.332676021641567" cx="129.95985290066093" cy="543.1386025292543" opacity="0.8087968145802349"></circle><circle r="5.869482238033897" cx="453.94369957678884" cy="400.0798629972098" opacity="0.5839746247336843"></circle><circle r="4.953802424862024" cx="227.62019719768094" cy="448.8695099805073" opacity="0.8590307595216179"></circle><circle r="4.3452251163860645" cx="162.2029023707752" cy="558.0231347844998" opacity="0.9166535805414984"></circle><circle r="4.560778008748008" cx="701.0020159325005" cy="643.9595175651609" opacity="0.5293091491266209"></circle><circle r="5.084029690600731" cx="144.095343295532" cy="788.3481076362668" opacity="0.6058445911460415"></circle><circle r="3.1300926023937823" cx="381.74367654628935" cy="396.28792180288576" opacity="0.18541654871433488"></circle><circle r="6.125175037920423" cx="129.46351182993195" cy="508.65090075178534" opacity="0.35553703341716647"></circle><circle r="5.004484074727992" cx="623.2348244441396" cy="98.37510296039106" opacity="0.20330157694362821"></circle><circle r="4.844755073207808" cx="426.25421688039296" cy="193.84418325327923" opacity="0.9302196747158695"></circle><circle r="7.671536134212114" cx="381.75363627990964" cy="279.42627277930694" opacity="0.9386328176591859"></circle><circle r="6.098024688154268" cx="646.1979444184007" cy="718.1196797868444" opacity="0.4175309737377686"></circle><circle r="5.819166624647714" cx="506.60576706876196" cy="314.74668704276087" opacity="0.8633192797406604"></circle><circle r="7.03956019388076" cx="139.77566426759603" cy="670.0049447203568" opacity="0.8613575166450461"></circle><circle r="5.122479993597347" cx="501.25591662424824" cy="254.8020087702793" opacity="0.43940999606620545"></circle><circle r="7.3866851059379695" cx="324.6697080766491" cy="189.75489126762665" opacity="0.38329264090261017"></circle><circle r="5.069758903688701" cx="227.99141722348924" cy="424.2460442124834" opacity="0.7847604604924239"></circle><circle r="4.276066468171697" cx="489.19103046221915" cy="690.6406598226881" opacity="0.3447052743057688"></circle><circle r="5.685704997009786" cx="133.55994733039657" cy="701.1624383917762" opacity="0.5698310637152836"></circle><circle r="6.889166921670334" cx="354.2061806400306" cy="672.2508207658757" opacity="0.5808997657262003"></circle><circle r="10.427968978378898" cx="426.5402387632524" cy="22.075038362825666" opacity="0.4696670062410877"></circle><circle r="2.793637530448399" cx="427.91896303513704" cy="668.966057310307" opacity="0.4554166935860616"></circle><circle r="5.1975420658935025" cx="91.44985004606349" cy="700.8966805251072" opacity="0.2741869982406507"></circle><circle r="4.111251357017485" cx="195.3710391958716" cy="74.11958018928152" opacity="0.8504137165951751"></circle><circle r="5.473916064146543" cx="723.9971000282565" cy="463.2665033165784" opacity="0.8610588653934937"></circle><circle r="4.751728783868303" cx="269.38321006357523" cy="785.6843930609638" opacity="0.13446188828239797"></circle><circle r="4.506416618669226" cx="326.77045370224516" cy="596.0006656445651" opacity="0.9374260540908897"></circle><circle r="3.714618156137058" cx="88.06336457185164" cy="214.67703485981215" opacity="0.9133280210081379"></circle><circle r="8.244405789400261" cx="531.5986164266175" cy="154.9679527111254" opacity="0.682476075115623"></circle><circle r="3.3350895257808406" cx="337.949039133809" cy="312.5058372377852" opacity="0.9265174631997264"></circle><circle r="5.765007890442584" cx="196.59462340494167" cy="419.37431440933955" opacity="0.40763163354931087"></circle><circle r="5.079756398329934" cx="391.9577347145587" cy="314.7581433463531" opacity="0.3252421487018415"></circle><circle r="5.0568492659761315" cx="275.7351434078222" cy="142.5877281318934" opacity="0.8866133477074949"></circle><circle r="6.387072312618857" cx="533.4362843108366" cy="598.9286750560659" opacity="0.5505799388084668"></circle><circle r="5.097050177887102" cx="128.09694349614088" cy="315.1248012981228" opacity="0.33539202964051024"></circle><circle r="3.6937507509313163" cx="630.254007332798" cy="14.556205296467708" opacity="0.8379751534998742"></circle><circle r="5.000247476024341" cx="349.3620348972016" cy="210.98817116294572" opacity="0.7910599215902527"></circle><circle r="2.8427579235801446" cx="177.00170908739145" cy="520.882226365918" opacity="0.75433442165253"></circle><circle r="5.313694109646824" cx="229.3711728585049" cy="144.10757020506247" opacity="0.6449305505683127"></circle><circle r="7.437470173630649" cx="19.0705540456099" cy="600.1211264440662" opacity="0.12440635322407392"></circle><circle r="7.106712677810567" cx="759.6393634055318" cy="55.344533452390635" opacity="0.9828609599138933"></circle><circle r="5.082223726492552" cx="628.069151017784" cy="700.1206830603054" opacity="0.48246795681225696"></circle><circle r="5.400326866642503" cx="508.5820055965175" cy="691.7773683867104" opacity="0.161577697120631"></circle><circle r="4.713341973434498" cx="150.2939538073804" cy="484.0575262267714" opacity="0.8914736880847746"></circle><circle r="4.575515401855042" cx="425.03541189385567" cy="399.02470793257294" opacity="0.41813259213698817"></circle><circle r="7.563545745662437" cx="409.3031455155094" cy="78.26545959360979" opacity="0.25921769987077037"></circle><circle r="6.662851633175327" cx="505.0766596930677" cy="185.33352710736725" opacity="0.6887713635061126"></circle><circle r="5.4408716259318215" cx="450.6113791655698" cy="175.71491749093252" opacity="0.9152415968832762"></circle><circle r="6.698074854688089" cx="523.5841284221018" cy="406.661401837991" opacity="0.7741516557542522"></circle><circle r="7.502661172406258" cx="600.1219178703592" cy="128.45988620351537" opacity="0.5517331116281694"></circle><circle r="5.072681835720914" cx="300.53057678072395" cy="386.0223392082442" opacity="0.9988755119234789"></circle><circle r="5.746655903232959" cx="183.40853780569037" cy="448.0299481584973" opacity="0.6656992981150756"></circle><circle r="4.295262632647732" cx="519.0420399029406" cy="376.20625683256895" opacity="0.7672995389472513"></circle><circle r="4.2567392368425105" cx="156.66115550017457" cy="534.3968298760784" opacity="0.2147567059959396"></circle><circle r="5.473269840966239" cx="554.1552495625974" cy="329.8307011809135" opacity="0.7416034236558982"></circle><circle r="6.487358772222494" cx="322.6160533478451" cy="156.10051812735165" opacity="0.42099426952274377"></circle><circle r="2.863557601284206" cx="419.6923051984052" cy="790.7923086504419" opacity="0.23788325580971298"></circle><circle r="3.4650553156996127" cx="496.8505620844897" cy="214.24170331870022" opacity="0.9451883931106405"></circle><circle r="5.6169297096148565" cx="231.29153268832948" cy="692.997035172278" opacity="0.3392210316610915"></circle><circle r="7.073755121031224" cx="549.7098229550636" cy="68.27095313976278" opacity="0.45015994906189594"></circle><circle r="4.761333472374984" cx="314.95019151560683" cy="722.1665848440128" opacity="0.8445991496608706"></circle><circle r="2.1545742657732556" cx="473.3220442724762" cy="318.0861326786508" opacity="0.5971898078579536"></circle><circle r="3.952879264542559" cx="402.0401491322254" cy="649.9512553257107" opacity="0.26637804613739546"></circle><circle r="6.826211736556737" cx="734.1983786317679" cy="694.8116381756462" opacity="0.15232751612508105"></circle><circle r="7.4750231768429" cx="126.74302124287729" cy="352.226275134335" opacity="0.7771127160658095"></circle><circle r="7.104244916009835" cx="40.83808911001755" cy="493.30870791271406" opacity="0.9687520826110976"></circle><circle r="5.411481516302912" cx="782.428584704056" cy="552.5824310259147" opacity="0.6245184085908189"></circle><circle r="5.366313729644318" cx="577.4539314043442" cy="257.45222773448273" opacity="0.8242455802600868"></circle><circle r="5.246856378635821" cx="96.81498221310706" cy="497.9670892423946" opacity="0.4515966633906373"></circle><circle r="4.0492795231223155" cx="705.6319658068055" cy="21.34540007479947" opacity="0.24659544148984136"></circle><circle r="5.413330989164919" cx="492.72640464245467" cy="779.1865416166971" opacity="0.350660354123312"></circle><circle r="5.253523773819964" cx="430.21751757167993" cy="108.97093917491505" opacity="0.18131815841380283"></circle><circle r="6.666562598775844" cx="305.84436048011145" cy="552.5123958553457" opacity="0.6452045698284804"></circle><circle r="7.164779815590183" cx="637.1182898641215" cy="630.7251165545879" opacity="0.9593505347726714"></circle><circle r="5.745167701257579" cx="710.4379531706834" cy="497.6468756822504" opacity="0.8319956176550468"></circle><circle r="5.589809256077623" cx="92.18035508887981" cy="323.33855939767903" opacity="0.7076456676428243"></circle><circle r="5.79190846471783" cx="216.64510215425082" cy="505.55752725308116" opacity="0.508127971103553"></circle><circle r="3.8988134269113752" cx="387.4694797292634" cy="449.0454518316405" opacity="0.484060301892982"></circle><circle r="4.614917816631389" cx="569.2813121150319" cy="503.0177178771964" opacity="0.29964834707107646"></circle><circle r="8.108509952544448" cx="504.9071764256966" cy="467.2251001591284" opacity="0.5632685846314147"></circle><circle r="6.272052758102969" cx="696.8669468589318" cy="526.9645908735166" opacity="0.8643598319290726"></circle><circle r="7.329905621168747" cx="599.5742180401643" cy="662.1676217940675" opacity="0.9825221048057856"></circle><circle r="5.935048137124091" cx="100.34839057395996" cy="670.8312298766505" opacity="0.5223656921039832"></circle><circle r="6.466056996105086" cx="116.84556875762168" cy="284.1930214298227" opacity="0.8960218734655058"></circle><circle r="4.465607236720803" cx="154.992625799724" cy="765.9710747912114" opacity="0.5358165056582188"></circle><circle r="5.070682527986653" cx="185.27703171360974" cy="47.760795735891136" opacity="0.32684760287490544"></circle><circle r="5.617067129160837" cx="572.8333072037212" cy="146.29550075431968" opacity="0.2473802546770895"></circle><circle r="6.1667035477322685" cx="171.31326360057892" cy="667.5410465313598" opacity="0.5500622442084915"></circle><circle r="4.598622221172862" cx="78.64647000462901" cy="739.9128786232633" opacity="0.8988820496192177"></circle><circle r="6.512835456772676" cx="718.3987202491132" cy="258.4603611759649" opacity="0.9977392942427266"></circle><circle r="2.5440767488158555" cx="352.63742164141814" cy="378.43993119103686" opacity="0.7962085389714427"></circle><circle r="7.626146363800071" cx="540.9618402807151" cy="779.185649371198" opacity="0.7192317647602905"></circle><circle r="3.640810755847101" cx="666.2321076837994" cy="782.3260286495265" opacity="0.6409642513996108"></circle><circle r="9.409560615570232" cx="488.3585032118092" cy="109.58284150834227" opacity="0.7357410805417558"></circle><circle r="7.194558093905378" cx="278.228261422989" cy="497.5676930025451" opacity="0.9428043142159573"></circle><circle r="4.490802438142249" cx="386.2769908897002" cy="13.976420417736115" opacity="0.876139585943034"></circle><circle r="6.202112046783419" cx="557.226089875644" cy="576.450564223617" opacity="0.7241421994211252"></circle><circle r="5.353538347645695" cx="522.5110693774253" cy="28.4024756745066" opacity="0.2924152774990041"></circle><circle r="3.0475367557857176" cx="477.9191015033908" cy="335.1613066214253" opacity="0.8906338271719129"></circle><circle r="7.59004614959936" cx="522.6867434104732" cy="68.59565348746224" opacity="0.42479928394683375"></circle><circle r="4.0730301796875565" cx="565.0428856121088" cy="309.7279242792032" opacity="0.18336160403197682"></circle><circle r="8.356301047028838" cx="166.3482980067963" cy="202.79118242576513" opacity="0.9820288486287434"></circle><circle r="4.31561711102482" cx="278.1337570711454" cy="398.92132524576687" opacity="0.48559759118917"></circle><circle r="8.20590810410758" cx="54.125795753695755" cy="335.7538370504356" opacity="0.2723860795405633"></circle><circle r="8.117878695669926" cx="19.742502223146523" cy="90.45820489694663" opacity="0.8636793089995498"></circle><circle r="3.2621217222594643" cx="499.3746758339928" cy="646.9802609751367" opacity="0.6295849434687475"></circle><circle r="6.8973604079465005" cx="326.6507779968582" cy="385.1578156238518" opacity="0.5378232710673898"></circle><circle r="4.295344524587045" cx="517.7364813433544" cy="229.19678748574458" opacity="0.6566527975015547"></circle><circle r="3.0312810152308574" cx="93.6956596544531" cy="191.51962300720294" opacity="0.7518486704932236"></circle><circle r="6.1664510966129775" cx="715.6546671862557" cy="314.2060617099825" opacity="0.1466961616578484"></circle><circle r="5.20844905136213" cx="737.9532973352106" cy="737.4905246688376" opacity="0.8859936677588288"></circle><circle r="8.099216820640285" cx="714.0546168197618" cy="54.864381447723375" opacity="0.15538052987817294"></circle><circle r="3.1301052768359154" cx="785.7094620489469" cy="144.98145220357338" opacity="0.6941531834277023"></circle><circle r="8.434012066823168" cx="482.06228683783684" cy="152.08868071105263" opacity="0.9647393277232011"></circle><circle r="5.829988673190007" cx="784.4641891414248" cy="773.8850562147948" opacity="0.13428312311898022"></circle><circle r="5.080854589809732" cx="707.1328229316753" cy="148.36151994717042" opacity="0.4773080894261046"></circle><circle r="5.777607014616642" cx="242.86956756342195" cy="181.89803698588352" opacity="0.5301941430737231"></circle><circle r="3.670421897016186" cx="731.601705026574" cy="10.523040228106883" opacity="0.7141997229488783"></circle><circle r="7.887225407485619" cx="783.6869931257002" cy="393.2706346967253" opacity="0.4136628648209081"></circle><circle r="7.933350259584087" cx="424.7742181400579" cy="581.7418499701847" opacity="0.22623462077119433"></circle><circle r="3.3275895130376663" cx="449.7288619790215" cy="682.4692720542542" opacity="0.25064995517855454"></circle><circle r="4.154425628307376" cx="193.6450927857294" cy="173.4260721986369" opacity="0.33775979621336655"></circle><circle r="3.816656672648186" cx="51.10856600264597" cy="790.2454175806004" opacity="0.6019064536939601"></circle><circle r="7.7092604935357585" cx="605.8088650659263" cy="621.9890083252625" opacity="0.5499307328939598"></circle><circle r="3.9224892799566953" cx="777.9217998955254" cy="519.104445559253" opacity="0.9901027819083867"></circle><circle r="3.184877439494413" cx="398.2627949916854" cy="152.09549728251886" opacity="0.8320411292164785"></circle><circle r="2.663566230483942" cx="95.15144419709262" cy="789.7918163719244" opacity="0.8976991840146423"></circle><circle r="6.131040117818076" cx="694.1024121870802" cy="560.268053304413" opacity="0.32613146751656685"></circle><circle r="5.667651010844848" cx="776.6104404353808" cy="13.153597376080587" opacity="0.8054636747255348"></circle><circle r="5.018184896170517" cx="313.89654718826245" cy="519.4849563102349" opacity="0.3888453954037434"></circle><circle r="5.698830812347874" cx="482.500796786513" cy="502.8653334175179" opacity="0.19713112164103036"></circle><circle r="8.64157708651162" cx="107.83184802153639" cy="18.681948612516642" opacity="0.9953206461664181"></circle><circle r="4.994713343481097" cx="378.8913105525028" cy="579.9352749057003" opacity="0.10025843005148244"></circle><circle r="5.957240260093268" cx="756.4829090626475" cy="776.1205538714573" opacity="0.8567823599814083"></circle><circle r="3.731864726817765" cx="606.0104364366784" cy="522.7251810294388" opacity="0.6613740516654614"></circle><circle r="5.346160356586103" cx="628.0359977513929" cy="666.7749127306433" opacity="0.5293631626648235"></circle><circle r="9.980691923138362" cx="670.7841747059371" cy="615.7176217478242" opacity="0.13904561276290217"></circle><circle r="7.1032679782509245" cx="121.27196137092673" cy="51.27276651892088" opacity="0.47684309794604596"></circle><circle r="6.899115391654345" cx="387.1912086104957" cy="682.3387637384859" opacity="0.8229511632983785"></circle><circle r="6.794724787886375" cx="143.8613472158046" cy="18.253504078708367" opacity="0.8122664563374309"></circle><circle r="3.4098208517877833" cx="475.1056983519086" cy="656.8538918899503" opacity="0.6902450248851015"></circle><circle r="4.035039126069982" cx="347.9028804942906" cy="524.5469855442079" opacity="0.14525224860373775"></circle><circle r="3.9071677359292667" cx="408.1002541376783" cy="769.4120803231724" opacity="0.8144434848605918"></circle><circle r="5.944410221355776" cx="128.8203732125619" cy="393.6689028265978" opacity="0.35545056222216254"></circle><circle r="7.964109093878394" cx="432.2668752878535" cy="538.7822303742352" opacity="0.6254920111431622"></circle><circle r="5.355008620058774" cx="57.01454406134868" cy="387.6168598950188" opacity="0.8778741695471675"></circle><circle r="4.451884981990828" cx="250.37077276937748" cy="410.78303892961037" opacity="0.2506883860270311"></circle><circle r="7.01166381940183" cx="739.9492264641219" cy="293.9733468614629" opacity="0.7931261958849692"></circle><circle r="5.824947702563785" cx="368.4251934115837" cy="707.5407279284514" opacity="0.2074800089994051"></circle><circle r="8.630289884487798" cx="732.0087514262262" cy="127.89267852304242" opacity="0.23534996271465927"></circle><circle r="4.944576029692681" cx="562.6575586733131" cy="214.8436172829438" opacity="0.5573145326641514"></circle><circle r="4.779340567438595" cx="352.0927784209998" cy="603.6265597547084" opacity="0.427420928690354"></circle><circle r="7.6354307374051835" cx="721.0554016166333" cy="351.9108629704915" opacity="0.642321224812963"></circle><circle r="4.100769671002951" cx="88.43470771553373" cy="590.9303339812537" opacity="0.7500123645019419"></circle><circle r="7.899220779016639" cx="663.5064671553965" cy="85.03150945712464" opacity="0.15742926516173467"></circle><circle r="3.9814220603912744" cx="247.56342177456318" cy="523.6165369764524" opacity="0.3914480082905005"></circle><circle r="5.472256263362894" cx="368.9943898733482" cy="474.0020353821028" opacity="0.9321906188337822"></circle><circle r="5.832624705385148" cx="494.3631592952324" cy="351.7727129341342" opacity="0.48772898375587626"></circle><circle r="4.421516370627221" cx="353.69274368425874" cy="146.82384777275215" opacity="0.29816904254578935"></circle><circle r="8.444954637143141" cx="657.0664802283659" cy="432.18521319806774" opacity="0.5593869909030119"></circle><circle r="5.582274682482409" cx="758.4938595371505" cy="267.150440742619" opacity="0.7792926990652067"></circle><circle r="6.518236305187894" cx="281.8699332204571" cy="528.204925166579" opacity="0.47858257481774724"></circle><circle r="3.96504575396935" cx="361.40008683296105" cy="736.3593694126797" opacity="0.4040250724246922"></circle><circle r="3.536238866578317" cx="697.8920849533416" cy="442.75163851286453" opacity="0.8292966619976493"></circle><circle r="3.25856603148472" cx="537.8250979934807" cy="268.43479450787623" opacity="0.11155081273555835"></circle><circle r="3.5587386878030727" cx="669.7131085944083" cy="28.77983189547549" opacity="0.308766857985289"></circle><circle r="3.475735285273087" cx="576.5825398022622" cy="178.08180100110098" opacity="0.23516387412856474"></circle><circle r="4.168379607518172" cx="614.1460312738999" cy="247.4503232136619" opacity="0.49034683046307526"></circle><circle r="8.144834261513555" cx="640.0492253233999" cy="289.37476701153247" opacity="0.9522932364902525"></circle><circle r="4.267893421838386" cx="543.9443394798336" cy="359.0233665943854" opacity="0.40097842521355953"></circle><circle r="9.867094356789767" cx="478.40078762008886" cy="736.9920846883631" opacity="0.16882517800670527"></circle><circle r="3.9965217716954795" cx="78.90360967847404" cy="149.96543086821663" opacity="0.5693516342983731"></circle><circle r="2.90059202550447" cx="469.060477074964" cy="696.7324809925765" opacity="0.8461450049785468"></circle><circle r="4.5517803974785" cx="460.35185863075196" cy="619.8038970363193" opacity="0.5176288758960792"></circle><circle r="7.089224850221731" cx="607.2695377776113" cy="276.2758823756737" opacity="0.42097020064020274"></circle><circle r="7.085396182273612" cx="282.22926337708856" cy="463.40119110151215" opacity="0.8858805455791748"></circle><circle r="6.171420937261806" cx="135.14030156822196" cy="738.7543642614909" opacity="0.6443926843214693"></circle><circle r="7.422825183248744" cx="465.9332996448475" cy="28.06896358203295" opacity="0.8910635350141076"></circle><circle r="4.0346019408574545" cx="765.2941513038868" cy="112.42613580594909" opacity="0.5646622596084828"></circle><circle r="7.796829577362104" cx="218.4275722064242" cy="260.704044563915" opacity="0.12463915695087868"></circle><circle r="6.200986060255981" cx="533.5816044584789" cy="491.27994578242846" opacity="0.5059333365911245"></circle><circle r="6.334384468846734" cx="683.0799718851323" cy="726.7541332511772" opacity="0.7712500331271964"></circle><circle r="8.88420282642563" cx="520.6714611116141" cy="739.9425755102835" opacity="0.89564740342744"></circle><circle r="3.5503759765200127" cx="12.859632064832901" cy="563.527714860449" opacity="0.244715482013064"></circle><circle r="8.434876065309574" cx="187.1788385816549" cy="237.42363294508309" opacity="0.4477120798668517"></circle><circle r="6.163639225835327" cx="328.94604748731814" cy="61.24727498174497" opacity="0.6309279971468914"></circle><circle r="6.023549174151004" cx="92.29511128166223" cy="75.42906373206841" opacity="0.6148580643982678"></circle><circle r="3.5423249669024943" cx="286.58328358084833" cy="203.62367893201198" opacity="0.7206321772222333"></circle><circle r="3.9459364908475782" cx="108.26649601959056" cy="559.6281435267198" opacity="0.3213230860447924"></circle><circle r="4.37340769222867" cx="273.71736870690273" cy="81.95243887399549" opacity="0.30950697716663894"></circle><circle r="8.356138161900713" cx="309.6463576432476" cy="290.9689410586426" opacity="0.8427340480194059"></circle><circle r="4.665051809048558" cx="375.4649744959718" cy="123.1479828487925" opacity="0.23110152019374827"></circle><circle r="5.385212968805711" cx="262.53612387669637" cy="555.613614791355" opacity="0.5861483920342202"></circle><circle r="4.548632267919563" cx="594.2627122098482" cy="553.52616437083" opacity="0.46858291991959056"></circle><circle r="6.582779563315995" cx="737.0708541697987" cy="515.7638164640093" opacity="0.38687120614199644"></circle><circle r="4.41205742249189" cx="319.0532976703277" cy="354.92880825599576" opacity="0.9073729504552174"></circle><circle r="6.702859104058524" cx="312.73047653791417" cy="18.803255999579168" opacity="0.9113728984338773"></circle><circle r="7.130988184837599" cx="261.03020606612216" cy="14.916656808560298" opacity="0.7036168878142541"></circle><circle r="2.7355536480972553" cx="448.98627901571257" cy="312.861424692896" opacity="0.5585300723856192"></circle><circle r="6.13830888206528" cx="209.23808358918484" cy="13.869646077122429" opacity="0.5741021129617363"></circle><circle r="7.955624085211614" cx="702.4310447091467" cy="96.09483166576682" opacity="0.2721872629703005"></circle><circle r="6.46088641545513" cx="692.6322163772539" cy="180.94116090245564" opacity="0.9552276914756427"></circle><circle r="7.192488114686737" cx="762.6486636193786" cy="672.4037131478461" opacity="0.3487162136719963"></circle><circle r="4.698340580333734" cx="596.5445255689609" cy="47.25248922355068" opacity="0.16021522123289245"></circle><circle r="4.54665513693763" cx="234.7448889603925" cy="307.3453812602834" opacity="0.8368176891223155"></circle><circle r="8.235705737113816" cx="204.0549860042069" cy="727.2733757446629" opacity="0.1994771049485379"></circle><circle r="5.235486707852184" cx="677.9699583460379" cy="701.7611372697507" opacity="0.7464977075906659"></circle><circle r="4.831309048864392" cx="529.8512043812922" cy="441.9793464486362" opacity="0.7115921644106772"></circle><circle r="4.289649140715375" cx="566.5496052127054" cy="20.437054748554683" opacity="0.1603939221454695"></circle><circle r="6.2040317337001865" cx="778.7940632283562" cy="716.9467471990182" opacity="0.8585062858818332"></circle><circle r="5.628698346791349" cx="591.6725386939386" cy="405.959745147343" opacity="0.28947273888852315"></circle><circle r="5.039203236756957" cx="721.847121392337" cy="543.212005804356" opacity="0.2937058758522646"></circle><circle r="4.936144794575419" cx="322.0067044094712" cy="218.02368592735786" opacity="0.6344867434244159"></circle><circle r="7.928409475994675" cx="626.6532779233344" cy="580.6662898775016" opacity="0.9525206519575825"></circle><circle r="7.585001276618838" cx="671.989756562131" cy="337.671386452723" opacity="0.2128988741866723"></circle><circle r="7.82839095414187" cx="561.5059902953888" cy="422.7375668250519" opacity="0.4751268080441976"></circle><circle r="4.284845164738252" cx="147.8081689777873" cy="107.49576189889333" opacity="0.9133711848115923"></circle><circle r="4.1080879934005035" cx="257.3407096595936" cy="289.90111297165606" opacity="0.6195860179581808"></circle><circle r="3.9680051471559334" cx="324.9587022221967" cy="621.6155815565329" opacity="0.42948271485637834"></circle><circle r="6.791462187686005" cx="151.67475843631317" cy="610.8776284775865" opacity="0.29095863290842977"></circle><circle r="3.9273178786519143" cx="641.8123278447985" cy="780.9908359612313" opacity="0.7455157817365377"></circle><circle r="5.63139359289064" cx="785.84337676984" cy="171.65453906137566" opacity="0.2893029755025042"></circle><circle r="5.19295364858367" cx="331.99497254261973" cy="738.1088988108156" opacity="0.8361642073722537"></circle><circle r="4.323059214769055" cx="318.0912852857241" cy="325.23084239345434" opacity="0.28031866795471083"></circle><circle r="5.085824551141526" cx="620.1908872765409" cy="745.8317265448327" opacity="0.7142997840332538"></circle><circle r="7.078395193976642" cx="42.57001023761645" cy="763.232763393848" opacity="0.6377665095611981"></circle><circle r="5.187463313970023" cx="582.5166737046691" cy="777.9618556947626" opacity="0.5720619271228831"></circle><circle r="4.56318905672567" cx="61.09529619371151" cy="172.74815916896972" opacity="0.7297817362567833"></circle><circle r="8.76541258747994" cx="566.4528800340834" cy="664.303545852308" opacity="0.3744574907777408"></circle><circle r="2.836221567667605" cx="333.89967371695985" cy="239.3936527598465" opacity="0.6302494927760112"></circle><circle r="4.518081897220352" cx="453.3816100303487" cy="652.5101303726767" opacity="0.9391301247407804"></circle><circle r="7.0598663509529676" cx="596.5192738143073" cy="374.13085333146097" opacity="0.2026318931866586"></circle><circle r="6.429781477604703" cx="449.6796270024673" cy="717.4655272722077" opacity="0.551544933794834"></circle><circle r="4.796618541863988" cx="705.7897151051585" cy="589.6492080520443" opacity="0.5206504663345856"></circle><circle r="5.127790303202351" cx="703.6671948745941" cy="755.8330603258071" opacity="0.39146738123897995"></circle><circle r="4.37384574175921" cx="727.7848003554922" cy="387.71681029768666" opacity="0.10407253515014762"></circle><circle r="4.502114076852573" cx="195.49206853483292" cy="681.2483896198743" opacity="0.5686576273136461"></circle><circle r="6.705670826924888" cx="493.5309187815044" cy="14.624797354266223" opacity="0.6170455022186733"></circle><circle r="3.120731614937537" cx="412.2325153464293" cy="171.7434572439058" opacity="0.9978459785429354"></circle><circle r="4.7780756439957255" cx="299.4347103285172" cy="223.99836445286599" opacity="0.2776191440549362"></circle><circle r="6.649916976810475" cx="780.5819927989567" cy="85.81999447619751" opacity="0.1963927900595009"></circle><circle r="3.964053252437027" cx="376.7667851468863" cy="249.50998886944618" opacity="0.7835901859492947"></circle><circle r="3.1930258202927697" cx="371.81824256576454" cy="380.7507107663841" opacity="0.43365208457471616"></circle><circle r="5.075587836690998" cx="660.4058259070209" cy="389.2870911494408" opacity="0.6254748910470155"></circle><circle r="7.3924623941783505" cx="268.2897691705574" cy="690.2971626355377" opacity="0.13519304811821842"></circle><circle r="3.7493121163766685" cx="373.5238206622948" cy="609.7903545415373" opacity="0.8512340623209823"></circle><circle r="5.878084810161586" cx="537.8294708002802" cy="243.33896605546" opacity="0.8980838862797417"></circle><circle r="4.516955244995174" cx="211.17777213998994" cy="338.1645901094897" opacity="0.9993343194065057"></circle><circle r="3.8890865097046756" cx="383.59805182128207" cy="522.009747612832" opacity="0.5910146723454124"></circle><circle r="4.601342406780187" cx="628.3582403538246" cy="496.3270365316257" opacity="0.8690636218484595"></circle><circle r="5.705237024824095" cx="690.7840745102396" cy="784.685723561183" opacity="0.28846717541735245"></circle><circle r="4.742410086432152" cx="216.1382201611714" cy="651.2428704835246" opacity="0.19540355915208008"></circle><circle r="5.09015565110713" cx="270.70481161241963" cy="170.36505176728906" opacity="0.3432622792015494"></circle><circle r="3.790960225153877" cx="368.81135568185806" cy="502.0427948398038" opacity="0.8881527054801371"></circle><circle r="4.7985047195761235" cx="295.32477626573603" cy="695.6107800560378" opacity="0.9358560942654818"></circle><circle r="4.263616169753595" cx="141.95527673871" cy="139.06000752736037" opacity="0.12308100636195249"></circle><circle r="4.859769118378717" cx="736.4257083472078" cy="764.783896936795" opacity="0.7813844333315373"></circle><circle r="4.204116874976203" cx="400.37469584942323" cy="423.027302932787" opacity="0.5971961437990411"></circle><circle r="4.915435774658849" cx="635.1059517712134" cy="537.6295640619427" opacity="0.311357569496863"></circle><circle r="5.203545189336816" cx="65.73713871517147" cy="577.678259887019" opacity="0.5007173026740238"></circle><circle r="6.551644502238071" cx="182.61365433088656" cy="484.29397532443613" opacity="0.6832970976673032"></circle><circle r="7.387249770328395" cx="754.0842447539646" cy="606.8422564825231" opacity="0.789663995072631"></circle><circle r="2.6878132462750943" cx="584.3011385715683" cy="68.6466161353099" opacity="0.5394478977395658"></circle><circle r="6.3723867874808695" cx="488.4706347409993" cy="65.42472140745176" opacity="0.586586026975165"></circle><circle r="6.240263279028045" cx="401.526416557933" cy="354.485493906949" opacity="0.4836440412868356"></circle><circle r="4.5108334616421715" cx="133.9964133063352" cy="179.8502917705039" opacity="0.3639618088631099"></circle><circle r="5.805837595566229" cx="533.419184370143" cy="679.8572269546404" opacity="0.8358892068219289"></circle><circle r="9.349502183753334" cx="635.821441206138" cy="358.72321674230795" opacity="0.5920520112473545"></circle><circle r="5.813432398871123" cx="423.4888876338978" cy="506.8970617229827" opacity="0.6523944820416662"></circle><circle r="11.442946500831445" cx="17.073338711782206" cy="181.93554029881557" opacity="0.6524570690739067"></circle><circle r="5.51480923101647" cx="657.2394502454197" cy="656.0320790709518" opacity="0.40478897314992734"></circle><circle r="7.220756188697271" cx="399.29706692472837" cy="610.2155905742881" opacity="0.43252740179624716"></circle><circle r="4.329091177454019" cx="157.109573124863" cy="331.22543021254893" opacity="0.4280270523861629"></circle><circle r="6.290174223666325" cx="487.89331859000185" cy="420.7967335823736" opacity="0.1523636805523952"></circle><circle r="5.282140662304613" cx="224.10671728795927" cy="607.9765679180932" opacity="0.840995361769833"></circle><circle r="6.774408436160035" cx="213.38948639528866" cy="207.66754387137524" opacity="0.8767436147269843"></circle><circle r="5.443083177752773" cx="299.6857308887123" cy="173.52730783908976" opacity="0.5768689666083279"></circle><circle r="5.250728573949628" cx="393.8573212971909" cy="542.3664182983716" opacity="0.22311641608341606"></circle><circle r="4.775545840789508" cx="45.7519438967039" cy="539.1453649544221" opacity="0.2609041053933344"></circle><circle r="4.816280976437958" cx="746.9608770925041" cy="231.51873598243165" opacity="0.825019815582651"></circle><circle r="6.124886769925687" cx="613.3038989076427" cy="783.1555059574" opacity="0.10168609237009366"></circle><circle r="6.498648047961348" cx="432.65737048175066" cy="444.7809426180193" opacity="0.2507111325353339"></circle><circle r="4.626980084981901" cx="507.60760663381143" cy="278.3428742336607" opacity="0.28747991228011405"></circle><circle r="4.504445908433586" cx="679.5217351461341" cy="52.594751335892056" opacity="0.8992143983652662"></circle><circle r="3.8550168615112934" cx="358.3936193795093" cy="182.77814777620085" opacity="0.637227893642644"></circle><circle r="5.8979141642961705" cx="282.44900090995657" cy="734.2834954750468" opacity="0.9404501634965134"></circle><circle r="9.06705568543002" cx="191.526577970184" cy="778.2585072492781" opacity="0.9622884100096976"></circle><circle r="8.007788966996543" cx="252.925936200342" cy="644.9592160693019" opacity="0.6370576810677684"></circle><circle r="5.195740748403063" cx="219.06522286918963" cy="85.81253439799832" opacity="0.6002559310365057"></circle><circle r="5.740178717914299" cx="380.82726634363473" cy="168.51451146019704" opacity="0.37469088756961244"></circle><circle r="3.946077088233864" cx="315.509979555207" cy="459.3472008528727" opacity="0.2452360638243195"></circle><circle r="5.292956964124845" cx="784.5078059935535" cy="241.44605306774136" opacity="0.19703671131039477"></circle><circle r="3.0807749787006875" cx="108.56485425532574" cy="203.21791669350998" opacity="0.9640728402011259"></circle><circle r="6.227454744094249" cx="569.0972604977997" cy="360.3983518645268" opacity="0.9448486537030311"></circle><circle r="5.233691156427712" cx="788.2856976806651" cy="119.7272748935854" opacity="0.5577868526138953"></circle><circle r="8.72516473612648" cx="451.95272424428873" cy="776.442393304689" opacity="0.3707295231250449"></circle><circle r="4.454418808428792" cx="595.2190455450238" cy="703.3118761461577" opacity="0.5086227629347919"></circle><circle r="6.813818652624606" cx="44.77630778609585" cy="730.967347802089" opacity="0.9947147382431578"></circle><circle r="6.876808103210273" cx="534.0913825833431" cy="202.33740399700807" opacity="0.20321369683840218"></circle><circle r="5.961974127539109" cx="427.7973251311441" cy="617.9939703826736" opacity="0.9428159398389726"></circle><circle r="3.981582103015955" cx="189.3549036052538" cy="545.2325785478494" opacity="0.2324283886853479"></circle><circle r="4.410508680282316" cx="228.1023684395767" cy="790.7900346932212" opacity="0.3710744495994728"></circle><circle r="7.26537382727321" cx="390.769178017328" cy="51.915785466044994" opacity="0.9530954490432089"></circle><circle r="3.876464732607371" cx="565.9783533582676" cy="45.50415464786897" opacity="0.43532787961208785"></circle><circle r="4.766681490701551" cx="272.0991050026797" cy="341.9864942896417" opacity="0.501667741174842"></circle><circle r="5.328141431633901" cx="8.99270261122574" cy="640.8749351842573" opacity="0.6919174246351616"></circle><circle r="3.923523817370271" cx="63.72298824308524" cy="710.2307737614459" opacity="0.6111972617292618"></circle><circle r="4.301916880927988" cx="16.048256937427457" cy="743.5961709701817" opacity="0.754882690036999"></circle><circle r="5.1271913125788995" cx="483.71503363686395" cy="279.1286329521025" opacity="0.3938864547390336"></circle><circle r="7.4302867873311556" cx="664.2558436263341" cy="538.7244096308846" opacity="0.6823623369652626"></circle><circle r="3.0479019007862385" cx="253.3893086801737" cy="321.43510723727206" opacity="0.5154081380281095"></circle><circle r="5.895281578254255" cx="481.5741086953096" cy="239.4933221372342" opacity="0.2840472790072615"></circle><circle r="4.458527303805041" cx="312.08399433334495" cy="754.4516266237067" opacity="0.8211097600729336"></circle><circle r="4.949671002200428" cx="409.03051923980524" cy="221.01588130443466" opacity="0.8687896846848481"></circle><circle r="5.765709264917737" cx="139.98481681559795" cy="451.10871640773746" opacity="0.925576595946852"></circle><circle r="3.8798944940061983" cx="196.93399483728945" cy="516.6432116017409" opacity="0.37295953239614954"></circle><circle r="9.898008073083904" cx="76.91595649695257" cy="634.960875902759" opacity="0.32567495498284893"></circle><circle r="5.4170373751086" cx="595.681493587167" cy="305.29477627817687" opacity="0.23765378538448423"></circle><circle r="5.0505177131347185" cx="594.3334103682987" cy="342.11398981725165" opacity="0.1198385181154232"></circle><circle r="3.6367818202192073" cx="712.0324711072587" cy="615.0592836118317" opacity="0.8824616937943855"></circle><circle r="4.431008190301539" cx="788.3511406728294" cy="62.28006364452377" opacity="0.24874563955945023"></circle><circle r="7.011290857705612" cx="745.7251067224681" cy="488.4802481794733" opacity="0.4679255187782525"></circle><circle r="6.334999134852389" cx="318.7302987143699" cy="683.7743888499311" opacity="0.2588240186377855"></circle><circle r="5.056697126133961" cx="751.7924897919621" cy="571.4551841643624" opacity="0.7944596478883063"></circle><circle r="4.937927549821625" cx="618.402058996738" cy="69.1491617587993" opacity="0.3291347613540772"></circle><circle r="6.192442758969976" cx="206.76093655752533" cy="470.7814928965583" opacity="0.5731074241869928"></circle><circle r="3.7104304572214675" cx="346.7030560269589" cy="754.9470994361094" opacity="0.7557265894388872"></circle><circle r="8.05181125672225" cx="73.31384317871999" cy="16.77498305782968" opacity="0.8227797810796948"></circle><circle r="3.62909646469981" cx="656.7475674850997" cy="11.362141770764513" opacity="0.14943577584224105"></circle><circle r="5.478562638259658" cx="34.81741639725012" cy="219.4326053273794" opacity="0.4357816264010972"></circle><circle r="6.609787264775679" cx="42.23368997091132" cy="32.527130749103975" opacity="0.20047536417022563"></circle><circle r="9.301072483819823" cx="719.8516247656725" cy="207.12880716133216" opacity="0.315818275587064"></circle><circle r="5.438782563371756" cx="515.218345343231" cy="526.452915736637" opacity="0.7018451882516319"></circle><circle r="3.3111520662498033" cx="735.9773571123793" cy="624.3639755866144" opacity="0.3156774746364589"></circle><circle r="8.310908448241662" cx="740.5851105522079" cy="88.48900799675874" opacity="0.808994889050065"></circle><circle r="6.168000231559121" cx="400.87565138192844" cy="566.2443503779626" opacity="0.91237624677152"></circle><circle r="3.874470526773809" cx="169.91077706699645" cy="157.4787840723941" opacity="0.7810045424375615"></circle><circle r="4.950666681078511" cx="28.718073046875435" cy="655.2892093147622" opacity="0.9814937162118812"></circle><circle r="4.363771331663207" cx="344.0888480760893" cy="702.8947682957789" opacity="0.512310755344656"></circle><circle r="5.562552717352416" cx="355.5789470664278" cy="572.8751771883575" opacity="0.8241822851927586"></circle><circle r="3.8308774805141286" cx="210.40656550395911" cy="118.95787452715113" opacity="0.3971529568674649"></circle><circle r="5.016645008241387" cx="163.38833371627848" cy="67.32322415367689" opacity="0.3083108812933407"></circle><circle r="6.047283092716171" cx="754.1394921265196" cy="391.52773156019833" opacity="0.18056056303321394"></circle><circle r="4.598770384155879" cx="101.4746330152765" cy="131.2692650349431" opacity="0.5670920493490023"></circle><circle r="5.287266763830215" cx="67.96957915787691" cy="55.66865830431671" opacity="0.7552805729907672"></circle><circle r="6.406373663582864" cx="553.874071153607" cy="539.1026392716022" opacity="0.37654853113719955"></circle><circle r="3.8242022670852545" cx="244.12384793483338" cy="81.97750494703483" opacity="0.6492661306791168"></circle><circle r="5.948403280308405" cx="640.5558596953391" cy="236.3706924573659" opacity="0.46577711424370727"></circle><circle r="6.10781232347514" cx="768.2808532205449" cy="195.85547661921987" opacity="0.731347073429687"></circle><circle r="6.144262130951473" cx="359.7952396097274" cy="26.356367837739114" opacity="0.33732971809799456"></circle><circle r="6.887573854762406" cx="14.774352881664003" cy="27.918404488001705" opacity="0.881011425837202"></circle><circle r="5.073165652855726" cx="159.96655319769172" cy="510.42740588123564" opacity="0.8743441619314859"></circle><circle r="7.005472220970734" cx="139.5334531181449" cy="78.84700814010212" opacity="0.5955344584992125"></circle><circle r="6.084013596553966" cx="357.08519731451094" cy="56.26440959693959" opacity="0.6473917450414912"></circle><circle r="3.9970874363117415" cx="291.9952318398399" cy="328.5722458279324" opacity="0.4613027639786217"></circle><circle r="4.029085362189043" cx="428.96429689025877" cy="744.8724966642562" opacity="0.9324336354458196"></circle><circle r="5.194391410773975" cx="692.5071745271124" cy="382.0663856654599" opacity="0.62483313167788"></circle><circle r="5.243208707628669" cx="450.14851205042123" cy="484.6073303102785" opacity="0.546956114021191"></circle><circle r="9.29272054384494" cx="94.01018094051845" cy="462.4853393986025" opacity="0.5851070618665609"></circle><circle r="4.795125778709899" cx="252.08048943865194" cy="468.16301174593536" opacity="0.5437395725248639"></circle><circle r="3.5960133804355383" cx="209.56311663598265" cy="369.13228312074665" opacity="0.7347192130493939"></circle><circle r="4.014013680470155" cx="339.0422265594918" cy="503.3692004283452" opacity="0.2771491769158946"></circle><circle r="3.2506797173147177" cx="401.2111689262212" cy="388.9169710079288" opacity="0.3708039845943948"></circle><circle r="7.587585083578041" cx="676.3389079711787" cy="293.4461902659389" opacity="0.11646087644222403"></circle><circle r="5.930332075024536" cx="36.29734657309492" cy="697.2505179101126" opacity="0.9459161357580146"></circle><circle r="6.566756370062501" cx="71.97210316501605" cy="768.5275225376329" opacity="0.550188181479546"></circle><circle r="5.373332868806051" cx="172.16578039043287" cy="23.51150510823813" opacity="0.32487856122790937"></circle><circle r="4.458151893967413" cx="72.16459775488659" cy="225.72414188164421" opacity="0.6028407219813472"></circle><circle r="6.558256767359396" cx="786.4201271861866" cy="488.51740141970834" opacity="0.3231323723417053"></circle><circle r="6.994268355828265" cx="412.5499097761984" cy="256.95551614215066" opacity="0.13405975303973644"></circle><circle r="9.375430078083056" cx="19.182208427473828" cy="391.41172892307947" opacity="0.1671014916767964"></circle><circle r="6.167364032827052" cx="191.54942387690716" cy="612.311180754107" opacity="0.919209993010997"></circle><circle r="6.710519199340268" cx="303.6604849697973" cy="257.2415936719669" opacity="0.7011616834045176"></circle><circle r="6.037386100071176" cx="14.745186117786222" cy="715.0752753925475" opacity="0.7054034743073905"></circle><circle r="4.387975962798067" cx="342.2524111792627" cy="773.2237797275781" opacity="0.5154322702803078"></circle><circle r="7.363970249969791" cx="437.49488941980604" cy="225.71453189749897" opacity="0.5134442405871119"></circle><circle r="3.4142681214967086" cx="340.2443740469888" cy="11.674776212720435" opacity="0.5503676795457201"></circle><circle r="4.702232896712211" cx="223.32905428323775" cy="542.275538130174" opacity="0.23717148094662516"></circle><circle r="6.999169850777448" cx="485.9272661198537" cy="578.4978302166955" opacity="0.19136875810007864"></circle><circle r="5.68949652364223" cx="563.2722507097309" cy="713.1865368695027" opacity="0.40299490917866354"></circle><circle r="4.480305895572412" cx="503.80545202403357" cy="554.2697934811601" opacity="0.146395958162915"></circle><circle r="3.3250605153244415" cx="450.275547877601" cy="276.19125998960214" opacity="0.41193542662579063"></circle><circle r="6.206134607373336" cx="262.1222598087257" cy="754.3225434614366" opacity="0.2162656967170349"></circle><circle r="5.009748166153335" cx="153.66542451695787" cy="580.723128501118" opacity="0.5433615574763782"></circle><circle r="5.81539714133529" cx="459.4855084257858" cy="561.5255308922212" opacity="0.7762731130448078"></circle><circle r="4.07687256113825" cx="381.866494819082" cy="769.512871249115" opacity="0.1371751534136464"></circle><circle r="3.143759468205765" cx="57.992476690714334" cy="195.49231687821367" opacity="0.742810599190222"></circle><circle r="4.777309592602674" cx="470.5264449214984" cy="453.68682266942653" opacity="0.6139495151491781"></circle><circle r="4.4230014269502735" cx="765.1009809900822" cy="465.0328749504386" opacity="0.885674538828475"></circle><circle r="5.663779975195439" cx="35.16543894927103" cy="139.08857802475936" opacity="0.4662737997678973"></circle><circle r="7.197867355317231" cx="628.4604251811943" cy="206.3661656582095" opacity="0.4908171853026495"></circle><circle r="4.815613867200964" cx="445.20167745225" cy="359.7465526092489" opacity="0.49662871567118605"></circle><circle r="3.3203612925337356" cx="136.26887776362824" cy="207.00428491171283" opacity="0.7486260829748814"></circle><circle r="8.62535170894273" cx="168.84525025056098" cy="708.5151368419855" opacity="0.7548794739526647"></circle><circle r="6.023212645667539" cx="62.6345524263107" cy="101.51048085175864" opacity="0.4326927629973538"></circle><circle r="7.839131885350591" cx="150.9152473978258" cy="256.3425044292055" opacity="0.6221191393321492"></circle><circle r="9.055783130387656" cx="647.811238077667" cy="169.5120147363514" opacity="0.27666684929479524"></circle><circle r="3.795836040967157" cx="556.0955049634463" cy="184.5164049414311" opacity="0.5406953575371669"></circle><circle r="4.86089624431877" cx="96.51318485633075" cy="254.55028567842098" opacity="0.38633879804950777"></circle><circle r="4.648396072422182" cx="622.6888095598638" cy="462.02607567044276" opacity="0.6256630382272858"></circle><circle r="4.9134649921209395" cx="121.02513059764023" cy="231.33538641765688" opacity="0.2351044171614359"></circle><circle r="5.514272471239619" cx="121.6142500097134" cy="637.3287857276034" opacity="0.7330527059503896"></circle><circle r="4.266431256609023" cx="544.1626849878312" cy="9.867641220109734" opacity="0.31451520277587786"></circle><circle r="6.462189100632543" cx="743.8000069990849" cy="32.83497454523376" opacity="0.22192783188062024"></circle><circle r="3.459282750469709" cx="242.3225461090379" cy="381.93869026520827" opacity="0.5368763982102748"></circle><circle r="5.732776964725101" cx="239.63461040153433" cy="349.24499780110756" opacity="0.7487547477726112"></circle><circle r="4.577659741320264" cx="436.74041996084856" cy="140.9916765667065" opacity="0.3957665539725742"></circle><circle r="7.6774732312937735" cx="662.4045534145525" cy="577.5273091076573" opacity="0.9995736818420047"></circle><circle r="5.073716836214056" cx="60.21113837773255" cy="251.28428097099822" opacity="0.24484131748084348"></circle><circle r="5.387341702176021" cx="342.49804107353526" cy="262.6151695769212" opacity="0.5958343324300781"></circle><circle r="3.2780839387547114" cx="788.1269895258844" cy="36.22428489310776" opacity="0.8648015317964449"></circle><circle r="5.300050226557892" cx="303.6352286414765" cy="86.55834862971278" opacity="0.1917029082516097"></circle><circle r="2.6833037169080955" cx="720.8673627183745" cy="793.5883899615723" opacity="0.9623276195403063"></circle><circle r="5.190627558298259" cx="273.5847178055863" cy="270.95526753191" opacity="0.7842148601920311"></circle><circle r="6.02297913642044" cx="739.0138721241386" cy="428.66376257765154" opacity="0.2136930592539056"></circle><circle r="8.643900576405025" cx="678.2811797782861" cy="469.7112100759725" opacity="0.3011294684298358"></circle><circle r="4.707774725884845" cx="677.2882848435365" cy="507.46333267709474" opacity="0.22703603843329292"></circle><circle r="6.078997324848434" cx="333.3925334347656" cy="415.94267390758716" opacity="0.5760053961782398"></circle><circle r="3.617794815818491" cx="169.62138954707788" cy="639.0065447053298" opacity="0.5888744109878091"></circle><circle r="3.548258803426898" cx="226.40159431065032" cy="483.2615193918386" opacity="0.8626227024388335"></circle><circle r="7.288723843819596" cx="110.25998725286794" cy="766.9291420360122" opacity="0.626503221283359"></circle><circle r="4.593707084568231" cx="108.38749900422512" cy="729.4101626171143" opacity="0.8300713656029469"></circle><circle r="3.85201711018322" cx="39.03585644056446" cy="575.0453490930734" opacity="0.4976182856017396"></circle><circle r="3.5577793032302725" cx="654.4831306927439" cy="743.0613686920706" opacity="0.4558646082829564"></circle><circle r="6.465559581600624" cx="448.993640300345" cy="69.61266618544087" opacity="0.3423570063869934"></circle><circle r="3.625700740051086" cx="719.636602135686" cy="777.3325275393731" opacity="0.10799930496698015"></circle><circle r="5.139407718245441" cx="781.688179101145" cy="437.55328197229176" opacity="0.44076235092510285"></circle><circle r="5.320804536543475" cx="728.8117579525035" cy="573.7911541434629" opacity="0.4856684165163717"></circle><circle r="5.815278171754065" cx="626.7762498564183" cy="397.6653295140673" opacity="0.6503337717838878"></circle><circle r="6.051136559879393" cx="200.97807904970725" cy="573.1937299513986" opacity="0.6749037653839094"></circle><circle r="6.785525228850556" cx="176.0563498254261" cy="294.4925232448074" opacity="0.7854002148014974"></circle><circle r="4.031188276965964" cx="567.924122692607" cy="87.28182286938109" opacity="0.9232968433883896"></circle><circle r="6.04252168075544" cx="575.9135218343295" cy="742.6405381115658" opacity="0.5523059338718186"></circle><circle r="6.693409201598826" cx="569.0667342739343" cy="458.53307561027344" opacity="0.339937731662762"></circle><circle r="5.7586912993181985" cx="600.8661857802811" cy="18.730049950665915" opacity="0.9427823522450492"></circle><circle r="3.7604721618012986" cx="518.8448742604613" cy="576.502639461029" opacity="0.6646425282133402"></circle><circle r="6.42722262747615" cx="346.57418324486827" cy="448.69584695327103" opacity="0.5753441966339063"></circle><circle r="7.1177815114767995" cx="585.3943776891485" cy="596.926420097079" opacity="0.5141873089190309"></circle><circle r="5.65394766783885" cx="222.9821027708398" cy="43.65086005733374" opacity="0.4251949371399636"></circle><circle r="6.341907555196831" cx="219.24391936678595" cy="394.8638812752773" opacity="0.9231640799506131"></circle><circle r="6.039707916488558" cx="525.1026969158381" cy="651.8513209134065" opacity="0.4879084304548331"></circle><circle r="7.523542515414065" cx="305.90080637353714" cy="428.1360484622575" opacity="0.9713309080014324"></circle><circle r="6.221350185066243" cx="467.36973193894465" cy="207.19004468136637" opacity="0.27268839112336585"></circle><circle r="7.279616889037749" cx="18.958301002726486" cy="322.1654575770946" opacity="0.6893685420842203"></circle><circle r="7.778670960552784" cx="481.47227398170617" cy="379.1695292084349" opacity="0.3754724026250066"></circle><circle r="9.236629018260906" cx="772.4750298790889" cy="345.64362636146825" opacity="0.8824962391859564"></circle><circle r="4.461614866912102" cx="531.9934434924716" cy="296.3665110242451" opacity="0.5545351739266358"></circle><circle r="7.566536417608873" cx="14.937805851718135" cy="780.3468086239158" opacity="0.49592629856006276"></circle><circle r="10.488470116608394" cx="288.35938723265144" cy="636.7115387464212" opacity="0.5805185497622708"></circle><circle r="5.168085269231462" cx="101.14041609260269" cy="379.6297684300759" opacity="0.5124924826293769"></circle><circle r="4.467488000731909" cx="325.47548723612755" cy="572.2851908016004" opacity="0.9038298889235697"></circle><circle r="4.493103725796492" cx="570.8657477151952" cy="235.81414141448394" opacity="0.12427277937171359"></circle></g></svg>