<svg id="visual" viewBox="0 0 2400 80" width="2400" height="80" xmlns="http://www.w3.org/2000/svg" xmlns:xlink="http://www.w3.org/1999/xlink" version="1.1"><path d="M0 5L12.8 15.5C25.7 26 51.3 47 77.2 53.8C103 60.7 129 53.3 154.8 47.3C180.7 41.3 206.3 36.7 232.2 40.8C258 45 284 58 309.8 62.3C335.7 66.7 361.3 62.3 387.2 52.7C413 43 439 28 464.8 21.7C490.7 15.3 516.3 17.7 542 25.2C567.7 32.7 593.3 45.3 619.2 43.3C645 41.3 671 24.7 696.8 15.2C722.7 5.7 748.3 3.3 774.2 8.2C800 13 826 25 851.8 27.3C877.7 29.7 903.3 22.3 929 17.2C954.7 12 980.3 9 1006.2 8.3C1032 7.7 1058 9.3 1083.8 12.3C1109.7 15.3 1135.3 19.7 1161.2 27.8C1187 36 1213 48 1238.8 54.2C1264.7 60.3 1290.3 60.7 1316.2 56C1342 51.3 1368 41.7 1393.8 42.5C1419.7 43.3 1445.3 54.7 1471 49.3C1496.7 44 1522.3 22 1548.2 18.8C1574 15.7 1600 31.3 1625.8 33.2C1651.7 35 1677.3 23 1703.2 27.2C1729 31.3 1755 51.7 1780.8 52.8C1806.7 54 1832.3 36 1858 31.3C1883.7 26.7 1909.3 35.3 1935.2 41.5C1961 47.7 1987 51.3 2012.8 45.5C2038.7 39.7 2064.3 24.3 2090.2 22.5C2116 20.7 2142 32.3 2167.8 38.8C2193.7 45.3 2219.3 46.7 2245.2 39.3C2271 32 2297 16 2322.8 10.5C2348.7 5 2374.3 10 2387.2 12.5L2400 15L2400 81L2387.2 81C2374.3 81 2348.7 81 2322.8 81C2297 81 2271 81 2245.2 81C2219.3 81 2193.7 81 2167.8 81C2142 81 2116 81 2090.2 81C2064.3 81 2038.7 81 2012.8 81C1987 81 1961 81 1935.2 81C1909.3 81 1883.7 81 1858 81C1832.3 81 1806.7 81 1780.8 81C1755 81 1729 81 1703.2 81C1677.3 81 1651.7 81 1625.8 81C1600 81 1574 81 1548.2 81C1522.3 81 1496.7 81 1471 81C1445.3 81 1419.7 81 1393.8 81C1368 81 1342 81 1316.2 81C1290.3 81 1264.7 81 1238.8 81C1213 81 1187 81 1161.2 81C1135.3 81 1109.7 81 1083.8 81C1058 81 1032 81 1006.2 81C980.3 81 954.7 81 929 81C903.3 81 877.7 81 851.8 81C826 81 800 81 774.2 81C748.3 81 722.7 81 696.8 81C671 81 645 81 619.2 81C593.3 81 567.7 81 542 81C516.3 81 490.7 81 464.8 81C439 81 413 81 387.2 81C361.3 81 335.7 81 309.8 81C284 81 258 81 232.2 81C206.3 81 180.7 81 154.8 81C129 81 103 81 77.2 81C51.3 81 25.7 81 12.8 81L0 81Z" fill="#0a0e0f" stroke-linecap="round" stroke-linejoin="miter"></path></svg>