<svg id="visual" viewBox="0 0 2400 1200" width="2400" height="1200" xmlns="http://www.w3.org/2000/svg" xmlns:xlink="http://www.w3.org/1999/xlink" version="1.1"><path d="M0 920L22.2 941.3C44.3 962.7 88.7 1005.3 133.2 1034.7C177.7 1064 222.3 1080 266.8 1078.7C311.3 1077.3 355.7 1058.7 400 1053.7C444.3 1048.7 488.7 1057.3 533.2 1043.3C577.7 1029.3 622.3 992.7 666.8 1001.8C711.3 1011 755.7 1066 800 1068.5C844.3 1071 888.7 1021 933.2 1012C977.7 1003 1022.3 1035 1066.8 1062.7C1111.3 1090.3 1155.7 1113.7 1200 1118.5C1244.3 1123.3 1288.7 1109.7 1333.2 1086.7C1377.7 1063.7 1422.3 1031.3 1466.8 1006.2C1511.3 981 1555.7 963 1600 950.7C1644.3 938.3 1688.7 931.7 1733.2 954.5C1777.7 977.3 1822.3 1029.7 1866.8 1029.2C1911.3 1028.7 1955.7 975.3 2000 974.2C2044.3 973 2088.7 1024 2133.2 1025C2177.7 1026 2222.3 977 2266.8 973.5C2311.3 970 2355.7 1012 2377.8 1033L2400 1054L2400 1201L2377.8 1201C2355.7 1201 2311.3 1201 2266.8 1201C2222.3 1201 2177.7 1201 2133.2 1201C2088.7 1201 2044.3 1201 2000 1201C1955.7 1201 1911.3 1201 1866.8 1201C1822.3 1201 1777.7 1201 1733.2 1201C1688.7 1201 1644.3 1201 1600 1201C1555.7 1201 1511.3 1201 1466.8 1201C1422.3 1201 1377.7 1201 1333.2 1201C1288.7 1201 1244.3 1201 1200 1201C1155.7 1201 1111.3 1201 1066.8 1201C1022.3 1201 977.7 1201 933.2 1201C888.7 1201 844.3 1201 800 1201C755.7 1201 711.3 1201 666.8 1201C622.3 1201 577.7 1201 533.2 1201C488.7 1201 444.3 1201 400 1201C355.7 1201 311.3 1201 266.8 1201C222.3 1201 177.7 1201 133.2 1201C88.7 1201 44.3 1201 22.2 1201L0 1201Z" fill="#0a0e0f" stroke-linecap="round" stroke-linejoin="miter"></path></svg>