<svg id="visual" viewBox="0 0 2400 1200" width="2400" height="1200" xmlns="http://www.w3.org/2000/svg" xmlns:xlink="http://www.w3.org/1999/xlink" version="1.1"><path d="M0 1106L22.2 1113.2C44.3 1120.3 88.7 1134.7 133.2 1144.5C177.7 1154.3 222.3 1159.7 266.8 1159.2C311.3 1158.7 355.7 1152.3 400 1150.7C444.3 1149 488.7 1152 533.2 1147.3C577.7 1142.7 622.3 1130.3 666.8 1133.3C711.3 1136.3 755.7 1154.7 800 1155.5C844.3 1156.3 888.7 1139.7 933.2 1136.7C977.7 1133.7 1022.3 1144.3 1066.8 1153.5C1111.3 1162.7 1155.7 1170.3 1200 1172C1244.3 1173.7 1288.7 1169.3 1333.2 1161.7C1377.7 1154 1422.3 1143 1466.8 1134.5C1511.3 1126 1555.7 1120 1600 1116C1644.3 1112 1688.7 1110 1733.2 1117.7C1777.7 1125.3 1822.3 1142.7 1866.8 1142.5C1911.3 1142.3 1955.7 1124.7 2000 1124.3C2044.3 1124 2088.7 1141 2133.2 1141.3C2177.7 1141.7 2222.3 1125.3 2266.8 1124.2C2311.3 1123 2355.7 1137 2377.8 1144L2400 1151L2400 1201L2377.8 1201C2355.7 1201 2311.3 1201 2266.8 1201C2222.3 1201 2177.7 1201 2133.2 1201C2088.7 1201 2044.3 1201 2000 1201C1955.7 1201 1911.3 1201 1866.8 1201C1822.3 1201 1777.7 1201 1733.2 1201C1688.7 1201 1644.3 1201 1600 1201C1555.7 1201 1511.3 1201 1466.8 1201C1422.3 1201 1377.7 1201 1333.2 1201C1288.7 1201 1244.3 1201 1200 1201C1155.7 1201 1111.3 1201 1066.8 1201C1022.3 1201 977.7 1201 933.2 1201C888.7 1201 844.3 1201 800 1201C755.7 1201 711.3 1201 666.8 1201C622.3 1201 577.7 1201 533.2 1201C488.7 1201 444.3 1201 400 1201C355.7 1201 311.3 1201 266.8 1201C222.3 1201 177.7 1201 133.2 1201C88.7 1201 44.3 1201 22.2 1201L0 1201Z" fill="#0a0e0f" stroke-linecap="round" stroke-linejoin="miter"></path></svg>