<svg id="visual" viewBox="0 0 2400 80" width="2400" height="80" xmlns="http://www.w3.org/2000/svg" xmlns:xlink="http://www.w3.org/1999/xlink" version="1.1"><path d="M0 10L22.2 12.3C44.3 14.7 88.7 19.3 133.2 28C177.7 36.7 222.3 49.3 266.8 56.7C311.3 64 355.7 66 400 66C444.3 66 488.7 64 533.2 59.7C577.7 55.3 622.3 48.7 666.8 39.3C711.3 30 755.7 18 800 21.5C844.3 25 888.7 44 933.2 45.2C977.7 46.3 1022.3 29.7 1066.8 32.3C1111.3 35 1155.7 57 1200 65.5C1244.3 74 1288.7 69 1333.2 68.3C1377.7 67.7 1422.3 71.3 1466.8 67.7C1511.3 64 1555.7 53 1600 41.8C1644.3 30.7 1688.7 19.3 1733.2 13.2C1777.7 7 1822.3 6 1866.8 14.2C1911.3 22.3 1955.7 39.7 2000 43.2C2044.3 46.7 2088.7 36.3 2133.2 35.2C2177.7 34 2222.3 42 2266.8 43.2C2311.3 44.3 2355.7 38.7 2377.8 35.8L2400 33L2400 81L2377.8 81C2355.7 81 2311.3 81 2266.8 81C2222.3 81 2177.7 81 2133.2 81C2088.7 81 2044.3 81 2000 81C1955.7 81 1911.3 81 1866.8 81C1822.3 81 1777.7 81 1733.2 81C1688.7 81 1644.3 81 1600 81C1555.7 81 1511.3 81 1466.8 81C1422.3 81 1377.7 81 1333.2 81C1288.7 81 1244.3 81 1200 81C1155.7 81 1111.3 81 1066.8 81C1022.3 81 977.7 81 933.2 81C888.7 81 844.3 81 800 81C755.7 81 711.3 81 666.8 81C622.3 81 577.7 81 533.2 81C488.7 81 444.3 81 400 81C355.7 81 311.3 81 266.8 81C222.3 81 177.7 81 133.2 81C88.7 81 44.3 81 22.2 81L0 81Z" fill="#0a0e0f" stroke-linecap="round" stroke-linejoin="miter"></path></svg>